G04*
G04 #@! TF.GenerationSoftware,Altium Limited,Altium Designer,18.0.12 (696)*
G04*
G04 Layer_Color=3150156*
%FSLAX44Y44*%
%MOMM*%
G71*
G01*
G75*
%ADD10C,0.2000*%
%ADD11C,0.2500*%
%ADD16C,0.1000*%
D10*
X1281750Y485000D02*
Y495000D01*
X1187000Y596250D02*
Y605250D01*
X1158000Y596250D02*
X1187000D01*
X1158000D02*
Y605250D01*
X1187000D01*
X1407000Y621250D02*
Y630250D01*
X1378000Y621250D02*
X1407000D01*
X1378000D02*
Y630250D01*
X1407000D01*
X529950Y222300D02*
Y232300D01*
Y207300D02*
Y217300D01*
X513500Y267500D02*
Y277500D01*
Y289000D02*
Y299000D01*
X591500Y253000D02*
Y263000D01*
X748250Y345500D02*
X758250D01*
X750250Y280750D02*
X760250D01*
X752500Y220750D02*
Y230750D01*
Y143750D02*
Y153750D01*
X825000Y139750D02*
X835000D01*
X875000Y138000D02*
X885000D01*
X933550Y71200D02*
Y81200D01*
X935250Y142000D02*
X945250D01*
X958250D02*
X968250D01*
X967750Y230750D02*
Y240750D01*
X939250Y191250D02*
X949250D01*
X968000Y313750D02*
Y323750D01*
X972460Y300750D02*
Y310750D01*
X935000Y354000D02*
X945000D01*
X870000Y353500D02*
X880000D01*
X869750Y391500D02*
X879750D01*
X957000Y585000D02*
X968000D01*
X985500Y590000D02*
Y600000D01*
X980750Y567000D02*
X990750D01*
X1047000Y463950D02*
X1057000D01*
X1024000Y448500D02*
Y458500D01*
X998250Y461250D02*
Y471250D01*
Y477750D02*
Y487750D01*
X1029750Y485500D02*
X1039750D01*
X1013750Y503500D02*
Y513500D01*
X1091750Y474000D02*
Y484000D01*
X1060500Y518250D02*
X1070500D01*
X1075750D02*
X1085750D01*
X1078250Y661000D02*
X1087250D01*
X1078250D02*
Y690000D01*
X1087250D01*
Y661000D02*
Y690000D01*
X1125550Y545884D02*
X1135550D01*
X1147750Y568250D02*
Y578250D01*
X1260750Y628000D02*
Y638000D01*
X1293000Y617750D02*
Y627750D01*
X1269000Y610750D02*
X1279000D01*
X1251050Y605550D02*
X1261050D01*
X1210550Y617300D02*
X1220550D01*
X1231000Y596750D02*
X1241000D01*
X1292000Y640750D02*
Y650750D01*
X1316550Y628050D02*
X1326550D01*
X1339550Y589050D02*
Y599050D01*
X1355550Y589050D02*
Y599050D01*
X1328250Y656000D02*
X1338250D01*
X1250800Y683800D02*
X1260800D01*
X939250Y757500D02*
X949250D01*
X906950Y751800D02*
Y761800D01*
X965700Y740800D02*
Y750800D01*
X1065500Y716250D02*
X1099500D01*
X1270000Y750500D02*
Y760500D01*
X820000Y353250D02*
X830000D01*
X1439250Y653997D02*
Y643000D01*
X1433752D01*
X1431919Y644833D01*
Y652164D01*
X1433752Y653997D01*
X1439250D01*
X1428254Y643000D02*
X1424588D01*
X1426421D01*
Y653997D01*
X1428254Y652164D01*
X1419090D02*
X1417257Y653997D01*
X1413592D01*
X1411759Y652164D01*
Y650331D01*
X1413592Y648498D01*
X1415424D01*
X1413592D01*
X1411759Y646665D01*
Y644833D01*
X1413592Y643000D01*
X1417257D01*
X1419090Y644833D01*
X1165500Y634996D02*
Y624000D01*
X1160002D01*
X1158169Y625833D01*
Y633164D01*
X1160002Y634996D01*
X1165500D01*
X1154504Y624000D02*
X1150838D01*
X1152671D01*
Y634996D01*
X1154504Y633164D01*
X1138009Y624000D02*
X1145340D01*
X1138009Y631331D01*
Y633164D01*
X1139842Y634996D01*
X1143507D01*
X1145340Y633164D01*
X755919Y373664D02*
X757752Y375496D01*
X761417D01*
X763250Y373664D01*
Y366333D01*
X761417Y364500D01*
X757752D01*
X755919Y366333D01*
X752253Y364500D02*
X748588D01*
X750421D01*
Y375496D01*
X752253Y373664D01*
X735759Y375496D02*
X739424Y373664D01*
X743090Y369998D01*
Y366333D01*
X741257Y364500D01*
X737592D01*
X735759Y366333D01*
Y368166D01*
X737592Y369998D01*
X743090D01*
X1292169Y509164D02*
X1294002Y510997D01*
X1297667D01*
X1299500Y509164D01*
Y501833D01*
X1297667Y500000D01*
X1294002D01*
X1292169Y501833D01*
X1281173Y510997D02*
X1288504D01*
Y505498D01*
X1284838Y507331D01*
X1283005D01*
X1281173Y505498D01*
Y501833D01*
X1283005Y500000D01*
X1286671D01*
X1288504Y501833D01*
X1270176Y510997D02*
X1277507D01*
Y505498D01*
X1273842Y507331D01*
X1272009D01*
X1270176Y505498D01*
Y501833D01*
X1272009Y500000D01*
X1275674D01*
X1277507Y501833D01*
X760419Y188914D02*
X762252Y190746D01*
X765917D01*
X767750Y188914D01*
Y181583D01*
X765917Y179750D01*
X762252D01*
X760419Y181583D01*
X756754Y179750D02*
X753088D01*
X754921D01*
Y190746D01*
X756754Y188914D01*
X747590Y181583D02*
X745757Y179750D01*
X742092D01*
X740259Y181583D01*
Y188914D01*
X742092Y190746D01*
X745757D01*
X747590Y188914D01*
Y187081D01*
X745757Y185248D01*
X740259D01*
X786419Y324664D02*
X788252Y326497D01*
X791917D01*
X793750Y324664D01*
Y317333D01*
X791917Y315500D01*
X788252D01*
X786419Y317333D01*
X782754Y315500D02*
X779088D01*
X780921D01*
Y326497D01*
X782754Y324664D01*
X773590D02*
X771757Y326497D01*
X768092D01*
X766259Y324664D01*
Y322831D01*
X768092Y320998D01*
X766259Y319165D01*
Y317333D01*
X768092Y315500D01*
X771757D01*
X773590Y317333D01*
Y319165D01*
X771757Y320998D01*
X773590Y322831D01*
Y324664D01*
X771757Y320998D02*
X768092D01*
X1251919Y238164D02*
X1253752Y239996D01*
X1257417D01*
X1259250Y238164D01*
Y230833D01*
X1257417Y229000D01*
X1253752D01*
X1251919Y230833D01*
X1248254Y229000D02*
X1244588D01*
X1246421D01*
Y239996D01*
X1248254Y238164D01*
X1227664Y208581D02*
X1229496Y206748D01*
Y203083D01*
X1227664Y201250D01*
X1220333D01*
X1218500Y203083D01*
Y206748D01*
X1220333Y208581D01*
X1218500Y219577D02*
Y212246D01*
X1225831Y219577D01*
X1227664D01*
X1229496Y217745D01*
Y214079D01*
X1227664Y212246D01*
X1281419Y235164D02*
X1283252Y236996D01*
X1286917D01*
X1288750Y235164D01*
Y227833D01*
X1286917Y226000D01*
X1283252D01*
X1281419Y227833D01*
X1277754Y235164D02*
X1275921Y236996D01*
X1272255D01*
X1270423Y235164D01*
Y233331D01*
X1272255Y231498D01*
X1274088D01*
X1272255D01*
X1270423Y229666D01*
Y227833D01*
X1272255Y226000D01*
X1275921D01*
X1277754Y227833D01*
X1328669Y359664D02*
X1330502Y361497D01*
X1334167D01*
X1336000Y359664D01*
Y352333D01*
X1334167Y350500D01*
X1330502D01*
X1328669Y352333D01*
X1319505Y350500D02*
Y361497D01*
X1325004Y355998D01*
X1317673D01*
X1359169Y302164D02*
X1361002Y303996D01*
X1364667D01*
X1366500Y302164D01*
Y294833D01*
X1364667Y293000D01*
X1361002D01*
X1359169Y294833D01*
X1348173Y303996D02*
X1355504D01*
Y298498D01*
X1351838Y300331D01*
X1350005D01*
X1348173Y298498D01*
Y294833D01*
X1350005Y293000D01*
X1353671D01*
X1355504Y294833D01*
X1332419Y375664D02*
X1334252Y377496D01*
X1337917D01*
X1339750Y375664D01*
Y368333D01*
X1337917Y366500D01*
X1334252D01*
X1332419Y368333D01*
X1321423Y377496D02*
X1325088Y375664D01*
X1328754Y371998D01*
Y368333D01*
X1326921Y366500D01*
X1323255D01*
X1321423Y368333D01*
Y370165D01*
X1323255Y371998D01*
X1328754D01*
X1376669Y379664D02*
X1378502Y381496D01*
X1382167D01*
X1384000Y379664D01*
Y372333D01*
X1382167Y370500D01*
X1378502D01*
X1376669Y372333D01*
X1373004Y381496D02*
X1365673D01*
Y379664D01*
X1373004Y372333D01*
Y370500D01*
X1269169Y134414D02*
X1271002Y136247D01*
X1274667D01*
X1276500Y134414D01*
Y127083D01*
X1274667Y125250D01*
X1271002D01*
X1269169Y127083D01*
X1265503D02*
X1263671Y125250D01*
X1260005D01*
X1258173Y127083D01*
Y134414D01*
X1260005Y136247D01*
X1263671D01*
X1265503Y134414D01*
Y132581D01*
X1263671Y130748D01*
X1258173D01*
X1243169Y133414D02*
X1245002Y135246D01*
X1248667D01*
X1250500Y133414D01*
Y126083D01*
X1248667Y124250D01*
X1245002D01*
X1243169Y126083D01*
X1239503Y124250D02*
X1235838D01*
X1237671D01*
Y135246D01*
X1239503Y133414D01*
X1230340D02*
X1228507Y135246D01*
X1224842D01*
X1223009Y133414D01*
Y126083D01*
X1224842Y124250D01*
X1228507D01*
X1230340Y126083D01*
Y133414D01*
X1350169Y215914D02*
X1352002Y217747D01*
X1355667D01*
X1357500Y215914D01*
Y208583D01*
X1355667Y206750D01*
X1352002D01*
X1350169Y208583D01*
X1346504Y206750D02*
X1342838D01*
X1344671D01*
Y217747D01*
X1346504Y215914D01*
X1337340Y206750D02*
X1333674D01*
X1335507D01*
Y217747D01*
X1337340Y215914D01*
X1307419Y159914D02*
X1309252Y161747D01*
X1312917D01*
X1314750Y159914D01*
Y152583D01*
X1312917Y150750D01*
X1309252D01*
X1307419Y152583D01*
X1303754Y150750D02*
X1300088D01*
X1301921D01*
Y161747D01*
X1303754Y159914D01*
X1287259Y150750D02*
X1294590D01*
X1287259Y158081D01*
Y159914D01*
X1289092Y161747D01*
X1292757D01*
X1294590Y159914D01*
X1096169Y209914D02*
X1098002Y211747D01*
X1101667D01*
X1103500Y209914D01*
Y202583D01*
X1101667Y200750D01*
X1098002D01*
X1096169Y202583D01*
X1092504Y200750D02*
X1088838D01*
X1090671D01*
Y211747D01*
X1092504Y209914D01*
X1083340D02*
X1081507Y211747D01*
X1077842D01*
X1076009Y209914D01*
Y208081D01*
X1077842Y206248D01*
X1079674D01*
X1077842D01*
X1076009Y204415D01*
Y202583D01*
X1077842Y200750D01*
X1081507D01*
X1083340Y202583D01*
X1149914Y214081D02*
X1151746Y212248D01*
Y208583D01*
X1149914Y206750D01*
X1142583D01*
X1140750Y208583D01*
Y212248D01*
X1142583Y214081D01*
X1140750Y217747D02*
Y221412D01*
Y219579D01*
X1151746D01*
X1149914Y217747D01*
X1140750Y232408D02*
X1151746D01*
X1146248Y226910D01*
Y234241D01*
X1173419Y247414D02*
X1175252Y249247D01*
X1178917D01*
X1180750Y247414D01*
Y240083D01*
X1178917Y238250D01*
X1175252D01*
X1173419Y240083D01*
X1169753Y238250D02*
X1166088D01*
X1167921D01*
Y249247D01*
X1169753Y247414D01*
X1153259Y249247D02*
X1160590D01*
Y243748D01*
X1156924Y245581D01*
X1155092D01*
X1153259Y243748D01*
Y240083D01*
X1155092Y238250D01*
X1158757D01*
X1160590Y240083D01*
X1188414Y125331D02*
X1190246Y123498D01*
Y119833D01*
X1188414Y118000D01*
X1181083D01*
X1179250Y119833D01*
Y123498D01*
X1181083Y125331D01*
X1179250Y136327D02*
Y128996D01*
X1186581Y136327D01*
X1188414D01*
X1190246Y134495D01*
Y130829D01*
X1188414Y128996D01*
Y139993D02*
X1190246Y141826D01*
Y145491D01*
X1188414Y147324D01*
X1181083D01*
X1179250Y145491D01*
Y141826D01*
X1181083Y139993D01*
X1188414D01*
X1170669Y111914D02*
X1172502Y113747D01*
X1176167D01*
X1178000Y111914D01*
Y104583D01*
X1176167Y102750D01*
X1172502D01*
X1170669Y104583D01*
X1159673Y102750D02*
X1167004D01*
X1159673Y110081D01*
Y111914D01*
X1161505Y113747D01*
X1165171D01*
X1167004Y111914D01*
X1156007Y102750D02*
X1152342D01*
X1154174D01*
Y113747D01*
X1156007Y111914D01*
X1131164Y128831D02*
X1132996Y126998D01*
Y123333D01*
X1131164Y121500D01*
X1123833D01*
X1122000Y123333D01*
Y126998D01*
X1123833Y128831D01*
X1122000Y139827D02*
Y132497D01*
X1129331Y139827D01*
X1131164D01*
X1132996Y137995D01*
Y134329D01*
X1131164Y132497D01*
X1122000Y150824D02*
Y143493D01*
X1129331Y150824D01*
X1131164D01*
X1132996Y148991D01*
Y145326D01*
X1131164Y143493D01*
X1215669Y145414D02*
X1217502Y147246D01*
X1221167D01*
X1223000Y145414D01*
Y138083D01*
X1221167Y136250D01*
X1217502D01*
X1215669Y138083D01*
X1204673Y136250D02*
X1212003D01*
X1204673Y143581D01*
Y145414D01*
X1206505Y147246D01*
X1210171D01*
X1212003Y145414D01*
X1201007D02*
X1199174Y147246D01*
X1195509D01*
X1193676Y145414D01*
Y143581D01*
X1195509Y141748D01*
X1197342D01*
X1195509D01*
X1193676Y139916D01*
Y138083D01*
X1195509Y136250D01*
X1199174D01*
X1201007Y138083D01*
X1299419Y663664D02*
X1301252Y665497D01*
X1304917D01*
X1306750Y663664D01*
Y656333D01*
X1304917Y654500D01*
X1301252D01*
X1299419Y656333D01*
X1288423Y654500D02*
X1295753D01*
X1288423Y661831D01*
Y663664D01*
X1290255Y665497D01*
X1293921D01*
X1295753Y663664D01*
X1277426Y665497D02*
X1284757D01*
Y659998D01*
X1281092Y661831D01*
X1279259D01*
X1277426Y659998D01*
Y656333D01*
X1279259Y654500D01*
X1282924D01*
X1284757Y656333D01*
X1246419Y707914D02*
X1248252Y709746D01*
X1251917D01*
X1253750Y707914D01*
Y700583D01*
X1251917Y698750D01*
X1248252D01*
X1246419Y700583D01*
X1235423Y698750D02*
X1242754D01*
X1235423Y706081D01*
Y707914D01*
X1237255Y709746D01*
X1240921D01*
X1242754Y707914D01*
X1224426Y709746D02*
X1228092Y707914D01*
X1231757Y704248D01*
Y700583D01*
X1229924Y698750D01*
X1226259D01*
X1224426Y700583D01*
Y702415D01*
X1226259Y704248D01*
X1231757D01*
X1133919Y288164D02*
X1135752Y289996D01*
X1139417D01*
X1141250Y288164D01*
Y280833D01*
X1139417Y279000D01*
X1135752D01*
X1133919Y280833D01*
X1122923Y279000D02*
X1130254D01*
X1122923Y286331D01*
Y288164D01*
X1124755Y289996D01*
X1128421D01*
X1130254Y288164D01*
X1119257Y289996D02*
X1111926D01*
Y288164D01*
X1119257Y280833D01*
Y279000D01*
X1136919Y310414D02*
X1138752Y312246D01*
X1142417D01*
X1144250Y310414D01*
Y303083D01*
X1142417Y301250D01*
X1138752D01*
X1136919Y303083D01*
X1125923Y301250D02*
X1133253D01*
X1125923Y308581D01*
Y310414D01*
X1127755Y312246D01*
X1131421D01*
X1133253Y310414D01*
X1122257D02*
X1120424Y312246D01*
X1116759D01*
X1114926Y310414D01*
Y308581D01*
X1116759Y306748D01*
X1114926Y304916D01*
Y303083D01*
X1116759Y301250D01*
X1120424D01*
X1122257Y303083D01*
Y304916D01*
X1120424Y306748D01*
X1122257Y308581D01*
Y310414D01*
X1120424Y306748D02*
X1116759D01*
X1128669Y268914D02*
X1130502Y270746D01*
X1134167D01*
X1136000Y268914D01*
Y261583D01*
X1134167Y259750D01*
X1130502D01*
X1128669Y261583D01*
X1117673Y259750D02*
X1125004D01*
X1117673Y267081D01*
Y268914D01*
X1119505Y270746D01*
X1123171D01*
X1125004Y268914D01*
X1114007Y261583D02*
X1112174Y259750D01*
X1108509D01*
X1106676Y261583D01*
Y268914D01*
X1108509Y270746D01*
X1112174D01*
X1114007Y268914D01*
Y267081D01*
X1112174Y265248D01*
X1106676D01*
X1347419Y685664D02*
X1349252Y687496D01*
X1352917D01*
X1354750Y685664D01*
Y678333D01*
X1352917Y676500D01*
X1349252D01*
X1347419Y678333D01*
X1343754Y685664D02*
X1341921Y687496D01*
X1338255D01*
X1336423Y685664D01*
Y683831D01*
X1338255Y681998D01*
X1340088D01*
X1338255D01*
X1336423Y680165D01*
Y678333D01*
X1338255Y676500D01*
X1341921D01*
X1343754Y678333D01*
X1332757Y676500D02*
X1329092D01*
X1330924D01*
Y687496D01*
X1332757Y685664D01*
X1217969Y298414D02*
X1219802Y300247D01*
X1223467D01*
X1225300Y298414D01*
Y291083D01*
X1223467Y289250D01*
X1219802D01*
X1217969Y291083D01*
X1214304Y298414D02*
X1212471Y300247D01*
X1208805D01*
X1206973Y298414D01*
Y296581D01*
X1208805Y294748D01*
X1210638D01*
X1208805D01*
X1206973Y292915D01*
Y291083D01*
X1208805Y289250D01*
X1212471D01*
X1214304Y291083D01*
X1195976Y289250D02*
X1203307D01*
X1195976Y296581D01*
Y298414D01*
X1197809Y300247D01*
X1201475D01*
X1203307Y298414D01*
X1219169Y319164D02*
X1221002Y320997D01*
X1224667D01*
X1226500Y319164D01*
Y311833D01*
X1224667Y310000D01*
X1221002D01*
X1219169Y311833D01*
X1215503Y319164D02*
X1213671Y320997D01*
X1210005D01*
X1208173Y319164D01*
Y317331D01*
X1210005Y315498D01*
X1211838D01*
X1210005D01*
X1208173Y313666D01*
Y311833D01*
X1210005Y310000D01*
X1213671D01*
X1215503Y311833D01*
X1204507Y319164D02*
X1202674Y320997D01*
X1199009D01*
X1197176Y319164D01*
Y317331D01*
X1199009Y315498D01*
X1200842D01*
X1199009D01*
X1197176Y313666D01*
Y311833D01*
X1199009Y310000D01*
X1202674D01*
X1204507Y311833D01*
X1278169Y356664D02*
X1280002Y358497D01*
X1283667D01*
X1285500Y356664D01*
Y349333D01*
X1283667Y347500D01*
X1280002D01*
X1278169Y349333D01*
X1274503Y356664D02*
X1272671Y358497D01*
X1269005D01*
X1267173Y356664D01*
Y354831D01*
X1269005Y352998D01*
X1270838D01*
X1269005D01*
X1267173Y351166D01*
Y349333D01*
X1269005Y347500D01*
X1272671D01*
X1274503Y349333D01*
X1258009Y347500D02*
Y358497D01*
X1263507Y352998D01*
X1256176D01*
X1217669Y358164D02*
X1219502Y359996D01*
X1223167D01*
X1225000Y358164D01*
Y350833D01*
X1223167Y349000D01*
X1219502D01*
X1217669Y350833D01*
X1214004Y358164D02*
X1212171Y359996D01*
X1208505D01*
X1206673Y358164D01*
Y356331D01*
X1208505Y354498D01*
X1210338D01*
X1208505D01*
X1206673Y352665D01*
Y350833D01*
X1208505Y349000D01*
X1212171D01*
X1214004Y350833D01*
X1195676Y359996D02*
X1203007D01*
Y354498D01*
X1199342Y356331D01*
X1197509D01*
X1195676Y354498D01*
Y350833D01*
X1197509Y349000D01*
X1201174D01*
X1203007Y350833D01*
X1221419Y643164D02*
X1223252Y644996D01*
X1226917D01*
X1228750Y643164D01*
Y635833D01*
X1226917Y634000D01*
X1223252D01*
X1221419Y635833D01*
X1217754Y643164D02*
X1215921Y644996D01*
X1212255D01*
X1210423Y643164D01*
Y641331D01*
X1212255Y639498D01*
X1214088D01*
X1212255D01*
X1210423Y637665D01*
Y635833D01*
X1212255Y634000D01*
X1215921D01*
X1217754Y635833D01*
X1206757Y644996D02*
X1199426D01*
Y643164D01*
X1206757Y635833D01*
Y634000D01*
X1175547Y453410D02*
X1177380Y455242D01*
X1181045D01*
X1182878Y453410D01*
Y446079D01*
X1181045Y444246D01*
X1177380D01*
X1175547Y446079D01*
X1171882Y453410D02*
X1170049Y455242D01*
X1166383D01*
X1164551Y453410D01*
Y451577D01*
X1166383Y449744D01*
X1168216D01*
X1166383D01*
X1164551Y447911D01*
Y446079D01*
X1166383Y444246D01*
X1170049D01*
X1171882Y446079D01*
X1160885D02*
X1159052Y444246D01*
X1155387D01*
X1153554Y446079D01*
Y453410D01*
X1155387Y455242D01*
X1159052D01*
X1160885Y453410D01*
Y451577D01*
X1159052Y449744D01*
X1153554D01*
X1276669Y443164D02*
X1278502Y444996D01*
X1282167D01*
X1284000Y443164D01*
Y435833D01*
X1282167Y434000D01*
X1278502D01*
X1276669Y435833D01*
X1267505Y434000D02*
Y444996D01*
X1273004Y439498D01*
X1265673D01*
X1262007Y434000D02*
X1258342D01*
X1260174D01*
Y444996D01*
X1262007Y443164D01*
X1286419Y464164D02*
X1288252Y465997D01*
X1291917D01*
X1293750Y464164D01*
Y456833D01*
X1291917Y455000D01*
X1288252D01*
X1286419Y456833D01*
X1277255Y455000D02*
Y465997D01*
X1282753Y460498D01*
X1275423D01*
X1264426Y455000D02*
X1271757D01*
X1264426Y462331D01*
Y464164D01*
X1266259Y465997D01*
X1269924D01*
X1271757Y464164D01*
X1376419Y420164D02*
X1378252Y421996D01*
X1381917D01*
X1383750Y420164D01*
Y412833D01*
X1381917Y411000D01*
X1378252D01*
X1376419Y412833D01*
X1367255Y411000D02*
Y421996D01*
X1372753Y416498D01*
X1365423D01*
X1361757Y420164D02*
X1359924Y421996D01*
X1356259D01*
X1354426Y420164D01*
Y418331D01*
X1356259Y416498D01*
X1358092D01*
X1356259D01*
X1354426Y414665D01*
Y412833D01*
X1356259Y411000D01*
X1359924D01*
X1361757Y412833D01*
X1332419Y397164D02*
X1334252Y398997D01*
X1337917D01*
X1339750Y397164D01*
Y389833D01*
X1337917Y388000D01*
X1334252D01*
X1332419Y389833D01*
X1323255Y388000D02*
Y398997D01*
X1328754Y393498D01*
X1321423D01*
X1312259Y388000D02*
Y398997D01*
X1317757Y393498D01*
X1310426D01*
X1383169Y598414D02*
X1385002Y600246D01*
X1388667D01*
X1390500Y598414D01*
Y591083D01*
X1388667Y589250D01*
X1385002D01*
X1383169Y591083D01*
X1374005Y589250D02*
Y600246D01*
X1379503Y594748D01*
X1372173D01*
X1361176Y600246D02*
X1368507D01*
Y594748D01*
X1364842Y596581D01*
X1363009D01*
X1361176Y594748D01*
Y591083D01*
X1363009Y589250D01*
X1366674D01*
X1368507Y591083D01*
X1206419Y384914D02*
X1208252Y386746D01*
X1211917D01*
X1213750Y384914D01*
Y377583D01*
X1211917Y375750D01*
X1208252D01*
X1206419Y377583D01*
X1197255Y375750D02*
Y386746D01*
X1202754Y381248D01*
X1195423D01*
X1184426Y386746D02*
X1188092Y384914D01*
X1191757Y381248D01*
Y377583D01*
X1189924Y375750D01*
X1186259D01*
X1184426Y377583D01*
Y379416D01*
X1186259Y381248D01*
X1191757D01*
X1253919Y654414D02*
X1255752Y656246D01*
X1259417D01*
X1261250Y654414D01*
Y647083D01*
X1259417Y645250D01*
X1255752D01*
X1253919Y647083D01*
X1244755Y645250D02*
Y656246D01*
X1250254Y650748D01*
X1242923D01*
X1239257Y656246D02*
X1231926D01*
Y654414D01*
X1239257Y647083D01*
Y645250D01*
X1262919Y586914D02*
X1264752Y588746D01*
X1268417D01*
X1270250Y586914D01*
Y579583D01*
X1268417Y577750D01*
X1264752D01*
X1262919Y579583D01*
X1253755Y577750D02*
Y588746D01*
X1259253Y583248D01*
X1251923D01*
X1248257Y586914D02*
X1246424Y588746D01*
X1242759D01*
X1240926Y586914D01*
Y585081D01*
X1242759Y583248D01*
X1240926Y581415D01*
Y579583D01*
X1242759Y577750D01*
X1246424D01*
X1248257Y579583D01*
Y581415D01*
X1246424Y583248D01*
X1248257Y585081D01*
Y586914D01*
X1246424Y583248D02*
X1242759D01*
X1303669Y637914D02*
X1305502Y639746D01*
X1309167D01*
X1311000Y637914D01*
Y630583D01*
X1309167Y628750D01*
X1305502D01*
X1303669Y630583D01*
X1294505Y628750D02*
Y639746D01*
X1300004Y634248D01*
X1292673D01*
X1289007Y630583D02*
X1287174Y628750D01*
X1283509D01*
X1281676Y630583D01*
Y637914D01*
X1283509Y639746D01*
X1287174D01*
X1289007Y637914D01*
Y636081D01*
X1287174Y634248D01*
X1281676D01*
X1315836Y667919D02*
X1314003Y669752D01*
Y673417D01*
X1315836Y675250D01*
X1323167D01*
X1325000Y673417D01*
Y669752D01*
X1323167Y667919D01*
X1314003Y656923D02*
Y664254D01*
X1319502D01*
X1317669Y660588D01*
Y658755D01*
X1319502Y656923D01*
X1323167D01*
X1325000Y658755D01*
Y662421D01*
X1323167Y664254D01*
X1315836Y653257D02*
X1314003Y651424D01*
Y647759D01*
X1315836Y645926D01*
X1323167D01*
X1325000Y647759D01*
Y651424D01*
X1323167Y653257D01*
X1315836D01*
X1223169Y581414D02*
X1225002Y583246D01*
X1228667D01*
X1230500Y581414D01*
Y574083D01*
X1228667Y572250D01*
X1225002D01*
X1223169Y574083D01*
X1212173Y583246D02*
X1219504D01*
Y577748D01*
X1215838Y579581D01*
X1214005D01*
X1212173Y577748D01*
Y574083D01*
X1214005Y572250D01*
X1217671D01*
X1219504Y574083D01*
X1208507Y572250D02*
X1204842D01*
X1206674D01*
Y583246D01*
X1208507Y581414D01*
X1302419Y613414D02*
X1304252Y615246D01*
X1307917D01*
X1309750Y613414D01*
Y606083D01*
X1307917Y604250D01*
X1304252D01*
X1302419Y606083D01*
X1291423Y615246D02*
X1298754D01*
Y609748D01*
X1295088Y611581D01*
X1293255D01*
X1291423Y609748D01*
Y606083D01*
X1293255Y604250D01*
X1296921D01*
X1298754Y606083D01*
X1280426Y604250D02*
X1287757D01*
X1280426Y611581D01*
Y613414D01*
X1282259Y615246D01*
X1285924D01*
X1287757Y613414D01*
X1281419Y574164D02*
X1283252Y575997D01*
X1286917D01*
X1288750Y574164D01*
Y566833D01*
X1286917Y565000D01*
X1283252D01*
X1281419Y566833D01*
X1270423Y575997D02*
X1277754D01*
Y570498D01*
X1274088Y572331D01*
X1272255D01*
X1270423Y570498D01*
Y566833D01*
X1272255Y565000D01*
X1275921D01*
X1277754Y566833D01*
X1261259Y565000D02*
Y575997D01*
X1266757Y570498D01*
X1259426D01*
X547169Y248164D02*
X549002Y249996D01*
X552667D01*
X554500Y248164D01*
Y240833D01*
X552667Y239000D01*
X549002D01*
X547169Y240833D01*
X536173Y249996D02*
X543504D01*
Y244498D01*
X539838Y246331D01*
X538005D01*
X536173Y244498D01*
Y240833D01*
X538005Y239000D01*
X541671D01*
X543504Y240833D01*
X532507Y248164D02*
X530674Y249996D01*
X527009D01*
X525176Y248164D01*
Y246331D01*
X527009Y244498D01*
X525176Y242666D01*
Y240833D01*
X527009Y239000D01*
X530674D01*
X532507Y240833D01*
Y242666D01*
X530674Y244498D01*
X532507Y246331D01*
Y248164D01*
X530674Y244498D02*
X527009D01*
X573419Y226664D02*
X575252Y228496D01*
X578917D01*
X580750Y226664D01*
Y219333D01*
X578917Y217500D01*
X575252D01*
X573419Y219333D01*
X562423Y228496D02*
X569753D01*
Y222998D01*
X566088Y224831D01*
X564255D01*
X562423Y222998D01*
Y219333D01*
X564255Y217500D01*
X567921D01*
X569753Y219333D01*
X558757D02*
X556924Y217500D01*
X553259D01*
X551426Y219333D01*
Y226664D01*
X553259Y228496D01*
X556924D01*
X558757Y226664D01*
Y224831D01*
X556924Y222998D01*
X551426D01*
X519419Y319164D02*
X521252Y320997D01*
X524917D01*
X526750Y319164D01*
Y311833D01*
X524917Y310000D01*
X521252D01*
X519419Y311833D01*
X508423Y320997D02*
X512088Y319164D01*
X515754Y315498D01*
Y311833D01*
X513921Y310000D01*
X510255D01*
X508423Y311833D01*
Y313666D01*
X510255Y315498D01*
X515754D01*
X504757Y319164D02*
X502924Y320997D01*
X499259D01*
X497426Y319164D01*
Y311833D01*
X499259Y310000D01*
X502924D01*
X504757Y311833D01*
Y319164D01*
X552419Y277414D02*
X554252Y279247D01*
X557917D01*
X559750Y277414D01*
Y270083D01*
X557917Y268250D01*
X554252D01*
X552419Y270083D01*
X541423Y279247D02*
X545088Y277414D01*
X548754Y273748D01*
Y270083D01*
X546921Y268250D01*
X543255D01*
X541423Y270083D01*
Y271915D01*
X543255Y273748D01*
X548754D01*
X537757Y268250D02*
X534092D01*
X535924D01*
Y279247D01*
X537757Y277414D01*
X576419Y192164D02*
X578252Y193997D01*
X581917D01*
X583750Y192164D01*
Y184833D01*
X581917Y183000D01*
X578252D01*
X576419Y184833D01*
X565423Y193997D02*
X569088Y192164D01*
X572753Y188498D01*
Y184833D01*
X570921Y183000D01*
X567255D01*
X565423Y184833D01*
Y186665D01*
X567255Y188498D01*
X572753D01*
X554426Y183000D02*
X561757D01*
X554426Y190331D01*
Y192164D01*
X556259Y193997D01*
X559924D01*
X561757Y192164D01*
X558419Y317914D02*
X560252Y319746D01*
X563917D01*
X565750Y317914D01*
Y310583D01*
X563917Y308750D01*
X560252D01*
X558419Y310583D01*
X547423Y319746D02*
X551088Y317914D01*
X554754Y314248D01*
Y310583D01*
X552921Y308750D01*
X549255D01*
X547423Y310583D01*
Y312416D01*
X549255Y314248D01*
X554754D01*
X536426Y319746D02*
X543757D01*
Y314248D01*
X540092Y316081D01*
X538259D01*
X536426Y314248D01*
Y310583D01*
X538259Y308750D01*
X541924D01*
X543757Y310583D01*
X598919Y277914D02*
X600752Y279746D01*
X604417D01*
X606250Y277914D01*
Y270583D01*
X604417Y268750D01*
X600752D01*
X598919Y270583D01*
X587923Y279746D02*
X591588Y277914D01*
X595253Y274248D01*
Y270583D01*
X593421Y268750D01*
X589755D01*
X587923Y270583D01*
Y272416D01*
X589755Y274248D01*
X595253D01*
X576926Y279746D02*
X580592Y277914D01*
X584257Y274248D01*
Y270583D01*
X582424Y268750D01*
X578759D01*
X576926Y270583D01*
Y272416D01*
X578759Y274248D01*
X584257D01*
X908419Y743914D02*
X910252Y745747D01*
X913917D01*
X915750Y743914D01*
Y736583D01*
X913917Y734750D01*
X910252D01*
X908419Y736583D01*
X897423Y745747D02*
X901088Y743914D01*
X904753Y740248D01*
Y736583D01*
X902921Y734750D01*
X899255D01*
X897423Y736583D01*
Y738416D01*
X899255Y740248D01*
X904753D01*
X893757Y745747D02*
X886426D01*
Y743914D01*
X893757Y736583D01*
Y734750D01*
X948669Y787164D02*
X950502Y788997D01*
X954167D01*
X956000Y787164D01*
Y779833D01*
X954167Y778000D01*
X950502D01*
X948669Y779833D01*
X937673Y788997D02*
X941338Y787164D01*
X945004Y783498D01*
Y779833D01*
X943171Y778000D01*
X939505D01*
X937673Y779833D01*
Y781665D01*
X939505Y783498D01*
X945004D01*
X934007Y787164D02*
X932174Y788997D01*
X928509D01*
X926676Y787164D01*
Y785331D01*
X928509Y783498D01*
X926676Y781665D01*
Y779833D01*
X928509Y778000D01*
X932174D01*
X934007Y779833D01*
Y781665D01*
X932174Y783498D01*
X934007Y785331D01*
Y787164D01*
X932174Y783498D02*
X928509D01*
X1275669Y775414D02*
X1277502Y777246D01*
X1281167D01*
X1283000Y775414D01*
Y768083D01*
X1281167Y766250D01*
X1277502D01*
X1275669Y768083D01*
X1264673Y777246D02*
X1268338Y775414D01*
X1272004Y771748D01*
Y768083D01*
X1270171Y766250D01*
X1266505D01*
X1264673Y768083D01*
Y769915D01*
X1266505Y771748D01*
X1272004D01*
X1261007Y768083D02*
X1259174Y766250D01*
X1255509D01*
X1253676Y768083D01*
Y775414D01*
X1255509Y777246D01*
X1259174D01*
X1261007Y775414D01*
Y773581D01*
X1259174Y771748D01*
X1253676D01*
X1017169Y564914D02*
X1019002Y566746D01*
X1022667D01*
X1024500Y564914D01*
Y557583D01*
X1022667Y555750D01*
X1019002D01*
X1017169Y557583D01*
X1013504Y566746D02*
X1006173D01*
Y564914D01*
X1013504Y557583D01*
Y555750D01*
X1002507D02*
X998842D01*
X1000674D01*
Y566746D01*
X1002507Y564914D01*
X1160419Y549414D02*
X1162252Y551246D01*
X1165917D01*
X1167750Y549414D01*
Y542083D01*
X1165917Y540250D01*
X1162252D01*
X1160419Y542083D01*
X1156753Y551246D02*
X1149423D01*
Y549414D01*
X1156753Y542083D01*
Y540250D01*
X1145757Y549414D02*
X1143924Y551246D01*
X1140259D01*
X1138426Y549414D01*
Y547581D01*
X1140259Y545748D01*
X1142092D01*
X1140259D01*
X1138426Y543915D01*
Y542083D01*
X1140259Y540250D01*
X1143924D01*
X1145757Y542083D01*
X979419Y734414D02*
X981252Y736246D01*
X984917D01*
X986750Y734414D01*
Y727083D01*
X984917Y725250D01*
X981252D01*
X979419Y727083D01*
X975753Y736246D02*
X968423D01*
Y734414D01*
X975753Y727083D01*
Y725250D01*
X959259D02*
Y736246D01*
X964757Y730748D01*
X957426D01*
X1004919Y616664D02*
X1006752Y618497D01*
X1010417D01*
X1012250Y616664D01*
Y609333D01*
X1010417Y607500D01*
X1006752D01*
X1004919Y609333D01*
X1001254Y618497D02*
X993923D01*
Y616664D01*
X1001254Y609333D01*
Y607500D01*
X982926Y618497D02*
X986592Y616664D01*
X990257Y612998D01*
Y609333D01*
X988424Y607500D01*
X984759D01*
X982926Y609333D01*
Y611166D01*
X984759Y612998D01*
X990257D01*
X989419Y513664D02*
X991252Y515496D01*
X994917D01*
X996750Y513664D01*
Y506333D01*
X994917Y504500D01*
X991252D01*
X989419Y506333D01*
X985754Y515496D02*
X978423D01*
Y513664D01*
X985754Y506333D01*
Y504500D01*
X974757Y515496D02*
X967426D01*
Y513664D01*
X974757Y506333D01*
Y504500D01*
X1112919Y526164D02*
X1114752Y527996D01*
X1118417D01*
X1120250Y526164D01*
Y518833D01*
X1118417Y517000D01*
X1114752D01*
X1112919Y518833D01*
X1109254Y527996D02*
X1101923D01*
Y526164D01*
X1109254Y518833D01*
Y517000D01*
X1098257Y526164D02*
X1096424Y527996D01*
X1092759D01*
X1090926Y526164D01*
Y524331D01*
X1092759Y522498D01*
X1090926Y520666D01*
Y518833D01*
X1092759Y517000D01*
X1096424D01*
X1098257Y518833D01*
Y520666D01*
X1096424Y522498D01*
X1098257Y524331D01*
Y526164D01*
X1096424Y522498D02*
X1092759D01*
X1087669Y585664D02*
X1089502Y587496D01*
X1093167D01*
X1095000Y585664D01*
Y578333D01*
X1093167Y576500D01*
X1089502D01*
X1087669Y578333D01*
X1084004Y587496D02*
X1076673D01*
Y585664D01*
X1084004Y578333D01*
Y576500D01*
X1073007Y578333D02*
X1071174Y576500D01*
X1067509D01*
X1065676Y578333D01*
Y585664D01*
X1067509Y587496D01*
X1071174D01*
X1073007Y585664D01*
Y583831D01*
X1071174Y581998D01*
X1065676D01*
X1042419Y442664D02*
X1044252Y444496D01*
X1047917D01*
X1049750Y442664D01*
Y435333D01*
X1047917Y433500D01*
X1044252D01*
X1042419Y435333D01*
X1038754Y442664D02*
X1036921Y444496D01*
X1033255D01*
X1031423Y442664D01*
Y440831D01*
X1033255Y438998D01*
X1031423Y437165D01*
Y435333D01*
X1033255Y433500D01*
X1036921D01*
X1038754Y435333D01*
Y437165D01*
X1036921Y438998D01*
X1038754Y440831D01*
Y442664D01*
X1036921Y438998D02*
X1033255D01*
X1027757Y442664D02*
X1025924Y444496D01*
X1022259D01*
X1020426Y442664D01*
Y435333D01*
X1022259Y433500D01*
X1025924D01*
X1027757Y435333D01*
Y442664D01*
X1017419Y499414D02*
X1019252Y501246D01*
X1022917D01*
X1024750Y499414D01*
Y492083D01*
X1022917Y490250D01*
X1019252D01*
X1017419Y492083D01*
X1013754Y499414D02*
X1011921Y501246D01*
X1008255D01*
X1006423Y499414D01*
Y497581D01*
X1008255Y495748D01*
X1006423Y493915D01*
Y492083D01*
X1008255Y490250D01*
X1011921D01*
X1013754Y492083D01*
Y493915D01*
X1011921Y495748D01*
X1013754Y497581D01*
Y499414D01*
X1011921Y495748D02*
X1008255D01*
X1002757Y490250D02*
X999092D01*
X1000924D01*
Y501246D01*
X1002757Y499414D01*
X1143419Y592914D02*
X1145252Y594747D01*
X1148917D01*
X1150750Y592914D01*
Y585583D01*
X1148917Y583750D01*
X1145252D01*
X1143419Y585583D01*
X1139753Y592914D02*
X1137921Y594747D01*
X1134255D01*
X1132423Y592914D01*
Y591081D01*
X1134255Y589248D01*
X1132423Y587416D01*
Y585583D01*
X1134255Y583750D01*
X1137921D01*
X1139753Y585583D01*
Y587416D01*
X1137921Y589248D01*
X1139753Y591081D01*
Y592914D01*
X1137921Y589248D02*
X1134255D01*
X1121426Y583750D02*
X1128757D01*
X1121426Y591081D01*
Y592914D01*
X1123259Y594747D01*
X1126924D01*
X1128757Y592914D01*
X988669Y456664D02*
X990502Y458496D01*
X994167D01*
X996000Y456664D01*
Y449333D01*
X994167Y447500D01*
X990502D01*
X988669Y449333D01*
X985004Y456664D02*
X983171Y458496D01*
X979505D01*
X977673Y456664D01*
Y454831D01*
X979505Y452998D01*
X977673Y451166D01*
Y449333D01*
X979505Y447500D01*
X983171D01*
X985004Y449333D01*
Y451166D01*
X983171Y452998D01*
X985004Y454831D01*
Y456664D01*
X983171Y452998D02*
X979505D01*
X974007Y456664D02*
X972174Y458496D01*
X968509D01*
X966676Y456664D01*
Y454831D01*
X968509Y452998D01*
X970342D01*
X968509D01*
X966676Y451166D01*
Y449333D01*
X968509Y447500D01*
X972174D01*
X974007Y449333D01*
X1129419Y480414D02*
X1131252Y482247D01*
X1134917D01*
X1136750Y480414D01*
Y473083D01*
X1134917Y471250D01*
X1131252D01*
X1129419Y473083D01*
X1125754Y480414D02*
X1123921Y482247D01*
X1120255D01*
X1118423Y480414D01*
Y478581D01*
X1120255Y476748D01*
X1118423Y474916D01*
Y473083D01*
X1120255Y471250D01*
X1123921D01*
X1125754Y473083D01*
Y474916D01*
X1123921Y476748D01*
X1125754Y478581D01*
Y480414D01*
X1123921Y476748D02*
X1120255D01*
X1109259Y471250D02*
Y482247D01*
X1114757Y476748D01*
X1107426D01*
X1073169Y546164D02*
X1075002Y547996D01*
X1078667D01*
X1080500Y546164D01*
Y538833D01*
X1078667Y537000D01*
X1075002D01*
X1073169Y538833D01*
X1069504Y546164D02*
X1067671Y547996D01*
X1064005D01*
X1062173Y546164D01*
Y544331D01*
X1064005Y542498D01*
X1062173Y540666D01*
Y538833D01*
X1064005Y537000D01*
X1067671D01*
X1069504Y538833D01*
Y540666D01*
X1067671Y542498D01*
X1069504Y544331D01*
Y546164D01*
X1067671Y542498D02*
X1064005D01*
X1051176Y547996D02*
X1058507D01*
Y542498D01*
X1054842Y544331D01*
X1053009D01*
X1051176Y542498D01*
Y538833D01*
X1053009Y537000D01*
X1056674D01*
X1058507Y538833D01*
X1116669Y453914D02*
X1118502Y455746D01*
X1122167D01*
X1124000Y453914D01*
Y446583D01*
X1122167Y444750D01*
X1118502D01*
X1116669Y446583D01*
X1113003Y453914D02*
X1111171Y455746D01*
X1107505D01*
X1105673Y453914D01*
Y452081D01*
X1107505Y450248D01*
X1105673Y448415D01*
Y446583D01*
X1107505Y444750D01*
X1111171D01*
X1113003Y446583D01*
Y448415D01*
X1111171Y450248D01*
X1113003Y452081D01*
Y453914D01*
X1111171Y450248D02*
X1107505D01*
X1094676Y455746D02*
X1098342Y453914D01*
X1102007Y450248D01*
Y446583D01*
X1100174Y444750D01*
X1096509D01*
X1094676Y446583D01*
Y448415D01*
X1096509Y450248D01*
X1102007D01*
X963169Y487414D02*
X965002Y489246D01*
X968667D01*
X970500Y487414D01*
Y480083D01*
X968667Y478250D01*
X965002D01*
X963169Y480083D01*
X959503Y487414D02*
X957671Y489246D01*
X954005D01*
X952173Y487414D01*
Y485581D01*
X954005Y483748D01*
X952173Y481916D01*
Y480083D01*
X954005Y478250D01*
X957671D01*
X959503Y480083D01*
Y481916D01*
X957671Y483748D01*
X959503Y485581D01*
Y487414D01*
X957671Y483748D02*
X954005D01*
X948507Y489246D02*
X941176D01*
Y487414D01*
X948507Y480083D01*
Y478250D01*
X960919Y470414D02*
X962752Y472247D01*
X966417D01*
X968250Y470414D01*
Y463083D01*
X966417Y461250D01*
X962752D01*
X960919Y463083D01*
X957254Y470414D02*
X955421Y472247D01*
X951755D01*
X949923Y470414D01*
Y468581D01*
X951755Y466748D01*
X949923Y464916D01*
Y463083D01*
X951755Y461250D01*
X955421D01*
X957254Y463083D01*
Y464916D01*
X955421Y466748D01*
X957254Y468581D01*
Y470414D01*
X955421Y466748D02*
X951755D01*
X946257Y470414D02*
X944424Y472247D01*
X940759D01*
X938926Y470414D01*
Y468581D01*
X940759Y466748D01*
X938926Y464916D01*
Y463083D01*
X940759Y461250D01*
X944424D01*
X946257Y463083D01*
Y464916D01*
X944424Y466748D01*
X946257Y468581D01*
Y470414D01*
X944424Y466748D02*
X940759D01*
X857669Y401914D02*
X859502Y403746D01*
X863167D01*
X865000Y401914D01*
Y394583D01*
X863167Y392750D01*
X859502D01*
X857669Y394583D01*
X854004Y401914D02*
X852171Y403746D01*
X848505D01*
X846673Y401914D01*
Y400081D01*
X848505Y398248D01*
X846673Y396415D01*
Y394583D01*
X848505Y392750D01*
X852171D01*
X854004Y394583D01*
Y396415D01*
X852171Y398248D01*
X854004Y400081D01*
Y401914D01*
X852171Y398248D02*
X848505D01*
X843007Y394583D02*
X841174Y392750D01*
X837509D01*
X835676Y394583D01*
Y401914D01*
X837509Y403746D01*
X841174D01*
X843007Y401914D01*
Y400081D01*
X841174Y398248D01*
X835676D01*
X764169Y243164D02*
X766002Y244996D01*
X769667D01*
X771500Y243164D01*
Y235833D01*
X769667Y234000D01*
X766002D01*
X764169Y235833D01*
X760504D02*
X758671Y234000D01*
X755005D01*
X753173Y235833D01*
Y243164D01*
X755005Y244996D01*
X758671D01*
X760504Y243164D01*
Y241331D01*
X758671Y239498D01*
X753173D01*
X749507Y243164D02*
X747674Y244996D01*
X744009D01*
X742176Y243164D01*
Y235833D01*
X744009Y234000D01*
X747674D01*
X749507Y235833D01*
Y243164D01*
X773419Y137414D02*
X775252Y139247D01*
X778917D01*
X780750Y137414D01*
Y130083D01*
X778917Y128250D01*
X775252D01*
X773419Y130083D01*
X769754D02*
X767921Y128250D01*
X764255D01*
X762423Y130083D01*
Y137414D01*
X764255Y139247D01*
X767921D01*
X769754Y137414D01*
Y135581D01*
X767921Y133748D01*
X762423D01*
X758757Y128250D02*
X755092D01*
X756924D01*
Y139247D01*
X758757Y137414D01*
X810919Y142914D02*
X812752Y144746D01*
X816417D01*
X818250Y142914D01*
Y135583D01*
X816417Y133750D01*
X812752D01*
X810919Y135583D01*
X807254D02*
X805421Y133750D01*
X801755D01*
X799923Y135583D01*
Y142914D01*
X801755Y144746D01*
X805421D01*
X807254Y142914D01*
Y141081D01*
X805421Y139248D01*
X799923D01*
X788926Y133750D02*
X796257D01*
X788926Y141081D01*
Y142914D01*
X790759Y144746D01*
X794424D01*
X796257Y142914D01*
X756419Y304414D02*
X758252Y306246D01*
X761917D01*
X763750Y304414D01*
Y297083D01*
X761917Y295250D01*
X758252D01*
X756419Y297083D01*
X752754D02*
X750921Y295250D01*
X747255D01*
X745423Y297083D01*
Y304414D01*
X747255Y306246D01*
X750921D01*
X752754Y304414D01*
Y302581D01*
X750921Y300748D01*
X745423D01*
X736259Y295250D02*
Y306246D01*
X741757Y300748D01*
X734426D01*
X973419Y254414D02*
X975252Y256246D01*
X978917D01*
X980750Y254414D01*
Y247083D01*
X978917Y245250D01*
X975252D01*
X973419Y247083D01*
X969754D02*
X967921Y245250D01*
X964255D01*
X962423Y247083D01*
Y254414D01*
X964255Y256246D01*
X967921D01*
X969754Y254414D01*
Y252581D01*
X967921Y250748D01*
X962423D01*
X951426Y256246D02*
X958757D01*
Y250748D01*
X955092Y252581D01*
X953259D01*
X951426Y250748D01*
Y247083D01*
X953259Y245250D01*
X956924D01*
X958757Y247083D01*
X823503Y385338D02*
X825336Y387170D01*
X829001D01*
X830834Y385338D01*
Y378007D01*
X829001Y376174D01*
X825336D01*
X823503Y378007D01*
X819838D02*
X818005Y376174D01*
X814339D01*
X812507Y378007D01*
Y385338D01*
X814339Y387170D01*
X818005D01*
X819838Y385338D01*
Y383505D01*
X818005Y381672D01*
X812507D01*
X801510Y387170D02*
X805176Y385338D01*
X808841Y381672D01*
Y378007D01*
X807008Y376174D01*
X803343D01*
X801510Y378007D01*
Y379840D01*
X803343Y381672D01*
X808841D01*
X860169Y356664D02*
X862002Y358497D01*
X865667D01*
X867500Y356664D01*
Y349333D01*
X865667Y347500D01*
X862002D01*
X860169Y349333D01*
X856504D02*
X854671Y347500D01*
X851005D01*
X849173Y349333D01*
Y356664D01*
X851005Y358497D01*
X854671D01*
X856504Y356664D01*
Y354831D01*
X854671Y352998D01*
X849173D01*
X845507Y358497D02*
X838176D01*
Y356664D01*
X845507Y349333D01*
Y347500D01*
X923419Y360414D02*
X925252Y362246D01*
X928917D01*
X930750Y360414D01*
Y353083D01*
X928917Y351250D01*
X925252D01*
X923419Y353083D01*
X919754D02*
X917921Y351250D01*
X914255D01*
X912423Y353083D01*
Y360414D01*
X914255Y362246D01*
X917921D01*
X919754Y360414D01*
Y358581D01*
X917921Y356748D01*
X912423D01*
X908757Y360414D02*
X906924Y362246D01*
X903259D01*
X901426Y360414D01*
Y358581D01*
X903259Y356748D01*
X901426Y354916D01*
Y353083D01*
X903259Y351250D01*
X906924D01*
X908757Y353083D01*
Y354916D01*
X906924Y356748D01*
X908757Y358581D01*
Y360414D01*
X906924Y356748D02*
X903259D01*
X863169Y141914D02*
X865002Y143746D01*
X868667D01*
X870500Y141914D01*
Y134583D01*
X868667Y132750D01*
X865002D01*
X863169Y134583D01*
X859503D02*
X857671Y132750D01*
X854005D01*
X852173Y134583D01*
Y141914D01*
X854005Y143746D01*
X857671D01*
X859503Y141914D01*
Y140081D01*
X857671Y138248D01*
X852173D01*
X848507Y134583D02*
X846674Y132750D01*
X843009D01*
X841176Y134583D01*
Y141914D01*
X843009Y143746D01*
X846674D01*
X848507Y141914D01*
Y140081D01*
X846674Y138248D01*
X841176D01*
X923419Y144164D02*
X925252Y145997D01*
X928917D01*
X930750Y144164D01*
Y136833D01*
X928917Y135000D01*
X925252D01*
X923419Y136833D01*
X919754Y135000D02*
X916088D01*
X917921D01*
Y145997D01*
X919754Y144164D01*
X910590D02*
X908757Y145997D01*
X905092D01*
X903259Y144164D01*
Y136833D01*
X905092Y135000D01*
X908757D01*
X910590Y136833D01*
Y144164D01*
X899593D02*
X897761Y145997D01*
X894095D01*
X892262Y144164D01*
Y136833D01*
X894095Y135000D01*
X897761D01*
X899593Y136833D01*
Y144164D01*
X1000169Y147414D02*
X1002002Y149247D01*
X1005667D01*
X1007500Y147414D01*
Y140083D01*
X1005667Y138250D01*
X1002002D01*
X1000169Y140083D01*
X996504Y138250D02*
X992838D01*
X994671D01*
Y149247D01*
X996504Y147414D01*
X987340D02*
X985507Y149247D01*
X981842D01*
X980009Y147414D01*
Y140083D01*
X981842Y138250D01*
X985507D01*
X987340Y140083D01*
Y147414D01*
X976343Y138250D02*
X972678D01*
X974511D01*
Y149247D01*
X976343Y147414D01*
X981919Y336664D02*
X983752Y338497D01*
X987417D01*
X989250Y336664D01*
Y329333D01*
X987417Y327500D01*
X983752D01*
X981919Y329333D01*
X978253Y327500D02*
X974588D01*
X976421D01*
Y338497D01*
X978253Y336664D01*
X969090D02*
X967257Y338497D01*
X963592D01*
X961759Y336664D01*
Y329333D01*
X963592Y327500D01*
X967257D01*
X969090Y329333D01*
Y336664D01*
X950762Y327500D02*
X958093D01*
X950762Y334831D01*
Y336664D01*
X952595Y338497D01*
X956261D01*
X958093Y336664D01*
X923419Y195914D02*
X925252Y197746D01*
X928917D01*
X930750Y195914D01*
Y188583D01*
X928917Y186750D01*
X925252D01*
X923419Y188583D01*
X919754Y186750D02*
X916088D01*
X917921D01*
Y197746D01*
X919754Y195914D01*
X910590D02*
X908757Y197746D01*
X905092D01*
X903259Y195914D01*
Y188583D01*
X905092Y186750D01*
X908757D01*
X910590Y188583D01*
Y195914D01*
X899593D02*
X897761Y197746D01*
X894095D01*
X892262Y195914D01*
Y194081D01*
X894095Y192248D01*
X895928D01*
X894095D01*
X892262Y190415D01*
Y188583D01*
X894095Y186750D01*
X897761D01*
X899593Y188583D01*
X971419Y295664D02*
X973252Y297496D01*
X976917D01*
X978750Y295664D01*
Y288333D01*
X976917Y286500D01*
X973252D01*
X971419Y288333D01*
X967754Y286500D02*
X964088D01*
X965921D01*
Y297496D01*
X967754Y295664D01*
X958590Y297496D02*
X951259D01*
Y295664D01*
X958590Y288333D01*
Y286500D01*
X1090750Y656246D02*
Y645250D01*
X1085252D01*
X1083419Y647083D01*
Y654414D01*
X1085252Y656246D01*
X1090750D01*
X1072423D02*
X1079753D01*
Y650748D01*
X1076088Y652581D01*
X1074255D01*
X1072423Y650748D01*
Y647083D01*
X1074255Y645250D01*
X1077921D01*
X1079753Y647083D01*
X945750Y590496D02*
Y579500D01*
X938419D01*
X934754D02*
X931088D01*
X932921D01*
Y590496D01*
X934754Y588664D01*
X920092Y579500D02*
Y590496D01*
X925590Y584998D01*
X918259D01*
X1134250Y714750D02*
Y725747D01*
X1128752D01*
X1126919Y723914D01*
Y720248D01*
X1128752Y718416D01*
X1134250D01*
X1130584D02*
X1126919Y714750D01*
X1115923Y725747D02*
X1119588Y723914D01*
X1123254Y720248D01*
Y716583D01*
X1121421Y714750D01*
X1117755D01*
X1115923Y716583D01*
Y718416D01*
X1117755Y720248D01*
X1123254D01*
X1112257Y723914D02*
X1110424Y725747D01*
X1106759D01*
X1104926Y723914D01*
Y722081D01*
X1106759Y720248D01*
X1108592D01*
X1106759D01*
X1104926Y718416D01*
Y716583D01*
X1106759Y714750D01*
X1110424D01*
X1112257Y716583D01*
X906419Y80664D02*
X908252Y82497D01*
X911917D01*
X913750Y80664D01*
Y73333D01*
X911917Y71500D01*
X908252D01*
X906419Y73333D01*
X902754Y82497D02*
X895423D01*
Y80664D01*
X902754Y73333D01*
Y71500D01*
X891757Y80664D02*
X889924Y82497D01*
X886259D01*
X884426Y80664D01*
Y73333D01*
X886259Y71500D01*
X889924D01*
X891757Y73333D01*
Y80664D01*
X1208419Y236664D02*
X1210252Y238496D01*
X1213917D01*
X1215750Y236664D01*
Y229333D01*
X1213917Y227500D01*
X1210252D01*
X1208419Y229333D01*
X1197423Y227500D02*
X1204753D01*
X1197423Y234831D01*
Y236664D01*
X1199255Y238496D01*
X1202921D01*
X1204753Y236664D01*
X1188259Y227500D02*
Y238496D01*
X1193757Y232998D01*
X1186426D01*
D11*
X1156250Y617750D02*
G03*
X1156250Y617750I-1250J0D01*
G01*
X1376250Y642750D02*
G03*
X1376250Y642750I-1250J0D01*
G01*
X1101000Y693000D02*
G03*
X1101000Y693000I-1250J0D01*
G01*
X1102750Y702250D02*
G03*
X1102750Y702250I-1250J0D01*
G01*
D16*
X1295050Y452300D02*
Y471300D01*
X1330050D01*
Y452300D02*
Y471300D01*
X1295050Y452300D02*
X1330050D01*
X1295050Y431050D02*
Y450050D01*
X1330050D01*
Y431050D02*
Y450050D01*
X1295050Y431050D02*
X1330050D01*
X1290050Y421800D02*
X1309050D01*
Y386800D02*
Y421800D01*
X1290050Y386800D02*
X1309050D01*
X1290050D02*
Y421800D01*
X1351281Y408068D02*
Y427068D01*
X1316281Y408068D02*
X1351281D01*
X1316281D02*
Y427068D01*
X1351281D01*
X1193000Y389250D02*
X1212000D01*
X1193000D02*
Y424250D01*
X1212000D01*
Y389250D02*
Y424250D01*
X1269250Y179750D02*
X1288250D01*
X1269250D02*
Y214750D01*
X1288250D01*
Y179750D02*
Y214750D01*
X510950Y182800D02*
Y201800D01*
X545950D01*
Y182800D02*
Y201800D01*
X510950Y182800D02*
X545950D01*
X568500Y285000D02*
Y304000D01*
X533500Y285000D02*
X568500D01*
X533500D02*
Y304000D01*
X568500D01*
X1102250Y162750D02*
X1121250D01*
X1102250D02*
Y197750D01*
X1121250D01*
Y162750D02*
Y197750D01*
X1157250Y152750D02*
X1176250D01*
Y117750D02*
Y152750D01*
X1157250Y117750D02*
X1176250D01*
X1157250D02*
Y152750D01*
X1137250Y152750D02*
X1156250D01*
Y117750D02*
Y152750D01*
X1137250Y117750D02*
X1156250D01*
X1137250D02*
Y152750D01*
X1161250Y162750D02*
X1180250D01*
X1161250D02*
Y197750D01*
X1180250D01*
Y162750D02*
Y197750D01*
X1142250Y163750D02*
X1161250D01*
X1142250D02*
Y198750D01*
X1161250D01*
Y163750D02*
Y198750D01*
X1222250Y150750D02*
Y169750D01*
X1187250Y150750D02*
X1222250D01*
X1187250D02*
Y169750D01*
X1222250D01*
X1250300Y175050D02*
X1269300D01*
Y140050D02*
Y175050D01*
X1250300Y140050D02*
X1269300D01*
X1250300D02*
Y175050D01*
X1230050D02*
X1249050D01*
Y140050D02*
Y175050D01*
X1230050Y140050D02*
X1249050D01*
X1230050D02*
Y175050D01*
X1250550Y209050D02*
X1269550D01*
Y174050D02*
Y209050D01*
X1250550Y174050D02*
X1269550D01*
X1250550D02*
Y209050D01*
X1230050Y208800D02*
X1249050D01*
Y173800D02*
Y208800D01*
X1230050Y173800D02*
X1249050D01*
X1230050D02*
Y208800D01*
X1291250Y179750D02*
X1310250D01*
X1291250D02*
Y214750D01*
X1310250D01*
Y179750D02*
Y214750D01*
X1311250Y179750D02*
X1330250D01*
X1311250D02*
Y214750D01*
X1330250D01*
Y179750D02*
Y214750D01*
X1163250Y235750D02*
X1182250D01*
Y200750D02*
Y235750D01*
X1163250Y200750D02*
X1182250D01*
X1163250D02*
Y235750D01*
X1209800Y189050D02*
Y224050D01*
X1190800D02*
X1209800D01*
X1190800Y189050D02*
Y224050D01*
Y189050D02*
X1209800D01*
X1308519Y288232D02*
Y307232D01*
X1343519D01*
Y288232D02*
Y307232D01*
X1308519Y288232D02*
X1343519D01*
X1364068Y324319D02*
X1383068D01*
X1364068D02*
Y359319D01*
X1383068D01*
Y324319D02*
Y359319D01*
X1320500Y347250D02*
X1339500D01*
Y312250D02*
Y347250D01*
X1320500Y312250D02*
X1339500D01*
X1320500D02*
Y347250D01*
X1344500Y332250D02*
X1363500D01*
X1344500D02*
Y367250D01*
X1363500D01*
Y332250D02*
Y367250D01*
X1229050Y360800D02*
X1248050D01*
Y325800D02*
Y360800D01*
X1229050Y325800D02*
X1248050D01*
X1229050D02*
Y360800D01*
X1286300Y325550D02*
Y344550D01*
X1251300Y325550D02*
X1286300D01*
X1251300D02*
Y344550D01*
X1286300D01*
X1264550Y305550D02*
Y324550D01*
X1229550Y305550D02*
X1264550D01*
X1229550D02*
Y324550D01*
X1264550D01*
Y282500D02*
Y301500D01*
X1229550Y282500D02*
X1264550D01*
X1229550D02*
Y301500D01*
X1264550D01*
X1149300Y254050D02*
Y273050D01*
X1184300D01*
Y254050D02*
Y273050D01*
X1149300Y254050D02*
X1184300D01*
X1185050Y295800D02*
Y314800D01*
X1150050Y295800D02*
X1185050D01*
X1150050D02*
Y314800D01*
X1185050D01*
X1184050Y275800D02*
Y294800D01*
X1149050Y275800D02*
X1184050D01*
X1149050D02*
Y294800D01*
X1184050D01*
X1063000Y476000D02*
X1082000D01*
Y441000D02*
Y476000D01*
X1063000Y441000D02*
X1082000D01*
X1063000D02*
Y476000D01*
X1100750Y546000D02*
X1119750D01*
X1100750D02*
Y581000D01*
X1119750D01*
Y546000D02*
Y581000D01*
X1293500Y565500D02*
X1312500D01*
X1293500D02*
Y600500D01*
X1312500D01*
Y565500D02*
Y600500D01*
X769250Y157250D02*
Y176250D01*
X734250Y157250D02*
X769250D01*
X734250D02*
Y176250D01*
X769250D01*
X786750Y331000D02*
Y366000D01*
X767750D02*
X786750D01*
X767750Y331000D02*
Y366000D01*
Y331000D02*
X786750D01*
X1184300Y401550D02*
Y436550D01*
X1165300D02*
X1184300D01*
X1165300Y401550D02*
Y436550D01*
Y401550D02*
X1184300D01*
M02*
