G04*
G04 #@! TF.GenerationSoftware,Altium Limited,Altium Designer,18.0.12 (696)*
G04*
G04 Layer_Physical_Order=2*
G04 Layer_Color=15238730*
%FSLAX44Y44*%
%MOMM*%
G71*
G01*
G75*
%ADD123C,1.6000*%
%ADD127R,1.9000X1.9000*%
%ADD130R,11.0000X12.0000*%
%ADD131R,2.4000X1.7500*%
%ADD132C,1.7000*%
%ADD134R,1.8800X1.5700*%
%ADD135R,2.5000X2.5000*%
%ADD138C,1.5000*%
%ADD139C,1.5000*%
%ADD140R,1.6000X1.6000*%
G04:AMPARAMS|DCode=141|XSize=2.8mm|YSize=2.5mm|CornerRadius=1.1375mm|HoleSize=0mm|Usage=FLASHONLY|Rotation=270.000|XOffset=0mm|YOffset=0mm|HoleType=Round|Shape=RoundedRectangle|*
%AMROUNDEDRECTD141*
21,1,2.8000,0.2250,0,0,270.0*
21,1,0.5250,2.5000,0,0,270.0*
1,1,2.2750,-0.1125,-0.2625*
1,1,2.2750,-0.1125,0.2625*
1,1,2.2750,0.1125,0.2625*
1,1,2.2750,0.1125,-0.2625*
%
%ADD141ROUNDEDRECTD141*%
%ADD150C,0.9000*%
%ADD151C,0.7500*%
%ADD152C,1.2700*%
G36*
X1511040Y764750D02*
Y164750D01*
X1371040Y24750D01*
X571040D01*
X414878Y180912D01*
X415643Y182760D01*
X448730D01*
Y245300D01*
Y307840D01*
X392460D01*
X391040Y309240D01*
Y455750D01*
X630000D01*
X649529Y475279D01*
X650850Y475105D01*
X653722Y475483D01*
X656397Y476592D01*
X658695Y478355D01*
X660458Y480653D01*
X661567Y483328D01*
X661945Y486200D01*
X661771Y487521D01*
X663862Y489612D01*
X665710Y488847D01*
Y487470D01*
X674980D01*
Y496740D01*
X673603D01*
X672838Y498588D01*
X674929Y500679D01*
X676250Y500505D01*
X679122Y500883D01*
X681797Y501992D01*
X684095Y503755D01*
X685858Y506053D01*
X686967Y508728D01*
X687345Y511600D01*
X687171Y512921D01*
X718960Y544710D01*
Y705750D01*
X818168Y705750D01*
X818196Y705750D01*
X818196Y705750D01*
X818365Y705750D01*
X818568Y704731D01*
X818568D01*
Y704731D01*
X817478Y703218D01*
X817005Y703022D01*
X814811Y701339D01*
X813128Y699145D01*
X812070Y696591D01*
X811709Y693850D01*
X812070Y691109D01*
X813128Y688555D01*
X814811Y686361D01*
X817005Y684678D01*
X819559Y683620D01*
X822300Y683259D01*
X825041Y683620D01*
X827595Y684678D01*
X829789Y686361D01*
X831472Y688555D01*
X832530Y691109D01*
X832890Y693850D01*
X832530Y696591D01*
X831472Y699145D01*
X829789Y701339D01*
X827595Y703022D01*
X825041Y704080D01*
X822300Y704441D01*
X821867Y704384D01*
X820441Y705565D01*
X820000Y706629D01*
Y706631D01*
X820000D01*
Y715750D01*
X820000Y715750D01*
X898960Y715750D01*
Y843103D01*
X899326Y843988D01*
X899558Y845750D01*
X899326Y847512D01*
X898960Y848396D01*
Y885750D01*
X900960Y885750D01*
X903876D01*
X905192Y884250D01*
X905424Y882488D01*
X906104Y880846D01*
X907186Y879436D01*
X908596Y878354D01*
X910238Y877674D01*
X912000Y877442D01*
X913762Y877674D01*
X915404Y878354D01*
X916814Y879436D01*
X917896Y880846D01*
X918576Y882488D01*
X918808Y884250D01*
X918576Y886012D01*
X917896Y887654D01*
X916814Y889064D01*
X915404Y890146D01*
X913762Y890826D01*
X912000Y891058D01*
X910000Y892812D01*
Y974750D01*
X1301040D01*
X1511040Y764750D01*
D02*
G37*
G36*
X820000Y855750D02*
X820000Y815749D01*
X819934Y790050D01*
X818238Y789826D01*
X816596Y789146D01*
X815186Y788064D01*
X814104Y786654D01*
X813424Y785012D01*
X813192Y783250D01*
X813424Y781488D01*
X813797Y780587D01*
X788960Y755750D01*
X700000D01*
X620000Y675750D01*
Y569723D01*
X618767Y505750D01*
X390000D01*
X390000Y715750D01*
X430000Y755750D01*
X540000Y755750D01*
X600000Y815750D01*
X600000Y845750D01*
X610000Y855750D01*
X820000Y855750D01*
D02*
G37*
%LPC*%
G36*
X1106000Y964558D02*
X1104238Y964326D01*
X1102596Y963646D01*
X1101186Y962564D01*
X1100104Y961154D01*
X1099424Y959512D01*
X1099192Y957750D01*
X1099424Y955988D01*
X1100104Y954346D01*
X1101186Y952936D01*
X1102596Y951854D01*
X1104238Y951174D01*
X1106000Y950942D01*
X1107762Y951174D01*
X1109404Y951854D01*
X1110814Y952936D01*
X1111896Y954346D01*
X1112576Y955988D01*
X1112808Y957750D01*
X1112576Y959512D01*
X1111896Y961154D01*
X1110814Y962564D01*
X1109404Y963646D01*
X1107762Y964326D01*
X1106000Y964558D01*
D02*
G37*
G36*
X930000Y947808D02*
X928238Y947576D01*
X926596Y946896D01*
X925186Y945814D01*
X924104Y944404D01*
X923424Y942762D01*
X923192Y941000D01*
X923424Y939238D01*
X924104Y937596D01*
X925186Y936186D01*
X926596Y935104D01*
X928238Y934424D01*
X930000Y934192D01*
X931762Y934424D01*
X933404Y935104D01*
X934814Y936186D01*
X935896Y937596D01*
X936576Y939238D01*
X936808Y941000D01*
X936576Y942762D01*
X935896Y944404D01*
X934814Y945814D01*
X933404Y946896D01*
X931762Y947576D01*
X930000Y947808D01*
D02*
G37*
G36*
X1275000Y945093D02*
X1271226Y944721D01*
X1267598Y943621D01*
X1264254Y941833D01*
X1261322Y939428D01*
X1258917Y936497D01*
X1257129Y933152D01*
X1256029Y929524D01*
X1255657Y925750D01*
X1256029Y921976D01*
X1257129Y918348D01*
X1258917Y915004D01*
X1261322Y912072D01*
X1264254Y909667D01*
X1267598Y907879D01*
X1271226Y906778D01*
X1275000Y906407D01*
X1278774Y906778D01*
X1282402Y907879D01*
X1285746Y909667D01*
X1288678Y912072D01*
X1291083Y915004D01*
X1292871Y918348D01*
X1293972Y921976D01*
X1294343Y925750D01*
X1293972Y929524D01*
X1292871Y933152D01*
X1291083Y936497D01*
X1288678Y939428D01*
X1285746Y941833D01*
X1282402Y943621D01*
X1278774Y944721D01*
X1275000Y945093D01*
D02*
G37*
G36*
X1148000D02*
X1144226Y944721D01*
X1140598Y943621D01*
X1137254Y941833D01*
X1134322Y939428D01*
X1131917Y936497D01*
X1130129Y933152D01*
X1129029Y929524D01*
X1128657Y925750D01*
X1129029Y921976D01*
X1130129Y918348D01*
X1131917Y915004D01*
X1134322Y912072D01*
X1137254Y909667D01*
X1140598Y907879D01*
X1144226Y906778D01*
X1148000Y906407D01*
X1151774Y906778D01*
X1155402Y907879D01*
X1158746Y909667D01*
X1161678Y912072D01*
X1164083Y915004D01*
X1165871Y918348D01*
X1166972Y921976D01*
X1167343Y925750D01*
X1166972Y929524D01*
X1165871Y933152D01*
X1164083Y936497D01*
X1161678Y939428D01*
X1158746Y941833D01*
X1155402Y943621D01*
X1151774Y944721D01*
X1148000Y945093D01*
D02*
G37*
G36*
X1236900Y910436D02*
X1234289Y910092D01*
X1231857Y909085D01*
X1229768Y907482D01*
X1228165Y905393D01*
X1227822Y904566D01*
X1225658D01*
X1225315Y905393D01*
X1223712Y907482D01*
X1221623Y909085D01*
X1219191Y910092D01*
X1216580Y910436D01*
X1213969Y910092D01*
X1211537Y909085D01*
X1209448Y907482D01*
X1207845Y905393D01*
X1207502Y904566D01*
X1205338D01*
X1204995Y905393D01*
X1203392Y907482D01*
X1201303Y909085D01*
X1198871Y910092D01*
X1196260Y910436D01*
X1193650Y910092D01*
X1191217Y909085D01*
X1189128Y907482D01*
X1187525Y905393D01*
X1187182Y904566D01*
X1185018D01*
X1184675Y905393D01*
X1183072Y907482D01*
X1180983Y909085D01*
X1178551Y910092D01*
X1175940Y910436D01*
X1173329Y910092D01*
X1170897Y909085D01*
X1168808Y907482D01*
X1167205Y905393D01*
X1166198Y902961D01*
X1165854Y900350D01*
X1166198Y897739D01*
X1167205Y895307D01*
X1168808Y893218D01*
X1170897Y891615D01*
X1173329Y890607D01*
X1175940Y890264D01*
X1176983Y890401D01*
X1178066Y888526D01*
X1177365Y887613D01*
X1176357Y885181D01*
X1176014Y882570D01*
X1176357Y879959D01*
X1177365Y877527D01*
X1178968Y875438D01*
X1181057Y873835D01*
X1183490Y872827D01*
X1186100Y872484D01*
X1188711Y872827D01*
X1191143Y873835D01*
X1193232Y875438D01*
X1194835Y877527D01*
X1195178Y878354D01*
X1197342D01*
X1197685Y877527D01*
X1199288Y875438D01*
X1201377Y873835D01*
X1203810Y872827D01*
X1206420Y872484D01*
X1209031Y872827D01*
X1211463Y873835D01*
X1213552Y875438D01*
X1215155Y877527D01*
X1215498Y878354D01*
X1217662D01*
X1218005Y877527D01*
X1219608Y875438D01*
X1221697Y873835D01*
X1224129Y872827D01*
X1226740Y872484D01*
X1229351Y872827D01*
X1231783Y873835D01*
X1233872Y875438D01*
X1235475Y877527D01*
X1235818Y878354D01*
X1237982D01*
X1238325Y877527D01*
X1239928Y875438D01*
X1242017Y873835D01*
X1244449Y872827D01*
X1247060Y872484D01*
X1249671Y872827D01*
X1252103Y873835D01*
X1254192Y875438D01*
X1255795Y877527D01*
X1256803Y879959D01*
X1257146Y882570D01*
X1256803Y885181D01*
X1255795Y887613D01*
X1254192Y889702D01*
X1252103Y891305D01*
X1249671Y892312D01*
X1247060Y892656D01*
X1246017Y892519D01*
X1244934Y894394D01*
X1245635Y895307D01*
X1246643Y897739D01*
X1246986Y900350D01*
X1246643Y902961D01*
X1245635Y905393D01*
X1244032Y907482D01*
X1241943Y909085D01*
X1239511Y910092D01*
X1236900Y910436D01*
D02*
G37*
G36*
X983250Y916808D02*
X981488Y916576D01*
X979846Y915896D01*
X978436Y914814D01*
X977354Y913404D01*
X976674Y911762D01*
X976442Y910000D01*
X976674Y908238D01*
X977354Y906596D01*
X978436Y905186D01*
X979846Y904104D01*
X981488Y903424D01*
X983250Y903192D01*
X985012Y903424D01*
X986654Y904104D01*
X988064Y905186D01*
X989146Y906596D01*
X989826Y908238D01*
X990058Y910000D01*
X989826Y911762D01*
X989146Y913404D01*
X988064Y914814D01*
X986654Y915896D01*
X985012Y916576D01*
X983250Y916808D01*
D02*
G37*
G36*
X957750Y891558D02*
X955988Y891326D01*
X954346Y890646D01*
X952936Y889564D01*
X951854Y888154D01*
X951174Y886512D01*
X950942Y884750D01*
X951174Y882988D01*
X951854Y881346D01*
X952936Y879936D01*
X954346Y878854D01*
X955988Y878174D01*
X957750Y877942D01*
X959512Y878174D01*
X961154Y878854D01*
X962564Y879936D01*
X963646Y881346D01*
X964326Y882988D01*
X964558Y884750D01*
X964326Y886512D01*
X963646Y888154D01*
X962564Y889564D01*
X961154Y890646D01*
X959512Y891326D01*
X957750Y891558D01*
D02*
G37*
G36*
X1292526Y906533D02*
X1289586Y906243D01*
X1286758Y905385D01*
X1284152Y903992D01*
X1281868Y902118D01*
X1279994Y899834D01*
X1278601Y897228D01*
X1277743Y894400D01*
X1277454Y891460D01*
X1277743Y888520D01*
X1278601Y885692D01*
X1279994Y883086D01*
X1281868Y880802D01*
X1284152Y878928D01*
X1286758Y877535D01*
X1289586Y876677D01*
X1292526Y876387D01*
X1295466Y876677D01*
X1298294Y877535D01*
X1300900Y878928D01*
X1303184Y880802D01*
X1305058Y883086D01*
X1306451Y885692D01*
X1307309Y888520D01*
X1307599Y891460D01*
X1307309Y894400D01*
X1306451Y897228D01*
X1305058Y899834D01*
X1303184Y902118D01*
X1300900Y903992D01*
X1298294Y905385D01*
X1295466Y906243D01*
X1292526Y906533D01*
D02*
G37*
G36*
X1130474D02*
X1127533Y906243D01*
X1124706Y905385D01*
X1122100Y903992D01*
X1119816Y902118D01*
X1117942Y899834D01*
X1116549Y897228D01*
X1115691Y894400D01*
X1115402Y891460D01*
X1115691Y888520D01*
X1116549Y885692D01*
X1117942Y883086D01*
X1119816Y880802D01*
X1122100Y878928D01*
X1124706Y877535D01*
X1127533Y876677D01*
X1130474Y876387D01*
X1133415Y876677D01*
X1136242Y877535D01*
X1138848Y878928D01*
X1141132Y880802D01*
X1143006Y883086D01*
X1144399Y885692D01*
X1145257Y888520D01*
X1145547Y891460D01*
X1145257Y894400D01*
X1144399Y897228D01*
X1143006Y899834D01*
X1141132Y902118D01*
X1138848Y903992D01*
X1136242Y905385D01*
X1133415Y906243D01*
X1130474Y906533D01*
D02*
G37*
G36*
X1117750Y877065D02*
X1115792Y876807D01*
X1113968Y876051D01*
X1112401Y874849D01*
X1111199Y873282D01*
X1110443Y871458D01*
X1110185Y869500D01*
X1110443Y867542D01*
X1111199Y865718D01*
X1112401Y864151D01*
X1113968Y862949D01*
X1115792Y862193D01*
X1117750Y861935D01*
X1119708Y862193D01*
X1121532Y862949D01*
X1123099Y864151D01*
X1124301Y865718D01*
X1125057Y867542D01*
X1125315Y869500D01*
X1125057Y871458D01*
X1124301Y873282D01*
X1123099Y874849D01*
X1121532Y876051D01*
X1119708Y876807D01*
X1117750Y877065D01*
D02*
G37*
G36*
X1176539Y868356D02*
X1174582Y868098D01*
X1172757Y867343D01*
X1171190Y866140D01*
X1169988Y864574D01*
X1169232Y862749D01*
X1168975Y860791D01*
X1169168Y859320D01*
X1168151Y858219D01*
X1167497Y857848D01*
X1165539Y858105D01*
X1163581Y857848D01*
X1161757Y857092D01*
X1160190Y855890D01*
X1158988Y854323D01*
X1158232Y852499D01*
X1157974Y850541D01*
X1158232Y848583D01*
X1158988Y846758D01*
X1160190Y845192D01*
X1161757Y843989D01*
X1163581Y843234D01*
X1165539Y842976D01*
X1167497Y843234D01*
X1169321Y843989D01*
X1170888Y845192D01*
X1172090Y846758D01*
X1172846Y848583D01*
X1173103Y850541D01*
X1172910Y852012D01*
X1173927Y853112D01*
X1174582Y853484D01*
X1176539Y853226D01*
X1178497Y853484D01*
X1180322Y854240D01*
X1181888Y855442D01*
X1183091Y857009D01*
X1183846Y858833D01*
X1184104Y860791D01*
X1183846Y862749D01*
X1183091Y864574D01*
X1181888Y866140D01*
X1180322Y867343D01*
X1178497Y868098D01*
X1176539Y868356D01*
D02*
G37*
G36*
X1278000Y865308D02*
X1276238Y865076D01*
X1274596Y864396D01*
X1273186Y863314D01*
X1272104Y861904D01*
X1271424Y860262D01*
X1271192Y858500D01*
X1271424Y856738D01*
X1272104Y855096D01*
X1273186Y853686D01*
X1274596Y852604D01*
X1276238Y851924D01*
X1278000Y851692D01*
X1279762Y851924D01*
X1281404Y852604D01*
X1282814Y853686D01*
X1283896Y855096D01*
X1284576Y856738D01*
X1284808Y858500D01*
X1284576Y860262D01*
X1283896Y861904D01*
X1282814Y863314D01*
X1281404Y864396D01*
X1279762Y865076D01*
X1278000Y865308D01*
D02*
G37*
G36*
X922750Y864558D02*
X920988Y864326D01*
X919346Y863646D01*
X917936Y862564D01*
X916854Y861154D01*
X916174Y859512D01*
X915942Y857750D01*
X916174Y855988D01*
X916854Y854346D01*
X917936Y852936D01*
X919346Y851854D01*
X920988Y851174D01*
X922750Y850942D01*
X924512Y851174D01*
X926154Y851854D01*
X927564Y852936D01*
X928646Y854346D01*
X929326Y855988D01*
X929558Y857750D01*
X929326Y859512D01*
X928646Y861154D01*
X927564Y862564D01*
X926154Y863646D01*
X924512Y864326D01*
X922750Y864558D01*
D02*
G37*
G36*
X1075400Y849358D02*
X1072137Y848928D01*
X1069096Y847669D01*
X1066485Y845665D01*
X1064481Y843054D01*
X1063772Y841342D01*
X1061607D01*
X1060919Y843004D01*
X1058915Y845615D01*
X1056304Y847619D01*
X1053263Y848878D01*
X1050000Y849308D01*
X1046737Y848878D01*
X1043696Y847619D01*
X1041085Y845615D01*
X1039081Y843004D01*
X1038640Y841939D01*
X1036640Y842336D01*
Y848790D01*
X1025870D01*
Y836750D01*
Y824710D01*
X1036640D01*
Y831064D01*
X1038640Y831461D01*
X1039081Y830396D01*
X1041085Y827785D01*
X1043696Y825781D01*
X1046737Y824522D01*
X1050000Y824092D01*
X1053263Y824522D01*
X1056304Y825781D01*
X1058915Y827785D01*
X1060919Y830396D01*
X1061628Y832108D01*
X1063793D01*
X1064481Y830446D01*
X1066485Y827835D01*
X1069096Y825831D01*
X1072137Y824572D01*
X1075400Y824142D01*
X1078663Y824572D01*
X1081704Y825831D01*
X1084315Y827835D01*
X1086319Y830446D01*
X1087578Y833487D01*
X1088008Y836750D01*
X1087578Y840013D01*
X1086319Y843054D01*
X1084315Y845665D01*
X1081704Y847669D01*
X1078663Y848928D01*
X1075400Y849358D01*
D02*
G37*
G36*
X1023330Y848790D02*
X1012560D01*
Y838020D01*
X1023330D01*
Y848790D01*
D02*
G37*
G36*
X950000Y842558D02*
X948238Y842326D01*
X946596Y841646D01*
X945186Y840564D01*
X944104Y839154D01*
X943424Y837512D01*
X943247Y836169D01*
X942197Y835257D01*
X941298Y834811D01*
X941262Y834826D01*
X939500Y835058D01*
X937738Y834826D01*
X936096Y834146D01*
X934686Y833064D01*
X933604Y831654D01*
X932924Y830012D01*
X932692Y828250D01*
X932924Y826488D01*
X933604Y824846D01*
X934686Y823436D01*
X936096Y822354D01*
X937738Y821674D01*
X939500Y821442D01*
X941262Y821674D01*
X942904Y822354D01*
X944314Y823436D01*
X945396Y824846D01*
X946076Y826488D01*
X946253Y827831D01*
X947303Y828743D01*
X948202Y829189D01*
X948238Y829174D01*
X950000Y828942D01*
X951762Y829174D01*
X953404Y829854D01*
X954814Y830936D01*
X955896Y832346D01*
X956314Y833354D01*
X956632Y833426D01*
X958424Y833244D01*
X958883Y832136D01*
X959965Y830726D01*
X961375Y829644D01*
X963017Y828964D01*
X964779Y828732D01*
X966541Y828964D01*
X966589Y828984D01*
X968604Y829346D01*
X969686Y827936D01*
X971096Y826854D01*
X972738Y826174D01*
X974500Y825942D01*
X976262Y826174D01*
X977904Y826854D01*
X979314Y827936D01*
X980396Y829346D01*
X981076Y830988D01*
X981308Y832750D01*
X981076Y834512D01*
X980396Y836154D01*
X979314Y837564D01*
X977904Y838646D01*
X976262Y839326D01*
X974500Y839558D01*
X972738Y839326D01*
X971096Y838646D01*
X969758Y840140D01*
X969593Y840354D01*
X968183Y841436D01*
X966541Y842116D01*
X964779Y842348D01*
X963017Y842116D01*
X961375Y841436D01*
X959965Y840354D01*
X958883Y838944D01*
X958465Y837936D01*
X958147Y837864D01*
X956355Y838046D01*
X955896Y839154D01*
X954814Y840564D01*
X953404Y841646D01*
X951762Y842326D01*
X950000Y842558D01*
D02*
G37*
G36*
X1131787Y845355D02*
X1129829Y845097D01*
X1128005Y844341D01*
X1126438Y843139D01*
X1125236Y841572D01*
X1124480Y839748D01*
X1124222Y837790D01*
X1124480Y835832D01*
X1125236Y834008D01*
X1126438Y832441D01*
X1128005Y831239D01*
X1129829Y830483D01*
X1131787Y830225D01*
X1133745Y830483D01*
X1135570Y831239D01*
X1137136Y832441D01*
X1138338Y834008D01*
X1139094Y835832D01*
X1139352Y837790D01*
X1139094Y839748D01*
X1138338Y841572D01*
X1137136Y843139D01*
X1135570Y844341D01*
X1133745Y845097D01*
X1131787Y845355D01*
D02*
G37*
G36*
X1023330Y835480D02*
X1012560D01*
Y824710D01*
X1023330D01*
Y835480D01*
D02*
G37*
G36*
X1114750Y826815D02*
X1112792Y826557D01*
X1110968Y825801D01*
X1109401Y824599D01*
X1108199Y823032D01*
X1107443Y821208D01*
X1107185Y819250D01*
X1107443Y817292D01*
X1108199Y815468D01*
X1109401Y813901D01*
X1110968Y812699D01*
X1112792Y811943D01*
X1114750Y811685D01*
X1116708Y811943D01*
X1118532Y812699D01*
X1120099Y813901D01*
X1121301Y815468D01*
X1122057Y817292D01*
X1122315Y819250D01*
X1122057Y821208D01*
X1121301Y823032D01*
X1120099Y824599D01*
X1118532Y825801D01*
X1116708Y826557D01*
X1114750Y826815D01*
D02*
G37*
G36*
X1296500Y815558D02*
X1294738Y815326D01*
X1293096Y814646D01*
X1291686Y813564D01*
X1290604Y812154D01*
X1289924Y810512D01*
X1289692Y808750D01*
X1289924Y806988D01*
X1290604Y805346D01*
X1291686Y803936D01*
X1293096Y802854D01*
X1294738Y802174D01*
X1296500Y801942D01*
X1298262Y802174D01*
X1299904Y802854D01*
X1301314Y803936D01*
X1302396Y805346D01*
X1303076Y806988D01*
X1303308Y808750D01*
X1303076Y810512D01*
X1302396Y812154D01*
X1301314Y813564D01*
X1299904Y814646D01*
X1298262Y815326D01*
X1296500Y815558D01*
D02*
G37*
G36*
X1005000Y823315D02*
X1003042Y823057D01*
X1001218Y822301D01*
X999651Y821099D01*
X998449Y819532D01*
X997693Y817708D01*
X997435Y815750D01*
X997693Y813792D01*
X998449Y811968D01*
X999651Y810401D01*
X1001218Y809199D01*
X1003042Y808443D01*
X1005000Y808185D01*
X1006958Y808443D01*
X1008000Y808875D01*
X1008688Y808653D01*
X1009763Y807950D01*
X1010017Y807626D01*
X1010193Y806292D01*
X1010949Y804468D01*
X1012151Y802901D01*
X1013718Y801699D01*
X1015542Y800943D01*
X1017500Y800685D01*
X1019458Y800943D01*
X1021282Y801699D01*
X1022849Y802901D01*
X1024051Y804468D01*
X1024807Y806292D01*
X1025065Y808250D01*
X1024807Y810208D01*
X1024051Y812032D01*
X1022849Y813599D01*
X1021282Y814801D01*
X1019458Y815557D01*
X1017500Y815815D01*
X1015542Y815557D01*
X1014500Y815125D01*
X1013812Y815347D01*
X1012737Y816050D01*
X1012483Y816374D01*
X1012307Y817708D01*
X1011551Y819532D01*
X1010349Y821099D01*
X1008782Y822301D01*
X1006958Y823057D01*
X1005000Y823315D01*
D02*
G37*
G36*
X908999Y812557D02*
X907237Y812325D01*
X905595Y811645D01*
X904185Y810563D01*
X903103Y809153D01*
X902423Y807511D01*
X902191Y805748D01*
X902423Y803986D01*
X903103Y802344D01*
X904185Y800934D01*
X905595Y799852D01*
X907237Y799172D01*
X908999Y798940D01*
X910761Y799172D01*
X912403Y799852D01*
X913813Y800934D01*
X914895Y802344D01*
X915575Y803986D01*
X915807Y805748D01*
X915575Y807511D01*
X914895Y809153D01*
X913813Y810563D01*
X912403Y811645D01*
X910761Y812325D01*
X908999Y812557D01*
D02*
G37*
G36*
X1390000Y838861D02*
X1385491Y838417D01*
X1381156Y837102D01*
X1377160Y834966D01*
X1373658Y832092D01*
X1370784Y828590D01*
X1368648Y824594D01*
X1367333Y820259D01*
X1366889Y815750D01*
X1367333Y811241D01*
X1368648Y806906D01*
X1370784Y802910D01*
X1373658Y799408D01*
X1377160Y796534D01*
X1381156Y794398D01*
X1385491Y793083D01*
X1390000Y792639D01*
X1394509Y793083D01*
X1398844Y794398D01*
X1402840Y796534D01*
X1406342Y799408D01*
X1409216Y802910D01*
X1411352Y806906D01*
X1412667Y811241D01*
X1413111Y815750D01*
X1412667Y820259D01*
X1411352Y824594D01*
X1409216Y828590D01*
X1406342Y832092D01*
X1402840Y834966D01*
X1398844Y837102D01*
X1394509Y838417D01*
X1390000Y838861D01*
D02*
G37*
G36*
X908026Y779595D02*
X906264Y779363D01*
X904622Y778683D01*
X903212Y777601D01*
X902130Y776191D01*
X901450Y774549D01*
X901218Y772787D01*
X901450Y771025D01*
X902130Y769383D01*
X903212Y767973D01*
X904622Y766891D01*
X906264Y766211D01*
X908026Y765979D01*
X909788Y766211D01*
X911430Y766891D01*
X912840Y767973D01*
X913922Y769383D01*
X914603Y771025D01*
X914835Y772787D01*
X914603Y774549D01*
X913922Y776191D01*
X912840Y777601D01*
X911430Y778683D01*
X909788Y779363D01*
X908026Y779595D01*
D02*
G37*
G36*
X1012500Y775815D02*
X1010542Y775557D01*
X1008718Y774801D01*
X1007151Y773599D01*
X1005949Y772032D01*
X1005193Y770208D01*
X1004935Y768250D01*
X1005193Y766292D01*
X1005949Y764468D01*
X1007151Y762901D01*
X1008718Y761699D01*
X1010542Y760943D01*
X1012500Y760685D01*
X1014458Y760943D01*
X1016282Y761699D01*
X1017849Y762901D01*
X1019051Y764468D01*
X1019807Y766292D01*
X1020065Y768250D01*
X1019807Y770208D01*
X1019051Y772032D01*
X1017849Y773599D01*
X1016282Y774801D01*
X1014458Y775557D01*
X1012500Y775815D01*
D02*
G37*
G36*
X1059000Y774315D02*
X1057042Y774057D01*
X1055218Y773301D01*
X1053651Y772099D01*
X1052449Y770532D01*
X1051693Y768708D01*
X1051435Y766750D01*
X1051693Y764792D01*
X1052449Y762968D01*
X1053651Y761401D01*
X1055218Y760199D01*
X1057042Y759443D01*
X1059000Y759185D01*
X1060958Y759443D01*
X1062782Y760199D01*
X1064349Y761401D01*
X1065551Y762968D01*
X1066307Y764792D01*
X1066565Y766750D01*
X1066307Y768708D01*
X1065551Y770532D01*
X1064349Y772099D01*
X1062782Y773301D01*
X1060958Y774057D01*
X1059000Y774315D01*
D02*
G37*
G36*
X1098000Y768565D02*
X1096042Y768307D01*
X1094218Y767551D01*
X1092651Y766349D01*
X1091449Y764782D01*
X1090693Y762958D01*
X1090435Y761000D01*
X1090693Y759042D01*
X1091449Y757218D01*
X1092651Y755651D01*
X1094218Y754449D01*
X1096042Y753693D01*
X1098000Y753435D01*
X1099958Y753693D01*
X1101782Y754449D01*
X1103349Y755651D01*
X1104551Y757218D01*
X1105307Y759042D01*
X1105565Y761000D01*
X1105307Y762958D01*
X1104551Y764782D01*
X1103349Y766349D01*
X1101782Y767551D01*
X1099958Y768307D01*
X1098000Y768565D01*
D02*
G37*
G36*
X980999Y765313D02*
X979041Y765055D01*
X977216Y764300D01*
X975650Y763098D01*
X974448Y761531D01*
X973692Y759706D01*
X973434Y757748D01*
X973692Y755791D01*
X974448Y753966D01*
X975650Y752400D01*
X977216Y751197D01*
X979041Y750442D01*
X980999Y750184D01*
X982957Y750442D01*
X984781Y751197D01*
X986348Y752400D01*
X987550Y753966D01*
X988306Y755791D01*
X988564Y757748D01*
X988306Y759706D01*
X987550Y761531D01*
X986348Y763098D01*
X984781Y764300D01*
X982957Y765055D01*
X980999Y765313D01*
D02*
G37*
G36*
X955999Y763557D02*
X954237Y763325D01*
X952595Y762645D01*
X951185Y761563D01*
X950103Y760153D01*
X949423Y758511D01*
X949191Y756749D01*
X949423Y754986D01*
X950103Y753344D01*
X951185Y751934D01*
X952595Y750852D01*
X954237Y750172D01*
X955999Y749940D01*
X957761Y750172D01*
X959403Y750852D01*
X960813Y751934D01*
X961895Y753344D01*
X962575Y754986D01*
X962807Y756749D01*
X962575Y758511D01*
X961895Y760153D01*
X960813Y761563D01*
X959403Y762645D01*
X957761Y763325D01*
X955999Y763557D01*
D02*
G37*
G36*
X926768Y763092D02*
X925005Y762859D01*
X923363Y762179D01*
X921953Y761097D01*
X920872Y759687D01*
X920191Y758045D01*
X919959Y756283D01*
X920191Y754521D01*
X920872Y752879D01*
X921953Y751469D01*
X923363Y750387D01*
X925005Y749707D01*
X926768Y749475D01*
X928530Y749707D01*
X930172Y750387D01*
X931582Y751469D01*
X932664Y752879D01*
X933344Y754521D01*
X933576Y756283D01*
X933344Y758045D01*
X932664Y759687D01*
X931582Y761097D01*
X930172Y762179D01*
X928530Y762859D01*
X926768Y763092D01*
D02*
G37*
G36*
X1291000Y759558D02*
X1289238Y759326D01*
X1287596Y758646D01*
X1286186Y757564D01*
X1285104Y756154D01*
X1284424Y754512D01*
X1284192Y752750D01*
X1284424Y750988D01*
X1285104Y749346D01*
X1286186Y747936D01*
X1287596Y746854D01*
X1289238Y746174D01*
X1291000Y745942D01*
X1292762Y746174D01*
X1294404Y746854D01*
X1295814Y747936D01*
X1296896Y749346D01*
X1297576Y750988D01*
X1297808Y752750D01*
X1297576Y754512D01*
X1296896Y756154D01*
X1295814Y757564D01*
X1294404Y758646D01*
X1292762Y759326D01*
X1291000Y759558D01*
D02*
G37*
G36*
X1024000Y757565D02*
X1022042Y757307D01*
X1020218Y756551D01*
X1018651Y755349D01*
X1017449Y753782D01*
X1016693Y751958D01*
X1016435Y750000D01*
X1016693Y748042D01*
X1017449Y746218D01*
X1018651Y744651D01*
X1020218Y743449D01*
X1022042Y742693D01*
X1024000Y742435D01*
X1025958Y742693D01*
X1027782Y743449D01*
X1029349Y744651D01*
X1030551Y746218D01*
X1031307Y748042D01*
X1031565Y750000D01*
X1031307Y751958D01*
X1030551Y753782D01*
X1029349Y755349D01*
X1027782Y756551D01*
X1025958Y757307D01*
X1024000Y757565D01*
D02*
G37*
G36*
X1399500Y762862D02*
X1396106Y762415D01*
X1392944Y761105D01*
X1390228Y759022D01*
X1388145Y756306D01*
X1386835Y753144D01*
X1386388Y749750D01*
X1386835Y746356D01*
X1388145Y743194D01*
X1390228Y740478D01*
X1392944Y738395D01*
X1396106Y737085D01*
X1399500Y736638D01*
X1402894Y737085D01*
X1406056Y738395D01*
X1408772Y740478D01*
X1410855Y743194D01*
X1412165Y746356D01*
X1412612Y749750D01*
X1412165Y753144D01*
X1410855Y756306D01*
X1408772Y759022D01*
X1406056Y761105D01*
X1402894Y762415D01*
X1399500Y762862D01*
D02*
G37*
G36*
X926277Y745094D02*
X924515Y744862D01*
X922873Y744181D01*
X921463Y743099D01*
X920381Y741689D01*
X919701Y740047D01*
X919469Y738285D01*
X919701Y736523D01*
X920381Y734881D01*
X921463Y733471D01*
X922873Y732389D01*
X924515Y731709D01*
X926277Y731477D01*
X928039Y731709D01*
X929681Y732389D01*
X931091Y733471D01*
X932173Y734881D01*
X932853Y736523D01*
X933085Y738285D01*
X932853Y740047D01*
X932173Y741689D01*
X931091Y743099D01*
X929681Y744181D01*
X928039Y744862D01*
X926277Y745094D01*
D02*
G37*
G36*
X1082250Y741058D02*
X1080488Y740826D01*
X1078846Y740146D01*
X1077436Y739064D01*
X1076354Y737654D01*
X1075674Y736012D01*
X1075442Y734250D01*
X1075674Y732488D01*
X1076354Y730846D01*
X1077436Y729436D01*
X1078846Y728354D01*
X1080488Y727674D01*
X1082250Y727442D01*
X1084012Y727674D01*
X1085654Y728354D01*
X1087064Y729436D01*
X1088146Y730846D01*
X1088826Y732488D01*
X1089058Y734250D01*
X1088826Y736012D01*
X1088146Y737654D01*
X1087064Y739064D01*
X1085654Y740146D01*
X1084012Y740826D01*
X1082250Y741058D01*
D02*
G37*
G36*
X1424500Y748849D02*
X1421498Y748454D01*
X1418700Y747295D01*
X1416298Y745452D01*
X1414455Y743050D01*
X1413296Y740252D01*
X1412901Y737250D01*
X1413296Y734248D01*
X1414455Y731450D01*
X1416298Y729048D01*
X1418700Y727205D01*
X1421498Y726046D01*
X1424500Y725651D01*
X1427502Y726046D01*
X1430300Y727205D01*
X1432702Y729048D01*
X1434545Y731450D01*
X1435704Y734248D01*
X1436099Y737250D01*
X1435704Y740252D01*
X1434545Y743050D01*
X1432702Y745452D01*
X1430300Y747295D01*
X1427502Y748454D01*
X1424500Y748849D01*
D02*
G37*
G36*
X1226000Y737558D02*
X1224238Y737326D01*
X1222596Y736646D01*
X1221186Y735564D01*
X1220104Y734154D01*
X1219424Y732512D01*
X1219192Y730750D01*
X1219424Y728988D01*
X1220104Y727346D01*
X1221186Y725936D01*
X1222596Y724854D01*
X1224238Y724174D01*
X1226000Y723942D01*
X1227762Y724174D01*
X1229404Y724854D01*
X1230814Y725936D01*
X1231896Y727346D01*
X1232576Y728988D01*
X1232808Y730750D01*
X1232576Y732512D01*
X1231896Y734154D01*
X1230814Y735564D01*
X1229404Y736646D01*
X1227762Y737326D01*
X1226000Y737558D01*
D02*
G37*
G36*
X949000Y731565D02*
X947042Y731307D01*
X945218Y730551D01*
X943651Y729349D01*
X942449Y727782D01*
X941693Y725958D01*
X941435Y724000D01*
X941693Y722042D01*
X942449Y720218D01*
X943651Y718651D01*
X945218Y717449D01*
X947042Y716693D01*
X949000Y716435D01*
X950958Y716693D01*
X952782Y717449D01*
X954349Y718651D01*
X955551Y720218D01*
X956307Y722042D01*
X956565Y724000D01*
X956307Y725958D01*
X955551Y727782D01*
X954349Y729349D01*
X952782Y730551D01*
X950958Y731307D01*
X949000Y731565D01*
D02*
G37*
G36*
X1368770Y718714D02*
Y709520D01*
X1377964D01*
X1377769Y711002D01*
X1376707Y713566D01*
X1375017Y715767D01*
X1372816Y717457D01*
X1370251Y718519D01*
X1368770Y718714D01*
D02*
G37*
G36*
X1366230Y718714D02*
X1364749Y718519D01*
X1362184Y717457D01*
X1359983Y715767D01*
X1358293Y713566D01*
X1357231Y711002D01*
X1357036Y709520D01*
X1366230D01*
Y718714D01*
D02*
G37*
G36*
X1160000Y718558D02*
X1158238Y718326D01*
X1156596Y717646D01*
X1155186Y716564D01*
X1154104Y715154D01*
X1153424Y713512D01*
X1153192Y711750D01*
X1153424Y709988D01*
X1154104Y708346D01*
X1155186Y706936D01*
X1156596Y705854D01*
X1158238Y705174D01*
X1160000Y704942D01*
X1161762Y705174D01*
X1163404Y705854D01*
X1164814Y706936D01*
X1165896Y708346D01*
X1166576Y709988D01*
X1166808Y711750D01*
X1166576Y713512D01*
X1165896Y715154D01*
X1164814Y716564D01*
X1163404Y717646D01*
X1161762Y718326D01*
X1160000Y718558D01*
D02*
G37*
G36*
X906000Y713558D02*
X904238Y713326D01*
X902596Y712646D01*
X901186Y711564D01*
X900104Y710154D01*
X899424Y708512D01*
X899192Y706750D01*
X899424Y704988D01*
X899939Y703744D01*
X898804Y702571D01*
X898454Y702362D01*
X897595Y703022D01*
X895041Y704080D01*
X892300Y704441D01*
X889559Y704080D01*
X887005Y703022D01*
X884811Y701339D01*
X883128Y699145D01*
X882070Y696591D01*
X881709Y693850D01*
X882070Y691109D01*
X883128Y688555D01*
X884811Y686361D01*
X887005Y684678D01*
X889559Y683620D01*
X892300Y683259D01*
X895041Y683620D01*
X897595Y684678D01*
X899789Y686361D01*
X901472Y688555D01*
X902530Y691109D01*
X902890Y693850D01*
X902530Y696591D01*
X901472Y699145D01*
X901378Y699268D01*
X902596Y700854D01*
X904238Y700174D01*
X906000Y699942D01*
X907200Y698889D01*
Y683350D01*
X928200D01*
Y704350D01*
X914342D01*
X912756Y706350D01*
X912808Y706750D01*
X912576Y708512D01*
X911896Y710154D01*
X910814Y711564D01*
X909404Y712646D01*
X907762Y713326D01*
X906000Y713558D01*
D02*
G37*
G36*
X963000D02*
X961238Y713326D01*
X959596Y712646D01*
X958186Y711564D01*
X957104Y710154D01*
X956424Y708512D01*
X956192Y706750D01*
X956424Y704988D01*
X957104Y703346D01*
X958186Y701936D01*
X959596Y700854D01*
X961238Y700174D01*
X963000Y699942D01*
X964762Y700174D01*
X966404Y700854D01*
X967814Y701936D01*
X968896Y703346D01*
X969576Y704988D01*
X969808Y706750D01*
X969576Y708512D01*
X968896Y710154D01*
X967814Y711564D01*
X966404Y712646D01*
X964762Y713326D01*
X963000Y713558D01*
D02*
G37*
G36*
X1377964Y706980D02*
X1368770D01*
Y697786D01*
X1370251Y697981D01*
X1372816Y699043D01*
X1375017Y700733D01*
X1376707Y702934D01*
X1377769Y705499D01*
X1377964Y706980D01*
D02*
G37*
G36*
X1366230D02*
X1357036D01*
X1357231Y705499D01*
X1358293Y702934D01*
X1359983Y700733D01*
X1362184Y699043D01*
X1364749Y697981D01*
X1366230Y697786D01*
Y706980D01*
D02*
G37*
G36*
X1057000Y707308D02*
X1055238Y707076D01*
X1053596Y706396D01*
X1052186Y705314D01*
X1051104Y703904D01*
X1050424Y702262D01*
X1050192Y700500D01*
X1050424Y698738D01*
X1051104Y697096D01*
X1052186Y695686D01*
X1053596Y694604D01*
X1055238Y693924D01*
X1057000Y693692D01*
X1058762Y693924D01*
X1060404Y694604D01*
X1061814Y695686D01*
X1062896Y697096D01*
X1063576Y698738D01*
X1063808Y700500D01*
X1063576Y702262D01*
X1062896Y703904D01*
X1061814Y705314D01*
X1060404Y706396D01*
X1058762Y707076D01*
X1057000Y707308D01*
D02*
G37*
G36*
X1425770Y703218D02*
Y693520D01*
X1435468D01*
X1435256Y695132D01*
X1434143Y697818D01*
X1432374Y700124D01*
X1430068Y701893D01*
X1427382Y703006D01*
X1425770Y703218D01*
D02*
G37*
G36*
X1423230D02*
X1421618Y703006D01*
X1418932Y701893D01*
X1416626Y700124D01*
X1414857Y697818D01*
X1413744Y695132D01*
X1413532Y693520D01*
X1423230D01*
Y703218D01*
D02*
G37*
G36*
X1102750Y706558D02*
X1100988Y706326D01*
X1099346Y705646D01*
X1097936Y704564D01*
X1096854Y703154D01*
X1096174Y701512D01*
X1095942Y699750D01*
X1096174Y697988D01*
X1096854Y696346D01*
X1097936Y694936D01*
X1099346Y693854D01*
X1100988Y693174D01*
X1102750Y692942D01*
X1104512Y693174D01*
X1106154Y693854D01*
X1107564Y694936D01*
X1108646Y696346D01*
X1109326Y697988D01*
X1109558Y699750D01*
X1109326Y701512D01*
X1108646Y703154D01*
X1107564Y704564D01*
X1106154Y705646D01*
X1104512Y706326D01*
X1102750Y706558D01*
D02*
G37*
G36*
X1269000Y703315D02*
X1267042Y703057D01*
X1265218Y702301D01*
X1263651Y701099D01*
X1262449Y699532D01*
X1261693Y697708D01*
X1261435Y695750D01*
X1261693Y693792D01*
X1262449Y691968D01*
X1263651Y690401D01*
X1265218Y689199D01*
X1267042Y688443D01*
X1269000Y688185D01*
X1270958Y688443D01*
X1272782Y689199D01*
X1274349Y690401D01*
X1275551Y691968D01*
X1276307Y693792D01*
X1276565Y695750D01*
X1276307Y697708D01*
X1275551Y699532D01*
X1274349Y701099D01*
X1272782Y702301D01*
X1270958Y703057D01*
X1269000Y703315D01*
D02*
G37*
G36*
X847700Y704441D02*
X844959Y704080D01*
X842405Y703022D01*
X840211Y701339D01*
X838528Y699145D01*
X837470Y696591D01*
X837109Y693850D01*
X837470Y691109D01*
X838528Y688555D01*
X840211Y686361D01*
X842405Y684678D01*
X844959Y683620D01*
X847700Y683259D01*
X850441Y683620D01*
X852995Y684678D01*
X855189Y686361D01*
X856872Y688555D01*
X857930Y691109D01*
X858290Y693850D01*
X857930Y696591D01*
X856872Y699145D01*
X855189Y701339D01*
X852995Y703022D01*
X850441Y704080D01*
X847700Y704441D01*
D02*
G37*
G36*
X1435468Y690980D02*
X1425770D01*
Y681282D01*
X1427382Y681494D01*
X1430068Y682607D01*
X1432374Y684376D01*
X1434143Y686682D01*
X1435256Y689368D01*
X1435468Y690980D01*
D02*
G37*
G36*
X1423230D02*
X1413532D01*
X1413744Y689368D01*
X1414857Y686682D01*
X1416626Y684376D01*
X1418932Y682607D01*
X1421618Y681494D01*
X1423230Y681282D01*
Y690980D01*
D02*
G37*
G36*
X866999Y690557D02*
X865237Y690325D01*
X863595Y689645D01*
X862185Y688563D01*
X861103Y687153D01*
X860423Y685511D01*
X860191Y683749D01*
X860423Y681987D01*
X861103Y680344D01*
X862185Y678934D01*
X863595Y677853D01*
X865237Y677172D01*
X866999Y676940D01*
X868761Y677172D01*
X870403Y677853D01*
X871813Y678934D01*
X872895Y680344D01*
X873575Y681987D01*
X873807Y683749D01*
X873575Y685511D01*
X872895Y687153D01*
X871813Y688563D01*
X870403Y689645D01*
X868761Y690325D01*
X866999Y690557D01*
D02*
G37*
G36*
X958000Y686558D02*
X956238Y686326D01*
X954596Y685646D01*
X953186Y684564D01*
X952104Y683154D01*
X951424Y681512D01*
X951192Y679750D01*
X951424Y677988D01*
X952104Y676346D01*
X953186Y674936D01*
X954596Y673854D01*
X956238Y673174D01*
X958000Y672942D01*
X959762Y673174D01*
X961404Y673854D01*
X962814Y674936D01*
X963896Y676346D01*
X964576Y677988D01*
X964808Y679750D01*
X964576Y681512D01*
X963896Y683154D01*
X962814Y684564D01*
X961404Y685646D01*
X959762Y686326D01*
X958000Y686558D01*
D02*
G37*
G36*
X1371270Y681214D02*
Y672020D01*
X1380464D01*
X1380269Y673502D01*
X1379207Y676066D01*
X1377517Y678267D01*
X1375316Y679957D01*
X1372751Y681019D01*
X1371270Y681214D01*
D02*
G37*
G36*
X1368730D02*
X1367249Y681019D01*
X1364684Y679957D01*
X1362483Y678267D01*
X1360793Y676066D01*
X1359731Y673502D01*
X1359536Y672020D01*
X1368730D01*
Y681214D01*
D02*
G37*
G36*
X1221000Y682558D02*
X1219238Y682326D01*
X1217596Y681646D01*
X1216186Y680564D01*
X1215104Y679154D01*
X1214424Y677512D01*
X1214192Y675750D01*
X1214424Y673988D01*
X1215104Y672346D01*
X1216186Y670936D01*
X1217596Y669854D01*
X1219238Y669174D01*
X1221000Y668942D01*
X1222762Y669174D01*
X1224404Y669854D01*
X1225814Y670936D01*
X1226896Y672346D01*
X1227576Y673988D01*
X1227808Y675750D01*
X1227576Y677512D01*
X1226896Y679154D01*
X1225814Y680564D01*
X1224404Y681646D01*
X1222762Y682326D01*
X1221000Y682558D01*
D02*
G37*
G36*
X1289250Y695308D02*
X1287488Y695076D01*
X1285846Y694396D01*
X1284436Y693314D01*
X1283354Y691904D01*
X1282674Y690262D01*
X1282442Y688500D01*
X1282674Y686738D01*
X1283354Y685096D01*
X1284436Y683686D01*
X1285846Y682604D01*
X1287488Y681924D01*
X1288823Y681748D01*
X1288692Y680750D01*
X1288924Y678988D01*
X1289604Y677346D01*
X1290686Y675936D01*
X1292096Y674854D01*
X1293738Y674174D01*
X1295500Y673942D01*
X1297262Y674174D01*
X1298348Y673547D01*
X1298422Y672987D01*
X1299102Y671345D01*
X1300184Y669934D01*
X1301594Y668853D01*
X1303236Y668172D01*
X1304998Y667940D01*
X1306760Y668172D01*
X1308402Y668853D01*
X1309812Y669934D01*
X1310894Y671345D01*
X1311574Y672987D01*
X1311806Y674749D01*
X1311574Y676511D01*
X1310894Y678153D01*
X1309812Y679563D01*
X1308402Y680645D01*
X1306760Y681325D01*
X1304998Y681557D01*
X1303236Y681325D01*
X1302150Y681952D01*
X1302076Y682512D01*
X1301396Y684154D01*
X1300314Y685564D01*
X1298904Y686646D01*
X1297262Y687326D01*
X1295927Y687502D01*
X1296058Y688500D01*
X1295826Y690262D01*
X1295146Y691904D01*
X1294064Y693314D01*
X1292654Y694396D01*
X1291012Y695076D01*
X1289250Y695308D01*
D02*
G37*
G36*
X1399500Y692862D02*
X1396106Y692415D01*
X1392944Y691105D01*
X1390228Y689022D01*
X1388145Y686306D01*
X1386835Y683144D01*
X1386388Y679750D01*
X1386835Y676356D01*
X1388145Y673194D01*
X1390228Y670478D01*
X1392944Y668394D01*
X1396106Y667085D01*
X1399500Y666638D01*
X1402894Y667085D01*
X1406056Y668394D01*
X1408772Y670478D01*
X1410855Y673194D01*
X1412165Y676356D01*
X1412612Y679750D01*
X1412165Y683144D01*
X1410855Y686306D01*
X1408772Y689022D01*
X1406056Y691105D01*
X1402894Y692415D01*
X1399500Y692862D01*
D02*
G37*
G36*
X929000Y677558D02*
X927238Y677326D01*
X925596Y676646D01*
X924186Y675564D01*
X923104Y674154D01*
X922424Y672512D01*
X922192Y670750D01*
X922424Y668988D01*
X923104Y667346D01*
X924186Y665936D01*
X925596Y664854D01*
X927238Y664174D01*
X929000Y663942D01*
X930762Y664174D01*
X932404Y664854D01*
X933814Y665936D01*
X934896Y667346D01*
X935576Y668988D01*
X935808Y670750D01*
X935576Y672512D01*
X934896Y674154D01*
X933814Y675564D01*
X932404Y676646D01*
X930762Y677326D01*
X929000Y677558D01*
D02*
G37*
G36*
X1035000Y674058D02*
X1033238Y673826D01*
X1031596Y673146D01*
X1030186Y672064D01*
X1029104Y670654D01*
X1028424Y669012D01*
X1028192Y667250D01*
X1028424Y665488D01*
X1029104Y663846D01*
X1030186Y662436D01*
X1031596Y661354D01*
X1033238Y660674D01*
X1035000Y660442D01*
X1036762Y660674D01*
X1038404Y661354D01*
X1039814Y662436D01*
X1040896Y663846D01*
X1041576Y665488D01*
X1041808Y667250D01*
X1041576Y669012D01*
X1040896Y670654D01*
X1039814Y672064D01*
X1038404Y673146D01*
X1036762Y673826D01*
X1035000Y674058D01*
D02*
G37*
G36*
X1380464Y669480D02*
X1371270D01*
Y660286D01*
X1372751Y660481D01*
X1375316Y661543D01*
X1377517Y663233D01*
X1379207Y665434D01*
X1380269Y667999D01*
X1380464Y669480D01*
D02*
G37*
G36*
X1368730D02*
X1359536D01*
X1359731Y667999D01*
X1360793Y665434D01*
X1362483Y663233D01*
X1364684Y661543D01*
X1367249Y660481D01*
X1368730Y660286D01*
Y669480D01*
D02*
G37*
G36*
X1058500Y682058D02*
X1056738Y681826D01*
X1055096Y681146D01*
X1053686Y680064D01*
X1052604Y678654D01*
X1051924Y677012D01*
X1051692Y675250D01*
X1051924Y673488D01*
X1050435Y673102D01*
X1050238Y673076D01*
X1048596Y672396D01*
X1047186Y671314D01*
X1046104Y669904D01*
X1045424Y668262D01*
X1045192Y666500D01*
X1045424Y664738D01*
X1046104Y663096D01*
X1047186Y661686D01*
X1048596Y660604D01*
X1050238Y659924D01*
X1052000Y659692D01*
X1053762Y659924D01*
X1055404Y660604D01*
X1056814Y661686D01*
X1057896Y663096D01*
X1058576Y664738D01*
X1058808Y666500D01*
X1058701Y667315D01*
X1060262Y668674D01*
X1061904Y669354D01*
X1063314Y670436D01*
X1064396Y671846D01*
X1065076Y673488D01*
X1065308Y675250D01*
X1065076Y677012D01*
X1064396Y678654D01*
X1063314Y680064D01*
X1061904Y681146D01*
X1060262Y681826D01*
X1058500Y682058D01*
D02*
G37*
G36*
X1100000Y665815D02*
X1098042Y665557D01*
X1096218Y664801D01*
X1094651Y663599D01*
X1093449Y662032D01*
X1092693Y660208D01*
X1092435Y658250D01*
X1092693Y656292D01*
X1093449Y654468D01*
X1094651Y652901D01*
X1096218Y651699D01*
X1098042Y650943D01*
X1100000Y650685D01*
X1101958Y650943D01*
X1103782Y651699D01*
X1105349Y652901D01*
X1106551Y654468D01*
X1107307Y656292D01*
X1107565Y658250D01*
X1107307Y660208D01*
X1106551Y662032D01*
X1105349Y663599D01*
X1103782Y664801D01*
X1101958Y665557D01*
X1100000Y665815D01*
D02*
G37*
G36*
X1022000Y662308D02*
X1020238Y662076D01*
X1018596Y661396D01*
X1017186Y660314D01*
X1016104Y658904D01*
X1015424Y657262D01*
X1015192Y655500D01*
X1015424Y653738D01*
X1016104Y652096D01*
X1017186Y650686D01*
X1018596Y649604D01*
X1020238Y648924D01*
X1022000Y648692D01*
X1023762Y648924D01*
X1025404Y649604D01*
X1026814Y650686D01*
X1027896Y652096D01*
X1028576Y653738D01*
X1028808Y655500D01*
X1028576Y657262D01*
X1027896Y658904D01*
X1026814Y660314D01*
X1025404Y661396D01*
X1023762Y662076D01*
X1022000Y662308D01*
D02*
G37*
G36*
X1400000Y660058D02*
X1398238Y659826D01*
X1396596Y659146D01*
X1395186Y658064D01*
X1394104Y656654D01*
X1393424Y655012D01*
X1393192Y653250D01*
X1393424Y651488D01*
X1394104Y649846D01*
X1395186Y648436D01*
X1396596Y647354D01*
X1398238Y646674D01*
X1400000Y646442D01*
X1401762Y646674D01*
X1403404Y647354D01*
X1404814Y648436D01*
X1405896Y649846D01*
X1406576Y651488D01*
X1406808Y653250D01*
X1406576Y655012D01*
X1405896Y656654D01*
X1404814Y658064D01*
X1403404Y659146D01*
X1401762Y659826D01*
X1400000Y660058D01*
D02*
G37*
G36*
X1308998Y655557D02*
X1307236Y655325D01*
X1305594Y654645D01*
X1304184Y653563D01*
X1303102Y652153D01*
X1302422Y650511D01*
X1302190Y648749D01*
X1302422Y646987D01*
X1303102Y645345D01*
X1304184Y643935D01*
X1305594Y642853D01*
X1307236Y642172D01*
X1308998Y641941D01*
X1310760Y642172D01*
X1312402Y642853D01*
X1313812Y643935D01*
X1314894Y645345D01*
X1315574Y646987D01*
X1315806Y648749D01*
X1315574Y650511D01*
X1314894Y652153D01*
X1313812Y653563D01*
X1312402Y654645D01*
X1310760Y655325D01*
X1308998Y655557D01*
D02*
G37*
G36*
X1268044Y653589D02*
X1266282Y653357D01*
X1264640Y652677D01*
X1263230Y651595D01*
X1262148Y650185D01*
X1261468Y648543D01*
X1261236Y646781D01*
X1261468Y645019D01*
X1262148Y643377D01*
X1263230Y641967D01*
X1264640Y640885D01*
X1266282Y640204D01*
X1268044Y639973D01*
X1269806Y640204D01*
X1271448Y640885D01*
X1272858Y641967D01*
X1273940Y643377D01*
X1274620Y645019D01*
X1274852Y646781D01*
X1274620Y648543D01*
X1273940Y650185D01*
X1272858Y651595D01*
X1271448Y652677D01*
X1269806Y653357D01*
X1268044Y653589D01*
D02*
G37*
G36*
X1142000Y673558D02*
X1140238Y673326D01*
X1138596Y672646D01*
X1137186Y671564D01*
X1136104Y670154D01*
X1135424Y668512D01*
X1135192Y666750D01*
X1135424Y664988D01*
X1136104Y663346D01*
X1137186Y661936D01*
X1138596Y660854D01*
X1140238Y660174D01*
X1142000Y659942D01*
X1143762Y660174D01*
X1145315Y660817D01*
X1145717Y660660D01*
X1147192Y659750D01*
X1147424Y657988D01*
X1148104Y656346D01*
X1149186Y654936D01*
X1150596Y653854D01*
X1152238Y653174D01*
X1154000Y652942D01*
X1155762Y653174D01*
X1157404Y653854D01*
X1158211Y654473D01*
X1160047Y653916D01*
X1160333Y653679D01*
X1160424Y652988D01*
X1161104Y651346D01*
X1162186Y649936D01*
X1163596Y648854D01*
X1165238Y648174D01*
X1167000Y647942D01*
X1168337Y648118D01*
X1168859Y646169D01*
X1167596Y645646D01*
X1166186Y644564D01*
X1165104Y643154D01*
X1164424Y641512D01*
X1164192Y639750D01*
X1164424Y637988D01*
X1165104Y636346D01*
X1166186Y634936D01*
X1167596Y633854D01*
X1169238Y633174D01*
X1171000Y632942D01*
X1172762Y633174D01*
X1174404Y633854D01*
X1175814Y634936D01*
X1176896Y636346D01*
X1177576Y637988D01*
X1177808Y639750D01*
X1177764Y640087D01*
X1178955Y641874D01*
X1179424Y641998D01*
X1180762Y642174D01*
X1182404Y642854D01*
X1183814Y643936D01*
X1184896Y645346D01*
X1185576Y646988D01*
X1185808Y648750D01*
X1185576Y650512D01*
X1184896Y652154D01*
X1183814Y653564D01*
X1182404Y654646D01*
X1180762Y655326D01*
X1179000Y655558D01*
X1177238Y655326D01*
X1175734Y654703D01*
X1175654Y654705D01*
X1175338Y654788D01*
X1173683Y655699D01*
X1173576Y656512D01*
X1172896Y658154D01*
X1171814Y659564D01*
X1170404Y660646D01*
X1168762Y661326D01*
X1167000Y661558D01*
X1165238Y661326D01*
X1163596Y660646D01*
X1162789Y660027D01*
X1160953Y660584D01*
X1160667Y660821D01*
X1160576Y661512D01*
X1159896Y663154D01*
X1158814Y664564D01*
X1157404Y665646D01*
X1155762Y666326D01*
X1154000Y666558D01*
X1152238Y666326D01*
X1150685Y665683D01*
X1150283Y665840D01*
X1148808Y666750D01*
X1148576Y668512D01*
X1147896Y670154D01*
X1146814Y671564D01*
X1145404Y672646D01*
X1143762Y673326D01*
X1142000Y673558D01*
D02*
G37*
G36*
X1341832Y646358D02*
X1340070Y646126D01*
X1338428Y645446D01*
X1337018Y644364D01*
X1335936Y642954D01*
X1335255Y641312D01*
X1335024Y639550D01*
X1335255Y637788D01*
X1335936Y636146D01*
X1337018Y634736D01*
X1338428Y633654D01*
X1340070Y632974D01*
X1341832Y632742D01*
X1343594Y632974D01*
X1345236Y633654D01*
X1346646Y634736D01*
X1347728Y636146D01*
X1348408Y637788D01*
X1348640Y639550D01*
X1348408Y641312D01*
X1347728Y642954D01*
X1346646Y644364D01*
X1345236Y645446D01*
X1343594Y646126D01*
X1341832Y646358D01*
D02*
G37*
G36*
X1193000Y642558D02*
X1191238Y642326D01*
X1189596Y641646D01*
X1188186Y640564D01*
X1187104Y639154D01*
X1186424Y637512D01*
X1186192Y635750D01*
X1186424Y633988D01*
X1187104Y632346D01*
X1188186Y630936D01*
X1189596Y629854D01*
X1191238Y629174D01*
X1193000Y628942D01*
X1194762Y629174D01*
X1196404Y629854D01*
X1197814Y630936D01*
X1198896Y632346D01*
X1199576Y633988D01*
X1199808Y635750D01*
X1199576Y637512D01*
X1198896Y639154D01*
X1197814Y640564D01*
X1196404Y641646D01*
X1194762Y642326D01*
X1193000Y642558D01*
D02*
G37*
G36*
X1280544Y640338D02*
X1278782Y640106D01*
X1277140Y639426D01*
X1275730Y638344D01*
X1274648Y636934D01*
X1273968Y635292D01*
X1273736Y633530D01*
X1273968Y631768D01*
X1274648Y630126D01*
X1275730Y628716D01*
X1277140Y627634D01*
X1278782Y626954D01*
X1280544Y626722D01*
X1282307Y626954D01*
X1283949Y627634D01*
X1285359Y628716D01*
X1286440Y630126D01*
X1287121Y631768D01*
X1287353Y633530D01*
X1287121Y635292D01*
X1286440Y636934D01*
X1285359Y638344D01*
X1283949Y639426D01*
X1282307Y640106D01*
X1280544Y640338D01*
D02*
G37*
G36*
X848970Y627609D02*
Y618920D01*
X857659D01*
X857482Y620271D01*
X856470Y622713D01*
X854861Y624811D01*
X852763Y626420D01*
X850321Y627432D01*
X848970Y627609D01*
D02*
G37*
G36*
X893570D02*
Y618920D01*
X902259D01*
X902082Y620271D01*
X901070Y622713D01*
X899461Y624811D01*
X897363Y626420D01*
X894921Y627432D01*
X893570Y627609D01*
D02*
G37*
G36*
X891030D02*
X889679Y627432D01*
X887237Y626420D01*
X885139Y624811D01*
X883530Y622713D01*
X882518Y620271D01*
X882341Y618920D01*
X891030D01*
Y627609D01*
D02*
G37*
G36*
X846430D02*
X845079Y627432D01*
X842637Y626420D01*
X840539Y624811D01*
X838930Y622713D01*
X837918Y620271D01*
X837740Y618920D01*
X846430D01*
Y627609D01*
D02*
G37*
G36*
X760400Y638050D02*
X737400D01*
Y615050D01*
X760400D01*
Y638050D01*
D02*
G37*
G36*
X1308546Y628588D02*
X1306784Y628356D01*
X1305142Y627676D01*
X1303732Y626594D01*
X1302650Y625184D01*
X1301969Y623542D01*
X1301738Y621780D01*
X1301969Y620018D01*
X1302650Y618375D01*
X1303732Y616965D01*
X1305142Y615883D01*
X1306784Y615203D01*
X1308546Y614971D01*
X1310308Y615203D01*
X1311950Y615883D01*
X1313360Y616965D01*
X1314442Y618375D01*
X1315122Y620018D01*
X1315354Y621780D01*
X1315122Y623542D01*
X1314442Y625184D01*
X1313360Y626594D01*
X1311950Y627676D01*
X1310308Y628356D01*
X1308546Y628588D01*
D02*
G37*
G36*
X774300Y638149D02*
X771298Y637754D01*
X768501Y636595D01*
X766098Y634752D01*
X764255Y632350D01*
X763096Y629552D01*
X762701Y626550D01*
X763096Y623548D01*
X764255Y620750D01*
X766098Y618348D01*
X768501Y616505D01*
X771298Y615346D01*
X774300Y614951D01*
X777302Y615346D01*
X780100Y616505D01*
X782502Y618348D01*
X784345Y620750D01*
X785504Y623548D01*
X785899Y626550D01*
X785504Y629552D01*
X784345Y632350D01*
X782502Y634752D01*
X780100Y636595D01*
X777302Y637754D01*
X774300Y638149D01*
D02*
G37*
G36*
X1233000Y632558D02*
X1231238Y632326D01*
X1229596Y631646D01*
X1228186Y630564D01*
X1227104Y629154D01*
X1226424Y627512D01*
X1226192Y625750D01*
X1226424Y623988D01*
X1225137Y621868D01*
X1225026Y621853D01*
X1223384Y621173D01*
X1221974Y620091D01*
X1220892Y618681D01*
X1220212Y617039D01*
X1219980Y615277D01*
X1220212Y613515D01*
X1220892Y611873D01*
X1221974Y610463D01*
X1223384Y609381D01*
X1225026Y608701D01*
X1226788Y608469D01*
X1228550Y608701D01*
X1230192Y609381D01*
X1231602Y610463D01*
X1232684Y611873D01*
X1233364Y613515D01*
X1233596Y615277D01*
X1233364Y617039D01*
X1234651Y619159D01*
X1234762Y619174D01*
X1236404Y619854D01*
X1237814Y620936D01*
X1238896Y622346D01*
X1239576Y623988D01*
X1239808Y625750D01*
X1239576Y627512D01*
X1238896Y629154D01*
X1237814Y630564D01*
X1236404Y631646D01*
X1234762Y632326D01*
X1233000Y632558D01*
D02*
G37*
G36*
X902259Y616380D02*
X893570D01*
Y607691D01*
X894921Y607868D01*
X897363Y608880D01*
X899461Y610489D01*
X901070Y612587D01*
X902082Y615029D01*
X902259Y616380D01*
D02*
G37*
G36*
X846430D02*
X837740D01*
X837918Y615029D01*
X838930Y612587D01*
X840539Y610489D01*
X842637Y608880D01*
X845079Y607868D01*
X846430Y607691D01*
Y616380D01*
D02*
G37*
G36*
X857659D02*
X848970D01*
Y607691D01*
X850321Y607868D01*
X852763Y608880D01*
X854861Y610489D01*
X856470Y612587D01*
X857482Y615029D01*
X857659Y616380D01*
D02*
G37*
G36*
X891030D02*
X882341D01*
X882518Y615029D01*
X883530Y612587D01*
X885139Y610489D01*
X887237Y608880D01*
X889679Y607868D01*
X891030Y607691D01*
Y616380D01*
D02*
G37*
G36*
X832800Y628150D02*
X811800D01*
Y607150D01*
X832800D01*
Y628150D01*
D02*
G37*
G36*
X917700Y628241D02*
X914959Y627880D01*
X912405Y626822D01*
X910211Y625139D01*
X908528Y622945D01*
X907470Y620391D01*
X907109Y617650D01*
X907470Y614909D01*
X908528Y612355D01*
X910211Y610161D01*
X912405Y608478D01*
X914959Y607420D01*
X917700Y607059D01*
X920441Y607420D01*
X922995Y608478D01*
X925189Y610161D01*
X926872Y612355D01*
X927930Y614909D01*
X928290Y617650D01*
X927930Y620391D01*
X926872Y622945D01*
X925189Y625139D01*
X922995Y626822D01*
X920441Y627880D01*
X917700Y628241D01*
D02*
G37*
G36*
X1293998Y617557D02*
X1292236Y617325D01*
X1290594Y616645D01*
X1289184Y615563D01*
X1288102Y614153D01*
X1287422Y612511D01*
X1287190Y610749D01*
X1287422Y608987D01*
X1288102Y607345D01*
X1289184Y605935D01*
X1290594Y604853D01*
X1292236Y604173D01*
X1293998Y603941D01*
X1295760Y604173D01*
X1297402Y604853D01*
X1298812Y605935D01*
X1299894Y607345D01*
X1300574Y608987D01*
X1300806Y610749D01*
X1300574Y612511D01*
X1299894Y614153D01*
X1298812Y615563D01*
X1297402Y616645D01*
X1295760Y617325D01*
X1293998Y617557D01*
D02*
G37*
G36*
X951250Y616808D02*
X949488Y616576D01*
X947846Y615896D01*
X946436Y614814D01*
X945354Y613404D01*
X944674Y611762D01*
X944442Y610000D01*
X944674Y608238D01*
X945354Y606596D01*
X946436Y605186D01*
X947846Y604104D01*
X949488Y603424D01*
X951250Y603192D01*
X953012Y603424D01*
X954654Y604104D01*
X956064Y605186D01*
X957146Y606596D01*
X957826Y608238D01*
X958058Y610000D01*
X957826Y611762D01*
X957146Y613404D01*
X956064Y614814D01*
X954654Y615896D01*
X953012Y616576D01*
X951250Y616808D01*
D02*
G37*
G36*
X1363000Y616558D02*
X1361238Y616326D01*
X1359596Y615646D01*
X1358186Y614564D01*
X1357104Y613154D01*
X1356424Y611512D01*
X1356192Y609750D01*
X1356424Y607988D01*
X1357104Y606346D01*
X1358186Y604936D01*
X1359596Y603854D01*
X1361238Y603174D01*
X1363000Y602942D01*
X1364762Y603174D01*
X1366404Y603854D01*
X1367814Y604936D01*
X1368896Y606346D01*
X1369576Y607988D01*
X1369808Y609750D01*
X1369576Y611512D01*
X1368896Y613154D01*
X1367814Y614564D01*
X1366404Y615646D01*
X1364762Y616326D01*
X1363000Y616558D01*
D02*
G37*
G36*
X972000Y614308D02*
X970238Y614076D01*
X968596Y613396D01*
X967186Y612314D01*
X966104Y610904D01*
X965424Y609262D01*
X965192Y607500D01*
X965424Y605738D01*
X966104Y604096D01*
X967186Y602686D01*
X968596Y601604D01*
X970238Y600924D01*
X972000Y600692D01*
X973762Y600924D01*
X975404Y601604D01*
X976814Y602686D01*
X977896Y604096D01*
X978576Y605738D01*
X978808Y607500D01*
X978576Y609262D01*
X977896Y610904D01*
X976814Y612314D01*
X975404Y613396D01*
X973762Y614076D01*
X972000Y614308D01*
D02*
G37*
G36*
X1437270Y606718D02*
Y597020D01*
X1446968D01*
X1446756Y598632D01*
X1445643Y601318D01*
X1443874Y603624D01*
X1441568Y605393D01*
X1438882Y606506D01*
X1437270Y606718D01*
D02*
G37*
G36*
X1434730Y606718D02*
X1433118Y606506D01*
X1430432Y605393D01*
X1428126Y603624D01*
X1426357Y601318D01*
X1425244Y598632D01*
X1425032Y597020D01*
X1434730D01*
Y606718D01*
D02*
G37*
G36*
X1215000Y605558D02*
X1213238Y605326D01*
X1211596Y604646D01*
X1210186Y603564D01*
X1209104Y602154D01*
X1208424Y600512D01*
X1208192Y598750D01*
X1208424Y596988D01*
X1209104Y595346D01*
X1210186Y593936D01*
X1211596Y592854D01*
X1213238Y592174D01*
X1215000Y591942D01*
X1216762Y592174D01*
X1218404Y592854D01*
X1219814Y593936D01*
X1220896Y595346D01*
X1221576Y596988D01*
X1221808Y598750D01*
X1221576Y600512D01*
X1220896Y602154D01*
X1219814Y603564D01*
X1218404Y604646D01*
X1216762Y605326D01*
X1215000Y605558D01*
D02*
G37*
G36*
X1347500Y602280D02*
X1345738Y602048D01*
X1344096Y601368D01*
X1342686Y600286D01*
X1341604Y598876D01*
X1340924Y597234D01*
X1340692Y595472D01*
X1340924Y593710D01*
X1341604Y592068D01*
X1342686Y590658D01*
X1344096Y589576D01*
X1345738Y588896D01*
X1347500Y588664D01*
X1349262Y588896D01*
X1350904Y589576D01*
X1352314Y590658D01*
X1353396Y592068D01*
X1354076Y593710D01*
X1354308Y595472D01*
X1354076Y597234D01*
X1353396Y598876D01*
X1352314Y600286D01*
X1350904Y601368D01*
X1349262Y602048D01*
X1347500Y602280D01*
D02*
G37*
G36*
X1088639Y612676D02*
X1086681Y612418D01*
X1084857Y611662D01*
X1083290Y610460D01*
X1082088Y608893D01*
X1081332Y607069D01*
X1081074Y605111D01*
X1081332Y603153D01*
X1082088Y601329D01*
X1083290Y599762D01*
Y599460D01*
X1082088Y597893D01*
X1081332Y596069D01*
X1081074Y594111D01*
X1081332Y592153D01*
X1082088Y590329D01*
X1083290Y588762D01*
X1084857Y587560D01*
X1086681Y586804D01*
X1088639Y586546D01*
X1090597Y586804D01*
X1092421Y587560D01*
X1093988Y588762D01*
X1095190Y590329D01*
X1095946Y592153D01*
X1096204Y594111D01*
X1095946Y596069D01*
X1095190Y597893D01*
X1093988Y599460D01*
Y599762D01*
X1095190Y601329D01*
X1095946Y603153D01*
X1096204Y605111D01*
X1095946Y607069D01*
X1095190Y608893D01*
X1093988Y610460D01*
X1092421Y611662D01*
X1090597Y612418D01*
X1088639Y612676D01*
D02*
G37*
G36*
X1434730Y594480D02*
X1425032D01*
X1425244Y592868D01*
X1426357Y590182D01*
X1428126Y587876D01*
X1430432Y586107D01*
X1433118Y584994D01*
X1434730Y584782D01*
Y594480D01*
D02*
G37*
G36*
X1446968D02*
X1437270D01*
Y584782D01*
X1438882Y584994D01*
X1441568Y586107D01*
X1443874Y587876D01*
X1445643Y590182D01*
X1446756Y592868D01*
X1446968Y594480D01*
D02*
G37*
G36*
X1472900Y607250D02*
X1449900D01*
Y584250D01*
X1472900D01*
Y607250D01*
D02*
G37*
G36*
X1288000Y596558D02*
X1286238Y596326D01*
X1284596Y595646D01*
X1283186Y594564D01*
X1282104Y593154D01*
X1281424Y591512D01*
X1281192Y589750D01*
X1281424Y587988D01*
X1282104Y586346D01*
X1283186Y584936D01*
X1284596Y583854D01*
X1286238Y583174D01*
X1288000Y582942D01*
X1289762Y583174D01*
X1291404Y583854D01*
X1292814Y584936D01*
X1293896Y586346D01*
X1294576Y587988D01*
X1294808Y589750D01*
X1294576Y591512D01*
X1293896Y593154D01*
X1292814Y594564D01*
X1291404Y595646D01*
X1289762Y596326D01*
X1288000Y596558D01*
D02*
G37*
G36*
X1111000Y594558D02*
X1109238Y594326D01*
X1107596Y593646D01*
X1106186Y592564D01*
X1105104Y591154D01*
X1104424Y589512D01*
X1104192Y587750D01*
X1104424Y585988D01*
X1105104Y584346D01*
X1106186Y582936D01*
X1107596Y581854D01*
X1109238Y581174D01*
X1111000Y580942D01*
X1112762Y581174D01*
X1114404Y581854D01*
X1115814Y582936D01*
X1116896Y584346D01*
X1117576Y585988D01*
X1117808Y587750D01*
X1117576Y589512D01*
X1116896Y591154D01*
X1115814Y592564D01*
X1114404Y593646D01*
X1112762Y594326D01*
X1111000Y594558D01*
D02*
G37*
G36*
X1260000Y593558D02*
X1258238Y593326D01*
X1256596Y592646D01*
X1255186Y591564D01*
X1254104Y590154D01*
X1253424Y588512D01*
X1253192Y586750D01*
X1253424Y584988D01*
X1254104Y583346D01*
X1255186Y581936D01*
X1256596Y580854D01*
X1258238Y580174D01*
X1260000Y579942D01*
X1261762Y580174D01*
X1263404Y580854D01*
X1264814Y581936D01*
X1265896Y583346D01*
X1266576Y584988D01*
X1266808Y586750D01*
X1266576Y588512D01*
X1265896Y590154D01*
X1264814Y591564D01*
X1263404Y592646D01*
X1261762Y593326D01*
X1260000Y593558D01*
D02*
G37*
G36*
X1328000Y586308D02*
X1326238Y586076D01*
X1324596Y585396D01*
X1323186Y584314D01*
X1322104Y582904D01*
X1321424Y581262D01*
X1321192Y579500D01*
X1321424Y577738D01*
X1322104Y576096D01*
X1323186Y574686D01*
X1324596Y573604D01*
X1326238Y572924D01*
X1328000Y572692D01*
X1329762Y572924D01*
X1331404Y573604D01*
X1332814Y574686D01*
X1333896Y576096D01*
X1334576Y577738D01*
X1334808Y579500D01*
X1334576Y581262D01*
X1333896Y582904D01*
X1332814Y584314D01*
X1331404Y585396D01*
X1329762Y586076D01*
X1328000Y586308D01*
D02*
G37*
G36*
X1235000Y583558D02*
X1233238Y583326D01*
X1231596Y582646D01*
X1230186Y581564D01*
X1229104Y580154D01*
X1228424Y578512D01*
X1228192Y576750D01*
X1228424Y574988D01*
X1229104Y573346D01*
X1230186Y571936D01*
X1231596Y570854D01*
X1233238Y570174D01*
X1235000Y569942D01*
X1236762Y570174D01*
X1238404Y570854D01*
X1239814Y571936D01*
X1240896Y573346D01*
X1241576Y574988D01*
X1241808Y576750D01*
X1241576Y578512D01*
X1240896Y580154D01*
X1239814Y581564D01*
X1238404Y582646D01*
X1236762Y583326D01*
X1235000Y583558D01*
D02*
G37*
G36*
X1054999Y572557D02*
X1053237Y572325D01*
X1051595Y571645D01*
X1050185Y570563D01*
X1049103Y569153D01*
X1046812Y568849D01*
X1046262Y569076D01*
X1044500Y569308D01*
X1042738Y569076D01*
X1041096Y568396D01*
X1039686Y567314D01*
X1038604Y565904D01*
X1037924Y564262D01*
X1037692Y562500D01*
X1037924Y560738D01*
X1038604Y559096D01*
X1039686Y557686D01*
X1041096Y556604D01*
X1042738Y555924D01*
X1044500Y555692D01*
X1046262Y555924D01*
X1047904Y556604D01*
X1049314Y557686D01*
X1049988Y558564D01*
X1051595Y559853D01*
X1053237Y559173D01*
X1054999Y558941D01*
X1056761Y559173D01*
X1058403Y559853D01*
X1059813Y560935D01*
X1060895Y562345D01*
X1061575Y563987D01*
X1061807Y565749D01*
X1061575Y567511D01*
X1060895Y569153D01*
X1059813Y570563D01*
X1058403Y571645D01*
X1056761Y572325D01*
X1054999Y572557D01*
D02*
G37*
G36*
X1021750Y582565D02*
X1019792Y582307D01*
X1017968Y581551D01*
X1016401Y580349D01*
X1015199Y578782D01*
X1014443Y576958D01*
X1014185Y575000D01*
X1014443Y573042D01*
X1015199Y571218D01*
X1016401Y569651D01*
X1017968Y568449D01*
X1019792Y567693D01*
X1021750Y567435D01*
X1023708Y567693D01*
X1025532Y568449D01*
X1027099Y569651D01*
X1028301Y571218D01*
X1029057Y573042D01*
X1029315Y575000D01*
X1029057Y576958D01*
X1028301Y578782D01*
X1027099Y580349D01*
X1025532Y581551D01*
X1023708Y582307D01*
X1021750Y582565D01*
D02*
G37*
G36*
X1126287Y582342D02*
X1124329Y582084D01*
X1122505Y581329D01*
X1120938Y580126D01*
X1119736Y578560D01*
X1118980Y576735D01*
X1118722Y574777D01*
X1118980Y572819D01*
X1119736Y570995D01*
X1120938Y569428D01*
X1122505Y568226D01*
X1124329Y567470D01*
X1126287Y567213D01*
X1128245Y567470D01*
X1130069Y568226D01*
X1131636Y569428D01*
X1132838Y570995D01*
X1133594Y572819D01*
X1133852Y574777D01*
X1133594Y576735D01*
X1132838Y578560D01*
X1131636Y580126D01*
X1130069Y581329D01*
X1128245Y582084D01*
X1126287Y582342D01*
D02*
G37*
G36*
X1096782Y576589D02*
X1094824Y576331D01*
X1092999Y575576D01*
X1091432Y574374D01*
X1090230Y572807D01*
X1089475Y570982D01*
X1089217Y569025D01*
X1089475Y567067D01*
X1090230Y565242D01*
X1091432Y563675D01*
X1092999Y562473D01*
X1094824Y561718D01*
X1096782Y561460D01*
X1098739Y561718D01*
X1100564Y562473D01*
X1102131Y563675D01*
X1103333Y565242D01*
X1104089Y567067D01*
X1104346Y569025D01*
X1104089Y570982D01*
X1103333Y572807D01*
X1102131Y574374D01*
X1100564Y575576D01*
X1098739Y576331D01*
X1096782Y576589D01*
D02*
G37*
G36*
X866270Y568714D02*
Y559520D01*
X875464D01*
X875269Y561002D01*
X874207Y563565D01*
X872517Y565767D01*
X870315Y567457D01*
X867751Y568519D01*
X866270Y568714D01*
D02*
G37*
G36*
X863730Y568714D02*
X862249Y568519D01*
X859685Y567457D01*
X857483Y565767D01*
X855793Y563565D01*
X854731Y561002D01*
X854536Y559520D01*
X863730D01*
Y568714D01*
D02*
G37*
G36*
X955775Y571205D02*
X953334Y570883D01*
X951059Y569941D01*
X949106Y568443D01*
X947607Y566489D01*
X946665Y564215D01*
X946344Y561774D01*
X946665Y559333D01*
X947607Y557059D01*
X949106Y555106D01*
X951059Y553607D01*
X953334Y552665D01*
X955775Y552343D01*
X958215Y552665D01*
X960490Y553607D01*
X962443Y555106D01*
X963942Y557059D01*
X964884Y559333D01*
X965205Y561774D01*
X964884Y564215D01*
X963942Y566489D01*
X962443Y568443D01*
X960490Y569941D01*
X958215Y570883D01*
X955775Y571205D01*
D02*
G37*
G36*
X1162000Y565558D02*
X1160238Y565326D01*
X1158596Y564646D01*
X1157186Y563564D01*
X1156104Y562154D01*
X1155424Y560512D01*
X1155192Y558750D01*
X1155424Y556988D01*
X1156104Y555346D01*
X1157186Y553936D01*
X1158596Y552854D01*
X1160238Y552174D01*
X1162000Y551942D01*
X1163762Y552174D01*
X1165404Y552854D01*
X1166814Y553936D01*
X1167896Y555346D01*
X1168576Y556988D01*
X1168808Y558750D01*
X1168576Y560512D01*
X1167896Y562154D01*
X1166814Y563564D01*
X1165404Y564646D01*
X1163762Y565326D01*
X1162000Y565558D01*
D02*
G37*
G36*
X1338750Y562308D02*
X1336988Y562076D01*
X1335346Y561396D01*
X1333936Y560314D01*
X1332854Y558904D01*
X1332174Y557262D01*
X1331942Y555500D01*
X1332174Y553738D01*
X1332854Y552096D01*
X1333936Y550686D01*
X1335346Y549604D01*
X1336988Y548924D01*
X1338750Y548692D01*
X1340512Y548924D01*
X1342154Y549604D01*
X1343564Y550686D01*
X1344646Y552096D01*
X1345326Y553738D01*
X1345558Y555500D01*
X1345326Y557262D01*
X1344646Y558904D01*
X1343564Y560314D01*
X1342154Y561396D01*
X1340512Y562076D01*
X1338750Y562308D01*
D02*
G37*
G36*
X875464Y556980D02*
X866270D01*
Y547786D01*
X867751Y547981D01*
X870315Y549043D01*
X872517Y550733D01*
X874207Y552935D01*
X875269Y555499D01*
X875464Y556980D01*
D02*
G37*
G36*
X863730D02*
X854536D01*
X854731Y555499D01*
X855793Y552935D01*
X857483Y550733D01*
X859685Y549043D01*
X862249Y547981D01*
X863730Y547786D01*
Y556980D01*
D02*
G37*
G36*
X892500Y569345D02*
X889628Y568967D01*
X886953Y567859D01*
X884655Y566095D01*
X882891Y563797D01*
X881783Y561122D01*
X881405Y558250D01*
X881783Y555378D01*
X882891Y552703D01*
X884655Y550405D01*
X886953Y548642D01*
X889628Y547533D01*
X892500Y547155D01*
X895372Y547533D01*
X898047Y548642D01*
X900345Y550405D01*
X902109Y552703D01*
X903217Y555378D01*
X903595Y558250D01*
X903217Y561122D01*
X902109Y563797D01*
X900345Y566095D01*
X898047Y567859D01*
X895372Y568967D01*
X892500Y569345D01*
D02*
G37*
G36*
X1265750Y569095D02*
X1262878Y568717D01*
X1260203Y567608D01*
X1257905Y565845D01*
X1256142Y563548D01*
X1255033Y560872D01*
X1254655Y558000D01*
X1254863Y556425D01*
X1254236Y554325D01*
X1252594Y553645D01*
X1251184Y552563D01*
X1250102Y551153D01*
X1249422Y549511D01*
X1249190Y547749D01*
X1249422Y545987D01*
X1250102Y544345D01*
X1251184Y542935D01*
X1252594Y541853D01*
X1254236Y541173D01*
X1255998Y540941D01*
X1257760Y541173D01*
X1259402Y541853D01*
X1260812Y542935D01*
X1261894Y544345D01*
X1262574Y545987D01*
X1264730Y547039D01*
X1265750Y546905D01*
X1268622Y547283D01*
X1271297Y548391D01*
X1273595Y550155D01*
X1275359Y552453D01*
X1276467Y555128D01*
X1276845Y558000D01*
X1276467Y560872D01*
X1275359Y563548D01*
X1273595Y565845D01*
X1271297Y567608D01*
X1268622Y568717D01*
X1265750Y569095D01*
D02*
G37*
G36*
X1201501Y570057D02*
X1199739Y569825D01*
X1198097Y569145D01*
X1196687Y568063D01*
X1195605Y566653D01*
X1194925Y565011D01*
X1194693Y563249D01*
X1194925Y561487D01*
X1195605Y559845D01*
X1196687Y558435D01*
X1198097Y557353D01*
X1199739Y556673D01*
X1201501Y556441D01*
X1203263Y556673D01*
X1203310Y556692D01*
X1205493Y555432D01*
X1205533Y555128D01*
X1206641Y552453D01*
X1208405Y550155D01*
X1210703Y548391D01*
X1212724Y547554D01*
X1212986Y547446D01*
X1212464Y545497D01*
X1212243Y545526D01*
X1212000Y545558D01*
X1210238Y545326D01*
X1208596Y544646D01*
X1207186Y543564D01*
X1206104Y542154D01*
X1205424Y540512D01*
X1205192Y538750D01*
X1205424Y536988D01*
X1206104Y535346D01*
X1207186Y533936D01*
X1208596Y532854D01*
X1210238Y532174D01*
X1211762Y531973D01*
X1213190Y530749D01*
X1213422Y528987D01*
X1214102Y527345D01*
X1215184Y525935D01*
X1216594Y524853D01*
X1218236Y524173D01*
X1219998Y523941D01*
X1221760Y524173D01*
X1223402Y524853D01*
X1224812Y525935D01*
X1225894Y527345D01*
X1226575Y528987D01*
X1226806Y530749D01*
X1226575Y532511D01*
X1225894Y534153D01*
X1224812Y535563D01*
X1223402Y536645D01*
X1221760Y537325D01*
X1220236Y537526D01*
X1218808Y538750D01*
X1218576Y540512D01*
X1217896Y542154D01*
X1216814Y543564D01*
X1215404Y544646D01*
X1214416Y545055D01*
X1214155Y545164D01*
X1214677Y547112D01*
X1214897Y547083D01*
X1216250Y546905D01*
X1219122Y547283D01*
X1221797Y548391D01*
X1224095Y550155D01*
X1225859Y552453D01*
X1226967Y555128D01*
X1227345Y558000D01*
X1226967Y560872D01*
X1225859Y563548D01*
X1224095Y565845D01*
X1221797Y567608D01*
X1219122Y568717D01*
X1216250Y569095D01*
X1213378Y568717D01*
X1210703Y567608D01*
X1209537Y566714D01*
X1208805Y566693D01*
X1207031Y567141D01*
X1207001Y567169D01*
X1206315Y568063D01*
X1204905Y569145D01*
X1203263Y569825D01*
X1201501Y570057D01*
D02*
G37*
G36*
X1314998Y560057D02*
X1313236Y559825D01*
X1311594Y559145D01*
X1310184Y558063D01*
X1309102Y556653D01*
X1308422Y555011D01*
X1308190Y553249D01*
X1308422Y551487D01*
X1309102Y549845D01*
X1310184Y548435D01*
X1311594Y547353D01*
X1313236Y546673D01*
X1314998Y546441D01*
X1316760Y546673D01*
X1318402Y547353D01*
X1319812Y548435D01*
X1320894Y549845D01*
X1321574Y551487D01*
X1321806Y553249D01*
X1321574Y555011D01*
X1320894Y556653D01*
X1319812Y558063D01*
X1318402Y559145D01*
X1316760Y559825D01*
X1314998Y560057D01*
D02*
G37*
G36*
X1357498Y560814D02*
X1355540Y560556D01*
X1353716Y559800D01*
X1352149Y558598D01*
X1350947Y557031D01*
X1350191Y555207D01*
X1349933Y553249D01*
X1350191Y551291D01*
X1350947Y549467D01*
X1352149Y547900D01*
X1353716Y546698D01*
X1355540Y545942D01*
X1357498Y545684D01*
X1359456Y545942D01*
X1361280Y546698D01*
X1362847Y547900D01*
X1364049Y549467D01*
X1364805Y551291D01*
X1365063Y553249D01*
X1364805Y555207D01*
X1364049Y557031D01*
X1362847Y558598D01*
X1361280Y559800D01*
X1359456Y560556D01*
X1357498Y560814D01*
D02*
G37*
G36*
X1233000Y552558D02*
X1231238Y552326D01*
X1229596Y551646D01*
X1228186Y550564D01*
X1227104Y549154D01*
X1226424Y547512D01*
X1226192Y545750D01*
X1226424Y543988D01*
X1227104Y542346D01*
X1228186Y540936D01*
X1229596Y539854D01*
X1231238Y539174D01*
X1233000Y538942D01*
X1234762Y539174D01*
X1236404Y539854D01*
X1237814Y540936D01*
X1238896Y542346D01*
X1239576Y543988D01*
X1239808Y545750D01*
X1239576Y547512D01*
X1238896Y549154D01*
X1237814Y550564D01*
X1236404Y551646D01*
X1234762Y552326D01*
X1233000Y552558D01*
D02*
G37*
G36*
X1380000Y549558D02*
X1378238Y549326D01*
X1376596Y548646D01*
X1375186Y547564D01*
X1374104Y546154D01*
X1373424Y544512D01*
X1373192Y542750D01*
X1373424Y540988D01*
X1374104Y539346D01*
X1375186Y537936D01*
X1376596Y536854D01*
X1378238Y536174D01*
X1380000Y535942D01*
X1381762Y536174D01*
X1383404Y536854D01*
X1384814Y537936D01*
X1385896Y539346D01*
X1386576Y540988D01*
X1386808Y542750D01*
X1386576Y544512D01*
X1385896Y546154D01*
X1384814Y547564D01*
X1383404Y548646D01*
X1381762Y549326D01*
X1380000Y549558D01*
D02*
G37*
G36*
X1163998Y545557D02*
X1162236Y545325D01*
X1160594Y544645D01*
X1159184Y543563D01*
X1158102Y542153D01*
X1157422Y540511D01*
X1157190Y538749D01*
X1157422Y536987D01*
X1158102Y535345D01*
X1159184Y533935D01*
X1160594Y532853D01*
X1162236Y532173D01*
X1163998Y531941D01*
X1165760Y532173D01*
X1167402Y532853D01*
X1168813Y533935D01*
X1169894Y535345D01*
X1170575Y536987D01*
X1170807Y538749D01*
X1170575Y540511D01*
X1169894Y542153D01*
X1168813Y543563D01*
X1167402Y544645D01*
X1165760Y545325D01*
X1163998Y545557D01*
D02*
G37*
G36*
X1312670Y540718D02*
Y531020D01*
X1322368D01*
X1322156Y532632D01*
X1321043Y535318D01*
X1319274Y537624D01*
X1316968Y539393D01*
X1314282Y540506D01*
X1312670Y540718D01*
D02*
G37*
G36*
X1310130D02*
X1308518Y540506D01*
X1305832Y539393D01*
X1303526Y537624D01*
X1301757Y535318D01*
X1300644Y532632D01*
X1300432Y531020D01*
X1310130D01*
Y540718D01*
D02*
G37*
G36*
X1102036Y538083D02*
X1100274Y537851D01*
X1098632Y537171D01*
X1097222Y536089D01*
X1096140Y534679D01*
X1095460Y533037D01*
X1095228Y531275D01*
X1095460Y529513D01*
X1096140Y527871D01*
X1097222Y526461D01*
X1098632Y525379D01*
X1100274Y524699D01*
X1102036Y524467D01*
X1103798Y524699D01*
X1105440Y525379D01*
X1106850Y526461D01*
X1107932Y527871D01*
X1108612Y529513D01*
X1108844Y531275D01*
X1108612Y533037D01*
X1107932Y534679D01*
X1106850Y536089D01*
X1105440Y537171D01*
X1103798Y537851D01*
X1102036Y538083D01*
D02*
G37*
G36*
X1322368Y528480D02*
X1312670D01*
Y518782D01*
X1314282Y518994D01*
X1316968Y520107D01*
X1319274Y521876D01*
X1321043Y524182D01*
X1322156Y526868D01*
X1322368Y528480D01*
D02*
G37*
G36*
X1310130D02*
X1300432D01*
X1300644Y526868D01*
X1301757Y524182D01*
X1303526Y521876D01*
X1305832Y520107D01*
X1308518Y518994D01*
X1310130Y518782D01*
Y528480D01*
D02*
G37*
G36*
X1297500Y541250D02*
X1274500D01*
Y518250D01*
X1297500D01*
Y541250D01*
D02*
G37*
G36*
X1370000Y530558D02*
X1368238Y530326D01*
X1366596Y529646D01*
X1365186Y528564D01*
X1364104Y527154D01*
X1363424Y525512D01*
X1363192Y523750D01*
X1363424Y521988D01*
X1364104Y520346D01*
X1365186Y518936D01*
X1366596Y517854D01*
X1368238Y517174D01*
X1370000Y516942D01*
X1371762Y517174D01*
X1373404Y517854D01*
X1374814Y518936D01*
X1375896Y520346D01*
X1376576Y521988D01*
X1376808Y523750D01*
X1376576Y525512D01*
X1375896Y527154D01*
X1374814Y528564D01*
X1373404Y529646D01*
X1371762Y530326D01*
X1370000Y530558D01*
D02*
G37*
G36*
X916500Y537250D02*
X893500D01*
Y514250D01*
X916500D01*
Y537250D01*
D02*
G37*
G36*
X1127000Y524808D02*
X1125238Y524576D01*
X1123596Y523896D01*
X1122186Y522814D01*
X1121104Y521404D01*
X1120424Y519762D01*
X1120192Y518000D01*
X1120424Y516238D01*
X1121104Y514596D01*
X1122186Y513186D01*
X1123596Y512104D01*
X1125238Y511424D01*
X1127000Y511192D01*
X1128762Y511424D01*
X1130404Y512104D01*
X1131814Y513186D01*
X1132896Y514596D01*
X1133576Y516238D01*
X1133808Y518000D01*
X1133576Y519762D01*
X1132896Y521404D01*
X1131814Y522814D01*
X1130404Y523896D01*
X1128762Y524576D01*
X1127000Y524808D01*
D02*
G37*
G36*
X1259750Y524177D02*
X1257988Y523945D01*
X1256346Y523264D01*
X1254936Y522183D01*
X1253854Y520772D01*
X1253174Y519130D01*
X1252942Y517368D01*
X1253174Y515606D01*
X1253854Y513964D01*
X1254936Y512554D01*
X1256346Y511472D01*
X1257988Y510792D01*
X1259750Y510560D01*
X1261512Y510792D01*
X1263154Y511472D01*
X1264564Y512554D01*
X1265646Y513964D01*
X1266326Y515606D01*
X1266558Y517368D01*
X1266326Y519130D01*
X1265646Y520772D01*
X1264564Y522183D01*
X1263154Y523264D01*
X1261512Y523945D01*
X1259750Y524177D01*
D02*
G37*
G36*
X1452300Y568044D02*
X1447514Y567668D01*
X1442846Y566547D01*
X1438410Y564710D01*
X1434317Y562201D01*
X1430667Y559084D01*
X1427549Y555433D01*
X1425040Y551340D01*
X1423203Y546904D01*
X1422082Y542236D01*
X1421706Y537450D01*
X1422082Y532664D01*
X1423203Y527996D01*
X1425040Y523560D01*
X1427549Y519467D01*
X1430667Y515817D01*
X1434317Y512699D01*
X1438410Y510190D01*
X1442846Y508353D01*
X1447514Y507232D01*
X1452300Y506856D01*
X1457086Y507232D01*
X1461754Y508353D01*
X1466190Y510190D01*
X1470283Y512699D01*
X1473933Y515817D01*
X1477051Y519467D01*
X1479560Y523560D01*
X1481397Y527996D01*
X1482518Y532664D01*
X1482894Y537450D01*
X1482518Y542236D01*
X1481397Y546904D01*
X1479560Y551340D01*
X1477051Y555433D01*
X1473933Y559084D01*
X1470283Y562201D01*
X1466190Y564710D01*
X1461754Y566547D01*
X1457086Y567668D01*
X1452300Y568044D01*
D02*
G37*
G36*
X1099000Y520058D02*
X1097238Y519826D01*
X1095596Y519146D01*
X1094186Y518064D01*
X1093104Y516654D01*
X1092424Y515012D01*
X1092192Y513250D01*
X1092424Y511488D01*
X1093104Y509846D01*
X1094186Y508436D01*
X1095596Y507354D01*
X1097238Y506674D01*
X1099000Y506442D01*
X1100762Y506674D01*
X1102404Y507354D01*
X1103814Y508436D01*
X1104896Y509846D01*
X1105576Y511488D01*
X1105808Y513250D01*
X1105576Y515012D01*
X1104896Y516654D01*
X1103814Y518064D01*
X1102404Y519146D01*
X1100762Y519826D01*
X1099000Y520058D01*
D02*
G37*
G36*
X1164789Y519582D02*
X1163027Y519351D01*
X1161385Y518670D01*
X1159975Y517588D01*
X1158893Y516178D01*
X1158213Y514536D01*
X1157980Y512774D01*
X1158213Y511012D01*
X1158893Y509370D01*
X1159975Y507960D01*
X1161385Y506878D01*
X1163027Y506198D01*
X1164789Y505966D01*
X1166551Y506198D01*
X1168193Y506878D01*
X1169603Y507960D01*
X1170685Y509370D01*
X1171365Y511012D01*
X1171597Y512774D01*
X1171365Y514536D01*
X1170685Y516178D01*
X1169603Y517588D01*
X1168193Y518670D01*
X1166551Y519351D01*
X1164789Y519582D01*
D02*
G37*
G36*
X772500Y522558D02*
X770738Y522326D01*
X769096Y521646D01*
X767686Y520564D01*
X766604Y519154D01*
X765924Y517512D01*
X765692Y515750D01*
X765924Y513988D01*
X766604Y512346D01*
X767686Y510936D01*
X769096Y509854D01*
X770738Y509174D01*
X772500Y508942D01*
X774262Y509174D01*
X775904Y509854D01*
X778074Y508998D01*
X778127Y508869D01*
X779209Y507459D01*
X780619Y506377D01*
X782261Y505697D01*
X784023Y505465D01*
X785785Y505697D01*
X787427Y506377D01*
X788837Y507459D01*
X789919Y508869D01*
X790599Y510511D01*
X790831Y512273D01*
X790599Y514035D01*
X789919Y515677D01*
X788837Y517087D01*
X787427Y518169D01*
X785785Y518849D01*
X784023Y519081D01*
X782261Y518849D01*
X780619Y518169D01*
X778449Y519025D01*
X778396Y519154D01*
X777314Y520564D01*
X775904Y521646D01*
X774262Y522326D01*
X772500Y522558D01*
D02*
G37*
G36*
X927000Y517558D02*
X925238Y517326D01*
X923596Y516646D01*
X922186Y515564D01*
X921104Y514154D01*
X920424Y512512D01*
X920192Y510750D01*
X920424Y508988D01*
X921104Y507346D01*
X922186Y505936D01*
X923596Y504854D01*
X925238Y504174D01*
X927000Y503942D01*
X928762Y504174D01*
X930404Y504854D01*
X931814Y505936D01*
X932896Y507346D01*
X933576Y508988D01*
X933808Y510750D01*
X933576Y512512D01*
X932896Y514154D01*
X931814Y515564D01*
X930404Y516646D01*
X928762Y517326D01*
X927000Y517558D01*
D02*
G37*
G36*
X1264000Y508558D02*
X1262238Y508326D01*
X1260596Y507646D01*
X1259186Y506564D01*
X1258104Y505154D01*
X1257424Y503512D01*
X1257192Y501750D01*
X1257424Y499988D01*
X1258104Y498346D01*
X1259186Y496936D01*
X1260596Y495854D01*
X1262238Y495174D01*
X1264000Y494942D01*
X1265762Y495174D01*
X1267404Y495854D01*
X1268814Y496936D01*
X1269896Y498346D01*
X1270576Y499988D01*
X1270808Y501750D01*
X1270576Y503512D01*
X1269896Y505154D01*
X1268814Y506564D01*
X1267404Y507646D01*
X1265762Y508326D01*
X1264000Y508558D01*
D02*
G37*
G36*
X1304500Y504058D02*
X1302738Y503826D01*
X1301096Y503146D01*
X1299686Y502064D01*
X1298604Y500654D01*
X1297924Y499012D01*
X1297692Y497250D01*
X1297924Y495488D01*
X1298604Y493846D01*
X1299686Y492436D01*
X1301096Y491354D01*
X1302738Y490674D01*
X1304500Y490442D01*
X1306262Y490674D01*
X1307904Y491354D01*
X1309314Y492436D01*
X1310396Y493846D01*
X1311076Y495488D01*
X1311308Y497250D01*
X1311076Y499012D01*
X1310396Y500654D01*
X1309314Y502064D01*
X1307904Y503146D01*
X1306262Y503826D01*
X1304500Y504058D01*
D02*
G37*
G36*
X1328000Y503558D02*
X1326238Y503326D01*
X1324596Y502646D01*
X1323186Y501564D01*
X1322104Y500154D01*
X1321424Y498512D01*
X1321192Y496750D01*
X1321424Y494988D01*
X1322104Y493346D01*
X1323186Y491936D01*
X1324596Y490854D01*
X1326238Y490174D01*
X1328000Y489942D01*
X1329762Y490174D01*
X1331404Y490854D01*
X1332814Y491936D01*
X1333896Y493346D01*
X1334576Y494988D01*
X1334808Y496750D01*
X1334576Y498512D01*
X1333896Y500154D01*
X1332814Y501564D01*
X1331404Y502646D01*
X1329762Y503326D01*
X1328000Y503558D01*
D02*
G37*
G36*
X1127537Y504088D02*
X1125579Y503830D01*
X1123755Y503075D01*
X1122188Y501872D01*
X1120986Y500306D01*
X1120230Y498481D01*
X1119972Y496524D01*
X1120230Y494566D01*
X1120986Y492741D01*
X1122188Y491174D01*
X1123755Y489972D01*
X1125579Y489216D01*
X1127537Y488959D01*
X1129495Y489216D01*
X1131319Y489972D01*
X1132886Y491174D01*
X1134088Y492741D01*
X1134844Y494566D01*
X1135102Y496524D01*
X1134844Y498481D01*
X1134088Y500306D01*
X1132886Y501872D01*
X1131319Y503075D01*
X1129495Y503830D01*
X1127537Y504088D01*
D02*
G37*
G36*
X1069540Y502540D02*
X1055770D01*
Y488770D01*
X1069540D01*
Y502540D01*
D02*
G37*
G36*
X1033000Y513065D02*
X1031042Y512807D01*
X1029218Y512051D01*
X1027651Y510849D01*
X1026449Y509282D01*
X1025693Y507458D01*
X1025435Y505500D01*
X1025693Y503542D01*
X1026449Y501718D01*
X1027651Y500151D01*
X1029218Y498949D01*
X1031042Y498193D01*
X1033000Y497935D01*
X1034958Y498193D01*
X1036782Y498949D01*
X1037460Y499469D01*
X1039460Y498482D01*
Y488770D01*
X1053230D01*
Y502540D01*
X1041862D01*
X1040438Y504540D01*
X1040565Y505500D01*
X1040307Y507458D01*
X1039551Y509282D01*
X1038349Y510849D01*
X1036782Y512051D01*
X1034958Y512807D01*
X1033000Y513065D01*
D02*
G37*
G36*
X905000Y511949D02*
X901998Y511554D01*
X899200Y510395D01*
X896798Y508552D01*
X894955Y506150D01*
X893796Y503352D01*
X893401Y500350D01*
X893796Y497348D01*
X894955Y494550D01*
X896798Y492148D01*
X899200Y490305D01*
X901998Y489146D01*
X905000Y488751D01*
X908002Y489146D01*
X910800Y490305D01*
X913202Y492148D01*
X915045Y494550D01*
X916204Y497348D01*
X916599Y500350D01*
X916204Y503352D01*
X915045Y506150D01*
X913202Y508552D01*
X910800Y510395D01*
X908002Y511554D01*
X905000Y511949D01*
D02*
G37*
G36*
X766500Y501558D02*
X764738Y501326D01*
X763096Y500646D01*
X761686Y499564D01*
X760604Y498154D01*
X759923Y496512D01*
X759692Y494750D01*
X759923Y492988D01*
X760604Y491346D01*
X761686Y489936D01*
X763096Y488854D01*
X764738Y488174D01*
X766500Y487942D01*
X768262Y488174D01*
X769904Y488854D01*
X771314Y489936D01*
X772396Y491346D01*
X773076Y492988D01*
X773308Y494750D01*
X773076Y496512D01*
X772396Y498154D01*
X771314Y499564D01*
X769904Y500646D01*
X768262Y501326D01*
X766500Y501558D01*
D02*
G37*
G36*
X686790Y496740D02*
X677520D01*
Y487470D01*
X686790D01*
Y496740D01*
D02*
G37*
G36*
X956000Y502315D02*
X954042Y502057D01*
X952218Y501301D01*
X950651Y500099D01*
X949449Y498532D01*
X948693Y496708D01*
X948435Y494750D01*
X948693Y492792D01*
X949449Y490968D01*
X950651Y489401D01*
X952218Y488199D01*
X954042Y487443D01*
X956000Y487185D01*
X957958Y487443D01*
X959782Y488199D01*
X961349Y489401D01*
X962551Y490968D01*
X963307Y492792D01*
X963565Y494750D01*
X963307Y496708D01*
X962551Y498532D01*
X961349Y500099D01*
X959782Y501301D01*
X957958Y502057D01*
X956000Y502315D01*
D02*
G37*
G36*
X1203000Y499558D02*
X1201238Y499326D01*
X1199596Y498646D01*
X1198186Y497564D01*
X1197104Y496154D01*
X1196424Y494512D01*
X1196192Y492750D01*
X1196424Y490988D01*
X1197104Y489346D01*
X1198186Y487936D01*
X1199596Y486854D01*
X1201238Y486174D01*
X1203000Y485942D01*
X1204762Y486174D01*
X1206404Y486854D01*
X1207814Y487936D01*
X1208896Y489346D01*
X1209576Y490988D01*
X1209808Y492750D01*
X1209576Y494512D01*
X1208896Y496154D01*
X1207814Y497564D01*
X1206404Y498646D01*
X1204762Y499326D01*
X1203000Y499558D01*
D02*
G37*
G36*
X1089526Y507080D02*
X1087764Y506847D01*
X1086122Y506167D01*
X1084712Y505085D01*
X1083630Y503675D01*
X1082950Y502033D01*
X1082718Y500271D01*
X1082950Y498509D01*
X1083630Y496867D01*
X1084712Y495457D01*
X1086122Y494375D01*
X1087764Y493695D01*
X1088339Y493619D01*
X1089681Y492506D01*
X1089846Y491488D01*
X1089718Y490521D01*
X1089950Y488759D01*
X1090631Y487117D01*
X1091712Y485707D01*
X1093122Y484625D01*
X1094765Y483945D01*
X1096527Y483713D01*
X1098289Y483945D01*
X1099931Y484625D01*
X1101341Y485707D01*
X1102423Y487117D01*
X1103103Y488759D01*
X1103335Y490521D01*
X1103103Y492283D01*
X1102423Y493925D01*
X1101341Y495335D01*
X1099931Y496417D01*
X1098289Y497097D01*
X1097714Y497173D01*
X1096372Y498286D01*
X1096207Y499304D01*
X1096335Y500271D01*
X1096103Y502033D01*
X1095422Y503675D01*
X1094341Y505085D01*
X1092931Y506167D01*
X1091288Y506847D01*
X1089526Y507080D01*
D02*
G37*
G36*
X1114036Y493331D02*
X1112274Y493099D01*
X1110632Y492419D01*
X1109222Y491337D01*
X1108140Y489927D01*
X1107460Y488285D01*
X1107228Y486523D01*
X1107460Y484761D01*
X1108140Y483119D01*
X1109222Y481709D01*
X1110632Y480627D01*
X1112274Y479947D01*
X1114036Y479715D01*
X1115798Y479947D01*
X1117440Y480627D01*
X1118850Y481709D01*
X1119932Y483119D01*
X1120613Y484761D01*
X1120844Y486523D01*
X1120613Y488285D01*
X1119932Y489927D01*
X1118850Y491337D01*
X1117440Y492419D01*
X1115798Y493099D01*
X1114036Y493331D01*
D02*
G37*
G36*
X1248250Y491308D02*
X1246488Y491076D01*
X1244846Y490396D01*
X1243436Y489314D01*
X1242354Y487904D01*
X1241674Y486262D01*
X1241442Y484500D01*
X1241674Y482738D01*
X1242354Y481096D01*
X1243436Y479686D01*
X1244846Y478604D01*
X1246488Y477924D01*
X1248250Y477692D01*
X1250012Y477924D01*
X1251654Y478604D01*
X1253064Y479686D01*
X1254146Y481096D01*
X1254826Y482738D01*
X1255058Y484500D01*
X1254826Y486262D01*
X1254146Y487904D01*
X1253064Y489314D01*
X1251654Y490396D01*
X1250012Y491076D01*
X1248250Y491308D01*
D02*
G37*
G36*
X674980Y484930D02*
X665710D01*
Y475660D01*
X674980D01*
Y484930D01*
D02*
G37*
G36*
X697762Y486335D02*
X695804Y486077D01*
X693980Y485321D01*
X692413Y484119D01*
X691211Y482552D01*
X690455Y480728D01*
X690197Y478770D01*
X690455Y476812D01*
X690936Y475653D01*
X689505Y474080D01*
X688958Y474307D01*
X688267Y474398D01*
X686892Y475572D01*
X686790Y476534D01*
Y484930D01*
X677520D01*
Y475660D01*
X683083D01*
X683480Y473660D01*
X683218Y473551D01*
X681651Y472349D01*
X680449Y470782D01*
X679693Y468958D01*
X679435Y467000D01*
X679693Y465042D01*
X680449Y463218D01*
X681651Y461651D01*
X683218Y460449D01*
X685042Y459693D01*
X687000Y459435D01*
X688958Y459693D01*
X690782Y460449D01*
X692349Y461651D01*
X693551Y463218D01*
X694307Y465042D01*
X694565Y467000D01*
X694307Y468958D01*
X693827Y470118D01*
X695257Y471690D01*
X695804Y471463D01*
X697762Y471205D01*
X699720Y471463D01*
X701544Y472219D01*
X703111Y473421D01*
X704313Y474988D01*
X705069Y476812D01*
X705327Y478770D01*
X705069Y480728D01*
X704313Y482552D01*
X703111Y484119D01*
X701544Y485321D01*
X699720Y486077D01*
X697762Y486335D01*
D02*
G37*
G36*
X1069540Y486230D02*
X1055770D01*
Y472460D01*
X1069540D01*
Y486230D01*
D02*
G37*
G36*
X1311250Y486058D02*
X1309488Y485826D01*
X1307846Y485146D01*
X1306436Y484064D01*
X1305354Y482654D01*
X1304674Y481012D01*
X1304442Y479250D01*
X1304674Y477488D01*
X1305354Y475846D01*
X1306436Y474436D01*
X1307846Y473354D01*
X1309488Y472674D01*
X1311250Y472442D01*
X1313012Y472674D01*
X1314654Y473354D01*
X1316064Y474436D01*
X1317146Y475846D01*
X1317826Y477488D01*
X1318058Y479250D01*
X1317826Y481012D01*
X1317146Y482654D01*
X1316064Y484064D01*
X1314654Y485146D01*
X1313012Y485826D01*
X1311250Y486058D01*
D02*
G37*
G36*
X863500Y534845D02*
X860628Y534467D01*
X857952Y533358D01*
X855655Y531595D01*
X853892Y529297D01*
X852783Y526622D01*
X852405Y523750D01*
X852783Y520878D01*
X853892Y518203D01*
X855655Y515905D01*
X857952Y514142D01*
X858699Y513832D01*
Y511668D01*
X857952Y511358D01*
X855655Y509595D01*
X853892Y507297D01*
X852783Y504622D01*
X852405Y501750D01*
X852783Y498878D01*
X853892Y496203D01*
X855655Y493905D01*
X857952Y492141D01*
X858699Y491832D01*
Y489668D01*
X857952Y489358D01*
X855655Y487595D01*
X853892Y485297D01*
X852783Y482622D01*
X852405Y479750D01*
X852783Y476878D01*
X853892Y474203D01*
X855655Y471905D01*
X857952Y470141D01*
X860628Y469033D01*
X863500Y468655D01*
X866372Y469033D01*
X869047Y470141D01*
X871345Y471905D01*
X873108Y474203D01*
X874217Y476878D01*
X874595Y479750D01*
X874217Y482622D01*
X873108Y485297D01*
X871345Y487595D01*
X869047Y489358D01*
X868301Y489668D01*
Y491832D01*
X869047Y492141D01*
X871345Y493905D01*
X873108Y496203D01*
X874217Y498878D01*
X874595Y501750D01*
X874217Y504622D01*
X873108Y507297D01*
X871345Y509595D01*
X869047Y511358D01*
X868301Y511668D01*
Y513832D01*
X869047Y514142D01*
X871345Y515905D01*
X873108Y518203D01*
X874217Y520878D01*
X874595Y523750D01*
X874217Y526622D01*
X873108Y529297D01*
X871345Y531595D01*
X869047Y533358D01*
X866372Y534467D01*
X863500Y534845D01*
D02*
G37*
G36*
X831500D02*
X828628Y534467D01*
X825953Y533358D01*
X823655Y531595D01*
X821891Y529297D01*
X820783Y526622D01*
X820405Y523750D01*
X820783Y520878D01*
X821891Y518203D01*
X823655Y515905D01*
X825953Y514142D01*
X826699Y513832D01*
Y511668D01*
X825953Y511358D01*
X823655Y509595D01*
X821891Y507297D01*
X820783Y504622D01*
X820405Y501750D01*
X820783Y498878D01*
X821891Y496203D01*
X823655Y493905D01*
X825953Y492141D01*
X826699Y491832D01*
Y489668D01*
X825953Y489358D01*
X823655Y487595D01*
X821891Y485297D01*
X820783Y482622D01*
X820405Y479750D01*
X820783Y476878D01*
X821891Y474203D01*
X823655Y471905D01*
X825953Y470141D01*
X828628Y469033D01*
X831500Y468655D01*
X834372Y469033D01*
X837047Y470141D01*
X839345Y471905D01*
X841108Y474203D01*
X842217Y476878D01*
X842595Y479750D01*
X842217Y482622D01*
X841108Y485297D01*
X839345Y487595D01*
X837047Y489358D01*
X836301Y489668D01*
Y491832D01*
X837047Y492141D01*
X839345Y493905D01*
X841108Y496203D01*
X842217Y498878D01*
X842595Y501750D01*
X842217Y504622D01*
X841108Y507297D01*
X839345Y509595D01*
X837047Y511358D01*
X836301Y511668D01*
Y513832D01*
X837047Y514142D01*
X839345Y515905D01*
X841108Y518203D01*
X842217Y520878D01*
X842595Y523750D01*
X842217Y526622D01*
X841108Y529297D01*
X839345Y531595D01*
X837047Y533358D01*
X834372Y534467D01*
X831500Y534845D01*
D02*
G37*
G36*
X1344000Y472558D02*
X1342238Y472326D01*
X1340596Y471646D01*
X1339186Y470564D01*
X1338104Y469154D01*
X1337424Y467512D01*
X1337192Y465750D01*
X1337424Y463988D01*
X1338104Y462346D01*
X1339186Y460936D01*
X1340596Y459854D01*
X1342238Y459174D01*
X1344000Y458942D01*
X1345762Y459174D01*
X1347404Y459854D01*
X1348814Y460936D01*
X1349896Y462346D01*
X1350576Y463988D01*
X1350808Y465750D01*
X1350576Y467512D01*
X1349896Y469154D01*
X1348814Y470564D01*
X1347404Y471646D01*
X1345762Y472326D01*
X1344000Y472558D01*
D02*
G37*
G36*
X1105660Y471558D02*
X1103898Y471326D01*
X1102256Y470646D01*
X1100846Y469564D01*
X1099764Y468154D01*
X1099084Y466512D01*
X1098852Y464750D01*
X1099084Y462988D01*
X1099764Y461346D01*
X1100846Y459936D01*
X1102256Y458854D01*
X1103898Y458174D01*
X1105660Y457942D01*
X1107422Y458174D01*
X1109064Y458854D01*
X1110474Y459936D01*
X1111556Y461346D01*
X1112236Y462988D01*
X1112468Y464750D01*
X1112236Y466512D01*
X1111556Y468154D01*
X1110474Y469564D01*
X1109064Y470646D01*
X1107422Y471326D01*
X1105660Y471558D01*
D02*
G37*
G36*
X1015639Y491445D02*
X1013877Y491213D01*
X1012235Y490533D01*
X1010825Y489451D01*
X1009743Y488041D01*
X1009063Y486399D01*
X1008831Y484637D01*
X1009063Y482875D01*
X1009743Y481233D01*
X1010257Y480564D01*
X1010689Y479291D01*
X1010285Y477716D01*
X1009854Y477154D01*
X1009174Y475512D01*
X1008942Y473750D01*
X1009174Y471988D01*
X1009854Y470346D01*
X1010936Y468936D01*
X1012346Y467854D01*
X1013988Y467174D01*
X1015750Y466942D01*
X1017512Y467174D01*
X1019154Y467854D01*
X1020564Y468936D01*
X1020691Y469101D01*
X1022706Y468750D01*
X1022821Y468592D01*
X1022519Y466300D01*
X1022841Y463859D01*
X1023783Y461585D01*
X1025282Y459632D01*
X1027235Y458133D01*
X1029509Y457191D01*
X1031950Y456869D01*
X1034391Y457191D01*
X1036665Y458133D01*
X1038618Y459632D01*
X1040117Y461585D01*
X1041059Y463859D01*
X1041381Y466300D01*
X1041059Y468741D01*
X1040347Y470460D01*
X1041060Y471980D01*
X1041530Y472460D01*
X1053230D01*
Y486230D01*
X1039460D01*
Y474844D01*
X1037460Y473857D01*
X1036665Y474467D01*
X1034391Y475409D01*
X1031950Y475731D01*
X1029509Y475409D01*
X1027235Y474467D01*
X1025282Y472968D01*
X1024249Y471623D01*
X1022392Y472488D01*
X1022558Y473750D01*
X1022326Y475512D01*
X1021646Y477154D01*
X1021133Y477823D01*
X1020700Y479096D01*
X1021104Y480671D01*
X1021535Y481233D01*
X1022216Y482875D01*
X1022448Y484637D01*
X1022216Y486399D01*
X1021535Y488041D01*
X1020453Y489451D01*
X1019043Y490533D01*
X1017401Y491213D01*
X1015639Y491445D01*
D02*
G37*
G36*
X1177039Y480581D02*
X1175277Y480349D01*
X1173635Y479669D01*
X1172225Y478587D01*
X1171143Y477177D01*
X1170463Y475535D01*
X1170231Y473772D01*
X1170463Y472010D01*
X1170905Y470944D01*
X1170732Y469488D01*
X1170189Y468326D01*
X1169225Y467586D01*
X1168143Y466176D01*
X1167463Y464534D01*
X1167231Y462772D01*
X1167463Y461010D01*
X1168143Y459368D01*
X1169225Y457958D01*
X1170635Y456876D01*
X1172277Y456196D01*
X1174039Y455964D01*
X1175801Y456196D01*
X1177443Y456876D01*
X1178853Y457958D01*
X1179935Y459368D01*
X1180615Y461010D01*
X1180847Y462772D01*
X1180615Y464534D01*
X1180174Y465600D01*
X1180346Y467056D01*
X1180889Y468218D01*
X1181853Y468958D01*
X1182935Y470368D01*
X1183616Y472010D01*
X1183848Y473772D01*
X1183616Y475535D01*
X1182935Y477177D01*
X1181853Y478587D01*
X1180443Y479669D01*
X1178801Y480349D01*
X1177039Y480581D01*
D02*
G37*
G36*
X1439600Y477945D02*
X1436728Y477567D01*
X1434053Y476459D01*
X1431755Y474695D01*
X1429991Y472397D01*
X1428883Y469722D01*
X1428505Y466850D01*
X1428883Y463979D01*
X1429991Y461303D01*
X1431755Y459005D01*
X1434053Y457242D01*
X1436728Y456133D01*
X1439600Y455755D01*
X1442472Y456133D01*
X1445147Y457242D01*
X1447445Y459005D01*
X1449209Y461303D01*
X1450317Y463979D01*
X1450695Y466850D01*
X1450317Y469722D01*
X1449209Y472397D01*
X1447445Y474695D01*
X1445147Y476459D01*
X1442472Y477567D01*
X1439600Y477945D01*
D02*
G37*
G36*
X832770Y458214D02*
Y449020D01*
X841964D01*
X841769Y450502D01*
X840707Y453065D01*
X839017Y455267D01*
X836815Y456957D01*
X834251Y458019D01*
X832770Y458214D01*
D02*
G37*
G36*
X830230D02*
X828748Y458019D01*
X826184Y456957D01*
X823983Y455267D01*
X822293Y453065D01*
X821231Y450502D01*
X821036Y449020D01*
X830230D01*
Y458214D01*
D02*
G37*
G36*
X1349000Y457558D02*
X1347238Y457326D01*
X1345596Y456646D01*
X1344186Y455564D01*
X1343104Y454154D01*
X1342424Y452512D01*
X1342192Y450750D01*
X1342424Y448988D01*
X1343104Y447346D01*
X1344186Y445936D01*
X1345596Y444854D01*
X1347238Y444174D01*
X1349000Y443942D01*
X1350762Y444174D01*
X1352404Y444854D01*
X1353814Y445936D01*
X1354896Y447346D01*
X1355576Y448988D01*
X1355808Y450750D01*
X1355576Y452512D01*
X1354896Y454154D01*
X1353814Y455564D01*
X1352404Y456646D01*
X1350762Y457326D01*
X1349000Y457558D01*
D02*
G37*
G36*
X671000Y457315D02*
X669042Y457057D01*
X667218Y456301D01*
X665651Y455099D01*
X664449Y453532D01*
X663693Y451708D01*
X661764Y451079D01*
X660002Y450847D01*
X658360Y450167D01*
X656950Y449085D01*
X655868Y447675D01*
X655188Y446033D01*
X654956Y444271D01*
X655188Y442509D01*
X655868Y440867D01*
X656950Y439457D01*
X658360Y438375D01*
X660002Y437695D01*
X661764Y437463D01*
X663526Y437695D01*
X665168Y438375D01*
X666578Y439457D01*
X667660Y440867D01*
X668341Y442509D01*
X670327Y442274D01*
X671000Y442185D01*
X672958Y442443D01*
X674782Y443199D01*
X676349Y444401D01*
X677551Y445968D01*
X678307Y447792D01*
X678565Y449750D01*
X678307Y451708D01*
X677551Y453532D01*
X676349Y455099D01*
X674782Y456301D01*
X672958Y457057D01*
X671000Y457315D01*
D02*
G37*
G36*
X1465000Y464245D02*
X1462128Y463867D01*
X1459453Y462758D01*
X1457155Y460995D01*
X1455392Y458698D01*
X1454283Y456022D01*
X1453905Y453150D01*
X1454283Y450278D01*
X1455392Y447603D01*
X1457155Y445305D01*
X1459453Y443542D01*
X1462128Y442433D01*
X1465000Y442055D01*
X1467872Y442433D01*
X1470547Y443542D01*
X1472845Y445305D01*
X1474608Y447603D01*
X1475717Y450278D01*
X1476095Y453150D01*
X1475717Y456022D01*
X1474608Y458698D01*
X1472845Y460995D01*
X1470547Y462758D01*
X1467872Y463867D01*
X1465000Y464245D01*
D02*
G37*
G36*
X708250Y459181D02*
X705809Y458859D01*
X703535Y457917D01*
X701581Y456418D01*
X700083Y454465D01*
X699141Y452191D01*
X698819Y449750D01*
X699141Y447309D01*
X700083Y445035D01*
X701581Y443082D01*
X703535Y441583D01*
X705809Y440641D01*
X708250Y440319D01*
X710691Y440641D01*
X712965Y441583D01*
X714919Y443082D01*
X716417Y445035D01*
X717359Y447309D01*
X717681Y449750D01*
X717359Y452191D01*
X716417Y454465D01*
X714919Y456418D01*
X712965Y457917D01*
X710691Y458859D01*
X708250Y459181D01*
D02*
G37*
G36*
X1052000Y453308D02*
X1050238Y453076D01*
X1048596Y452396D01*
X1047186Y451314D01*
X1046104Y449904D01*
X1045424Y448262D01*
X1045192Y446500D01*
X1045424Y444738D01*
X1046104Y443096D01*
X1047186Y441686D01*
X1048596Y440604D01*
X1050238Y439924D01*
X1052000Y439692D01*
X1053762Y439924D01*
X1055404Y440604D01*
X1056814Y441686D01*
X1057896Y443096D01*
X1058576Y444738D01*
X1058808Y446500D01*
X1058576Y448262D01*
X1057896Y449904D01*
X1056814Y451314D01*
X1055404Y452396D01*
X1053762Y453076D01*
X1052000Y453308D01*
D02*
G37*
G36*
X892750Y461058D02*
X890988Y460826D01*
X889346Y460146D01*
X887936Y459064D01*
X886854Y457654D01*
X886174Y456012D01*
X885942Y454250D01*
X886174Y452488D01*
X886481Y451747D01*
X886238Y451326D01*
X884596Y450646D01*
X883186Y449564D01*
X882104Y448154D01*
X881424Y446512D01*
X881192Y444750D01*
X881424Y442988D01*
X882104Y441346D01*
X883186Y439936D01*
X884596Y438854D01*
X886238Y438174D01*
X888000Y437942D01*
X889762Y438174D01*
X891404Y438854D01*
X892814Y439936D01*
X893896Y441346D01*
X894576Y442988D01*
X894808Y444750D01*
X894576Y446512D01*
X894269Y447253D01*
X894512Y447674D01*
X896154Y448354D01*
X897564Y449436D01*
X898646Y450846D01*
X899326Y452488D01*
X899558Y454250D01*
X899326Y456012D01*
X898646Y457654D01*
X897564Y459064D01*
X896154Y460146D01*
X894512Y460826D01*
X892750Y461058D01*
D02*
G37*
G36*
X841964Y446480D02*
X832770D01*
Y437286D01*
X834251Y437481D01*
X836815Y438543D01*
X839017Y440233D01*
X840707Y442435D01*
X841769Y444999D01*
X841964Y446480D01*
D02*
G37*
G36*
X830230D02*
X821036D01*
X821231Y444999D01*
X822293Y442435D01*
X823983Y440233D01*
X826184Y438543D01*
X828748Y437481D01*
X830230Y437286D01*
Y446480D01*
D02*
G37*
G36*
X1370000Y450558D02*
X1368238Y450326D01*
X1366596Y449646D01*
X1365186Y448564D01*
X1364104Y447154D01*
X1363424Y445512D01*
X1363192Y443750D01*
X1363424Y441988D01*
X1364104Y440346D01*
X1365186Y438936D01*
X1366596Y437854D01*
X1368238Y437174D01*
X1370000Y436942D01*
X1371762Y437174D01*
X1373404Y437854D01*
X1374814Y438936D01*
X1375896Y440346D01*
X1376576Y441988D01*
X1376808Y443750D01*
X1376576Y445512D01*
X1375896Y447154D01*
X1374814Y448564D01*
X1373404Y449646D01*
X1371762Y450326D01*
X1370000Y450558D01*
D02*
G37*
G36*
X874500Y458750D02*
X852500D01*
Y436750D01*
X874500D01*
Y458750D01*
D02*
G37*
G36*
X1112000Y443558D02*
X1110238Y443326D01*
X1108596Y442646D01*
X1107186Y441564D01*
X1106104Y440154D01*
X1105424Y438512D01*
X1105192Y436750D01*
X1105424Y434988D01*
X1106104Y433346D01*
X1107186Y431936D01*
X1108596Y430854D01*
X1110238Y430174D01*
X1112000Y429942D01*
X1113762Y430174D01*
X1115404Y430854D01*
X1116814Y431936D01*
X1117896Y433346D01*
X1118576Y434988D01*
X1118808Y436750D01*
X1118576Y438512D01*
X1117896Y440154D01*
X1116814Y441564D01*
X1115404Y442646D01*
X1113762Y443326D01*
X1112000Y443558D01*
D02*
G37*
G36*
X1226000Y450845D02*
X1223128Y450467D01*
X1220452Y449358D01*
X1218155Y447595D01*
X1216392Y445298D01*
X1215283Y442622D01*
X1214905Y439750D01*
X1215283Y436878D01*
X1216392Y434202D01*
X1218155Y431905D01*
X1220452Y430141D01*
X1223128Y429033D01*
X1226000Y428655D01*
X1228872Y429033D01*
X1231547Y430141D01*
X1233845Y431905D01*
X1235609Y434202D01*
X1236717Y436878D01*
X1237095Y439750D01*
X1236717Y442622D01*
X1235609Y445298D01*
X1233845Y447595D01*
X1231547Y449358D01*
X1228872Y450467D01*
X1226000Y450845D01*
D02*
G37*
G36*
X1439600Y450545D02*
X1436728Y450167D01*
X1434053Y449058D01*
X1431755Y447295D01*
X1429991Y444997D01*
X1428883Y442322D01*
X1428505Y439450D01*
X1428883Y436578D01*
X1429991Y433903D01*
X1431755Y431605D01*
X1434053Y429842D01*
X1436728Y428733D01*
X1439600Y428355D01*
X1442472Y428733D01*
X1445147Y429842D01*
X1447445Y431605D01*
X1449209Y433903D01*
X1450317Y436578D01*
X1450695Y439450D01*
X1450317Y442322D01*
X1449209Y444997D01*
X1447445Y447295D01*
X1445147Y449058D01*
X1442472Y450167D01*
X1439600Y450545D01*
D02*
G37*
G36*
X1389000Y438558D02*
X1387238Y438326D01*
X1385596Y437646D01*
X1384186Y436564D01*
X1383104Y435154D01*
X1382424Y433512D01*
X1382192Y431750D01*
X1382424Y429988D01*
X1383104Y428346D01*
X1384186Y426936D01*
X1385596Y425854D01*
X1387238Y425174D01*
X1389000Y424942D01*
X1390762Y425174D01*
X1392404Y425854D01*
X1393814Y426936D01*
X1394896Y428346D01*
X1395576Y429988D01*
X1395808Y431750D01*
X1395576Y433512D01*
X1394896Y435154D01*
X1393814Y436564D01*
X1392404Y437646D01*
X1390762Y438326D01*
X1389000Y438558D01*
D02*
G37*
G36*
X794500Y436993D02*
X792738Y436761D01*
X791096Y436081D01*
X789686Y434999D01*
X788604Y433589D01*
X787924Y431947D01*
X787692Y430185D01*
X787849Y428990D01*
X786758Y428846D01*
X785116Y428166D01*
X783706Y427084D01*
X782624Y425674D01*
X781944Y424032D01*
X781712Y422270D01*
X781488Y422046D01*
X781266Y422075D01*
X779504Y421843D01*
X777862Y421163D01*
X776452Y420081D01*
X775370Y418671D01*
X774690Y417029D01*
X774458Y415267D01*
X774690Y413505D01*
X775370Y411863D01*
X776452Y410453D01*
X777862Y409371D01*
X779504Y408691D01*
X781266Y408459D01*
X783028Y408691D01*
X784670Y409371D01*
X786080Y410453D01*
X787162Y411863D01*
X787842Y413505D01*
X788074Y415267D01*
X788298Y415491D01*
X788520Y415462D01*
X790283Y415694D01*
X791925Y416374D01*
X793335Y417456D01*
X794417Y418866D01*
X795097Y420508D01*
X795329Y422270D01*
X795171Y423465D01*
X796262Y423609D01*
X797904Y424289D01*
X799314Y425371D01*
X800396Y426781D01*
X801076Y428423D01*
X801308Y430185D01*
X801076Y431947D01*
X800396Y433589D01*
X799314Y434999D01*
X797904Y436081D01*
X796262Y436761D01*
X794500Y436993D01*
D02*
G37*
G36*
X1269590Y431090D02*
X1256320D01*
Y421070D01*
X1269590D01*
Y431090D01*
D02*
G37*
G36*
X1253780D02*
X1240510D01*
Y421070D01*
X1253780D01*
Y431090D01*
D02*
G37*
G36*
X1205998Y434557D02*
X1204236Y434325D01*
X1202594Y433645D01*
X1201184Y432563D01*
X1200102Y431153D01*
X1199422Y429511D01*
X1199190Y427749D01*
X1199422Y425987D01*
X1200102Y424345D01*
X1201184Y422935D01*
X1202594Y421853D01*
X1204236Y421173D01*
X1205998Y420941D01*
X1207760Y421173D01*
X1209402Y421853D01*
X1210813Y422935D01*
X1211894Y424345D01*
X1212575Y425987D01*
X1212807Y427749D01*
X1212575Y429511D01*
X1211894Y431153D01*
X1210813Y432563D01*
X1209402Y433645D01*
X1207760Y434325D01*
X1205998Y434557D01*
D02*
G37*
G36*
X818000Y433558D02*
X816238Y433326D01*
X814596Y432646D01*
X813186Y431564D01*
X812104Y430154D01*
X811424Y428512D01*
X811192Y426750D01*
X811424Y424988D01*
X812104Y423346D01*
X813186Y421936D01*
X814596Y420854D01*
X816238Y420174D01*
X818000Y419942D01*
X819762Y420174D01*
X821404Y420854D01*
X822814Y421936D01*
X823896Y423346D01*
X824576Y424988D01*
X824808Y426750D01*
X824576Y428512D01*
X823896Y430154D01*
X822814Y431564D01*
X821404Y432646D01*
X819762Y433326D01*
X818000Y433558D01*
D02*
G37*
G36*
X968520Y432082D02*
X966562Y431824D01*
X964738Y431069D01*
X963171Y429867D01*
X961969Y428300D01*
X961214Y426475D01*
X960956Y424518D01*
X961214Y422560D01*
X961969Y420735D01*
X963171Y419169D01*
X964738Y417966D01*
X966562Y417211D01*
X968520Y416953D01*
X970478Y417211D01*
X972303Y417966D01*
X973869Y419169D01*
X975072Y420735D01*
X975827Y422560D01*
X976085Y424518D01*
X975827Y426475D01*
X975072Y428300D01*
X973869Y429867D01*
X972303Y431069D01*
X970478Y431824D01*
X968520Y432082D01*
D02*
G37*
G36*
X886250Y430058D02*
X884488Y429826D01*
X882846Y429146D01*
X881436Y428064D01*
X880354Y426654D01*
X879674Y425012D01*
X879442Y423250D01*
X879674Y421488D01*
X880354Y419846D01*
X881436Y418436D01*
X882846Y417354D01*
X884488Y416674D01*
X886250Y416442D01*
X888012Y416674D01*
X889654Y417354D01*
X891064Y418436D01*
X892146Y419846D01*
X892826Y421488D01*
X893058Y423250D01*
X892826Y425012D01*
X892146Y426654D01*
X891064Y428064D01*
X889654Y429146D01*
X888012Y429826D01*
X886250Y430058D01*
D02*
G37*
G36*
X1465000Y436845D02*
X1462128Y436467D01*
X1459453Y435359D01*
X1457155Y433595D01*
X1455392Y431297D01*
X1454283Y428622D01*
X1453905Y425750D01*
X1454283Y422878D01*
X1455392Y420203D01*
X1457155Y417905D01*
X1459453Y416142D01*
X1462128Y415033D01*
X1465000Y414655D01*
X1467872Y415033D01*
X1470547Y416142D01*
X1472845Y417905D01*
X1474608Y420203D01*
X1475717Y422878D01*
X1476095Y425750D01*
X1475717Y428622D01*
X1474608Y431297D01*
X1472845Y433595D01*
X1470547Y435359D01*
X1467872Y436467D01*
X1465000Y436845D01*
D02*
G37*
G36*
X1024250Y426315D02*
X1022292Y426057D01*
X1020468Y425301D01*
X1018901Y424099D01*
X1017699Y422532D01*
X1016943Y420708D01*
X1016685Y418750D01*
X1016943Y416792D01*
X1017699Y414968D01*
X1018901Y413401D01*
X1020468Y412199D01*
X1022292Y411443D01*
X1024250Y411185D01*
X1026208Y411443D01*
X1028032Y412199D01*
X1029599Y413401D01*
X1030801Y414968D01*
X1031557Y416792D01*
X1031815Y418750D01*
X1031557Y420708D01*
X1030801Y422532D01*
X1029599Y424099D01*
X1028032Y425301D01*
X1026208Y426057D01*
X1024250Y426315D01*
D02*
G37*
G36*
X1086500Y423558D02*
X1084738Y423326D01*
X1083096Y422646D01*
X1081686Y421564D01*
X1080604Y420154D01*
X1079924Y418512D01*
X1079692Y416750D01*
X1079924Y414988D01*
X1080604Y413346D01*
X1081686Y411936D01*
X1083096Y410854D01*
X1084738Y410174D01*
X1086500Y409942D01*
X1088262Y410174D01*
X1089904Y410854D01*
X1091314Y411936D01*
X1092396Y413346D01*
X1093076Y414988D01*
X1093308Y416750D01*
X1093076Y418512D01*
X1092396Y420154D01*
X1091314Y421564D01*
X1089904Y422646D01*
X1088262Y423326D01*
X1086500Y423558D01*
D02*
G37*
G36*
X1310500Y431808D02*
X1308738Y431576D01*
X1307096Y430896D01*
X1305686Y429814D01*
X1304604Y428404D01*
X1303924Y426762D01*
X1303692Y425000D01*
X1303924Y423238D01*
X1304604Y421596D01*
X1305686Y420186D01*
X1307096Y419104D01*
X1308738Y418424D01*
X1308777Y416401D01*
X1308692Y415750D01*
X1308924Y413988D01*
X1309604Y412346D01*
X1310686Y410936D01*
X1312096Y409854D01*
X1313738Y409174D01*
X1315500Y408942D01*
X1317262Y409174D01*
X1318904Y409854D01*
X1320314Y410936D01*
X1321396Y412346D01*
X1322076Y413988D01*
X1322308Y415750D01*
X1322076Y417512D01*
X1321396Y419154D01*
X1320314Y420564D01*
X1318904Y421646D01*
X1317262Y422326D01*
X1316934Y422895D01*
X1317076Y423238D01*
X1317308Y425000D01*
X1317076Y426762D01*
X1316396Y428404D01*
X1315314Y429814D01*
X1313904Y430896D01*
X1312262Y431576D01*
X1310500Y431808D01*
D02*
G37*
G36*
X1269590Y418530D02*
X1256320D01*
Y408510D01*
X1269590D01*
Y418530D01*
D02*
G37*
G36*
X1253780D02*
X1240510D01*
Y408510D01*
X1253780D01*
Y418530D01*
D02*
G37*
G36*
X459370Y422991D02*
Y407620D01*
X473260D01*
Y408975D01*
X472782Y412608D01*
X471380Y415993D01*
X469149Y418899D01*
X466242Y421130D01*
X462858Y422532D01*
X459370Y422991D01*
D02*
G37*
G36*
X456830Y422991D02*
X453343Y422532D01*
X449958Y421130D01*
X447051Y418899D01*
X444820Y415993D01*
X443418Y412608D01*
X442940Y408975D01*
Y407620D01*
X456830D01*
Y422991D01*
D02*
G37*
G36*
X761765Y420825D02*
X760003Y420593D01*
X758361Y419913D01*
X756951Y418831D01*
X755869Y417421D01*
X755189Y415779D01*
X754957Y414017D01*
X755189Y412255D01*
X755869Y410613D01*
X756951Y409203D01*
X758361Y408121D01*
X760003Y407441D01*
X761765Y407209D01*
X763527Y407441D01*
X765169Y408121D01*
X766579Y409203D01*
X767661Y410613D01*
X768342Y412255D01*
X768573Y414017D01*
X768342Y415779D01*
X767661Y417421D01*
X766579Y418831D01*
X765169Y419913D01*
X763527Y420593D01*
X761765Y420825D01*
D02*
G37*
G36*
X1105000Y418558D02*
X1103238Y418326D01*
X1101596Y417646D01*
X1100186Y416564D01*
X1099104Y415154D01*
X1098424Y413512D01*
X1098192Y411750D01*
X1098424Y409988D01*
X1099104Y408346D01*
X1100186Y406936D01*
X1101596Y405854D01*
X1103238Y405174D01*
X1105000Y404942D01*
X1106762Y405174D01*
X1108404Y405854D01*
X1109814Y406936D01*
X1110896Y408346D01*
X1111576Y409988D01*
X1111808Y411750D01*
X1111576Y413512D01*
X1110896Y415154D01*
X1109814Y416564D01*
X1108404Y417646D01*
X1106762Y418326D01*
X1105000Y418558D01*
D02*
G37*
G36*
X1071750D02*
X1069988Y418326D01*
X1068346Y417646D01*
X1066936Y416564D01*
X1065854Y415154D01*
X1065174Y413512D01*
X1064942Y411750D01*
X1065174Y409988D01*
X1065854Y408346D01*
X1066936Y406936D01*
X1068346Y405854D01*
X1069988Y405174D01*
X1071750Y404942D01*
X1073512Y405174D01*
X1075154Y405854D01*
X1076564Y406936D01*
X1077646Y408346D01*
X1078326Y409988D01*
X1078558Y411750D01*
X1078326Y413512D01*
X1077646Y415154D01*
X1076564Y416564D01*
X1075154Y417646D01*
X1073512Y418326D01*
X1071750Y418558D01*
D02*
G37*
G36*
X1439600Y423145D02*
X1436728Y422767D01*
X1434052Y421659D01*
X1431755Y419895D01*
X1429991Y417598D01*
X1428883Y414922D01*
X1428505Y412050D01*
X1428883Y409179D01*
X1429991Y406503D01*
X1431755Y404205D01*
X1434052Y402442D01*
X1436728Y401333D01*
X1439600Y400955D01*
X1442472Y401333D01*
X1445148Y402442D01*
X1447445Y404205D01*
X1449209Y406503D01*
X1450317Y409179D01*
X1450695Y412050D01*
X1450317Y414922D01*
X1449209Y417598D01*
X1447445Y419895D01*
X1445148Y421659D01*
X1442472Y422767D01*
X1439600Y423145D01*
D02*
G37*
G36*
X1276998Y409557D02*
X1275236Y409325D01*
X1273594Y408645D01*
X1272184Y407563D01*
X1271102Y406153D01*
X1270422Y404511D01*
X1270190Y402749D01*
X1270422Y400987D01*
X1271102Y399345D01*
X1272184Y397935D01*
X1273594Y396853D01*
X1275236Y396173D01*
X1276998Y395941D01*
X1278760Y396173D01*
X1280402Y396853D01*
X1281812Y397935D01*
X1282894Y399345D01*
X1283574Y400987D01*
X1283806Y402749D01*
X1283574Y404511D01*
X1282894Y406153D01*
X1281812Y407563D01*
X1280402Y408645D01*
X1278760Y409325D01*
X1276998Y409557D01*
D02*
G37*
G36*
X693000Y413181D02*
X690559Y412859D01*
X688285Y411917D01*
X686331Y410419D01*
X684833Y408465D01*
X683891Y406191D01*
X683569Y403750D01*
X683891Y401309D01*
X684833Y399035D01*
X686331Y397081D01*
X688285Y395583D01*
X690559Y394641D01*
X693000Y394319D01*
X695441Y394641D01*
X697715Y395583D01*
X699669Y397081D01*
X701167Y399035D01*
X702109Y401309D01*
X702431Y403750D01*
X702109Y406191D01*
X701167Y408465D01*
X699669Y410419D01*
X697715Y411917D01*
X695441Y412859D01*
X693000Y413181D01*
D02*
G37*
G36*
X1026032Y407327D02*
X1024270Y407095D01*
X1022628Y406415D01*
X1021218Y405333D01*
X1020136Y403923D01*
X1019456Y402281D01*
X1019224Y400519D01*
X1019456Y398757D01*
X1020136Y397115D01*
X1021218Y395705D01*
X1022628Y394623D01*
X1024270Y393942D01*
X1026032Y393711D01*
X1027794Y393942D01*
X1029436Y394623D01*
X1030846Y395705D01*
X1031928Y397115D01*
X1032608Y398757D01*
X1032840Y400519D01*
X1032608Y402281D01*
X1031928Y403923D01*
X1030846Y405333D01*
X1029436Y406415D01*
X1027794Y407095D01*
X1026032Y407327D01*
D02*
G37*
G36*
X997250Y406808D02*
X995488Y406576D01*
X993846Y405896D01*
X992436Y404814D01*
X991354Y403404D01*
X990674Y401762D01*
X990442Y400000D01*
X990674Y398238D01*
X991354Y396596D01*
X992436Y395186D01*
X993846Y394104D01*
X995488Y393424D01*
X997250Y393192D01*
X999012Y393424D01*
X1000654Y394104D01*
X1002064Y395186D01*
X1003146Y396596D01*
X1003826Y398238D01*
X1004058Y400000D01*
X1003826Y401762D01*
X1003146Y403404D01*
X1002064Y404814D01*
X1000654Y405896D01*
X999012Y406576D01*
X997250Y406808D01*
D02*
G37*
G36*
X1236292Y403577D02*
X1234530Y403345D01*
X1232888Y402665D01*
X1231478Y401583D01*
X1230396Y400173D01*
X1229716Y398531D01*
X1229484Y396769D01*
X1229716Y395006D01*
X1230396Y393364D01*
X1231478Y391954D01*
X1232888Y390872D01*
X1234530Y390192D01*
X1236292Y389960D01*
X1238054Y390192D01*
X1239696Y390872D01*
X1241106Y391954D01*
X1242188Y393364D01*
X1242868Y395006D01*
X1243101Y396769D01*
X1242868Y398531D01*
X1242188Y400173D01*
X1241106Y401583D01*
X1239696Y402665D01*
X1238054Y403345D01*
X1236292Y403577D01*
D02*
G37*
G36*
X456830Y405080D02*
X442940D01*
Y403725D01*
X443418Y400093D01*
X444820Y396707D01*
X447051Y393801D01*
X449958Y391570D01*
X453343Y390168D01*
X456830Y389709D01*
Y405080D01*
D02*
G37*
G36*
X473260D02*
X459370D01*
Y389709D01*
X462858Y390168D01*
X466242Y391570D01*
X469149Y393801D01*
X471380Y396707D01*
X472782Y400093D01*
X473260Y403725D01*
Y405080D01*
D02*
G37*
G36*
X573525Y423474D02*
X571275D01*
X567522Y422980D01*
X564025Y421531D01*
X561023Y419227D01*
X558718Y416225D01*
X557270Y412728D01*
X556776Y408975D01*
Y403725D01*
X557270Y399972D01*
X558718Y396475D01*
X561023Y393473D01*
X564025Y391169D01*
X567522Y389720D01*
X571275Y389226D01*
X573525D01*
X577278Y389720D01*
X580774Y391169D01*
X583777Y393473D01*
X586082Y396475D01*
X587530Y399972D01*
X588024Y403725D01*
Y408975D01*
X587530Y412728D01*
X586082Y416225D01*
X583777Y419227D01*
X580774Y421531D01*
X577278Y422980D01*
X573525Y423474D01*
D02*
G37*
G36*
X1465000Y409445D02*
X1462128Y409067D01*
X1459453Y407958D01*
X1457155Y406195D01*
X1455392Y403897D01*
X1454283Y401222D01*
X1453905Y398350D01*
X1454283Y395478D01*
X1455392Y392803D01*
X1457155Y390505D01*
X1459453Y388741D01*
X1462128Y387633D01*
X1465000Y387255D01*
X1467872Y387633D01*
X1470547Y388741D01*
X1472845Y390505D01*
X1474608Y392803D01*
X1475717Y395478D01*
X1476095Y398350D01*
X1475717Y401222D01*
X1474608Y403897D01*
X1472845Y406195D01*
X1470547Y407958D01*
X1467872Y409067D01*
X1465000Y409445D01*
D02*
G37*
G36*
X959000Y397315D02*
X957042Y397057D01*
X955218Y396301D01*
X953651Y395099D01*
X952449Y393532D01*
X951693Y391708D01*
X951435Y389750D01*
X951693Y387792D01*
X952449Y385968D01*
X953651Y384401D01*
X955218Y383199D01*
X957042Y382443D01*
X959000Y382185D01*
X960958Y382443D01*
X962782Y383199D01*
X964349Y384401D01*
X965551Y385968D01*
X966307Y387792D01*
X966565Y389750D01*
X966307Y391708D01*
X965551Y393532D01*
X964349Y395099D01*
X962782Y396301D01*
X960958Y397057D01*
X959000Y397315D01*
D02*
G37*
G36*
X1307796Y387826D02*
X1306034Y387594D01*
X1304392Y386914D01*
X1302982Y385832D01*
X1301900Y384422D01*
X1301219Y382780D01*
X1300988Y381018D01*
X1301219Y379256D01*
X1301900Y377614D01*
X1302982Y376204D01*
X1304392Y375122D01*
X1306034Y374442D01*
X1307796Y374210D01*
X1309558Y374442D01*
X1311200Y375122D01*
X1312610Y376204D01*
X1313692Y377614D01*
X1314372Y379256D01*
X1314604Y381018D01*
X1314372Y382780D01*
X1313692Y384422D01*
X1312610Y385832D01*
X1311200Y386914D01*
X1309558Y387594D01*
X1307796Y387826D01*
D02*
G37*
G36*
X1350000Y395845D02*
X1347128Y395467D01*
X1344453Y394358D01*
X1342155Y392595D01*
X1340392Y390298D01*
X1339283Y387622D01*
X1338905Y384750D01*
X1339283Y381878D01*
X1340392Y379202D01*
X1342155Y376905D01*
X1344453Y375141D01*
X1347128Y374033D01*
X1350000Y373655D01*
X1352872Y374033D01*
X1355547Y375141D01*
X1357845Y376905D01*
X1359608Y379202D01*
X1360717Y381878D01*
X1361095Y384750D01*
X1360717Y387622D01*
X1359608Y390298D01*
X1357845Y392595D01*
X1355547Y394358D01*
X1352872Y395467D01*
X1350000Y395845D01*
D02*
G37*
G36*
X1439600Y395745D02*
X1436728Y395367D01*
X1434053Y394258D01*
X1431755Y392495D01*
X1429991Y390197D01*
X1428883Y387522D01*
X1428505Y384650D01*
X1428883Y381778D01*
X1429991Y379103D01*
X1431755Y376805D01*
X1434053Y375042D01*
X1436728Y373933D01*
X1439600Y373555D01*
X1442472Y373933D01*
X1445147Y375042D01*
X1447445Y376805D01*
X1449209Y379103D01*
X1450317Y381778D01*
X1450695Y384650D01*
X1450317Y387522D01*
X1449209Y390197D01*
X1447445Y392495D01*
X1445147Y394258D01*
X1442472Y395367D01*
X1439600Y395745D01*
D02*
G37*
G36*
X1262000Y386558D02*
X1260238Y386326D01*
X1258596Y385646D01*
X1257186Y384564D01*
X1256104Y383154D01*
X1255424Y381512D01*
X1255192Y379750D01*
X1255424Y377988D01*
X1256104Y376346D01*
X1257186Y374936D01*
X1258596Y373854D01*
X1260238Y373174D01*
X1262000Y372942D01*
X1263762Y373174D01*
X1265404Y373854D01*
X1266814Y374936D01*
X1267896Y376346D01*
X1268576Y377988D01*
X1268808Y379750D01*
X1268576Y381512D01*
X1267896Y383154D01*
X1266814Y384564D01*
X1265404Y385646D01*
X1263762Y386326D01*
X1262000Y386558D01*
D02*
G37*
G36*
X1229292Y384332D02*
X1227334Y384075D01*
X1225510Y383319D01*
X1223943Y382117D01*
X1222741Y380550D01*
X1221985Y378726D01*
X1221727Y376768D01*
X1221985Y374810D01*
X1222741Y372985D01*
X1223943Y371419D01*
X1225510Y370216D01*
X1227334Y369461D01*
X1229292Y369203D01*
X1231250Y369461D01*
X1233074Y370216D01*
X1234641Y371419D01*
X1235843Y372985D01*
X1236599Y374810D01*
X1236857Y376768D01*
X1236599Y378726D01*
X1235843Y380550D01*
X1234641Y382117D01*
X1233074Y383319D01*
X1231250Y384075D01*
X1229292Y384332D01*
D02*
G37*
G36*
X940000Y380065D02*
X938042Y379807D01*
X936218Y379051D01*
X934651Y377849D01*
X933449Y376282D01*
X932693Y374458D01*
X932435Y372500D01*
X932693Y370542D01*
X933449Y368718D01*
X934651Y367151D01*
X936218Y365949D01*
X938042Y365193D01*
X940000Y364935D01*
X941958Y365193D01*
X943782Y365949D01*
X945349Y367151D01*
X946551Y368718D01*
X947307Y370542D01*
X947565Y372500D01*
X947307Y374458D01*
X946551Y376282D01*
X945349Y377849D01*
X943782Y379051D01*
X941958Y379807D01*
X940000Y380065D01*
D02*
G37*
G36*
X772270Y379332D02*
X770312Y379074D01*
X768487Y378319D01*
X766921Y377116D01*
X765718Y375550D01*
X764963Y373725D01*
X764705Y371767D01*
X764963Y369809D01*
X765718Y367985D01*
X766921Y366418D01*
X768487Y365216D01*
X770312Y364460D01*
X772270Y364203D01*
X774228Y364460D01*
X776052Y365216D01*
X777619Y366418D01*
X778821Y367985D01*
X779577Y369809D01*
X779834Y371767D01*
X779577Y373725D01*
X778821Y375550D01*
X777619Y377116D01*
X776052Y378319D01*
X774228Y379074D01*
X772270Y379332D01*
D02*
G37*
G36*
X873525Y378832D02*
X871567Y378574D01*
X869742Y377819D01*
X868176Y376616D01*
X866973Y375050D01*
X866218Y373225D01*
X865960Y371267D01*
X866218Y369310D01*
X866973Y367485D01*
X868176Y365918D01*
X869742Y364716D01*
X871567Y363960D01*
X873525Y363703D01*
X875482Y363960D01*
X877307Y364716D01*
X878874Y365918D01*
X880076Y367485D01*
X880832Y369310D01*
X881089Y371267D01*
X880832Y373225D01*
X880076Y375050D01*
X878874Y376616D01*
X877307Y377819D01*
X875482Y378574D01*
X873525Y378832D01*
D02*
G37*
G36*
X825000Y378315D02*
X823042Y378057D01*
X821218Y377301D01*
X819651Y376099D01*
X818449Y374532D01*
X817693Y372708D01*
X817435Y370750D01*
X817693Y368792D01*
X818449Y366968D01*
X819651Y365401D01*
X821218Y364199D01*
X823042Y363443D01*
X825000Y363185D01*
X826958Y363443D01*
X828782Y364199D01*
X830349Y365401D01*
X831551Y366968D01*
X832307Y368792D01*
X832565Y370750D01*
X832307Y372708D01*
X831551Y374532D01*
X830349Y376099D01*
X828782Y377301D01*
X826958Y378057D01*
X825000Y378315D01*
D02*
G37*
G36*
X1151750Y384595D02*
X1148878Y384217D01*
X1146203Y383108D01*
X1143905Y381345D01*
X1142141Y379048D01*
X1141033Y376372D01*
X1140655Y373500D01*
X1141033Y370628D01*
X1142141Y367953D01*
X1143905Y365655D01*
X1146203Y363892D01*
X1148878Y362783D01*
X1151750Y362405D01*
X1154622Y362783D01*
X1157297Y363892D01*
X1159595Y365655D01*
X1161358Y367953D01*
X1162467Y370628D01*
X1162845Y373500D01*
X1162467Y376372D01*
X1161358Y379048D01*
X1159595Y381345D01*
X1157297Y383108D01*
X1154622Y384217D01*
X1151750Y384595D01*
D02*
G37*
G36*
X1465000Y382045D02*
X1462128Y381667D01*
X1459453Y380558D01*
X1457155Y378795D01*
X1455392Y376497D01*
X1454283Y373822D01*
X1453905Y370950D01*
X1454283Y368078D01*
X1455392Y365402D01*
X1457155Y363105D01*
X1459453Y361342D01*
X1462128Y360233D01*
X1465000Y359855D01*
X1467872Y360233D01*
X1470547Y361342D01*
X1472845Y363105D01*
X1474608Y365402D01*
X1475717Y368078D01*
X1476095Y370950D01*
X1475717Y373822D01*
X1474608Y376497D01*
X1472845Y378795D01*
X1470547Y380558D01*
X1467872Y381667D01*
X1465000Y382045D01*
D02*
G37*
G36*
X715250Y370058D02*
X713488Y369826D01*
X711846Y369146D01*
X710436Y368064D01*
X709354Y366654D01*
X708674Y365012D01*
X708442Y363250D01*
X708674Y361488D01*
X709354Y359846D01*
X710436Y358436D01*
X711846Y357354D01*
X713488Y356674D01*
X715250Y356442D01*
X717012Y356674D01*
X718654Y357354D01*
X720064Y358436D01*
X721146Y359846D01*
X721826Y361488D01*
X722058Y363250D01*
X721826Y365012D01*
X721146Y366654D01*
X720064Y368064D01*
X718654Y369146D01*
X717012Y369826D01*
X715250Y370058D01*
D02*
G37*
G36*
X1372750Y369308D02*
X1370988Y369076D01*
X1369346Y368396D01*
X1367936Y367314D01*
X1366854Y365904D01*
X1366174Y364262D01*
X1365942Y362500D01*
X1366174Y360738D01*
X1366854Y359096D01*
X1367936Y357686D01*
X1369346Y356604D01*
X1370988Y355924D01*
X1372750Y355692D01*
X1374512Y355924D01*
X1376154Y356604D01*
X1377564Y357686D01*
X1378646Y359096D01*
X1379326Y360738D01*
X1379558Y362500D01*
X1379326Y364262D01*
X1378646Y365904D01*
X1377564Y367314D01*
X1376154Y368396D01*
X1374512Y369076D01*
X1372750Y369308D01*
D02*
G37*
G36*
X1116286Y365831D02*
X1114329Y365574D01*
X1112504Y364818D01*
X1110937Y363616D01*
X1109735Y362049D01*
X1108979Y360225D01*
X1108722Y358267D01*
X1108979Y356309D01*
X1109735Y354484D01*
X1110937Y352918D01*
X1112504Y351716D01*
X1114329Y350960D01*
X1116286Y350702D01*
X1118244Y350960D01*
X1120069Y351716D01*
X1121636Y352918D01*
X1122838Y354484D01*
X1123593Y356309D01*
X1123851Y358267D01*
X1123593Y360225D01*
X1122838Y362049D01*
X1121636Y363616D01*
X1120069Y364818D01*
X1118244Y365574D01*
X1116286Y365831D01*
D02*
G37*
G36*
X988250Y362058D02*
X986488Y361826D01*
X984846Y361146D01*
X983436Y360064D01*
X982354Y358654D01*
X981674Y357012D01*
X981442Y355250D01*
X981674Y353488D01*
X982354Y351846D01*
X983436Y350436D01*
X984846Y349354D01*
X986488Y348674D01*
X988250Y348442D01*
X990012Y348674D01*
X991654Y349354D01*
X993064Y350436D01*
X994146Y351846D01*
X994826Y353488D01*
X995058Y355250D01*
X994826Y357012D01*
X994146Y358654D01*
X993064Y360064D01*
X991654Y361146D01*
X990012Y361826D01*
X988250Y362058D01*
D02*
G37*
G36*
X1095000Y361558D02*
X1093238Y361326D01*
X1091596Y360646D01*
X1090186Y359564D01*
X1089104Y358154D01*
X1088424Y356512D01*
X1088192Y354750D01*
X1088424Y352988D01*
X1089104Y351346D01*
X1090186Y349936D01*
X1091596Y348854D01*
X1093238Y348174D01*
X1095000Y347942D01*
X1096762Y348174D01*
X1098404Y348854D01*
X1099814Y349936D01*
X1100896Y351346D01*
X1101576Y352988D01*
X1101808Y354750D01*
X1101576Y356512D01*
X1100896Y358154D01*
X1099814Y359564D01*
X1098404Y360646D01*
X1096762Y361326D01*
X1095000Y361558D01*
D02*
G37*
G36*
X1439600Y368345D02*
X1436728Y367967D01*
X1434053Y366858D01*
X1431755Y365095D01*
X1429991Y362797D01*
X1428883Y360122D01*
X1428505Y357250D01*
X1428883Y354378D01*
X1429991Y351703D01*
X1431755Y349405D01*
X1434053Y347641D01*
X1436728Y346533D01*
X1439600Y346155D01*
X1442472Y346533D01*
X1445147Y347641D01*
X1447445Y349405D01*
X1449209Y351703D01*
X1450317Y354378D01*
X1450695Y357250D01*
X1450317Y360122D01*
X1449209Y362797D01*
X1447445Y365095D01*
X1445147Y366858D01*
X1442472Y367967D01*
X1439600Y368345D01*
D02*
G37*
G36*
X763519Y361081D02*
X761561Y360823D01*
X759737Y360068D01*
X758170Y358866D01*
X756968Y357299D01*
X756212Y355474D01*
X755955Y353517D01*
X756212Y351559D01*
X756968Y349734D01*
X758170Y348167D01*
X759737Y346965D01*
X761561Y346209D01*
X763519Y345952D01*
X765477Y346209D01*
X767301Y346965D01*
X768868Y348167D01*
X770070Y349734D01*
X770826Y351559D01*
X771084Y353517D01*
X770826Y355474D01*
X770070Y357299D01*
X768868Y358866D01*
X767301Y360068D01*
X765477Y360823D01*
X763519Y361081D01*
D02*
G37*
G36*
X1298795Y373325D02*
X1297033Y373093D01*
X1295391Y372413D01*
X1293981Y371331D01*
X1292899Y369921D01*
X1292219Y368279D01*
X1291987Y366517D01*
X1292219Y364755D01*
X1292899Y363113D01*
X1293981Y361703D01*
X1295391Y360621D01*
X1296971Y359967D01*
X1297049Y359760D01*
X1297210Y357900D01*
X1296596Y357646D01*
X1295186Y356564D01*
X1294104Y355154D01*
X1293424Y353512D01*
X1293192Y351750D01*
X1293424Y349988D01*
X1294104Y348346D01*
X1295186Y346936D01*
X1296596Y345854D01*
X1298238Y345174D01*
X1300000Y344942D01*
X1301762Y345174D01*
X1303404Y345854D01*
X1304814Y346936D01*
X1305896Y348346D01*
X1306576Y349988D01*
X1306808Y351750D01*
X1306576Y353512D01*
X1305896Y355154D01*
X1304814Y356564D01*
X1303404Y357646D01*
X1301824Y358301D01*
X1301747Y358507D01*
X1301586Y360367D01*
X1302199Y360621D01*
X1303609Y361703D01*
X1304691Y363113D01*
X1305372Y364755D01*
X1305604Y366517D01*
X1305372Y368279D01*
X1304691Y369921D01*
X1303609Y371331D01*
X1302199Y372413D01*
X1300557Y373093D01*
X1298795Y373325D01*
D02*
G37*
G36*
X1190000Y358558D02*
X1188238Y358326D01*
X1186596Y357646D01*
X1185186Y356564D01*
X1184104Y355154D01*
X1183424Y353512D01*
X1183192Y351750D01*
X1183424Y349988D01*
X1184104Y348346D01*
X1185186Y346936D01*
X1186596Y345854D01*
X1188238Y345174D01*
X1190000Y344942D01*
X1191762Y345174D01*
X1193404Y345854D01*
X1194814Y346936D01*
X1195896Y348346D01*
X1196576Y349988D01*
X1196808Y351750D01*
X1196576Y353512D01*
X1195896Y355154D01*
X1194814Y356564D01*
X1193404Y357646D01*
X1191762Y358326D01*
X1190000Y358558D01*
D02*
G37*
G36*
X418770Y348714D02*
Y339520D01*
X427964D01*
X427769Y341002D01*
X426707Y343565D01*
X425017Y345767D01*
X422816Y347457D01*
X420252Y348519D01*
X418770Y348714D01*
D02*
G37*
G36*
X416230D02*
X414748Y348519D01*
X412184Y347457D01*
X409983Y345767D01*
X408293Y343565D01*
X407231Y341002D01*
X407036Y339520D01*
X416230D01*
Y348714D01*
D02*
G37*
G36*
X472270Y348714D02*
Y339520D01*
X481464D01*
X481269Y341002D01*
X480207Y343565D01*
X478517Y345767D01*
X476315Y347457D01*
X473751Y348519D01*
X472270Y348714D01*
D02*
G37*
G36*
X469730Y348714D02*
X468248Y348519D01*
X465685Y347457D01*
X463483Y345767D01*
X461793Y343565D01*
X460731Y341002D01*
X460536Y339520D01*
X469730D01*
Y348714D01*
D02*
G37*
G36*
X852000Y341558D02*
X850238Y341326D01*
X848596Y340646D01*
X847186Y339564D01*
X846723Y338961D01*
X844436Y338769D01*
X844353Y338800D01*
X844237Y338873D01*
X842904Y339896D01*
X841262Y340576D01*
X839500Y340808D01*
X837738Y340576D01*
X836096Y339896D01*
X834686Y338814D01*
X833604Y337404D01*
X832924Y335762D01*
X832692Y334000D01*
X832924Y332238D01*
X833604Y330596D01*
X834686Y329186D01*
X836096Y328104D01*
X837738Y327424D01*
X839500Y327192D01*
X841262Y327424D01*
X842904Y328104D01*
X844314Y329186D01*
X844777Y329789D01*
X847064Y329981D01*
X847147Y329950D01*
X847263Y329877D01*
X848596Y328854D01*
X850238Y328174D01*
X852000Y327942D01*
X853762Y328174D01*
X855404Y328854D01*
X856814Y329936D01*
X857896Y331346D01*
X858576Y332988D01*
X858808Y334750D01*
X858576Y336512D01*
X857896Y338154D01*
X856814Y339564D01*
X855404Y340646D01*
X853762Y341326D01*
X852000Y341558D01*
D02*
G37*
G36*
X1407000Y356845D02*
X1404128Y356467D01*
X1401453Y355359D01*
X1399155Y353595D01*
X1397392Y351297D01*
X1396283Y348622D01*
X1395905Y345750D01*
X1396283Y342878D01*
X1397392Y340203D01*
X1399155Y337905D01*
X1401453Y336142D01*
X1404128Y335033D01*
X1407000Y334655D01*
X1409872Y335033D01*
X1412547Y336142D01*
X1414845Y337905D01*
X1416608Y340203D01*
X1417717Y342878D01*
X1418095Y345750D01*
X1417717Y348622D01*
X1416608Y351297D01*
X1414845Y353595D01*
X1412547Y355359D01*
X1409872Y356467D01*
X1407000Y356845D01*
D02*
G37*
G36*
X1147906Y347846D02*
X1146144Y347614D01*
X1144502Y346934D01*
X1143092Y345852D01*
X1142010Y344441D01*
X1141330Y342799D01*
X1141098Y341037D01*
X1141330Y339275D01*
X1142010Y337633D01*
X1143092Y336223D01*
X1144502Y335141D01*
X1146144Y334461D01*
X1147906Y334229D01*
X1149668Y334461D01*
X1151310Y335141D01*
X1152720Y336223D01*
X1153802Y337633D01*
X1154482Y339275D01*
X1154714Y341037D01*
X1154482Y342799D01*
X1153802Y344441D01*
X1152720Y345852D01*
X1151310Y346934D01*
X1149668Y347614D01*
X1147906Y347846D01*
D02*
G37*
G36*
X1216000Y347558D02*
X1214238Y347326D01*
X1212596Y346646D01*
X1211186Y345564D01*
X1210104Y344154D01*
X1209424Y342512D01*
X1209192Y340750D01*
X1209424Y338988D01*
X1210104Y337346D01*
X1211186Y335936D01*
X1212596Y334854D01*
X1214238Y334174D01*
X1216000Y333942D01*
X1217762Y334174D01*
X1219404Y334854D01*
X1220814Y335936D01*
X1221896Y337346D01*
X1222576Y338988D01*
X1222808Y340750D01*
X1222576Y342512D01*
X1221896Y344154D01*
X1220814Y345564D01*
X1219404Y346646D01*
X1217762Y347326D01*
X1216000Y347558D01*
D02*
G37*
G36*
X1465000Y354645D02*
X1462128Y354267D01*
X1459453Y353158D01*
X1457155Y351395D01*
X1455392Y349097D01*
X1454283Y346422D01*
X1453905Y343550D01*
X1454283Y340678D01*
X1455392Y338003D01*
X1457155Y335705D01*
X1459453Y333941D01*
X1462128Y332833D01*
X1465000Y332455D01*
X1467872Y332833D01*
X1470547Y333941D01*
X1472845Y335705D01*
X1474608Y338003D01*
X1475717Y340678D01*
X1476095Y343550D01*
X1475717Y346422D01*
X1474608Y349097D01*
X1472845Y351395D01*
X1470547Y353158D01*
X1467872Y354267D01*
X1465000Y354645D01*
D02*
G37*
G36*
X892500Y344808D02*
X890738Y344576D01*
X889096Y343896D01*
X887686Y342814D01*
X886604Y341404D01*
X885924Y339762D01*
X885692Y338000D01*
X885924Y336238D01*
X886604Y334596D01*
X887686Y333186D01*
X889096Y332104D01*
X890738Y331424D01*
X892500Y331192D01*
X894262Y331424D01*
X895904Y332104D01*
X897314Y333186D01*
X898396Y334596D01*
X899076Y336238D01*
X899308Y338000D01*
X899076Y339762D01*
X898396Y341404D01*
X897314Y342814D01*
X895904Y343896D01*
X894262Y344576D01*
X892500Y344808D01*
D02*
G37*
G36*
X794999Y342558D02*
X793237Y342326D01*
X791595Y341646D01*
X790185Y340564D01*
X789103Y339154D01*
X788423Y337511D01*
X788191Y335749D01*
X788423Y333987D01*
X789103Y332345D01*
X790185Y330935D01*
X791595Y329853D01*
X793237Y329173D01*
X794999Y328941D01*
X796761Y329173D01*
X798403Y329853D01*
X799813Y330935D01*
X800895Y332345D01*
X801575Y333987D01*
X801807Y335749D01*
X801575Y337511D01*
X800895Y339154D01*
X799813Y340564D01*
X798403Y341646D01*
X796761Y342326D01*
X794999Y342558D01*
D02*
G37*
G36*
X481464Y336980D02*
X472270D01*
Y327786D01*
X473751Y327981D01*
X476315Y329043D01*
X478517Y330733D01*
X480207Y332934D01*
X481269Y335499D01*
X481464Y336980D01*
D02*
G37*
G36*
X427964Y336980D02*
X418770D01*
Y327786D01*
X420252Y327981D01*
X422816Y329043D01*
X425017Y330733D01*
X426707Y332934D01*
X427769Y335499D01*
X427964Y336980D01*
D02*
G37*
G36*
X416230D02*
X407036D01*
X407231Y335499D01*
X408293Y332934D01*
X409983Y330733D01*
X412184Y329043D01*
X414748Y327981D01*
X416230Y327786D01*
Y336980D01*
D02*
G37*
G36*
X469730Y336980D02*
X460536D01*
X460731Y335499D01*
X461793Y332934D01*
X463483Y330733D01*
X465685Y329043D01*
X468248Y327981D01*
X469730Y327786D01*
Y336980D01*
D02*
G37*
G36*
X1249500Y341058D02*
X1247738Y340826D01*
X1246096Y340146D01*
X1244686Y339064D01*
X1243604Y337654D01*
X1242924Y336012D01*
X1242692Y334250D01*
X1242924Y332488D01*
X1243604Y330846D01*
X1244686Y329436D01*
X1246096Y328354D01*
X1247738Y327674D01*
X1249500Y327442D01*
X1251262Y327674D01*
X1252904Y328354D01*
X1254314Y329436D01*
X1255396Y330846D01*
X1256076Y332488D01*
X1256308Y334250D01*
X1256076Y336012D01*
X1255396Y337654D01*
X1254314Y339064D01*
X1252904Y340146D01*
X1251262Y340826D01*
X1249500Y341058D01*
D02*
G37*
G36*
X1095000Y343558D02*
X1093238Y343326D01*
X1091596Y342646D01*
X1090186Y341564D01*
X1089104Y340154D01*
X1088424Y338512D01*
X1088192Y336750D01*
X1088424Y334988D01*
X1089104Y333346D01*
X1090186Y331936D01*
X1091596Y330854D01*
X1093238Y330174D01*
X1095000Y329942D01*
X1096762Y330174D01*
X1096907Y330234D01*
X1098758Y330238D01*
X1099355Y329196D01*
X1099604Y328596D01*
X1100686Y327186D01*
X1102096Y326104D01*
X1103738Y325424D01*
X1105500Y325192D01*
X1107262Y325424D01*
X1108904Y326104D01*
X1110314Y327186D01*
X1111396Y328596D01*
X1112076Y330238D01*
X1112308Y332000D01*
X1112076Y333762D01*
X1111396Y335404D01*
X1110314Y336814D01*
X1108904Y337896D01*
X1107262Y338576D01*
X1105500Y338808D01*
X1103738Y338576D01*
X1103593Y338516D01*
X1101742Y338512D01*
X1101145Y339554D01*
X1100896Y340154D01*
X1099814Y341564D01*
X1098404Y342646D01*
X1096762Y343326D01*
X1095000Y343558D01*
D02*
G37*
G36*
X552250Y342931D02*
X549809Y342609D01*
X547535Y341667D01*
X545582Y340168D01*
X544083Y338215D01*
X543141Y335941D01*
X542819Y333500D01*
X543141Y331059D01*
X544083Y328785D01*
X545582Y326832D01*
X547535Y325333D01*
X549809Y324391D01*
X552250Y324069D01*
X554691Y324391D01*
X556965Y325333D01*
X558918Y326832D01*
X560417Y328785D01*
X561359Y331059D01*
X561681Y333500D01*
X561359Y335941D01*
X560417Y338215D01*
X558918Y340168D01*
X556965Y341667D01*
X554691Y342609D01*
X552250Y342931D01*
D02*
G37*
G36*
X731500Y332808D02*
X729738Y332576D01*
X728096Y331896D01*
X726686Y330814D01*
X725604Y329404D01*
X724924Y327762D01*
X724692Y326000D01*
X724924Y324238D01*
X725604Y322596D01*
X726686Y321186D01*
X728096Y320104D01*
X729738Y319424D01*
X731500Y319192D01*
X733262Y319424D01*
X734904Y320104D01*
X736314Y321186D01*
X737396Y322596D01*
X738076Y324238D01*
X738308Y326000D01*
X738076Y327762D01*
X737396Y329404D01*
X736314Y330814D01*
X734904Y331896D01*
X733262Y332576D01*
X731500Y332808D01*
D02*
G37*
G36*
X1439600Y340945D02*
X1436728Y340567D01*
X1434053Y339458D01*
X1431755Y337695D01*
X1429991Y335397D01*
X1428883Y332721D01*
X1428505Y329850D01*
X1428883Y326978D01*
X1429991Y324302D01*
X1431755Y322005D01*
X1434053Y320242D01*
X1436728Y319133D01*
X1439600Y318755D01*
X1442472Y319133D01*
X1445147Y320242D01*
X1447445Y322005D01*
X1449209Y324302D01*
X1450317Y326978D01*
X1450695Y329850D01*
X1450317Y332721D01*
X1449209Y335397D01*
X1447445Y337695D01*
X1445147Y339458D01*
X1442472Y340567D01*
X1439600Y340945D01*
D02*
G37*
G36*
X1157250Y325058D02*
X1155488Y324826D01*
X1153846Y324146D01*
X1152436Y323064D01*
X1151354Y321654D01*
X1150674Y320012D01*
X1150442Y318250D01*
X1150674Y316488D01*
X1151354Y314846D01*
X1152436Y313436D01*
X1153846Y312354D01*
X1155488Y311674D01*
X1157250Y311442D01*
X1159012Y311674D01*
X1160654Y312354D01*
X1162064Y313436D01*
X1163146Y314846D01*
X1163826Y316488D01*
X1164058Y318250D01*
X1163826Y320012D01*
X1163146Y321654D01*
X1162064Y323064D01*
X1160654Y324146D01*
X1159012Y324826D01*
X1157250Y325058D01*
D02*
G37*
G36*
X1312000Y324315D02*
X1310042Y324057D01*
X1308218Y323301D01*
X1306651Y322099D01*
X1305449Y320532D01*
X1304693Y318708D01*
X1304435Y316750D01*
X1304693Y314792D01*
X1305449Y312968D01*
X1306651Y311401D01*
X1308218Y310199D01*
X1310042Y309443D01*
X1312000Y309185D01*
X1313958Y309443D01*
X1315782Y310199D01*
X1317349Y311401D01*
X1318551Y312968D01*
X1319307Y314792D01*
X1319565Y316750D01*
X1319307Y318708D01*
X1318551Y320532D01*
X1317349Y322099D01*
X1315782Y323301D01*
X1313958Y324057D01*
X1312000Y324315D01*
D02*
G37*
G36*
X799500Y320058D02*
X797738Y319826D01*
X796096Y319146D01*
X794686Y318064D01*
X793604Y316654D01*
X792924Y315012D01*
X792692Y313250D01*
X792924Y311488D01*
X793604Y309846D01*
X794686Y308436D01*
X796096Y307354D01*
X797738Y306674D01*
X799500Y306442D01*
X801262Y306674D01*
X802904Y307354D01*
X804314Y308436D01*
X805396Y309846D01*
X806076Y311488D01*
X806308Y313250D01*
X806076Y315012D01*
X805396Y316654D01*
X804314Y318064D01*
X802904Y319146D01*
X801262Y319826D01*
X799500Y320058D01*
D02*
G37*
G36*
X1465000Y327245D02*
X1462128Y326867D01*
X1459453Y325758D01*
X1457155Y323995D01*
X1455392Y321697D01*
X1454283Y319021D01*
X1453905Y316150D01*
X1454283Y313278D01*
X1455392Y310602D01*
X1457155Y308305D01*
X1459453Y306542D01*
X1462128Y305433D01*
X1465000Y305055D01*
X1467872Y305433D01*
X1470547Y306542D01*
X1472845Y308305D01*
X1474608Y310602D01*
X1475717Y313278D01*
X1476095Y316150D01*
X1475717Y319021D01*
X1474608Y321697D01*
X1472845Y323995D01*
X1470547Y325758D01*
X1467872Y326867D01*
X1465000Y327245D01*
D02*
G37*
G36*
X766250Y320058D02*
X764488Y319826D01*
X762846Y319146D01*
X761436Y318064D01*
X760354Y316654D01*
X759674Y315012D01*
X759442Y313250D01*
X759674Y311488D01*
X760354Y309846D01*
X761436Y308436D01*
X762846Y307354D01*
X764488Y306674D01*
X764500Y306653D01*
X763924Y305262D01*
X763692Y303500D01*
X763924Y301738D01*
X764604Y300096D01*
X765686Y298686D01*
X767096Y297604D01*
X768738Y296924D01*
X770500Y296692D01*
X772262Y296924D01*
X773904Y297604D01*
X775314Y298686D01*
X775693Y299180D01*
X777096Y298104D01*
X778738Y297424D01*
X780500Y297192D01*
X782262Y297424D01*
X783904Y298104D01*
X785314Y299186D01*
X786396Y300596D01*
X787076Y302238D01*
X787308Y304000D01*
X787076Y305762D01*
X786396Y307404D01*
X785314Y308814D01*
X783904Y309896D01*
X782262Y310576D01*
X780500Y310808D01*
X778738Y310576D01*
X777096Y309896D01*
X775686Y308814D01*
X774812Y308699D01*
X773904Y309396D01*
X772262Y310076D01*
X772250Y310097D01*
X772826Y311488D01*
X773058Y313250D01*
X772826Y315012D01*
X772146Y316654D01*
X771064Y318064D01*
X769654Y319146D01*
X768012Y319826D01*
X766250Y320058D01*
D02*
G37*
G36*
X1240800Y309558D02*
X1239038Y309326D01*
X1237396Y308646D01*
X1235986Y307564D01*
X1234904Y306154D01*
X1234224Y304512D01*
X1233992Y302750D01*
X1234224Y300988D01*
X1234904Y299346D01*
X1235986Y297936D01*
X1237396Y296854D01*
X1239038Y296174D01*
X1240800Y295942D01*
X1242562Y296174D01*
X1244204Y296854D01*
X1245614Y297936D01*
X1246696Y299346D01*
X1247376Y300988D01*
X1247608Y302750D01*
X1247376Y304512D01*
X1246696Y306154D01*
X1245614Y307564D01*
X1244204Y308646D01*
X1242562Y309326D01*
X1240800Y309558D01*
D02*
G37*
G36*
X812000Y308558D02*
X810238Y308326D01*
X808596Y307646D01*
X807186Y306564D01*
X806104Y305154D01*
X805424Y303512D01*
X805192Y301750D01*
X805424Y299988D01*
X806104Y298346D01*
X807186Y296936D01*
X808596Y295854D01*
X810238Y295174D01*
X812000Y294942D01*
X813762Y295174D01*
X815404Y295854D01*
X816814Y296936D01*
X817896Y298346D01*
X818576Y299988D01*
X818808Y301750D01*
X818576Y303512D01*
X817896Y305154D01*
X816814Y306564D01*
X815404Y307646D01*
X813762Y308326D01*
X812000Y308558D01*
D02*
G37*
G36*
X941534Y327574D02*
X939772Y327342D01*
X938130Y326662D01*
X936720Y325580D01*
X935638Y324170D01*
X934958Y322528D01*
X934725Y320766D01*
X934868Y319686D01*
X934918Y318969D01*
X933376Y317595D01*
X933238Y317576D01*
X931596Y316896D01*
X930186Y315814D01*
X929104Y314404D01*
X928424Y312762D01*
X928192Y311000D01*
X928424Y309238D01*
X929104Y307596D01*
X928096Y305647D01*
X928085Y305638D01*
X926686Y304564D01*
X925604Y303154D01*
X924924Y301512D01*
X924692Y299750D01*
X924924Y297988D01*
X925604Y296346D01*
X926686Y294936D01*
X928096Y293854D01*
X929738Y293174D01*
X931500Y292942D01*
X933262Y293174D01*
X934904Y293854D01*
X936314Y294936D01*
X937396Y296346D01*
X938076Y297988D01*
X938308Y299750D01*
X938076Y301512D01*
X937396Y303154D01*
X938404Y305103D01*
X938415Y305112D01*
X939814Y306186D01*
X940896Y307596D01*
X941576Y309238D01*
X941808Y311000D01*
X941666Y312080D01*
X941616Y312797D01*
X943157Y314171D01*
X943296Y314189D01*
X944938Y314870D01*
X946348Y315951D01*
X947430Y317362D01*
X948110Y319004D01*
X948342Y320766D01*
X948110Y322528D01*
X947430Y324170D01*
X946348Y325580D01*
X944938Y326662D01*
X943296Y327342D01*
X941534Y327574D01*
D02*
G37*
G36*
X1439600Y313545D02*
X1436728Y313167D01*
X1434052Y312058D01*
X1431755Y310295D01*
X1429991Y307997D01*
X1428883Y305322D01*
X1428505Y302450D01*
X1428883Y299578D01*
X1429991Y296903D01*
X1431755Y294605D01*
X1434052Y292841D01*
X1436728Y291733D01*
X1439600Y291355D01*
X1442472Y291733D01*
X1445148Y292841D01*
X1447445Y294605D01*
X1449209Y296903D01*
X1450317Y299578D01*
X1450695Y302450D01*
X1450317Y305322D01*
X1449209Y307997D01*
X1447445Y310295D01*
X1445148Y312058D01*
X1442472Y313167D01*
X1439600Y313545D01*
D02*
G37*
G36*
X1303998Y305314D02*
X1302040Y305056D01*
X1300216Y304301D01*
X1298649Y303099D01*
X1297447Y301532D01*
X1296691Y299707D01*
X1296433Y297749D01*
X1296691Y295792D01*
X1297447Y293967D01*
X1298649Y292400D01*
X1300216Y291198D01*
X1302040Y290443D01*
X1303998Y290185D01*
X1305956Y290443D01*
X1307780Y291198D01*
X1309347Y292400D01*
X1310549Y293967D01*
X1311305Y295792D01*
X1311563Y297749D01*
X1311305Y299707D01*
X1310549Y301532D01*
X1309347Y303099D01*
X1307780Y304301D01*
X1305956Y305056D01*
X1303998Y305314D01*
D02*
G37*
G36*
X1466270Y299214D02*
Y290020D01*
X1475464D01*
X1475269Y291501D01*
X1474207Y294065D01*
X1472517Y296267D01*
X1470315Y297957D01*
X1467751Y299019D01*
X1466270Y299214D01*
D02*
G37*
G36*
X1463730Y299214D02*
X1462249Y299019D01*
X1459684Y297957D01*
X1457483Y296267D01*
X1455793Y294065D01*
X1454731Y291501D01*
X1454536Y290020D01*
X1463730D01*
Y299214D01*
D02*
G37*
G36*
X949250Y301058D02*
X947488Y300826D01*
X945846Y300146D01*
X944436Y299064D01*
X943354Y297654D01*
X942674Y296012D01*
X942442Y294250D01*
X942674Y292488D01*
X943354Y290846D01*
X944436Y289436D01*
X945846Y288354D01*
X947488Y287674D01*
X949250Y287442D01*
X951012Y287674D01*
X952654Y288354D01*
X954064Y289436D01*
X955146Y290846D01*
X955826Y292488D01*
X956058Y294250D01*
X955826Y296012D01*
X955146Y297654D01*
X954064Y299064D01*
X952654Y300146D01*
X951012Y300826D01*
X949250Y301058D01*
D02*
G37*
G36*
X993750Y319565D02*
X991792Y319307D01*
X989968Y318551D01*
X988401Y317349D01*
X987199Y315782D01*
X986443Y313958D01*
X986185Y312000D01*
X986443Y310042D01*
X987199Y308218D01*
X987790Y307447D01*
X987681Y307363D01*
X986479Y305796D01*
X985723Y303972D01*
X985466Y302014D01*
X985723Y300056D01*
X986479Y298232D01*
X987681Y296665D01*
X989248Y295463D01*
X991072Y294707D01*
X993030Y294449D01*
X994988Y294707D01*
X996089Y295163D01*
X997505Y293911D01*
X997666Y293703D01*
X997442Y292000D01*
X997674Y290238D01*
X998354Y288596D01*
X999436Y287186D01*
X1000846Y286104D01*
X1002488Y285424D01*
X1004250Y285192D01*
X1006012Y285424D01*
X1007654Y286104D01*
X1009064Y287186D01*
X1010146Y288596D01*
X1010826Y290238D01*
X1011058Y292000D01*
X1010826Y293762D01*
X1010146Y295404D01*
X1009064Y296814D01*
X1007654Y297896D01*
X1006012Y298576D01*
X1004250Y298808D01*
X1002488Y298576D01*
X1001765Y298277D01*
X1000234Y299808D01*
X1000337Y300056D01*
X1000595Y302014D01*
X1000337Y303972D01*
X999582Y305796D01*
X998990Y306567D01*
X999099Y306651D01*
X1000301Y308218D01*
X1001057Y310042D01*
X1001315Y312000D01*
X1001057Y313958D01*
X1000301Y315782D01*
X999099Y317349D01*
X997532Y318551D01*
X995708Y319307D01*
X993750Y319565D01*
D02*
G37*
G36*
X893500Y292808D02*
X891738Y292576D01*
X890096Y291896D01*
X888686Y290814D01*
X887604Y289404D01*
X886924Y287762D01*
X886692Y286000D01*
X886924Y284238D01*
X887604Y282596D01*
X888686Y281186D01*
X890096Y280104D01*
X891738Y279424D01*
X893500Y279192D01*
X895262Y279424D01*
X896904Y280104D01*
X898314Y281186D01*
X899396Y282596D01*
X900076Y284238D01*
X900308Y286000D01*
X900076Y287762D01*
X899396Y289404D01*
X898314Y290814D01*
X896904Y291896D01*
X895262Y292576D01*
X893500Y292808D01*
D02*
G37*
G36*
X1270000Y282558D02*
X1268238Y282326D01*
X1266596Y281646D01*
X1265186Y280564D01*
X1264104Y279154D01*
X1262150Y279664D01*
X1261760Y279826D01*
X1259998Y280058D01*
X1258236Y279826D01*
X1256594Y279146D01*
X1255184Y278064D01*
X1254102Y276654D01*
X1253422Y275012D01*
X1253190Y273249D01*
X1253422Y271487D01*
X1254102Y269845D01*
X1255184Y268435D01*
X1256594Y267353D01*
X1258236Y266673D01*
X1259998Y266441D01*
X1261760Y266673D01*
X1263402Y267353D01*
X1264812Y268435D01*
X1264941Y268603D01*
X1266596Y269854D01*
X1268238Y269174D01*
X1270000Y268942D01*
X1271762Y269174D01*
X1273404Y269854D01*
X1274814Y270936D01*
X1275896Y272346D01*
X1276576Y273988D01*
X1276808Y275750D01*
X1276576Y277512D01*
X1275896Y279154D01*
X1274814Y280564D01*
X1273404Y281646D01*
X1271762Y282326D01*
X1270000Y282558D01*
D02*
G37*
G36*
X990030Y292071D02*
X988268Y291839D01*
X986626Y291159D01*
X985216Y290077D01*
X984134Y288667D01*
X983454Y287025D01*
X983222Y285263D01*
X983454Y283501D01*
X984134Y281859D01*
X985216Y280449D01*
X986626Y279367D01*
X988268Y278687D01*
X990030Y278455D01*
X991792Y278687D01*
X993434Y279367D01*
X994844Y280449D01*
X995926Y281859D01*
X996607Y283501D01*
X996839Y285263D01*
X996607Y287025D01*
X995926Y288667D01*
X994844Y290077D01*
X993434Y291159D01*
X991792Y291839D01*
X990030Y292071D01*
D02*
G37*
G36*
X1463730Y287480D02*
X1454536D01*
X1454731Y285998D01*
X1455793Y283435D01*
X1457483Y281233D01*
X1459684Y279543D01*
X1462249Y278481D01*
X1463730Y278286D01*
Y287480D01*
D02*
G37*
G36*
X1475464D02*
X1466270D01*
Y278286D01*
X1467751Y278481D01*
X1470315Y279543D01*
X1472517Y281233D01*
X1474207Y283435D01*
X1475269Y285998D01*
X1475464Y287480D01*
D02*
G37*
G36*
X1362000Y291558D02*
X1360238Y291326D01*
X1358596Y290646D01*
X1357186Y289564D01*
X1356104Y288154D01*
X1355424Y286512D01*
X1355192Y284750D01*
X1355424Y282988D01*
X1356104Y281346D01*
X1357186Y279936D01*
X1358596Y278854D01*
X1360238Y278174D01*
X1362000Y277942D01*
X1363762Y278174D01*
X1365404Y278854D01*
X1366814Y279936D01*
X1367896Y281346D01*
X1368576Y282988D01*
X1368808Y284750D01*
X1368576Y286512D01*
X1367896Y288154D01*
X1366814Y289564D01*
X1365404Y290646D01*
X1363762Y291326D01*
X1362000Y291558D01*
D02*
G37*
G36*
X1147250Y289058D02*
X1145488Y288826D01*
X1143846Y288146D01*
X1142436Y287064D01*
X1141354Y285654D01*
X1140674Y284012D01*
X1140442Y282250D01*
X1140674Y280488D01*
X1141354Y278846D01*
X1142436Y277436D01*
X1143846Y276354D01*
X1145488Y275674D01*
X1147250Y275442D01*
X1149012Y275674D01*
X1150654Y276354D01*
X1152064Y277436D01*
X1153146Y278846D01*
X1153826Y280488D01*
X1154058Y282250D01*
X1153826Y284012D01*
X1153146Y285654D01*
X1152064Y287064D01*
X1150654Y288146D01*
X1149012Y288826D01*
X1147250Y289058D01*
D02*
G37*
G36*
X1020000Y286558D02*
X1018238Y286326D01*
X1016596Y285646D01*
X1015186Y284564D01*
X1014104Y283154D01*
X1013424Y281512D01*
X1013192Y279750D01*
X1013424Y277988D01*
X1014104Y276346D01*
X1015186Y274936D01*
X1016596Y273854D01*
X1018238Y273174D01*
X1020000Y272942D01*
X1021762Y273174D01*
X1023404Y273854D01*
X1024814Y274936D01*
X1025896Y276346D01*
X1026576Y277988D01*
X1026808Y279750D01*
X1026576Y281512D01*
X1025896Y283154D01*
X1024814Y284564D01*
X1023404Y285646D01*
X1021762Y286326D01*
X1020000Y286558D01*
D02*
G37*
G36*
X1092999Y306558D02*
X1091236Y306326D01*
X1089594Y305646D01*
X1088184Y304564D01*
X1087102Y303154D01*
X1086422Y301511D01*
X1086190Y299749D01*
X1086422Y297987D01*
X1087102Y296345D01*
X1088184Y294935D01*
X1089594Y293853D01*
X1091236Y293173D01*
X1092467Y290994D01*
X1092435Y290750D01*
X1092693Y288792D01*
X1093449Y286968D01*
X1094651Y285401D01*
Y284922D01*
X1094184Y284564D01*
X1093102Y283154D01*
X1092422Y281512D01*
X1092190Y279750D01*
X1092422Y277987D01*
X1093102Y276345D01*
X1094184Y274935D01*
X1095594Y273853D01*
X1097236Y273173D01*
X1098998Y272941D01*
X1100761Y273173D01*
X1102403Y273853D01*
X1103813Y274935D01*
X1104895Y276345D01*
X1105575Y277987D01*
X1105807Y279750D01*
X1105575Y281512D01*
X1104895Y283154D01*
X1103978Y284349D01*
X1105349Y285401D01*
X1106551Y286968D01*
X1107307Y288792D01*
X1107565Y290750D01*
X1107307Y292708D01*
X1106551Y294532D01*
X1105349Y296099D01*
X1103782Y297301D01*
X1101958Y298057D01*
X1100000Y298315D01*
X1099735Y300297D01*
X1099575Y301511D01*
X1098895Y303154D01*
X1097813Y304564D01*
X1096403Y305646D01*
X1094761Y306326D01*
X1092999Y306558D01*
D02*
G37*
G36*
X947250Y285558D02*
X945488Y285326D01*
X943846Y284646D01*
X942436Y283564D01*
X941354Y282154D01*
X940674Y280512D01*
X940442Y278750D01*
X940674Y276988D01*
X941354Y275346D01*
X942436Y273936D01*
X943846Y272854D01*
X945488Y272174D01*
X947250Y271942D01*
X949012Y272174D01*
X950654Y272854D01*
X952064Y273936D01*
X953146Y275346D01*
X953826Y276988D01*
X954058Y278750D01*
X953826Y280512D01*
X953146Y282154D01*
X952064Y283564D01*
X950654Y284646D01*
X949012Y285326D01*
X947250Y285558D01*
D02*
G37*
G36*
X769019Y283827D02*
X767062Y283570D01*
X765237Y282814D01*
X763670Y281612D01*
X762468Y280045D01*
X761712Y278221D01*
X761455Y276263D01*
X761712Y274305D01*
X762468Y272480D01*
X763670Y270914D01*
X765237Y269711D01*
X767062Y268956D01*
X769019Y268698D01*
X770977Y268956D01*
X772802Y269711D01*
X774369Y270914D01*
X775571Y272480D01*
X776326Y274305D01*
X776584Y276263D01*
X776326Y278221D01*
X775571Y280045D01*
X774369Y281612D01*
X772802Y282814D01*
X770977Y283570D01*
X769019Y283827D01*
D02*
G37*
G36*
X1229320Y282236D02*
X1227558Y282004D01*
X1225916Y281324D01*
X1224505Y280242D01*
X1223423Y278832D01*
X1222743Y277190D01*
X1222511Y275428D01*
X1222743Y273666D01*
X1223423Y272024D01*
X1224505Y270614D01*
X1225916Y269532D01*
X1227558Y268852D01*
X1229320Y268620D01*
X1231082Y268852D01*
X1232724Y269532D01*
X1234134Y270614D01*
X1235216Y272024D01*
X1235896Y273666D01*
X1236128Y275428D01*
X1235896Y277190D01*
X1235216Y278832D01*
X1234134Y280242D01*
X1232724Y281324D01*
X1231082Y282004D01*
X1229320Y282236D01*
D02*
G37*
G36*
X1439600Y286145D02*
X1436728Y285767D01*
X1434053Y284658D01*
X1431755Y282895D01*
X1429991Y280597D01*
X1428883Y277922D01*
X1428505Y275050D01*
X1428883Y272178D01*
X1429991Y269503D01*
X1431755Y267205D01*
X1434053Y265441D01*
X1436728Y264333D01*
X1439600Y263955D01*
X1442472Y264333D01*
X1445147Y265441D01*
X1447445Y267205D01*
X1449209Y269503D01*
X1450317Y272178D01*
X1450695Y275050D01*
X1450317Y277922D01*
X1449209Y280597D01*
X1447445Y282895D01*
X1445147Y284658D01*
X1442472Y285767D01*
X1439600Y286145D01*
D02*
G37*
G36*
X731000Y296808D02*
X729238Y296576D01*
X727596Y295896D01*
X726186Y294814D01*
X725104Y293404D01*
X724424Y291762D01*
X724192Y290000D01*
X724424Y288238D01*
X725104Y286596D01*
X726186Y285186D01*
X727596Y284104D01*
X727671Y284073D01*
X729023Y282734D01*
X728674Y281616D01*
X728424Y281012D01*
X728192Y279250D01*
X728424Y277488D01*
X728827Y276515D01*
X727364Y275909D01*
X725953Y274827D01*
X724872Y273417D01*
X724191Y271775D01*
X723959Y270012D01*
X724191Y268250D01*
X724872Y266608D01*
X725953Y265198D01*
X727364Y264116D01*
X729006Y263436D01*
X730768Y263204D01*
X732530Y263436D01*
X734172Y264116D01*
X735582Y265198D01*
X736664Y266608D01*
X737344Y268250D01*
X737576Y270012D01*
X737344Y271775D01*
X736941Y272748D01*
X738404Y273354D01*
X739814Y274436D01*
X740896Y275846D01*
X741576Y277488D01*
X741808Y279250D01*
X741576Y281012D01*
X740896Y282654D01*
X739814Y284064D01*
X738404Y285146D01*
X738329Y285177D01*
X736977Y286516D01*
X737326Y287634D01*
X737576Y288238D01*
X737808Y290000D01*
X737576Y291762D01*
X736896Y293404D01*
X735814Y294814D01*
X734404Y295896D01*
X732762Y296576D01*
X731000Y296808D01*
D02*
G37*
G36*
X1003031Y271570D02*
X1001269Y271338D01*
X999627Y270658D01*
X998217Y269576D01*
X997135Y268166D01*
X996455Y266524D01*
X996223Y264762D01*
X996455Y263000D01*
X997135Y261358D01*
X998217Y259948D01*
X999627Y258866D01*
X1001269Y258186D01*
X1003031Y257954D01*
X1004793Y258186D01*
X1006435Y258866D01*
X1007845Y259948D01*
X1008927Y261358D01*
X1009607Y263000D01*
X1009839Y264762D01*
X1009607Y266524D01*
X1008927Y268166D01*
X1007845Y269576D01*
X1006435Y270658D01*
X1004793Y271338D01*
X1003031Y271570D01*
D02*
G37*
G36*
X1185000Y270058D02*
X1183238Y269826D01*
X1181596Y269146D01*
X1180186Y268064D01*
X1179104Y266654D01*
X1178424Y265012D01*
X1178192Y263250D01*
X1178424Y261488D01*
X1179104Y259846D01*
X1180186Y258436D01*
X1181596Y257354D01*
X1183238Y256674D01*
X1185000Y256442D01*
X1186762Y256674D01*
X1188404Y257354D01*
X1189814Y258436D01*
X1190896Y259846D01*
X1191576Y261488D01*
X1191808Y263250D01*
X1191576Y265012D01*
X1190896Y266654D01*
X1189814Y268064D01*
X1188404Y269146D01*
X1186762Y269826D01*
X1185000Y270058D01*
D02*
G37*
G36*
X1287000Y269558D02*
X1285238Y269326D01*
X1283596Y268646D01*
X1282186Y267564D01*
X1281104Y266154D01*
X1280424Y264512D01*
X1280192Y262750D01*
X1280424Y260988D01*
X1281104Y259346D01*
X1282186Y257936D01*
X1283596Y256854D01*
X1285238Y256174D01*
X1287000Y255942D01*
X1288762Y256174D01*
X1290404Y256854D01*
X1291814Y257936D01*
X1292896Y259346D01*
X1293576Y260988D01*
X1293808Y262750D01*
X1293576Y264512D01*
X1292896Y266154D01*
X1291814Y267564D01*
X1290404Y268646D01*
X1288762Y269326D01*
X1287000Y269558D01*
D02*
G37*
G36*
X572500Y264808D02*
X570738Y264576D01*
X569096Y263896D01*
X567686Y262814D01*
X566604Y261404D01*
X565924Y259762D01*
X565692Y258000D01*
X565924Y256238D01*
X566604Y254596D01*
X567686Y253186D01*
X569096Y252104D01*
X570738Y251424D01*
X572500Y251192D01*
X574262Y251424D01*
X575904Y252104D01*
X577314Y253186D01*
X578396Y254596D01*
X579076Y256238D01*
X579308Y258000D01*
X579076Y259762D01*
X578396Y261404D01*
X577314Y262814D01*
X575904Y263896D01*
X574262Y264576D01*
X572500Y264808D01*
D02*
G37*
G36*
X1096000Y264558D02*
X1094238Y264326D01*
X1092596Y263646D01*
X1091186Y262564D01*
X1090104Y261154D01*
X1089424Y259512D01*
X1089192Y257750D01*
X1089424Y255988D01*
X1090104Y254346D01*
X1091186Y252936D01*
X1092596Y251854D01*
X1094238Y251174D01*
X1096000Y250942D01*
X1097762Y251174D01*
X1099404Y251854D01*
X1100814Y252936D01*
X1101896Y254346D01*
X1102576Y255988D01*
X1102808Y257750D01*
X1102576Y259512D01*
X1101896Y261154D01*
X1100814Y262564D01*
X1099404Y263646D01*
X1097762Y264326D01*
X1096000Y264558D01*
D02*
G37*
G36*
X1304000Y262315D02*
X1302042Y262057D01*
X1300218Y261301D01*
X1298651Y260099D01*
X1297449Y258532D01*
X1296693Y256708D01*
X1296435Y254750D01*
X1296693Y252792D01*
X1297449Y250968D01*
X1298651Y249401D01*
X1300218Y248199D01*
X1302042Y247443D01*
X1304000Y247185D01*
X1305958Y247443D01*
X1307782Y248199D01*
X1309349Y249401D01*
X1310551Y250968D01*
X1311307Y252792D01*
X1311565Y254750D01*
X1311307Y256708D01*
X1310551Y258532D01*
X1309349Y260099D01*
X1307782Y261301D01*
X1305958Y262057D01*
X1304000Y262315D01*
D02*
G37*
G36*
X691270Y256214D02*
Y247020D01*
X700464D01*
X700269Y248501D01*
X699207Y251066D01*
X697517Y253267D01*
X695315Y254957D01*
X692751Y256019D01*
X691270Y256214D01*
D02*
G37*
G36*
X688730D02*
X687249Y256019D01*
X684685Y254957D01*
X682483Y253267D01*
X680793Y251066D01*
X679731Y248501D01*
X679536Y247020D01*
X688730D01*
Y256214D01*
D02*
G37*
G36*
X451270Y307840D02*
Y246570D01*
X507540D01*
Y307840D01*
X451270D01*
D02*
G37*
G36*
X1210000Y260315D02*
X1208042Y260057D01*
X1206218Y259301D01*
X1204651Y258099D01*
X1203449Y256532D01*
X1202693Y254708D01*
X1202435Y252750D01*
X1202693Y250792D01*
X1203449Y248968D01*
X1204651Y247401D01*
X1206218Y246199D01*
X1208042Y245443D01*
X1210000Y245185D01*
X1211958Y245443D01*
X1213782Y246199D01*
X1215349Y247401D01*
X1216551Y248968D01*
X1217307Y250792D01*
X1217565Y252750D01*
X1217307Y254708D01*
X1216551Y256532D01*
X1215349Y258099D01*
X1213782Y259301D01*
X1211958Y260057D01*
X1210000Y260315D01*
D02*
G37*
G36*
X996000Y257558D02*
X994238Y257326D01*
X992596Y256646D01*
X991186Y255564D01*
X990104Y254154D01*
X989424Y252512D01*
X989192Y250750D01*
X989424Y248988D01*
X990104Y247346D01*
X991186Y245936D01*
X992596Y244854D01*
X994238Y244174D01*
X996000Y243942D01*
X997762Y244174D01*
X999404Y244854D01*
X1000814Y245936D01*
X1001896Y247346D01*
X1002576Y248988D01*
X1002808Y250750D01*
X1002576Y252512D01*
X1001896Y254154D01*
X1000814Y255564D01*
X999404Y256646D01*
X997762Y257326D01*
X996000Y257558D01*
D02*
G37*
G36*
X1287000Y252308D02*
X1285238Y252076D01*
X1283596Y251396D01*
X1282186Y250314D01*
X1281104Y248904D01*
X1280424Y247262D01*
X1280192Y245500D01*
X1280424Y243738D01*
X1281104Y242096D01*
X1282186Y240686D01*
X1283596Y239604D01*
X1285238Y238924D01*
X1287000Y238692D01*
X1288762Y238924D01*
X1290404Y239604D01*
X1291814Y240686D01*
X1292896Y242096D01*
X1293576Y243738D01*
X1293808Y245500D01*
X1293576Y247262D01*
X1292896Y248904D01*
X1291814Y250314D01*
X1290404Y251396D01*
X1288762Y252076D01*
X1287000Y252308D01*
D02*
G37*
G36*
X1325000Y259845D02*
X1322128Y259467D01*
X1319453Y258358D01*
X1317155Y256595D01*
X1315392Y254298D01*
X1314283Y251622D01*
X1313905Y248750D01*
X1314283Y245878D01*
X1315392Y243202D01*
X1317155Y240905D01*
X1319453Y239142D01*
X1322128Y238033D01*
X1325000Y237655D01*
X1327872Y238033D01*
X1330547Y239142D01*
X1332845Y240905D01*
X1334608Y243202D01*
X1335717Y245878D01*
X1336095Y248750D01*
X1335717Y251622D01*
X1334608Y254298D01*
X1332845Y256595D01*
X1330547Y258358D01*
X1327872Y259467D01*
X1325000Y259845D01*
D02*
G37*
G36*
X700464Y244480D02*
X691270D01*
Y235286D01*
X692751Y235481D01*
X695315Y236543D01*
X697517Y238233D01*
X699207Y240434D01*
X700269Y242999D01*
X700464Y244480D01*
D02*
G37*
G36*
X688730D02*
X679536D01*
X679731Y242999D01*
X680793Y240434D01*
X682483Y238233D01*
X684685Y236543D01*
X687249Y235481D01*
X688730Y235286D01*
Y244480D01*
D02*
G37*
G36*
X1098000Y245558D02*
X1096238Y245326D01*
X1094596Y244646D01*
X1093186Y243564D01*
X1092104Y242154D01*
X1091424Y240512D01*
X1091192Y238750D01*
X1091424Y236988D01*
X1092104Y235346D01*
X1093186Y233936D01*
X1094596Y232854D01*
X1096238Y232174D01*
X1098000Y231942D01*
X1099762Y232174D01*
X1101404Y232854D01*
X1102814Y233936D01*
X1103896Y235346D01*
X1104576Y236988D01*
X1104808Y238750D01*
X1104576Y240512D01*
X1103896Y242154D01*
X1102814Y243564D01*
X1101404Y244646D01*
X1099762Y245326D01*
X1098000Y245558D01*
D02*
G37*
G36*
X1266044Y243819D02*
X1264282Y243587D01*
X1262640Y242907D01*
X1261230Y241825D01*
X1260148Y240415D01*
X1259467Y238773D01*
X1259236Y237011D01*
X1259467Y235249D01*
X1260148Y233607D01*
X1261230Y232197D01*
X1262640Y231115D01*
X1264282Y230434D01*
X1266044Y230203D01*
X1267806Y230434D01*
X1269448Y231115D01*
X1270858Y232197D01*
X1271940Y233607D01*
X1272620Y235249D01*
X1272852Y237011D01*
X1272620Y238773D01*
X1271940Y240415D01*
X1270858Y241825D01*
X1269448Y242907D01*
X1267806Y243587D01*
X1266044Y243819D01*
D02*
G37*
G36*
X985500Y243065D02*
X983542Y242807D01*
X981718Y242051D01*
X980151Y240849D01*
X978949Y239282D01*
X978193Y237458D01*
X977935Y235500D01*
X978193Y233542D01*
X978949Y231718D01*
X980151Y230151D01*
X981718Y228949D01*
X983542Y228193D01*
X985500Y227935D01*
X987458Y228193D01*
X989282Y228949D01*
X990849Y230151D01*
X992051Y231718D01*
X992807Y233542D01*
X993065Y235500D01*
X992807Y237458D01*
X992051Y239282D01*
X990849Y240849D01*
X989282Y242051D01*
X987458Y242807D01*
X985500Y243065D01*
D02*
G37*
G36*
X1157000Y238558D02*
X1155238Y238326D01*
X1153596Y237646D01*
X1152186Y236564D01*
X1151104Y235154D01*
X1150424Y233512D01*
X1150192Y231750D01*
X1150424Y229988D01*
X1151104Y228346D01*
X1152186Y226936D01*
X1153596Y225854D01*
X1155238Y225174D01*
X1157000Y224942D01*
X1158762Y225174D01*
X1160404Y225854D01*
X1161814Y226936D01*
X1162896Y228346D01*
X1163576Y229988D01*
X1163808Y231750D01*
X1163576Y233512D01*
X1162896Y235154D01*
X1161814Y236564D01*
X1160404Y237646D01*
X1158762Y238326D01*
X1157000Y238558D01*
D02*
G37*
G36*
X1245280Y229090D02*
X1232010D01*
Y219070D01*
X1245280D01*
Y229090D01*
D02*
G37*
G36*
X735250Y233565D02*
X733292Y233307D01*
X731468Y232551D01*
X729901Y231349D01*
X728699Y229782D01*
X727943Y227958D01*
X727685Y226000D01*
X727943Y224042D01*
X728699Y222218D01*
X729901Y220651D01*
X731468Y219449D01*
X733292Y218693D01*
X735250Y218435D01*
X737208Y218693D01*
X739032Y219449D01*
X740599Y220651D01*
X741801Y222218D01*
X742557Y224042D01*
X742815Y226000D01*
X742557Y227958D01*
X741801Y229782D01*
X740599Y231349D01*
X739032Y232551D01*
X737208Y233307D01*
X735250Y233565D01*
D02*
G37*
G36*
X1217500Y227558D02*
X1215738Y227326D01*
X1214096Y226646D01*
X1212686Y225564D01*
X1211604Y224154D01*
X1210924Y222512D01*
X1210692Y220750D01*
X1210924Y218988D01*
X1211604Y217346D01*
X1212686Y215936D01*
X1214096Y214854D01*
X1215738Y214174D01*
X1217500Y213942D01*
X1219262Y214174D01*
X1220904Y214854D01*
X1222314Y215936D01*
X1223396Y217346D01*
X1224076Y218988D01*
X1224308Y220750D01*
X1224076Y222512D01*
X1223396Y224154D01*
X1222314Y225564D01*
X1220904Y226646D01*
X1219262Y227326D01*
X1217500Y227558D01*
D02*
G37*
G36*
X1097000Y226558D02*
X1095238Y226326D01*
X1093596Y225646D01*
X1092186Y224564D01*
X1091104Y223154D01*
X1090424Y221512D01*
X1090192Y219750D01*
X1090424Y217988D01*
X1091104Y216346D01*
X1092186Y214936D01*
X1093596Y213854D01*
X1095238Y213174D01*
X1097000Y212942D01*
X1098762Y213174D01*
X1100404Y213854D01*
X1101814Y214936D01*
X1102896Y216346D01*
X1103576Y217988D01*
X1103808Y219750D01*
X1103576Y221512D01*
X1102896Y223154D01*
X1101814Y224564D01*
X1100404Y225646D01*
X1098762Y226326D01*
X1097000Y226558D01*
D02*
G37*
G36*
X888000D02*
X886238Y226326D01*
X884596Y225646D01*
X883186Y224564D01*
X882104Y223154D01*
X881424Y221512D01*
X881192Y219750D01*
X881424Y217988D01*
X882104Y216346D01*
X883186Y214936D01*
X884596Y213854D01*
X886238Y213174D01*
X888000Y212942D01*
X889762Y213174D01*
X891404Y213854D01*
X892814Y214936D01*
X893896Y216346D01*
X894576Y217988D01*
X894808Y219750D01*
X894576Y221512D01*
X893896Y223154D01*
X892814Y224564D01*
X891404Y225646D01*
X889762Y226326D01*
X888000Y226558D01*
D02*
G37*
G36*
X568000Y216181D02*
X565559Y215859D01*
X563285Y214917D01*
X561331Y213419D01*
X560518Y212358D01*
X559587Y211529D01*
X557879Y211974D01*
X557654Y212146D01*
X556012Y212826D01*
X554250Y213058D01*
X552488Y212826D01*
X550846Y212146D01*
X549436Y211064D01*
X548354Y209654D01*
X547674Y208012D01*
X547442Y206250D01*
X547674Y204488D01*
X548354Y202846D01*
X549436Y201436D01*
X550846Y200354D01*
X552488Y199674D01*
X554250Y199442D01*
X556012Y199674D01*
X557654Y200354D01*
X559064Y201436D01*
X560939Y200593D01*
X561331Y200082D01*
X563285Y198583D01*
X565559Y197641D01*
X568000Y197319D01*
X570441Y197641D01*
X572715Y198583D01*
X574669Y200082D01*
X576167Y202035D01*
X577109Y204309D01*
X577431Y206750D01*
X577109Y209191D01*
X576167Y211465D01*
X574669Y213419D01*
X572715Y214917D01*
X570441Y215859D01*
X568000Y216181D01*
D02*
G37*
G36*
X1261090Y229090D02*
X1247820D01*
Y217800D01*
X1246550D01*
Y216530D01*
X1232010D01*
Y206510D01*
X1240443D01*
X1241649Y204510D01*
X1241485Y203259D01*
X1241717Y201497D01*
X1242397Y199855D01*
X1243479Y198445D01*
X1244889Y197363D01*
X1246531Y196683D01*
X1248293Y196451D01*
X1250055Y196683D01*
X1251697Y197363D01*
X1253107Y198445D01*
X1254189Y199855D01*
X1254869Y201497D01*
X1255101Y203259D01*
X1254936Y204510D01*
X1256143Y206510D01*
X1261090D01*
Y206510D01*
X1263090Y207442D01*
X1263738Y207174D01*
X1265500Y206942D01*
X1267262Y207174D01*
X1268904Y207854D01*
X1270314Y208936D01*
X1271396Y210346D01*
X1272076Y211988D01*
X1272308Y213750D01*
X1272225Y214380D01*
X1273413Y215113D01*
X1274122Y215293D01*
X1275346Y214354D01*
X1276988Y213674D01*
X1278750Y213442D01*
X1280512Y213674D01*
X1282154Y214354D01*
X1284678Y213769D01*
X1284934Y213435D01*
X1286344Y212354D01*
X1287986Y211673D01*
X1289748Y211441D01*
X1291510Y211673D01*
X1293152Y212354D01*
X1294563Y213435D01*
X1295644Y214846D01*
X1296325Y216488D01*
X1296557Y218250D01*
X1296325Y220012D01*
X1295644Y221654D01*
X1294563Y223064D01*
X1293152Y224146D01*
X1291510Y224826D01*
X1289748Y225058D01*
X1287986Y224826D01*
X1286344Y224146D01*
X1284646Y223654D01*
X1283564Y225064D01*
X1282154Y226146D01*
X1280512Y226826D01*
X1278750Y227058D01*
X1276988Y226826D01*
X1275346Y226146D01*
X1273936Y225064D01*
X1272854Y223654D01*
X1272174Y222012D01*
X1271942Y220250D01*
X1272025Y219620D01*
X1270837Y218887D01*
X1270128Y218707D01*
X1268904Y219646D01*
X1267262Y220326D01*
X1265500Y220558D01*
X1263738Y220326D01*
X1263090Y220058D01*
X1261090Y221254D01*
Y229090D01*
D02*
G37*
G36*
X792000Y222558D02*
X790238Y222326D01*
X788596Y221646D01*
X787186Y220564D01*
X786104Y219154D01*
X785424Y217512D01*
X785192Y215750D01*
X785424Y213988D01*
X786104Y212346D01*
X787186Y210936D01*
X788596Y209854D01*
X790238Y209174D01*
X792000Y208942D01*
X793762Y209174D01*
X795404Y209854D01*
X796814Y210936D01*
X797896Y212346D01*
X798576Y213988D01*
X798808Y215750D01*
X798576Y217512D01*
X797896Y219154D01*
X796814Y220564D01*
X795404Y221646D01*
X793762Y222326D01*
X792000Y222558D01*
D02*
G37*
G36*
X1045000Y220058D02*
X1043238Y219826D01*
X1041596Y219146D01*
X1040186Y218064D01*
X1039104Y216654D01*
X1038424Y215012D01*
X1038192Y213250D01*
X1038424Y211488D01*
X1039104Y209846D01*
X1040186Y208436D01*
X1041596Y207354D01*
X1043238Y206674D01*
X1045000Y206442D01*
X1046762Y206674D01*
X1048404Y207354D01*
X1049814Y208436D01*
X1050896Y209846D01*
X1051576Y211488D01*
X1051808Y213250D01*
X1051576Y215012D01*
X1050896Y216654D01*
X1049814Y218064D01*
X1048404Y219146D01*
X1046762Y219826D01*
X1045000Y220058D01*
D02*
G37*
G36*
X772499Y215058D02*
X770737Y214826D01*
X769095Y214146D01*
X767685Y213064D01*
X766603Y211654D01*
X765923Y210012D01*
X765691Y208250D01*
X765923Y206488D01*
X766603Y204846D01*
X767685Y203435D01*
X769095Y202353D01*
X770737Y201673D01*
X772499Y201441D01*
X774261Y201673D01*
X775903Y202353D01*
X777313Y203435D01*
X778395Y204846D01*
X779075Y206488D01*
X779307Y208250D01*
X779075Y210012D01*
X778395Y211654D01*
X777313Y213064D01*
X775903Y214146D01*
X774261Y214826D01*
X772499Y215058D01*
D02*
G37*
G36*
X1160750Y212058D02*
X1158988Y211826D01*
X1157346Y211146D01*
X1155936Y210064D01*
X1154854Y208654D01*
X1154174Y207012D01*
X1153942Y205250D01*
X1154174Y203488D01*
X1154854Y201846D01*
X1155936Y200436D01*
X1157346Y199354D01*
X1158988Y198674D01*
X1160750Y198442D01*
X1162512Y198674D01*
X1164154Y199354D01*
X1165564Y200436D01*
X1166646Y201846D01*
X1167326Y203488D01*
X1167558Y205250D01*
X1167326Y207012D01*
X1166646Y208654D01*
X1165564Y210064D01*
X1164154Y211146D01*
X1162512Y211826D01*
X1160750Y212058D01*
D02*
G37*
G36*
X1147090Y208340D02*
X1133820D01*
Y198320D01*
X1147090D01*
Y208340D01*
D02*
G37*
G36*
X1131280D02*
X1118010D01*
Y198320D01*
X1131280D01*
Y208340D01*
D02*
G37*
G36*
X710000Y208558D02*
X708238Y208326D01*
X706596Y207646D01*
X705186Y206564D01*
X704104Y205154D01*
X703424Y203512D01*
X703192Y201750D01*
X703424Y199988D01*
X704104Y198346D01*
X705186Y196936D01*
X706596Y195854D01*
X708238Y195174D01*
X710000Y194942D01*
X711762Y195174D01*
X713404Y195854D01*
X714814Y196936D01*
X715896Y198346D01*
X716576Y199988D01*
X716808Y201750D01*
X716576Y203512D01*
X715896Y205154D01*
X714814Y206564D01*
X713404Y207646D01*
X711762Y208326D01*
X710000Y208558D01*
D02*
G37*
G36*
X787500Y207558D02*
X785738Y207326D01*
X784096Y206646D01*
X782686Y205564D01*
X781604Y204154D01*
X780924Y202512D01*
X780692Y200750D01*
X780924Y198988D01*
X781604Y197346D01*
X782686Y195936D01*
X784096Y194854D01*
X785738Y194174D01*
X787500Y193942D01*
X789262Y194174D01*
X790904Y194854D01*
X792314Y195936D01*
X793396Y197346D01*
X794076Y198988D01*
X794308Y200750D01*
X794076Y202512D01*
X793396Y204154D01*
X792314Y205564D01*
X790904Y206646D01*
X789262Y207326D01*
X787500Y207558D01*
D02*
G37*
G36*
X1200750Y192058D02*
X1198988Y191826D01*
X1197346Y191146D01*
X1196659Y190619D01*
X1194564Y190064D01*
X1193154Y191146D01*
X1191512Y191826D01*
X1189750Y192058D01*
X1187988Y191826D01*
X1186346Y191146D01*
X1184936Y190064D01*
X1183854Y188654D01*
X1183174Y187012D01*
X1182942Y185250D01*
X1183174Y183488D01*
X1183854Y181846D01*
X1184936Y180436D01*
X1186346Y179354D01*
X1187988Y178674D01*
X1189750Y178442D01*
X1191512Y178674D01*
X1193154Y179354D01*
X1194564Y180436D01*
X1196659Y179881D01*
X1197346Y179354D01*
X1198988Y178674D01*
X1200750Y178442D01*
X1202512Y178674D01*
X1204154Y179354D01*
X1205564Y180436D01*
X1206646Y181846D01*
X1207326Y183488D01*
X1207558Y185250D01*
X1207326Y187012D01*
X1206646Y188654D01*
X1205564Y190064D01*
X1204154Y191146D01*
X1202512Y191826D01*
X1200750Y192058D01*
D02*
G37*
G36*
X1045000Y202558D02*
X1043238Y202326D01*
X1041596Y201646D01*
X1040186Y200564D01*
X1039104Y199154D01*
X1038424Y197512D01*
X1038192Y195750D01*
X1038424Y193988D01*
X1039104Y192346D01*
X1040186Y190936D01*
X1041596Y189854D01*
X1043238Y189174D01*
X1045000Y188942D01*
X1046762Y189174D01*
X1048404Y189854D01*
X1049814Y190936D01*
X1050896Y192346D01*
X1051576Y193988D01*
X1051808Y195750D01*
X1051576Y197512D01*
X1050896Y199154D01*
X1049814Y200564D01*
X1048404Y201646D01*
X1046762Y202326D01*
X1045000Y202558D01*
D02*
G37*
G36*
X1015000D02*
X1013238Y202326D01*
X1011596Y201646D01*
X1010186Y200564D01*
X1009104Y199154D01*
X1008424Y197512D01*
X1008192Y195750D01*
X1008424Y193988D01*
X1009104Y192346D01*
X1010186Y190936D01*
X1011596Y189854D01*
X1013238Y189174D01*
X1015000Y188942D01*
X1016762Y189174D01*
X1018404Y189854D01*
X1019814Y190936D01*
X1020896Y192346D01*
X1021576Y193988D01*
X1021808Y195750D01*
X1021576Y197512D01*
X1020896Y199154D01*
X1019814Y200564D01*
X1018404Y201646D01*
X1016762Y202326D01*
X1015000Y202558D01*
D02*
G37*
G36*
X1147090Y195780D02*
X1133820D01*
Y185760D01*
X1147090D01*
Y195780D01*
D02*
G37*
G36*
X1131280D02*
X1118010D01*
Y185760D01*
X1131280D01*
Y195780D01*
D02*
G37*
G36*
X872500Y198315D02*
X870542Y198057D01*
X868718Y197301D01*
X867151Y196099D01*
X865949Y194532D01*
X865193Y192708D01*
X864935Y190750D01*
X865193Y188792D01*
X865949Y186968D01*
X867151Y185401D01*
X868718Y184199D01*
X870542Y183443D01*
X872500Y183185D01*
X874458Y183443D01*
X876282Y184199D01*
X877849Y185401D01*
X879051Y186968D01*
X879807Y188792D01*
X880065Y190750D01*
X879807Y192708D01*
X879051Y194532D01*
X877849Y196099D01*
X876282Y197301D01*
X874458Y198057D01*
X872500Y198315D01*
D02*
G37*
G36*
X507540Y244030D02*
X451270D01*
Y182760D01*
X507540D01*
Y244030D01*
D02*
G37*
G36*
X953028Y190823D02*
X951071Y190565D01*
X949246Y189809D01*
X947679Y188607D01*
X946477Y187041D01*
X945722Y185216D01*
X945464Y183258D01*
X945722Y181300D01*
X946477Y179476D01*
X947679Y177909D01*
X949246Y176707D01*
X951071Y175951D01*
X953028Y175693D01*
X954986Y175951D01*
X956811Y176707D01*
X958378Y177909D01*
X959580Y179476D01*
X960335Y181300D01*
X960593Y183258D01*
X960335Y185216D01*
X959580Y187041D01*
X958378Y188607D01*
X956811Y189809D01*
X954986Y190565D01*
X953028Y190823D01*
D02*
G37*
G36*
X1295740Y184440D02*
X1285070D01*
Y175320D01*
X1295740D01*
Y184440D01*
D02*
G37*
G36*
X1282530D02*
X1271860D01*
Y175320D01*
X1282530D01*
Y184440D01*
D02*
G37*
G36*
X995000Y197558D02*
X993238Y197326D01*
X991596Y196646D01*
X990186Y195564D01*
X989104Y194154D01*
X988424Y192512D01*
X988192Y190750D01*
X988424Y188988D01*
X989104Y187346D01*
X989148Y187289D01*
X990186Y185564D01*
X989104Y184154D01*
X988424Y182512D01*
X988192Y180750D01*
X988424Y178988D01*
X989104Y177346D01*
X990186Y175936D01*
X991596Y174854D01*
X993238Y174174D01*
X995000Y173942D01*
X996762Y174174D01*
X998404Y174854D01*
X999814Y175936D01*
X1000896Y177346D01*
X1001576Y178988D01*
X1001808Y180750D01*
X1001576Y182512D01*
X1000896Y184154D01*
X999814Y185564D01*
X1000852Y187289D01*
X1000896Y187346D01*
X1001576Y188988D01*
X1001808Y190750D01*
X1001576Y192512D01*
X1000896Y194154D01*
X999814Y195564D01*
X998404Y196646D01*
X996762Y197326D01*
X995000Y197558D01*
D02*
G37*
G36*
X1452300Y235044D02*
X1447514Y234667D01*
X1442846Y233547D01*
X1438410Y231710D01*
X1434317Y229201D01*
X1430667Y226083D01*
X1427549Y222433D01*
X1425040Y218339D01*
X1423203Y213904D01*
X1422082Y209236D01*
X1421706Y204450D01*
X1422082Y199664D01*
X1423203Y194996D01*
X1425040Y190560D01*
X1427549Y186467D01*
X1430667Y182816D01*
X1434317Y179699D01*
X1438410Y177190D01*
X1442846Y175353D01*
X1447514Y174232D01*
X1452300Y173856D01*
X1457086Y174232D01*
X1461754Y175353D01*
X1466190Y177190D01*
X1470283Y179699D01*
X1473933Y182816D01*
X1477051Y186467D01*
X1479560Y190560D01*
X1481397Y194996D01*
X1482518Y199664D01*
X1482894Y204450D01*
X1482518Y209236D01*
X1481397Y213904D01*
X1479560Y218339D01*
X1477051Y222433D01*
X1473933Y226083D01*
X1470283Y229201D01*
X1466190Y231710D01*
X1461754Y233547D01*
X1457086Y234667D01*
X1452300Y235044D01*
D02*
G37*
G36*
X642000Y189595D02*
X639128Y189217D01*
X636452Y188109D01*
X634155Y186345D01*
X632392Y184048D01*
X631283Y181372D01*
X630905Y178500D01*
X631283Y175628D01*
X632392Y172952D01*
X634155Y170655D01*
X636452Y168892D01*
X639128Y167783D01*
X642000Y167405D01*
X644872Y167783D01*
X647547Y168892D01*
X649845Y170655D01*
X651609Y172952D01*
X652717Y175628D01*
X653095Y178500D01*
X652717Y181372D01*
X651609Y184048D01*
X649845Y186345D01*
X647547Y188109D01*
X644872Y189217D01*
X642000Y189595D01*
D02*
G37*
G36*
X1183740Y172940D02*
X1173070D01*
Y163820D01*
X1183740D01*
Y172940D01*
D02*
G37*
G36*
X1170530D02*
X1159860D01*
Y163820D01*
X1170530D01*
Y172940D01*
D02*
G37*
G36*
X1295740Y172780D02*
X1285070D01*
Y163660D01*
X1295740D01*
Y172780D01*
D02*
G37*
G36*
X1282530D02*
X1271860D01*
Y163660D01*
X1282530D01*
Y172780D01*
D02*
G37*
G36*
X1052499Y175058D02*
X1050736Y174826D01*
X1049094Y174146D01*
X1047684Y173064D01*
X1046602Y171654D01*
X1045922Y170012D01*
X1045690Y168250D01*
X1045922Y166488D01*
X1046602Y164846D01*
X1047684Y163435D01*
X1049094Y162354D01*
X1050736Y161673D01*
X1052499Y161441D01*
X1054261Y161673D01*
X1055903Y162354D01*
X1057313Y163435D01*
X1058395Y164846D01*
X1059075Y166488D01*
X1059307Y168250D01*
X1059075Y170012D01*
X1058395Y171654D01*
X1057313Y173064D01*
X1055903Y174146D01*
X1054261Y174826D01*
X1052499Y175058D01*
D02*
G37*
G36*
X810000Y172558D02*
X808238Y172326D01*
X806596Y171646D01*
X805186Y170564D01*
X804104Y169154D01*
X803424Y167512D01*
X803192Y165750D01*
X803424Y163988D01*
X804104Y162346D01*
X805186Y160936D01*
X806596Y159854D01*
X808238Y159174D01*
X810000Y158942D01*
X811762Y159174D01*
X813404Y159854D01*
X814814Y160936D01*
X815896Y162346D01*
X816576Y163988D01*
X816808Y165750D01*
X816576Y167512D01*
X815896Y169154D01*
X814814Y170564D01*
X813404Y171646D01*
X811762Y172326D01*
X810000Y172558D01*
D02*
G37*
G36*
X1129750Y167058D02*
X1127988Y166826D01*
X1126346Y166146D01*
X1124936Y165064D01*
X1123854Y163654D01*
X1123174Y162012D01*
X1122942Y160250D01*
X1123174Y158488D01*
X1123854Y156846D01*
X1124936Y155436D01*
X1126346Y154354D01*
X1127988Y153674D01*
X1129750Y153442D01*
X1131512Y153674D01*
X1133154Y154354D01*
X1134564Y155436D01*
X1135646Y156846D01*
X1136326Y158488D01*
X1136558Y160250D01*
X1136326Y162012D01*
X1135646Y163654D01*
X1134564Y165064D01*
X1133154Y166146D01*
X1131512Y166826D01*
X1129750Y167058D01*
D02*
G37*
G36*
X1183740Y161280D02*
X1173070D01*
Y152160D01*
X1183740D01*
Y161280D01*
D02*
G37*
G36*
X1170530D02*
X1159860D01*
Y152160D01*
X1170530D01*
Y161280D01*
D02*
G37*
G36*
X882525Y166822D02*
X880567Y166564D01*
X878743Y165808D01*
X877176Y164606D01*
X875974Y163039D01*
X875218Y161215D01*
X874960Y159257D01*
X875218Y157299D01*
X875974Y155475D01*
X877176Y153908D01*
X878743Y152706D01*
X880567Y151950D01*
X882525Y151692D01*
X884483Y151950D01*
X886307Y152706D01*
X887874Y153908D01*
X889076Y155475D01*
X889832Y157299D01*
X890090Y159257D01*
X889832Y161215D01*
X889076Y163039D01*
X887874Y164606D01*
X886307Y165808D01*
X884483Y166564D01*
X882525Y166822D01*
D02*
G37*
G36*
X675250Y157858D02*
X671987Y157428D01*
X668946Y156169D01*
X666335Y154165D01*
X664331Y151554D01*
X663622Y149842D01*
X661457D01*
X660769Y151504D01*
X658765Y154115D01*
X656154Y156119D01*
X653113Y157378D01*
X649850Y157808D01*
X646587Y157378D01*
X643546Y156119D01*
X640935Y154115D01*
X638931Y151504D01*
X638243Y149842D01*
X636078D01*
X635369Y151554D01*
X633365Y154165D01*
X630754Y156169D01*
X627713Y157428D01*
X624450Y157858D01*
X621187Y157428D01*
X618146Y156169D01*
X615535Y154165D01*
X613531Y151554D01*
X612272Y148513D01*
X611842Y145250D01*
X612272Y141987D01*
X613531Y138946D01*
X615535Y136335D01*
X618146Y134331D01*
X621187Y133072D01*
X624450Y132642D01*
X627713Y133072D01*
X630754Y134331D01*
X633365Y136335D01*
X635369Y138946D01*
X636057Y140608D01*
X638222D01*
X638931Y138896D01*
X640935Y136285D01*
X643546Y134281D01*
X646587Y133022D01*
X649850Y132592D01*
X653113Y133022D01*
X656154Y134281D01*
X658765Y136285D01*
X660769Y138896D01*
X661478Y140608D01*
X663643D01*
X664331Y138946D01*
X666335Y136335D01*
X668946Y134331D01*
X671987Y133072D01*
X675250Y132642D01*
X678513Y133072D01*
X681554Y134331D01*
X684165Y136335D01*
X686169Y138946D01*
X686610Y140011D01*
X688610Y139614D01*
Y133160D01*
X699380D01*
Y145200D01*
Y157240D01*
X688610D01*
Y150886D01*
X686610Y150489D01*
X686169Y151554D01*
X684165Y154165D01*
X681554Y156169D01*
X678513Y157428D01*
X675250Y157858D01*
D02*
G37*
G36*
X789999Y162558D02*
X788237Y162326D01*
X786595Y161646D01*
X785185Y160564D01*
X784103Y159154D01*
X783423Y157512D01*
X783191Y155750D01*
X783423Y153988D01*
X784103Y152346D01*
X785185Y150936D01*
X786595Y149854D01*
X788237Y149173D01*
X789999Y148941D01*
X791761Y149173D01*
X793403Y149854D01*
X794813Y150936D01*
X795895Y152346D01*
X796575Y153988D01*
X796807Y155750D01*
X796575Y157512D01*
X795895Y159154D01*
X794813Y160564D01*
X793403Y161646D01*
X791761Y162326D01*
X789999Y162558D01*
D02*
G37*
G36*
X1021270Y156214D02*
Y147020D01*
X1030464D01*
X1030269Y148502D01*
X1029207Y151066D01*
X1027517Y153267D01*
X1025315Y154957D01*
X1022751Y156019D01*
X1021270Y156214D01*
D02*
G37*
G36*
X1018730D02*
X1017249Y156019D01*
X1014685Y154957D01*
X1012483Y153267D01*
X1010793Y151066D01*
X1009731Y148502D01*
X1009536Y147020D01*
X1018730D01*
Y156214D01*
D02*
G37*
G36*
X712690Y157240D02*
X701920D01*
Y146470D01*
X712690D01*
Y157240D01*
D02*
G37*
G36*
X732250Y174565D02*
X730292Y174307D01*
X728468Y173551D01*
X726901Y172349D01*
X725699Y170782D01*
X724943Y168958D01*
X724685Y167000D01*
X724943Y165042D01*
X725699Y163218D01*
X726901Y161651D01*
X728468Y160449D01*
X729140Y160170D01*
X729442Y157880D01*
X729401Y157849D01*
X728199Y156282D01*
X727443Y154458D01*
X727185Y152500D01*
X727443Y150542D01*
X728199Y148718D01*
X729401Y147151D01*
X730968Y145949D01*
X732792Y145193D01*
X734750Y144935D01*
X736708Y145193D01*
X738532Y145949D01*
X740099Y147151D01*
X741301Y148718D01*
X742057Y150542D01*
X742315Y152500D01*
X742057Y154458D01*
X741301Y156282D01*
X740099Y157849D01*
X738532Y159051D01*
X737860Y159330D01*
X737558Y161619D01*
X737599Y161651D01*
X738801Y163218D01*
X739557Y165042D01*
X739815Y167000D01*
X739557Y168958D01*
X738801Y170782D01*
X737599Y172349D01*
X736032Y173551D01*
X734208Y174307D01*
X732250Y174565D01*
D02*
G37*
G36*
X1030464Y144480D02*
X1021270D01*
Y135286D01*
X1022751Y135481D01*
X1025315Y136543D01*
X1027517Y138233D01*
X1029207Y140435D01*
X1030269Y142999D01*
X1030464Y144480D01*
D02*
G37*
G36*
X1018730D02*
X1009536D01*
X1009731Y142999D01*
X1010793Y140435D01*
X1012483Y138233D01*
X1014685Y136543D01*
X1017249Y135481D01*
X1018730Y135286D01*
Y144480D01*
D02*
G37*
G36*
X712690Y143930D02*
X701920D01*
Y133160D01*
X712690D01*
Y143930D01*
D02*
G37*
G36*
X1067500Y145058D02*
X1065738Y144826D01*
X1064096Y144146D01*
X1062686Y143064D01*
X1061604Y141654D01*
X1060924Y140012D01*
X1060692Y138250D01*
X1060924Y136488D01*
X1061604Y134846D01*
X1062686Y133436D01*
X1064096Y132354D01*
X1065738Y131674D01*
X1067500Y131442D01*
X1069262Y131674D01*
X1070904Y132354D01*
X1072314Y133436D01*
X1073396Y134846D01*
X1074076Y136488D01*
X1074308Y138250D01*
X1074076Y140012D01*
X1073396Y141654D01*
X1072314Y143064D01*
X1070904Y144146D01*
X1069262Y144826D01*
X1067500Y145058D01*
D02*
G37*
G36*
X1130000Y140058D02*
X1128238Y139826D01*
X1126596Y139146D01*
X1125186Y138064D01*
X1124104Y136654D01*
X1123424Y135012D01*
X1123192Y133250D01*
X1123424Y131488D01*
X1124104Y129846D01*
X1125186Y128436D01*
X1126596Y127354D01*
X1128238Y126674D01*
X1130000Y126442D01*
X1131762Y126674D01*
X1133404Y127354D01*
X1134814Y128436D01*
X1135896Y129846D01*
X1136576Y131488D01*
X1136808Y133250D01*
X1136576Y135012D01*
X1135896Y136654D01*
X1134814Y138064D01*
X1133404Y139146D01*
X1131762Y139826D01*
X1130000Y140058D01*
D02*
G37*
G36*
X953000Y141315D02*
X951042Y141057D01*
X949218Y140301D01*
X947651Y139099D01*
X946449Y137532D01*
X945693Y135708D01*
X945435Y133750D01*
X945693Y131792D01*
X946449Y129968D01*
X947651Y128401D01*
X949218Y127199D01*
X951042Y126443D01*
X953000Y126185D01*
X954958Y126443D01*
X956782Y127199D01*
X958349Y128401D01*
X959551Y129968D01*
X960307Y131792D01*
X960565Y133750D01*
X960307Y135708D01*
X959551Y137532D01*
X958349Y139099D01*
X956782Y140301D01*
X954958Y141057D01*
X953000Y141315D01*
D02*
G37*
G36*
X1240000Y146065D02*
X1238042Y145807D01*
X1236218Y145051D01*
X1234651Y143849D01*
X1233449Y142282D01*
X1232693Y140458D01*
X1232435Y138500D01*
X1232632Y137007D01*
X1232625Y136903D01*
X1232022Y135792D01*
X1231213Y134889D01*
X1230738Y134826D01*
X1229096Y134146D01*
X1227686Y133064D01*
X1226604Y131654D01*
X1225924Y130012D01*
X1225692Y128250D01*
X1225924Y126488D01*
X1226604Y124846D01*
X1227686Y123436D01*
X1229096Y122354D01*
X1230738Y121674D01*
X1232500Y121442D01*
X1234262Y121674D01*
X1235904Y122354D01*
X1237314Y123436D01*
X1238396Y124846D01*
X1239076Y126488D01*
X1239308Y128250D01*
X1239206Y129023D01*
X1239793Y130437D01*
X1240814Y131042D01*
X1241958Y131193D01*
X1243782Y131949D01*
X1245349Y133151D01*
X1246551Y134718D01*
X1247307Y136542D01*
X1247565Y138500D01*
X1247307Y140458D01*
X1246551Y142282D01*
X1245349Y143849D01*
X1243782Y145051D01*
X1241958Y145807D01*
X1240000Y146065D01*
D02*
G37*
G36*
X1155750Y133058D02*
X1153988Y132826D01*
X1152346Y132146D01*
X1150936Y131064D01*
X1149854Y129654D01*
X1149174Y128012D01*
X1148942Y126250D01*
X1149174Y124488D01*
X1149854Y122846D01*
X1150936Y121436D01*
X1152346Y120354D01*
X1153988Y119674D01*
X1155750Y119442D01*
X1157512Y119674D01*
X1159154Y120354D01*
X1160564Y121436D01*
X1161646Y122846D01*
X1162326Y124488D01*
X1162558Y126250D01*
X1162326Y128012D01*
X1161646Y129654D01*
X1160564Y131064D01*
X1159154Y132146D01*
X1157512Y132826D01*
X1155750Y133058D01*
D02*
G37*
G36*
X915277Y130063D02*
X913514Y129831D01*
X911872Y129151D01*
X910462Y128069D01*
X909380Y126659D01*
X908700Y125017D01*
X908468Y123255D01*
X908700Y121493D01*
X909380Y119851D01*
X910462Y118441D01*
X911872Y117359D01*
X913514Y116679D01*
X915277Y116447D01*
X917039Y116679D01*
X918681Y117359D01*
X920091Y118441D01*
X921173Y119851D01*
X921853Y121493D01*
X922085Y123255D01*
X921853Y125017D01*
X921173Y126659D01*
X920091Y128069D01*
X918681Y129151D01*
X917039Y129831D01*
X915277Y130063D01*
D02*
G37*
G36*
X939028Y130070D02*
X937070Y129812D01*
X935245Y129056D01*
X933679Y127854D01*
X932477Y126288D01*
X931721Y124463D01*
X931463Y122505D01*
X931721Y120547D01*
X932477Y118723D01*
X933679Y117156D01*
X935245Y115954D01*
X937070Y115198D01*
X939028Y114941D01*
X940986Y115198D01*
X942810Y115954D01*
X944377Y117156D01*
X945579Y118723D01*
X946335Y120547D01*
X946592Y122505D01*
X946335Y124463D01*
X945579Y126288D01*
X944377Y127854D01*
X942810Y129056D01*
X940986Y129812D01*
X939028Y130070D01*
D02*
G37*
G36*
X1247500Y127558D02*
X1245738Y127326D01*
X1244096Y126646D01*
X1242686Y125564D01*
X1241604Y124154D01*
X1240924Y122512D01*
X1240692Y120750D01*
X1240924Y118988D01*
X1241604Y117346D01*
X1242686Y115936D01*
X1244096Y114854D01*
X1245738Y114174D01*
X1247500Y113942D01*
X1249262Y114174D01*
X1250904Y114854D01*
X1252314Y115936D01*
X1253396Y117346D01*
X1254076Y118988D01*
X1254308Y120750D01*
X1254076Y122512D01*
X1253396Y124154D01*
X1252314Y125564D01*
X1250904Y126646D01*
X1249262Y127326D01*
X1247500Y127558D01*
D02*
G37*
G36*
X830000Y128065D02*
X828042Y127807D01*
X826218Y127051D01*
X824651Y125849D01*
X823449Y124282D01*
X822693Y122458D01*
X822435Y120500D01*
X822693Y118542D01*
X823449Y116718D01*
X824651Y115151D01*
X826218Y113949D01*
X828042Y113193D01*
X830000Y112935D01*
X831958Y113193D01*
X833782Y113949D01*
X835349Y115151D01*
X836551Y116718D01*
X837307Y118542D01*
X837565Y120500D01*
X837307Y122458D01*
X836551Y124282D01*
X835349Y125849D01*
X833782Y127051D01*
X831958Y127807D01*
X830000Y128065D01*
D02*
G37*
G36*
X1067500Y125058D02*
X1065738Y124826D01*
X1064096Y124146D01*
X1062686Y123064D01*
X1061604Y121654D01*
X1060924Y120012D01*
X1060692Y118250D01*
X1060924Y116488D01*
X1061604Y114846D01*
X1062686Y113436D01*
X1064096Y112354D01*
X1065738Y111674D01*
X1067500Y111442D01*
X1069262Y111674D01*
X1070904Y112354D01*
X1072314Y113436D01*
X1073396Y114846D01*
X1074076Y116488D01*
X1074308Y118250D01*
X1074076Y120012D01*
X1073396Y121654D01*
X1072314Y123064D01*
X1070904Y124146D01*
X1069262Y124826D01*
X1067500Y125058D01*
D02*
G37*
G36*
X1122500Y117558D02*
X1120738Y117326D01*
X1119096Y116646D01*
X1117686Y115564D01*
X1116604Y114154D01*
X1115924Y112512D01*
X1115692Y110750D01*
X1115924Y108988D01*
X1116604Y107346D01*
X1117686Y105936D01*
X1119096Y104854D01*
X1120738Y104174D01*
X1122500Y103942D01*
X1124262Y104174D01*
X1125904Y104854D01*
X1127314Y105936D01*
X1128396Y107346D01*
X1129076Y108988D01*
X1129308Y110750D01*
X1129076Y112512D01*
X1128396Y114154D01*
X1127314Y115564D01*
X1125904Y116646D01*
X1124262Y117326D01*
X1122500Y117558D01*
D02*
G37*
G36*
X956250Y116808D02*
X954488Y116576D01*
X952846Y115896D01*
X951436Y114814D01*
X950354Y113404D01*
X949674Y111762D01*
X949442Y110000D01*
X949674Y108238D01*
X950354Y106596D01*
X951436Y105186D01*
X952846Y104104D01*
X954488Y103424D01*
X956250Y103192D01*
X958012Y103424D01*
X959654Y104104D01*
X961064Y105186D01*
X962146Y106596D01*
X962826Y108238D01*
X963058Y110000D01*
X962826Y111762D01*
X962146Y113404D01*
X961064Y114814D01*
X959654Y115896D01*
X958012Y116576D01*
X956250Y116808D01*
D02*
G37*
G36*
X1002197Y115361D02*
X1000435Y115129D01*
X998793Y114449D01*
X997383Y113367D01*
X996301Y111957D01*
X995620Y110315D01*
X995388Y108553D01*
X995620Y106791D01*
X996301Y105149D01*
X997383Y103739D01*
X998793Y102657D01*
X1000435Y101977D01*
X1002197Y101745D01*
X1003959Y101977D01*
X1005601Y102657D01*
X1007011Y103739D01*
X1008093Y105149D01*
X1008773Y106791D01*
X1009005Y108553D01*
X1008773Y110315D01*
X1008093Y111957D01*
X1007011Y113367D01*
X1005601Y114449D01*
X1003959Y115129D01*
X1002197Y115361D01*
D02*
G37*
G36*
X1219998Y115058D02*
X1218236Y114826D01*
X1216594Y114146D01*
X1215184Y113064D01*
X1214102Y111654D01*
X1213422Y110012D01*
X1213190Y108250D01*
X1213422Y106488D01*
X1214102Y104846D01*
X1215184Y103436D01*
X1216594Y102354D01*
X1218236Y101674D01*
X1219998Y101442D01*
X1221760Y101674D01*
X1223402Y102354D01*
X1224812Y103436D01*
X1225894Y104846D01*
X1226575Y106488D01*
X1226806Y108250D01*
X1226575Y110012D01*
X1225894Y111654D01*
X1224812Y113064D01*
X1223402Y114146D01*
X1221760Y114826D01*
X1219998Y115058D01*
D02*
G37*
G36*
X1185000Y110058D02*
X1183238Y109826D01*
X1181596Y109146D01*
X1180186Y108064D01*
X1179104Y106654D01*
X1178424Y105012D01*
X1178192Y103250D01*
X1178424Y101488D01*
X1179104Y99846D01*
X1180186Y98436D01*
X1181596Y97354D01*
X1183238Y96674D01*
X1185000Y96442D01*
X1186762Y96674D01*
X1188404Y97354D01*
X1189814Y98436D01*
X1190896Y99846D01*
X1191576Y101488D01*
X1191808Y103250D01*
X1191576Y105012D01*
X1190896Y106654D01*
X1189814Y108064D01*
X1188404Y109146D01*
X1186762Y109826D01*
X1185000Y110058D01*
D02*
G37*
G36*
X792500Y115058D02*
X790738Y114826D01*
X789096Y114146D01*
X787686Y113064D01*
X786604Y111654D01*
X785924Y110012D01*
X785692Y108250D01*
X785924Y106488D01*
X786604Y104846D01*
X787686Y103436D01*
X789096Y102354D01*
X790738Y101674D01*
X792500Y101442D01*
X793788Y101611D01*
X794751Y101176D01*
X795773Y100135D01*
X795924Y98988D01*
X796604Y97346D01*
X797686Y95936D01*
X799096Y94854D01*
X800738Y94174D01*
X802500Y93942D01*
X804262Y94174D01*
X805904Y94854D01*
X807314Y95936D01*
X808396Y97346D01*
X809076Y98988D01*
X809308Y100750D01*
X809076Y102512D01*
X808396Y104154D01*
X807314Y105564D01*
X805904Y106646D01*
X804262Y107326D01*
X802500Y107558D01*
X801212Y107389D01*
X800249Y107824D01*
X799227Y108865D01*
X799076Y110012D01*
X798396Y111654D01*
X797314Y113064D01*
X795904Y114146D01*
X794262Y114826D01*
X792500Y115058D01*
D02*
G37*
G36*
X1390000Y138861D02*
X1385491Y138417D01*
X1381156Y137102D01*
X1377160Y134966D01*
X1373658Y132092D01*
X1370784Y128590D01*
X1368648Y124594D01*
X1367333Y120259D01*
X1366889Y115750D01*
X1367333Y111241D01*
X1368648Y106906D01*
X1370784Y102910D01*
X1373658Y99408D01*
X1377160Y96534D01*
X1381156Y94398D01*
X1385491Y93083D01*
X1390000Y92639D01*
X1394509Y93083D01*
X1398844Y94398D01*
X1402840Y96534D01*
X1406342Y99408D01*
X1409216Y102910D01*
X1411352Y106906D01*
X1412667Y111241D01*
X1413111Y115750D01*
X1412667Y120259D01*
X1411352Y124594D01*
X1409216Y128590D01*
X1406342Y132092D01*
X1402840Y134966D01*
X1398844Y137102D01*
X1394509Y138417D01*
X1390000Y138861D01*
D02*
G37*
G36*
X540000D02*
X535491Y138417D01*
X531156Y137102D01*
X527160Y134966D01*
X523658Y132092D01*
X520784Y128590D01*
X518648Y124594D01*
X517333Y120259D01*
X516889Y115750D01*
X517333Y111241D01*
X518648Y106906D01*
X520784Y102910D01*
X523658Y99408D01*
X527160Y96534D01*
X531156Y94398D01*
X535491Y93083D01*
X540000Y92639D01*
X544509Y93083D01*
X548844Y94398D01*
X552840Y96534D01*
X556342Y99408D01*
X559216Y102910D01*
X561352Y106906D01*
X562667Y111241D01*
X563111Y115750D01*
X562667Y120259D01*
X561352Y124594D01*
X559216Y128590D01*
X556342Y132092D01*
X552840Y134966D01*
X548844Y137102D01*
X544509Y138417D01*
X540000Y138861D01*
D02*
G37*
G36*
X1067500Y105058D02*
X1065738Y104826D01*
X1064096Y104146D01*
X1062686Y103064D01*
X1061604Y101654D01*
X1060924Y100012D01*
X1060692Y98250D01*
X1060924Y96488D01*
X1061604Y94846D01*
X1062686Y93436D01*
X1064096Y92354D01*
X1065738Y91674D01*
X1067500Y91442D01*
X1069262Y91674D01*
X1070904Y92354D01*
X1072314Y93436D01*
X1073396Y94846D01*
X1074076Y96488D01*
X1074308Y98250D01*
X1074076Y100012D01*
X1073396Y101654D01*
X1072314Y103064D01*
X1070904Y104146D01*
X1069262Y104826D01*
X1067500Y105058D01*
D02*
G37*
G36*
X716750Y106808D02*
X714988Y106576D01*
X713346Y105896D01*
X711936Y104814D01*
X710854Y103404D01*
X710174Y101762D01*
X709942Y100000D01*
X710174Y98238D01*
X710854Y96596D01*
X711936Y95186D01*
X713346Y94104D01*
X714988Y93424D01*
X716750Y93192D01*
X718348Y93402D01*
X718460Y92546D01*
X719216Y90722D01*
X720418Y89155D01*
X721985Y87953D01*
X723810Y87197D01*
X725767Y86939D01*
X727725Y87197D01*
X729550Y87953D01*
X731116Y89155D01*
X732319Y90722D01*
X733074Y92546D01*
X733332Y94504D01*
X733074Y96462D01*
X732319Y98286D01*
X731116Y99853D01*
X729550Y101055D01*
X727725Y101811D01*
X725767Y102069D01*
X725311Y102008D01*
X723326Y101762D01*
X722646Y103404D01*
X721564Y104814D01*
X720154Y105896D01*
X718512Y106576D01*
X716750Y106808D01*
D02*
G37*
G36*
X903999Y100315D02*
X902041Y100057D01*
X900217Y99301D01*
X898650Y98099D01*
X897448Y96532D01*
X896692Y94708D01*
X896434Y92750D01*
X896692Y90792D01*
X897448Y88968D01*
X898650Y87401D01*
X900217Y86199D01*
X902041Y85443D01*
X903999Y85185D01*
X905957Y85443D01*
X907781Y86199D01*
X909348Y87401D01*
X910550Y88968D01*
X911306Y90792D01*
X911564Y92750D01*
X911306Y94708D01*
X910550Y96532D01*
X909348Y98099D01*
X907781Y99301D01*
X905957Y100057D01*
X903999Y100315D01*
D02*
G37*
G36*
X943250Y99065D02*
X941292Y98807D01*
X939467Y98051D01*
X937901Y96849D01*
X936699Y95282D01*
X935943Y93458D01*
X935685Y91500D01*
X935943Y89542D01*
X936699Y87718D01*
X937901Y86151D01*
X939467Y84949D01*
X941292Y84193D01*
X943250Y83935D01*
X945208Y84193D01*
X947032Y84949D01*
X948599Y86151D01*
X949801Y87718D01*
X950557Y89542D01*
X950815Y91500D01*
X950557Y93458D01*
X949801Y95282D01*
X948599Y96849D01*
X947032Y98051D01*
X945208Y98807D01*
X943250Y99065D01*
D02*
G37*
G36*
X792000Y92815D02*
X790042Y92557D01*
X788218Y91801D01*
X786651Y90599D01*
X785449Y89032D01*
X784693Y87208D01*
X784435Y85250D01*
X784693Y83292D01*
X785449Y81468D01*
X786651Y79901D01*
X788218Y78699D01*
X790042Y77943D01*
X792000Y77685D01*
X793958Y77943D01*
X795782Y78699D01*
X797349Y79901D01*
X798551Y81468D01*
X799307Y83292D01*
X799565Y85250D01*
X799307Y87208D01*
X798551Y89032D01*
X797349Y90599D01*
X795782Y91801D01*
X793958Y92557D01*
X792000Y92815D01*
D02*
G37*
G36*
X1051270Y78714D02*
Y69520D01*
X1060464D01*
X1060269Y71002D01*
X1059207Y73566D01*
X1057517Y75767D01*
X1055315Y77457D01*
X1052751Y78519D01*
X1051270Y78714D01*
D02*
G37*
G36*
X1048730Y78714D02*
X1047249Y78519D01*
X1044685Y77457D01*
X1042483Y75767D01*
X1040793Y73566D01*
X1039731Y71002D01*
X1039536Y69520D01*
X1048730D01*
Y78714D01*
D02*
G37*
G36*
X777500Y82558D02*
X775738Y82326D01*
X774096Y81646D01*
X772686Y80564D01*
X771604Y79154D01*
X770924Y77512D01*
X770692Y75750D01*
X770924Y73988D01*
X771604Y72346D01*
X772686Y70936D01*
X774096Y69854D01*
X775738Y69174D01*
X777500Y68942D01*
X779262Y69174D01*
X780904Y69854D01*
X782314Y70936D01*
X783396Y72346D01*
X784076Y73988D01*
X784308Y75750D01*
X784076Y77512D01*
X783396Y79154D01*
X782314Y80564D01*
X780904Y81646D01*
X779262Y82326D01*
X777500Y82558D01*
D02*
G37*
G36*
X840000Y71558D02*
X838238Y71326D01*
X836596Y70646D01*
X835186Y69564D01*
X834104Y68154D01*
X833424Y66512D01*
X833192Y64750D01*
X833424Y62988D01*
X834104Y61346D01*
X835186Y59936D01*
X836596Y58854D01*
X838238Y58174D01*
X840000Y57942D01*
X841762Y58174D01*
X843404Y58854D01*
X844814Y59936D01*
X845896Y61346D01*
X846576Y62988D01*
X846808Y64750D01*
X846576Y66512D01*
X845896Y68154D01*
X844814Y69564D01*
X843404Y70646D01*
X841762Y71326D01*
X840000Y71558D01*
D02*
G37*
G36*
X1060464Y66980D02*
X1051270D01*
Y57786D01*
X1052751Y57981D01*
X1055315Y59043D01*
X1057517Y60733D01*
X1059207Y62934D01*
X1060269Y65498D01*
X1060464Y66980D01*
D02*
G37*
G36*
X1048730D02*
X1039536D01*
X1039731Y65498D01*
X1040793Y62934D01*
X1042483Y60733D01*
X1044685Y59043D01*
X1047249Y57981D01*
X1048730Y57786D01*
Y66980D01*
D02*
G37*
G36*
X852000Y51558D02*
X850238Y51326D01*
X848596Y50646D01*
X847186Y49564D01*
X846104Y48154D01*
X845424Y46512D01*
X845192Y44750D01*
X845424Y42988D01*
X846104Y41346D01*
X847186Y39936D01*
X848596Y38854D01*
X850238Y38174D01*
X852000Y37942D01*
X853762Y38174D01*
X855404Y38854D01*
X856814Y39936D01*
X857896Y41346D01*
X858576Y42988D01*
X858808Y44750D01*
X858576Y46512D01*
X857896Y48154D01*
X856814Y49564D01*
X855404Y50646D01*
X853762Y51326D01*
X852000Y51558D01*
D02*
G37*
G36*
X1289500Y59345D02*
X1286628Y58967D01*
X1283952Y57859D01*
X1281655Y56095D01*
X1279892Y53797D01*
X1278783Y51122D01*
X1278405Y48250D01*
X1278783Y45378D01*
X1279892Y42703D01*
X1281655Y40405D01*
X1283952Y38642D01*
X1286628Y37533D01*
X1289500Y37155D01*
X1292372Y37533D01*
X1295047Y38642D01*
X1297345Y40405D01*
X1299108Y42703D01*
X1300217Y45378D01*
X1300595Y48250D01*
X1300217Y51122D01*
X1299108Y53797D01*
X1297345Y56095D01*
X1295047Y57859D01*
X1292372Y58967D01*
X1289500Y59345D01*
D02*
G37*
G36*
X1264100D02*
X1261228Y58967D01*
X1258552Y57859D01*
X1256255Y56095D01*
X1254492Y53797D01*
X1253383Y51122D01*
X1253005Y48250D01*
X1253383Y45378D01*
X1254492Y42703D01*
X1256255Y40405D01*
X1258552Y38642D01*
X1261228Y37533D01*
X1264100Y37155D01*
X1266972Y37533D01*
X1269647Y38642D01*
X1271945Y40405D01*
X1273708Y42703D01*
X1274817Y45378D01*
X1275195Y48250D01*
X1274817Y51122D01*
X1273708Y53797D01*
X1271945Y56095D01*
X1269647Y57859D01*
X1266972Y58967D01*
X1264100Y59345D01*
D02*
G37*
G36*
X1238700D02*
X1235828Y58967D01*
X1233152Y57859D01*
X1230855Y56095D01*
X1229091Y53797D01*
X1227983Y51122D01*
X1227605Y48250D01*
X1227983Y45378D01*
X1229091Y42703D01*
X1230855Y40405D01*
X1233152Y38642D01*
X1235828Y37533D01*
X1238700Y37155D01*
X1241572Y37533D01*
X1244247Y38642D01*
X1246545Y40405D01*
X1248308Y42703D01*
X1249417Y45378D01*
X1249795Y48250D01*
X1249417Y51122D01*
X1248308Y53797D01*
X1246545Y56095D01*
X1244247Y57859D01*
X1241572Y58967D01*
X1238700Y59345D01*
D02*
G37*
G36*
X1213300D02*
X1210428Y58967D01*
X1207753Y57859D01*
X1205455Y56095D01*
X1203691Y53797D01*
X1202583Y51122D01*
X1202205Y48250D01*
X1202583Y45378D01*
X1203691Y42703D01*
X1205455Y40405D01*
X1207753Y38642D01*
X1210428Y37533D01*
X1213300Y37155D01*
X1216172Y37533D01*
X1218847Y38642D01*
X1221145Y40405D01*
X1222908Y42703D01*
X1224017Y45378D01*
X1224395Y48250D01*
X1224017Y51122D01*
X1222908Y53797D01*
X1221145Y56095D01*
X1218847Y57859D01*
X1216172Y58967D01*
X1213300Y59345D01*
D02*
G37*
G36*
X1187900D02*
X1185028Y58967D01*
X1182353Y57859D01*
X1180055Y56095D01*
X1178291Y53797D01*
X1177183Y51122D01*
X1176805Y48250D01*
X1177183Y45378D01*
X1178291Y42703D01*
X1180055Y40405D01*
X1182353Y38642D01*
X1185028Y37533D01*
X1187900Y37155D01*
X1190772Y37533D01*
X1193447Y38642D01*
X1195745Y40405D01*
X1197508Y42703D01*
X1198617Y45378D01*
X1198995Y48250D01*
X1198617Y51122D01*
X1197508Y53797D01*
X1195745Y56095D01*
X1193447Y57859D01*
X1190772Y58967D01*
X1187900Y59345D01*
D02*
G37*
G36*
X1162500D02*
X1159628Y58967D01*
X1156953Y57859D01*
X1154655Y56095D01*
X1152891Y53797D01*
X1151783Y51122D01*
X1151405Y48250D01*
X1151783Y45378D01*
X1152891Y42703D01*
X1154655Y40405D01*
X1156953Y38642D01*
X1159628Y37533D01*
X1162500Y37155D01*
X1165372Y37533D01*
X1168047Y38642D01*
X1170345Y40405D01*
X1172109Y42703D01*
X1173217Y45378D01*
X1173595Y48250D01*
X1173217Y51122D01*
X1172109Y53797D01*
X1170345Y56095D01*
X1168047Y57859D01*
X1165372Y58967D01*
X1162500Y59345D01*
D02*
G37*
G36*
X1137100D02*
X1134228Y58967D01*
X1131553Y57859D01*
X1129255Y56095D01*
X1127492Y53797D01*
X1126383Y51122D01*
X1126005Y48250D01*
X1126383Y45378D01*
X1127492Y42703D01*
X1129255Y40405D01*
X1131553Y38642D01*
X1134228Y37533D01*
X1137100Y37155D01*
X1139972Y37533D01*
X1142647Y38642D01*
X1144945Y40405D01*
X1146709Y42703D01*
X1147817Y45378D01*
X1148195Y48250D01*
X1147817Y51122D01*
X1146709Y53797D01*
X1144945Y56095D01*
X1142647Y57859D01*
X1139972Y58967D01*
X1137100Y59345D01*
D02*
G37*
G36*
X1111700D02*
X1108828Y58967D01*
X1106152Y57859D01*
X1103855Y56095D01*
X1102092Y53797D01*
X1100983Y51122D01*
X1100605Y48250D01*
X1100983Y45378D01*
X1102092Y42703D01*
X1103855Y40405D01*
X1106152Y38642D01*
X1108828Y37533D01*
X1111700Y37155D01*
X1114572Y37533D01*
X1117247Y38642D01*
X1119545Y40405D01*
X1121309Y42703D01*
X1122417Y45378D01*
X1122795Y48250D01*
X1122417Y51122D01*
X1121309Y53797D01*
X1119545Y56095D01*
X1117247Y57859D01*
X1114572Y58967D01*
X1111700Y59345D01*
D02*
G37*
G36*
X795400Y852749D02*
X792398Y852354D01*
X789600Y851195D01*
X787198Y849352D01*
X785355Y846950D01*
X784196Y844152D01*
X783801Y841150D01*
X784196Y838148D01*
X785355Y835350D01*
X787198Y832948D01*
X789600Y831105D01*
X792398Y829946D01*
X795400Y829551D01*
X798402Y829946D01*
X801200Y831105D01*
X803602Y832948D01*
X805445Y835350D01*
X806604Y838148D01*
X806999Y841150D01*
X806604Y844152D01*
X805445Y846950D01*
X803602Y849352D01*
X801200Y851195D01*
X798402Y852354D01*
X795400Y852749D01*
D02*
G37*
G36*
X744600D02*
X741598Y852354D01*
X738800Y851195D01*
X736398Y849352D01*
X734555Y846950D01*
X733396Y844152D01*
X733001Y841150D01*
X733396Y838148D01*
X734555Y835350D01*
X736398Y832948D01*
X738800Y831105D01*
X741598Y829946D01*
X744600Y829551D01*
X747602Y829946D01*
X750400Y831105D01*
X752802Y832948D01*
X754645Y835350D01*
X755804Y838148D01*
X756199Y841150D01*
X755804Y844152D01*
X754645Y846950D01*
X752802Y849352D01*
X750400Y851195D01*
X747602Y852354D01*
X744600Y852749D01*
D02*
G37*
G36*
X682900D02*
X679898Y852354D01*
X677100Y851195D01*
X674698Y849352D01*
X672855Y846950D01*
X671696Y844152D01*
X671301Y841150D01*
X671696Y838148D01*
X672855Y835350D01*
X674698Y832948D01*
X677100Y831105D01*
X679898Y829946D01*
X682900Y829551D01*
X685902Y829946D01*
X688700Y831105D01*
X691102Y832948D01*
X692945Y835350D01*
X694104Y838148D01*
X694499Y841150D01*
X694104Y844152D01*
X692945Y846950D01*
X691102Y849352D01*
X688700Y851195D01*
X685902Y852354D01*
X682900Y852749D01*
D02*
G37*
G36*
X632100D02*
X629098Y852354D01*
X626300Y851195D01*
X623898Y849352D01*
X622055Y846950D01*
X620896Y844152D01*
X620501Y841150D01*
X620896Y838148D01*
X622055Y835350D01*
X623898Y832948D01*
X626300Y831105D01*
X629098Y829946D01*
X632100Y829551D01*
X635102Y829946D01*
X637900Y831105D01*
X640302Y832948D01*
X642145Y835350D01*
X643304Y838148D01*
X643699Y841150D01*
X643304Y844152D01*
X642145Y846950D01*
X640302Y849352D01*
X637900Y851195D01*
X635102Y852354D01*
X632100Y852749D01*
D02*
G37*
G36*
X633370Y801318D02*
Y791620D01*
X643068D01*
X642856Y793232D01*
X641743Y795918D01*
X639974Y798224D01*
X637668Y799993D01*
X634982Y801106D01*
X633370Y801318D01*
D02*
G37*
G36*
X796670D02*
Y791620D01*
X806368D01*
X806156Y793232D01*
X805043Y795918D01*
X803274Y798224D01*
X800968Y799993D01*
X798282Y801106D01*
X796670Y801318D01*
D02*
G37*
G36*
X794130D02*
X792518Y801106D01*
X789832Y799993D01*
X787526Y798224D01*
X785757Y795918D01*
X784644Y793232D01*
X784432Y791620D01*
X794130D01*
Y801318D01*
D02*
G37*
G36*
X630830D02*
X629218Y801106D01*
X626532Y799993D01*
X624226Y798224D01*
X622457Y795918D01*
X621344Y793232D01*
X621132Y791620D01*
X630830D01*
Y801318D01*
D02*
G37*
G36*
X643068Y789080D02*
X633370D01*
Y779382D01*
X634982Y779594D01*
X637668Y780707D01*
X639974Y782476D01*
X641743Y784782D01*
X642856Y787468D01*
X643068Y789080D01*
D02*
G37*
G36*
X806368D02*
X796670D01*
Y779382D01*
X798282Y779594D01*
X800968Y780707D01*
X803274Y782476D01*
X805043Y784782D01*
X806156Y787468D01*
X806368Y789080D01*
D02*
G37*
G36*
X794130D02*
X784432D01*
X784644Y787468D01*
X785757Y784782D01*
X787526Y782476D01*
X789832Y780707D01*
X792518Y779594D01*
X794130Y779382D01*
Y789080D01*
D02*
G37*
G36*
X630830D02*
X621132D01*
X621344Y787468D01*
X622457Y784782D01*
X624226Y782476D01*
X626532Y780707D01*
X629218Y779594D01*
X630830Y779382D01*
Y789080D01*
D02*
G37*
G36*
X744600Y801949D02*
X741598Y801554D01*
X738800Y800395D01*
X736398Y798552D01*
X734555Y796150D01*
X733396Y793352D01*
X733001Y790350D01*
X733396Y787348D01*
X734555Y784550D01*
X736398Y782148D01*
X738800Y780305D01*
X741598Y779146D01*
X744600Y778751D01*
X747602Y779146D01*
X750400Y780305D01*
X752802Y782148D01*
X754645Y784550D01*
X755804Y787348D01*
X756199Y790350D01*
X755804Y793352D01*
X754645Y796150D01*
X752802Y798552D01*
X750400Y800395D01*
X747602Y801554D01*
X744600Y801949D01*
D02*
G37*
G36*
X682900D02*
X679898Y801554D01*
X677100Y800395D01*
X674698Y798552D01*
X672855Y796150D01*
X671696Y793352D01*
X671301Y790350D01*
X671696Y787348D01*
X672855Y784550D01*
X674698Y782148D01*
X677100Y780305D01*
X679898Y779146D01*
X682900Y778751D01*
X685902Y779146D01*
X688700Y780305D01*
X691102Y782148D01*
X692945Y784550D01*
X694104Y787348D01*
X694499Y790350D01*
X694104Y793352D01*
X692945Y796150D01*
X691102Y798552D01*
X688700Y800395D01*
X685902Y801554D01*
X682900Y801949D01*
D02*
G37*
G36*
X511125Y727874D02*
X508875D01*
X505122Y727380D01*
X501626Y725931D01*
X498623Y723627D01*
X496319Y720624D01*
X496000Y719856D01*
X494000D01*
X493681Y720624D01*
X491377Y723627D01*
X488374Y725931D01*
X484878Y727380D01*
X481125Y727874D01*
X478875D01*
X475122Y727380D01*
X471626Y725931D01*
X468623Y723627D01*
X466319Y720624D01*
X466000Y719856D01*
X464000D01*
X463681Y720624D01*
X461377Y723627D01*
X458374Y725931D01*
X454878Y727380D01*
X451125Y727874D01*
X448875D01*
X445122Y727380D01*
X441626Y725931D01*
X438623Y723627D01*
X436319Y720624D01*
X435833Y719454D01*
X433669D01*
X433280Y720393D01*
X431049Y723299D01*
X428143Y725530D01*
X424757Y726932D01*
X421270Y727391D01*
Y710750D01*
Y694109D01*
X424757Y694568D01*
X428143Y695970D01*
X431049Y698201D01*
X433280Y701107D01*
X433669Y702046D01*
X435833D01*
X436319Y700875D01*
X438623Y697873D01*
X441626Y695568D01*
X445122Y694120D01*
X448875Y693626D01*
X451125D01*
X454878Y694120D01*
X458374Y695568D01*
X461377Y697873D01*
X463681Y700875D01*
X464000Y701644D01*
X466000D01*
X466319Y700875D01*
X468623Y697873D01*
X471626Y695568D01*
X475122Y694120D01*
X478875Y693626D01*
X481125D01*
X484878Y694120D01*
X488374Y695568D01*
X491377Y697873D01*
X493681Y700875D01*
X494000Y701644D01*
X496000D01*
X496319Y700875D01*
X498623Y697873D01*
X501626Y695568D01*
X505122Y694120D01*
X508875Y693626D01*
X511125D01*
X514878Y694120D01*
X518374Y695568D01*
X521377Y697873D01*
X523681Y700875D01*
X525130Y704372D01*
X525624Y708125D01*
Y713375D01*
X525130Y717128D01*
X523681Y720624D01*
X521377Y723627D01*
X518374Y725931D01*
X514878Y727380D01*
X511125Y727874D01*
D02*
G37*
G36*
X418730Y727391D02*
X415243Y726932D01*
X411857Y725530D01*
X408951Y723299D01*
X406720Y720393D01*
X405318Y717008D01*
X404840Y713375D01*
Y712020D01*
X418730D01*
Y727391D01*
D02*
G37*
G36*
Y709480D02*
X404840D01*
Y708125D01*
X405318Y704492D01*
X406720Y701107D01*
X408951Y698201D01*
X411857Y695970D01*
X415243Y694568D01*
X418730Y694109D01*
Y709480D01*
D02*
G37*
G36*
X573390Y727862D02*
X571410D01*
X568014Y727415D01*
X564849Y726104D01*
X562131Y724019D01*
X560046Y721301D01*
X558735Y718136D01*
X558288Y714740D01*
Y706760D01*
X558735Y703364D01*
X560046Y700199D01*
X562131Y697481D01*
X564849Y695396D01*
X568014Y694085D01*
X571410Y693638D01*
X573390D01*
X576786Y694085D01*
X579951Y695396D01*
X582669Y697481D01*
X584754Y700199D01*
X586065Y703364D01*
X586512Y706760D01*
Y714740D01*
X586065Y718136D01*
X584754Y721301D01*
X582669Y724019D01*
X579951Y726104D01*
X576786Y727415D01*
X573390Y727862D01*
D02*
G37*
%LPD*%
D123*
X865000Y558250D02*
D03*
X1020000Y145750D02*
D03*
X1367500Y708250D02*
D03*
X1370000Y670750D02*
D03*
X417500Y338250D02*
D03*
X471000D02*
D03*
X1050000Y68250D02*
D03*
X690000Y245750D02*
D03*
X831500Y447750D02*
D03*
X1465000Y288750D02*
D03*
D127*
X1024600Y836750D02*
D03*
X700650Y145200D02*
D03*
D130*
X450000Y245300D02*
D03*
D131*
X1255050Y419800D02*
D03*
X1246550Y217800D02*
D03*
X1132550Y197050D02*
D03*
D132*
X1436000Y595750D02*
D03*
X1311400Y529750D02*
D03*
X1424500Y692250D02*
D03*
X795400Y790350D02*
D03*
X632100D02*
D03*
D134*
X1283800Y174050D02*
D03*
X1171800Y162550D02*
D03*
D135*
X1054500Y487500D02*
D03*
D138*
X847700Y617650D02*
D03*
D139*
X892300D02*
D03*
D140*
X676250Y486200D02*
D03*
D141*
X420000Y710750D02*
D03*
X458100Y406350D02*
D03*
D150*
X1139538Y89504D02*
D03*
X1349000Y185750D02*
D03*
X874750Y410250D02*
D03*
X853999Y715749D02*
D03*
X967999Y779749D02*
D03*
X903999Y418749D02*
D03*
X1304998Y565749D02*
D03*
X1166000Y574000D02*
D03*
X1120550Y560608D02*
D03*
X1096000Y554750D02*
D03*
X1054500Y487500D02*
D03*
X1047000Y480500D02*
D03*
X1062500Y494750D02*
D03*
X1046750Y494250D02*
D03*
X1062250Y480500D02*
D03*
X1215000Y125750D02*
D03*
X771520Y153507D02*
D03*
X941750Y160500D02*
D03*
X1282500Y659250D02*
D03*
X943278Y336516D02*
D03*
X951278Y316015D02*
D03*
X873775Y335266D02*
D03*
X1262000Y488250D02*
D03*
X825250Y335750D02*
D03*
X1006250Y453000D02*
D03*
X979780Y470272D02*
D03*
X980000Y481000D02*
D03*
X1005750Y524000D02*
D03*
X1346000Y314250D02*
D03*
X765519Y339766D02*
D03*
X1371750Y556500D02*
D03*
X1227000Y182250D02*
D03*
X1227750Y166750D02*
D03*
X1240000Y501750D02*
D03*
X1304444Y308749D02*
D03*
X1236042Y682282D02*
D03*
X952000Y667750D02*
D03*
X941999Y798748D02*
D03*
X516000Y245300D02*
D03*
X505000Y261750D02*
D03*
Y304750D02*
D03*
X612000Y257750D02*
D03*
X621000Y269750D02*
D03*
X1262998Y461749D02*
D03*
X614000Y175750D02*
D03*
X634000Y204750D02*
D03*
X990000Y55750D02*
D03*
X1020000D02*
D03*
X1112000Y203750D02*
D03*
X1307000Y169750D02*
D03*
X1333000D02*
D03*
X1340000Y237750D02*
D03*
X1311000Y230750D02*
D03*
X1207000Y478750D02*
D03*
X1013000Y322750D02*
D03*
X1347000Y660750D02*
D03*
X830250Y157750D02*
D03*
X772770Y287263D02*
D03*
X950250Y235750D02*
D03*
X1213750Y174750D02*
D03*
X1215000Y197250D02*
D03*
X1185250Y221250D02*
D03*
X1145000Y263750D02*
D03*
X944250Y209500D02*
D03*
X876250Y120500D02*
D03*
X771500Y166750D02*
D03*
X769750Y226250D02*
D03*
X956999Y428749D02*
D03*
X768000Y562750D02*
D03*
X952000Y522750D02*
D03*
X1031000Y550750D02*
D03*
X1344000Y403750D02*
D03*
X1244000Y473750D02*
D03*
X1342000Y439750D02*
D03*
X1292000Y438750D02*
D03*
D151*
X1384750Y653750D02*
D03*
X1142500Y613250D02*
D03*
X1085000Y675750D02*
D03*
X1117500Y683250D02*
D03*
X1216998Y588749D02*
D03*
X946750Y308250D02*
D03*
X1342570Y630050D02*
D03*
X1284000Y612750D02*
D03*
X1190500Y397750D02*
D03*
X1249800Y323750D02*
D03*
X1054500Y422250D02*
D03*
X1248000Y755500D02*
D03*
X925550Y53200D02*
D03*
X1307000Y333750D02*
D03*
D152*
X708750Y36000D02*
D03*
X726000Y643500D02*
D03*
M02*
