G04*
G04 #@! TF.GenerationSoftware,Altium Limited,Altium Designer,18.0.12 (696)*
G04*
G04 Layer_Color=0*
%FSLAX44Y44*%
%MOMM*%
G71*
G01*
G75*
%ADD23R,1.6532X1.1532*%
%ADD24R,1.6032X1.4032*%
%ADD25R,1.4032X1.6032*%
%ADD38R,0.8032X1.3032*%
%ADD39R,1.1532X1.2032*%
%ADD41R,0.6032X1.1532*%
%ADD48R,1.2032X1.1532*%
%ADD51R,2.0032X1.4032*%
%ADD56C,1.8032*%
%ADD57O,1.5032X1.6032*%
%ADD58R,1.5032X1.6032*%
%ADD59C,2.1032*%
%ADD60R,2.1032X2.1032*%
%ADD61R,2.0032X2.0032*%
%ADD62C,2.0032*%
%ADD63R,11.2032X12.2032*%
%ADD64R,2.6032X1.9532*%
%ADD65C,1.9032*%
%ADD66R,1.9032X1.9032*%
%ADD67R,2.0832X1.7732*%
%ADD68R,2.7032X2.7032*%
%ADD69R,1.8032X1.8032*%
%ADD70R,1.7032X1.7032*%
%ADD71C,1.7032*%
%ADD72C,1.7032*%
%ADD73R,1.8032X1.8032*%
G04:AMPARAMS|DCode=74|XSize=3.0032mm|YSize=2.7032mm|CornerRadius=1.2391mm|HoleSize=0mm|Usage=FLASHONLY|Rotation=270.000|XOffset=0mm|YOffset=0mm|HoleType=Round|Shape=RoundedRectangle|*
%AMROUNDEDRECTD74*
21,1,3.0032,0.2250,0,0,270.0*
21,1,0.5250,2.7032,0,0,270.0*
1,1,2.4782,-0.1125,-0.2625*
1,1,2.4782,-0.1125,0.2625*
1,1,2.4782,0.1125,0.2625*
1,1,2.4782,0.1125,-0.2625*
%
%ADD74ROUNDEDRECTD74*%
%ADD76R,1.9032X1.9032*%
%ADD77C,5.7032*%
%ADD78C,2.2032*%
%ADD79C,1.6032*%
%ADD80C,2.6032*%
%ADD81C,3.4532*%
%ADD82C,4.2032*%
%ADD83C,1.1032*%
%ADD157R,1.3032X0.8032*%
G04:AMPARAMS|DCode=158|XSize=3.0032mm|YSize=2.4032mm|CornerRadius=1.1026mm|HoleSize=0mm|Usage=FLASHONLY|Rotation=270.000|XOffset=0mm|YOffset=0mm|HoleType=Round|Shape=RoundedRectangle|*
%AMROUNDEDRECTD158*
21,1,3.0032,0.1980,0,0,270.0*
21,1,0.7980,2.4032,0,0,270.0*
1,1,2.2052,-0.0990,-0.3990*
1,1,2.2052,-0.0990,0.3990*
1,1,2.2052,0.0990,0.3990*
1,1,2.2052,0.0990,-0.3990*
%
%ADD158ROUNDEDRECTD158*%
G36*
X630000Y712952D02*
X629972Y712258D01*
X629917Y711619D01*
X629861Y711008D01*
X629806Y710453D01*
X629722Y709926D01*
X629639Y709454D01*
X629556Y709009D01*
X629473Y708649D01*
X629389Y708315D01*
X629306Y708038D01*
X629250Y707788D01*
X629195Y707621D01*
X629139Y707483D01*
X629112Y707399D01*
Y707371D01*
X628723Y706566D01*
X628251Y705844D01*
X627779Y705206D01*
X627279Y704706D01*
X627057Y704484D01*
X626835Y704290D01*
X626641Y704123D01*
X626474Y704012D01*
X626335Y703901D01*
X626224Y703818D01*
X626169Y703790D01*
X626141Y703762D01*
X625752Y703540D01*
X625364Y703318D01*
X624559Y702985D01*
X623837Y702763D01*
X623143Y702596D01*
X622837Y702541D01*
X622588Y702485D01*
X622338Y702458D01*
X622116D01*
X621949Y702430D01*
X621838D01*
X621755D01*
X621727D01*
X621088Y702485D01*
X620505Y702596D01*
X619978Y702791D01*
X619506Y702985D01*
X619117Y703179D01*
X618840Y703374D01*
X618728Y703429D01*
X618645Y703485D01*
X618618Y703540D01*
X618590D01*
X618118Y703984D01*
X617701Y704484D01*
X617368Y705012D01*
X617118Y705484D01*
X616924Y705928D01*
X616841Y706122D01*
X616785Y706289D01*
X616730Y706428D01*
X616702Y706539D01*
X616674Y706594D01*
Y706622D01*
X616508Y706178D01*
X616341Y705761D01*
X616147Y705373D01*
X615952Y705012D01*
X615758Y704678D01*
X615564Y704373D01*
X615369Y704096D01*
X615203Y703873D01*
X615008Y703651D01*
X614842Y703457D01*
X614703Y703318D01*
X614564Y703179D01*
X614453Y703096D01*
X614370Y703013D01*
X614342Y702957D01*
X614314D01*
X614009Y702735D01*
X613704Y702569D01*
X613065Y702263D01*
X612454Y702041D01*
X611871Y701902D01*
X611344Y701819D01*
X611149Y701791D01*
X610955D01*
X610788Y701764D01*
X610677D01*
X610622D01*
X610594D01*
X610011Y701791D01*
X609484Y701874D01*
X608984Y701986D01*
X608568Y702097D01*
X608207Y702235D01*
X607929Y702346D01*
X607762Y702430D01*
X607735Y702458D01*
X607707D01*
X607235Y702735D01*
X606819Y703068D01*
X606485Y703401D01*
X606180Y703707D01*
X605930Y704012D01*
X605764Y704234D01*
X605653Y704401D01*
X605625Y704429D01*
Y704456D01*
X605347Y704956D01*
X605125Y705511D01*
X604931Y706039D01*
X604792Y706539D01*
X604681Y706983D01*
X604653Y707177D01*
X604625Y707344D01*
X604598Y707455D01*
X604570Y707566D01*
Y707649D01*
X604542Y707871D01*
X604514Y708149D01*
X604459Y708760D01*
X604431Y709426D01*
X604403Y710064D01*
X604375Y710675D01*
Y720420D01*
X630000Y725750D01*
Y712952D01*
D02*
G37*
G36*
Y694629D02*
X620228Y692602D01*
Y688049D01*
X620200Y687522D01*
Y686633D01*
X620172Y686272D01*
Y685911D01*
X620144Y685634D01*
X620117Y685356D01*
Y685162D01*
X620089Y684967D01*
Y684717D01*
X620061Y684634D01*
Y684579D01*
X619922Y683829D01*
X619784Y683135D01*
X619645Y682580D01*
X619506Y682080D01*
X619395Y681691D01*
X619284Y681414D01*
X619256Y681330D01*
X619228Y681247D01*
X619201Y681192D01*
X618978Y680720D01*
X618701Y680275D01*
X618423Y679887D01*
X618145Y679526D01*
X617923Y679248D01*
X617729Y679026D01*
X617590Y678887D01*
X617535Y678832D01*
X617091Y678443D01*
X616619Y678082D01*
X616119Y677777D01*
X615647Y677499D01*
X615230Y677305D01*
X615036Y677194D01*
X614897Y677138D01*
X614758Y677083D01*
X614675Y677027D01*
X614620Y677000D01*
X614592D01*
X613898Y676750D01*
X613232Y676555D01*
X612593Y676417D01*
X612010Y676305D01*
X611538Y676250D01*
X611316D01*
X611149Y676222D01*
X611011D01*
X610900D01*
X610844D01*
X610816D01*
X610067Y676250D01*
X609373Y676361D01*
X608762Y676528D01*
X608234Y676694D01*
X607818Y676889D01*
X607651Y676972D01*
X607513Y677027D01*
X607374Y677111D01*
X607290Y677138D01*
X607263Y677194D01*
X607235D01*
X606707Y677583D01*
X606236Y677999D01*
X605875Y678416D01*
X605569Y678832D01*
X605319Y679193D01*
X605181Y679470D01*
X605125Y679582D01*
X605070Y679665D01*
X605042Y679720D01*
Y679748D01*
X604820Y680387D01*
X604653Y681108D01*
X604542Y681830D01*
X604459Y682552D01*
X604431Y682857D01*
X604403Y683163D01*
Y683440D01*
X604375Y683662D01*
Y694573D01*
X630000Y699903D01*
Y694629D01*
D02*
G37*
G36*
X620422Y674057D02*
X621338Y673973D01*
X622199Y673835D01*
X623004Y673668D01*
X623754Y673474D01*
X624420Y673252D01*
X625031Y673002D01*
X625586Y672752D01*
X626058Y672530D01*
X626474Y672280D01*
X626835Y672058D01*
X627141Y671864D01*
X627363Y671697D01*
X627529Y671558D01*
X627640Y671475D01*
X627668Y671447D01*
X628168Y670920D01*
X628584Y670364D01*
X628973Y669781D01*
X629278Y669171D01*
X629556Y668560D01*
X629778Y667949D01*
X629972Y667366D01*
X630111Y666783D01*
X630250Y666228D01*
X630333Y665728D01*
X630389Y665256D01*
X630416Y664867D01*
X630444Y664534D01*
X630472Y664285D01*
Y664090D01*
X630444Y663313D01*
X630361Y662591D01*
X630250Y661869D01*
X630111Y661203D01*
X629944Y660564D01*
X629750Y659954D01*
X629556Y659398D01*
X629334Y658899D01*
X629139Y658427D01*
X628945Y658010D01*
X628751Y657677D01*
X628584Y657372D01*
X628418Y657122D01*
X628307Y656955D01*
X628251Y656844D01*
X628223Y656816D01*
X627779Y656261D01*
X627279Y655734D01*
X626780Y655234D01*
X626224Y654762D01*
X625669Y654346D01*
X625142Y653957D01*
X624586Y653624D01*
X624059Y653291D01*
X623559Y653041D01*
X623115Y652791D01*
X622699Y652597D01*
X622338Y652430D01*
X622032Y652291D01*
X621810Y652208D01*
X621671Y652152D01*
X621616Y652125D01*
X620811Y657427D01*
X621283Y657594D01*
X621727Y657788D01*
X622143Y657982D01*
X622532Y658177D01*
X622893Y658399D01*
X623198Y658621D01*
X623504Y658815D01*
X623754Y659037D01*
X624003Y659232D01*
X624198Y659398D01*
X624364Y659565D01*
X624503Y659704D01*
X624614Y659815D01*
X624697Y659898D01*
X624725Y659954D01*
X624753Y659981D01*
X624975Y660314D01*
X625169Y660620D01*
X625503Y661286D01*
X625725Y661897D01*
X625891Y662480D01*
X625975Y662980D01*
X626030Y663202D01*
Y663368D01*
X626058Y663535D01*
Y663729D01*
X626030Y664118D01*
X625975Y664507D01*
X625891Y664867D01*
X625808Y665228D01*
X625530Y665839D01*
X625225Y666394D01*
X625058Y666617D01*
X624920Y666811D01*
X624781Y666977D01*
X624642Y667116D01*
X624559Y667255D01*
X624475Y667338D01*
X624420Y667366D01*
X624392Y667394D01*
X624059Y667644D01*
X623698Y667866D01*
X623337Y668088D01*
X622948Y668254D01*
X622143Y668504D01*
X621394Y668671D01*
X621033Y668754D01*
X620700Y668782D01*
X620422Y668810D01*
X620144Y668838D01*
X619950Y668865D01*
X619784D01*
X619672D01*
X619645D01*
X618590Y668810D01*
X617562Y668699D01*
X616619Y668504D01*
X616174Y668421D01*
X615758Y668310D01*
X615397Y668199D01*
X615036Y668116D01*
X614758Y668005D01*
X614481Y667921D01*
X614287Y667866D01*
X614148Y667810D01*
X614037Y667755D01*
X614009D01*
X613481Y667533D01*
X613009Y667311D01*
X612565Y667061D01*
X612149Y666811D01*
X611788Y666561D01*
X611455Y666283D01*
X611149Y666061D01*
X610872Y665811D01*
X610622Y665589D01*
X610428Y665395D01*
X610233Y665201D01*
X610094Y665034D01*
X609983Y664923D01*
X609900Y664812D01*
X609872Y664756D01*
X609845Y664729D01*
X609622Y664368D01*
X609400Y664007D01*
X609067Y663285D01*
X608845Y662619D01*
X608679Y661980D01*
X608623Y661703D01*
X608568Y661453D01*
X608540Y661203D01*
Y661009D01*
X608512Y660870D01*
Y660648D01*
X608568Y659954D01*
X608679Y659315D01*
X608845Y658788D01*
X609012Y658316D01*
X609206Y657955D01*
X609373Y657705D01*
X609484Y657538D01*
X609539Y657483D01*
X609734Y657261D01*
X609956Y657066D01*
X610455Y656733D01*
X610983Y656428D01*
X611510Y656206D01*
X612010Y656039D01*
X612204Y655984D01*
X612399Y655928D01*
X612538Y655900D01*
X612649Y655873D01*
X612732Y655845D01*
X612760D01*
X612288Y650792D01*
X611594Y650903D01*
X610927Y651070D01*
X610289Y651236D01*
X609706Y651458D01*
X609178Y651708D01*
X608679Y651958D01*
X608207Y652236D01*
X607790Y652486D01*
X607429Y652763D01*
X607124Y653013D01*
X606846Y653235D01*
X606624Y653429D01*
X606430Y653596D01*
X606319Y653735D01*
X606236Y653818D01*
X606208Y653846D01*
X605819Y654346D01*
X605458Y654873D01*
X605153Y655401D01*
X604903Y655984D01*
X604681Y656539D01*
X604514Y657094D01*
X604348Y657649D01*
X604237Y658149D01*
X604153Y658649D01*
X604070Y659121D01*
X604015Y659509D01*
X603987Y659870D01*
Y660176D01*
X603959Y660370D01*
Y660564D01*
X603987Y661258D01*
X604042Y661925D01*
X604126Y662563D01*
X604264Y663202D01*
X604403Y663785D01*
X604570Y664368D01*
X604736Y664895D01*
X604931Y665367D01*
X605097Y665811D01*
X605292Y666228D01*
X605458Y666561D01*
X605597Y666866D01*
X605736Y667116D01*
X605819Y667283D01*
X605875Y667394D01*
X605902Y667422D01*
X606291Y668005D01*
X606680Y668532D01*
X607124Y669032D01*
X607568Y669504D01*
X608040Y669948D01*
X608512Y670364D01*
X608956Y670725D01*
X609400Y671059D01*
X609817Y671336D01*
X610205Y671614D01*
X610539Y671836D01*
X610844Y672002D01*
X611094Y672141D01*
X611288Y672252D01*
X611399Y672308D01*
X611455Y672336D01*
X612149Y672641D01*
X612843Y672918D01*
X613537Y673141D01*
X614231Y673335D01*
X614897Y673502D01*
X615564Y673668D01*
X616202Y673779D01*
X616813Y673863D01*
X617368Y673946D01*
X617868Y674001D01*
X618312Y674029D01*
X618701Y674057D01*
X619034Y674085D01*
X619256D01*
X619395D01*
X619450D01*
X620422Y674057D01*
D02*
G37*
G36*
X630000Y634884D02*
X618534Y632497D01*
Y622586D01*
X630000Y624973D01*
Y619698D01*
X604375Y614368D01*
Y619643D01*
X614259Y621697D01*
Y631608D01*
X604375Y629554D01*
Y634829D01*
X630000Y640159D01*
Y634884D01*
D02*
G37*
G36*
Y610815D02*
X624337Y607733D01*
Y597600D01*
X630000Y596739D01*
Y591742D01*
X604375Y595906D01*
Y601819D01*
X630000Y616256D01*
Y610815D01*
D02*
G37*
G36*
Y570087D02*
X625725Y569199D01*
Y582219D01*
X604375Y577777D01*
Y583052D01*
X630000Y588383D01*
Y570087D01*
D02*
G37*
G36*
Y548238D02*
X625725Y547350D01*
Y560371D01*
X604375Y555929D01*
Y561203D01*
X630000Y566534D01*
Y548238D01*
D02*
G37*
G36*
Y530165D02*
X608595Y526112D01*
X630000Y525168D01*
Y520171D01*
X608762Y510676D01*
X630000Y515090D01*
Y510315D01*
X604375Y505679D01*
Y513230D01*
X622032Y521281D01*
X604375Y522086D01*
Y529582D01*
X630000Y534940D01*
Y530165D01*
D02*
G37*
G36*
Y485052D02*
X625725Y484136D01*
Y499072D01*
X618756Y497545D01*
Y484163D01*
X614481Y483275D01*
Y496601D01*
X608651Y495324D01*
Y481609D01*
X604375Y480721D01*
Y499738D01*
X630000Y505068D01*
Y485052D01*
D02*
G37*
G36*
X608651Y470865D02*
X630000Y475335D01*
Y470060D01*
X608651Y465590D01*
Y458206D01*
X604375Y457345D01*
Y477500D01*
X608651Y478361D01*
Y470865D01*
D02*
G37*
G36*
X630000Y439327D02*
X625725Y438411D01*
Y453347D01*
X618756Y451820D01*
Y438439D01*
X614481Y437551D01*
Y450877D01*
X608651Y449599D01*
Y435885D01*
X604375Y434996D01*
X604375Y454014D01*
X630000Y459344D01*
Y439327D01*
D02*
G37*
G36*
X630000Y430083D02*
X619395Y427889D01*
Y425724D01*
X619423Y425085D01*
X619478Y424530D01*
X619561Y424086D01*
X619645Y423725D01*
X619756Y423447D01*
X619839Y423253D01*
X619895Y423142D01*
X619922Y423114D01*
X620089Y422892D01*
X620311Y422670D01*
X620811Y422254D01*
X621366Y421865D01*
X621921Y421504D01*
X622421Y421226D01*
X622643Y421115D01*
X622865Y421032D01*
X623032Y420949D01*
X623143Y420893D01*
X623226Y420838D01*
X623254D01*
X624087Y420477D01*
X624864Y420144D01*
X625586Y419838D01*
X626252Y419561D01*
X626835Y419339D01*
X627390Y419117D01*
X627890Y418922D01*
X628334Y418728D01*
X628723Y418589D01*
X629084Y418478D01*
X629361Y418367D01*
X629584Y418284D01*
X629778Y418228D01*
X629889Y418173D01*
X629972Y418145D01*
X630000D01*
Y412481D01*
X629001Y412898D01*
X628057Y413286D01*
X627196Y413647D01*
X626363Y414008D01*
X625614Y414369D01*
X624920Y414702D01*
X624281Y415008D01*
X623726Y415285D01*
X623198Y415535D01*
X622782Y415757D01*
X622393Y415952D01*
X622088Y416118D01*
X621838Y416257D01*
X621671Y416340D01*
X621560Y416396D01*
X621533Y416424D01*
X621005Y416757D01*
X620533Y417090D01*
X620117Y417423D01*
X619756Y417701D01*
X619478Y417978D01*
X619284Y418173D01*
X619145Y418284D01*
X619117Y418339D01*
X619006Y417617D01*
X618867Y416951D01*
X618701Y416312D01*
X618507Y415729D01*
X618284Y415202D01*
X618062Y414702D01*
X617840Y414286D01*
X617618Y413870D01*
X617396Y413536D01*
X617202Y413231D01*
X617007Y412981D01*
X616841Y412759D01*
X616702Y412592D01*
X616591Y412481D01*
X616535Y412426D01*
X616508Y412398D01*
X616091Y412037D01*
X615647Y411759D01*
X615203Y411482D01*
X614759Y411260D01*
X614314Y411065D01*
X613842Y410899D01*
X613426Y410788D01*
X613009Y410677D01*
X612593Y410593D01*
X612232Y410538D01*
X611927Y410482D01*
X611649Y410455D01*
X611399Y410427D01*
X611233D01*
X611122D01*
X611094D01*
X610261Y410482D01*
X609511Y410593D01*
X608873Y410760D01*
X608290Y410927D01*
X608040Y411038D01*
X607846Y411121D01*
X607651Y411204D01*
X607485Y411288D01*
X607374Y411371D01*
X607290Y411399D01*
X607235Y411454D01*
X607207D01*
X606652Y411843D01*
X606180Y412287D01*
X605791Y412731D01*
X605486Y413148D01*
X605264Y413508D01*
X605097Y413814D01*
X605042Y413925D01*
X605014Y414008D01*
X604986Y414064D01*
Y414092D01*
X604875Y414397D01*
X604792Y414758D01*
X604625Y415480D01*
X604514Y416229D01*
X604459Y416979D01*
X604431Y417312D01*
X604403Y417617D01*
Y417923D01*
X604375Y418145D01*
Y430027D01*
X630000Y435357D01*
X630000Y430083D01*
D02*
G37*
G36*
X622477Y388911D02*
X623198Y388856D01*
X623892Y388745D01*
X624531Y388634D01*
X625114Y388467D01*
X625641Y388301D01*
X626141Y388134D01*
X626558Y387940D01*
X626946Y387745D01*
X627279Y387579D01*
X627557Y387412D01*
X627807Y387245D01*
X627973Y387135D01*
X628112Y387023D01*
X628195Y386968D01*
X628223Y386940D01*
X628612Y386551D01*
X628973Y386135D01*
X629278Y385719D01*
X629528Y385274D01*
X629750Y384830D01*
X629917Y384414D01*
X630083Y383997D01*
X630194Y383609D01*
X630278Y383220D01*
X630361Y382887D01*
X630389Y382554D01*
X630444Y382304D01*
Y382082D01*
X630472Y381915D01*
Y381776D01*
X630444Y381193D01*
X630361Y380638D01*
X630250Y380111D01*
X630111Y379583D01*
X629917Y379111D01*
X629722Y378639D01*
X629528Y378223D01*
X629306Y377806D01*
X629084Y377473D01*
X628890Y377140D01*
X628667Y376862D01*
X628501Y376640D01*
X628362Y376446D01*
X628251Y376307D01*
X628168Y376224D01*
X628140Y376196D01*
X627668Y375752D01*
X627168Y375308D01*
X626641Y374891D01*
X626113Y374530D01*
X625558Y374170D01*
X624975Y373836D01*
X624448Y373531D01*
X623892Y373281D01*
X623393Y373031D01*
X622921Y372809D01*
X622504Y372643D01*
X622143Y372504D01*
X621838Y372365D01*
X621616Y372282D01*
X621477Y372254D01*
X621422Y372226D01*
X620616Y371976D01*
X619811Y371726D01*
X619034Y371532D01*
X618257Y371366D01*
X617535Y371227D01*
X616869Y371116D01*
X616202Y371005D01*
X615619Y370949D01*
X615064Y370866D01*
X614564Y370838D01*
X614148Y370810D01*
X613787Y370783D01*
X613481Y370755D01*
X613259D01*
X613148D01*
X613093D01*
X612315Y370783D01*
X611566Y370838D01*
X610900Y370949D01*
X610261Y371060D01*
X609678Y371227D01*
X609123Y371393D01*
X608651Y371588D01*
X608207Y371754D01*
X607818Y371949D01*
X607485Y372143D01*
X607179Y372309D01*
X606957Y372476D01*
X606763Y372587D01*
X606652Y372698D01*
X606569Y372754D01*
X606541Y372781D01*
X606152Y373170D01*
X605791Y373587D01*
X605486Y374003D01*
X605236Y374419D01*
X605014Y374864D01*
X604820Y375280D01*
X604681Y375696D01*
X604542Y376085D01*
X604459Y376446D01*
X604375Y376807D01*
X604320Y377112D01*
X604292Y377362D01*
Y377584D01*
X604264Y377751D01*
Y377890D01*
X604292Y378473D01*
X604375Y379028D01*
X604487Y379555D01*
X604625Y380055D01*
X604820Y380555D01*
X605014Y381027D01*
X605236Y381443D01*
X605458Y381860D01*
X605680Y382220D01*
X605902Y382526D01*
X606097Y382804D01*
X606291Y383053D01*
X606430Y383248D01*
X606541Y383387D01*
X606624Y383470D01*
X606652Y383498D01*
X607124Y383970D01*
X607651Y384386D01*
X608179Y384830D01*
X608762Y385219D01*
X609956Y385913D01*
X610566Y386218D01*
X611122Y386524D01*
X611677Y386773D01*
X612177Y386996D01*
X612649Y387190D01*
X613037Y387329D01*
X613371Y387468D01*
X613620Y387551D01*
X613787Y387606D01*
X613815Y387634D01*
X613842D01*
X614592Y387856D01*
X615314Y388051D01*
X616757Y388384D01*
X617424Y388523D01*
X618090Y388606D01*
X618701Y388717D01*
X619256Y388772D01*
X619784Y388828D01*
X620256Y388856D01*
X620672Y388911D01*
X621033D01*
X621310Y388939D01*
X621533D01*
X621644D01*
X621699D01*
X622477Y388911D01*
D02*
G37*
G36*
X630000Y353570D02*
X625419Y352626D01*
Y361510D01*
X624781Y360983D01*
X624503Y360760D01*
X624253Y360538D01*
X624059Y360344D01*
X623892Y360205D01*
X623781Y360094D01*
X623754Y360066D01*
X623587Y359900D01*
X623393Y359705D01*
X622948Y359261D01*
X622449Y358734D01*
X621977Y358206D01*
X621505Y357734D01*
X621310Y357512D01*
X621144Y357346D01*
X620977Y357179D01*
X620866Y357068D01*
X620811Y356985D01*
X620783Y356957D01*
X620394Y356540D01*
X620006Y356152D01*
X619645Y355791D01*
X619339Y355458D01*
X619034Y355152D01*
X618756Y354875D01*
X618507Y354625D01*
X618257Y354403D01*
X617896Y354042D01*
X617618Y353792D01*
X617452Y353653D01*
X617396Y353598D01*
X616785Y353098D01*
X616202Y352654D01*
X615647Y352293D01*
X615175Y352015D01*
X614786Y351793D01*
X614453Y351627D01*
X614342Y351571D01*
X614259Y351543D01*
X614231Y351516D01*
X614203D01*
X613620Y351293D01*
X613093Y351155D01*
X612565Y351044D01*
X612093Y350960D01*
X611705Y350905D01*
X611399Y350877D01*
X611288D01*
X611205D01*
X611177D01*
X611149D01*
X610594Y350905D01*
X610067Y350960D01*
X609567Y351071D01*
X609123Y351210D01*
X608679Y351349D01*
X608262Y351516D01*
X607901Y351710D01*
X607540Y351904D01*
X607235Y352099D01*
X606985Y352293D01*
X606735Y352459D01*
X606569Y352598D01*
X606402Y352737D01*
X606291Y352848D01*
X606236Y352904D01*
X606208Y352931D01*
X605875Y353320D01*
X605569Y353764D01*
X605319Y354208D01*
X605070Y354680D01*
X604903Y355152D01*
X604736Y355624D01*
X604598Y356069D01*
X604514Y356513D01*
X604431Y356929D01*
X604375Y357318D01*
X604320Y357679D01*
X604292Y357984D01*
X604264Y358234D01*
Y358567D01*
X604292Y359150D01*
X604348Y359733D01*
X604431Y360288D01*
X604570Y360788D01*
X604709Y361260D01*
X604875Y361704D01*
X605042Y362121D01*
X605208Y362509D01*
X605403Y362842D01*
X605569Y363148D01*
X605736Y363398D01*
X605875Y363620D01*
X606013Y363786D01*
X606097Y363898D01*
X606152Y363981D01*
X606180Y364008D01*
X606541Y364397D01*
X606957Y364758D01*
X607374Y365064D01*
X607818Y365341D01*
X608290Y365591D01*
X608734Y365841D01*
X609178Y366035D01*
X609623Y366202D01*
X610039Y366341D01*
X610428Y366452D01*
X610761Y366563D01*
X611066Y366618D01*
X611316Y366702D01*
X611483Y366729D01*
X611621Y366757D01*
X611649D01*
X612371Y361871D01*
X611955Y361788D01*
X611566Y361676D01*
X611205Y361593D01*
X610872Y361482D01*
X610566Y361371D01*
X610317Y361260D01*
X610067Y361149D01*
X609872Y361038D01*
X609539Y360844D01*
X609289Y360677D01*
X609178Y360566D01*
X609123Y360538D01*
X608817Y360205D01*
X608595Y359844D01*
X608429Y359483D01*
X608318Y359150D01*
X608262Y358872D01*
X608207Y358650D01*
Y358456D01*
X608234Y358040D01*
X608318Y357651D01*
X608456Y357346D01*
X608595Y357068D01*
X608762Y356846D01*
X608873Y356679D01*
X608984Y356568D01*
X609012Y356540D01*
X609345Y356291D01*
X609678Y356096D01*
X610039Y355957D01*
X610372Y355846D01*
X610677Y355791D01*
X610900Y355763D01*
X611066D01*
X611094D01*
X611122D01*
X611427Y355791D01*
X611732Y355846D01*
X612038Y355902D01*
X612315Y355985D01*
X612565Y356096D01*
X612760Y356152D01*
X612871Y356207D01*
X612926Y356235D01*
X613315Y356429D01*
X613704Y356679D01*
X614120Y356957D01*
X614481Y357235D01*
X614814Y357484D01*
X615064Y357706D01*
X615230Y357845D01*
X615258Y357873D01*
X615286Y357901D01*
X615453Y358040D01*
X615647Y358234D01*
X615869Y358456D01*
X616091Y358706D01*
X616646Y359233D01*
X617174Y359789D01*
X617674Y360316D01*
X617924Y360566D01*
X618118Y360760D01*
X618284Y360927D01*
X618395Y361066D01*
X618479Y361149D01*
X618507Y361177D01*
X619090Y361788D01*
X619645Y362371D01*
X620172Y362870D01*
X620616Y363342D01*
X621061Y363786D01*
X621449Y364175D01*
X621810Y364508D01*
X622116Y364814D01*
X622393Y365091D01*
X622615Y365313D01*
X622810Y365480D01*
X622976Y365647D01*
X623087Y365758D01*
X623171Y365841D01*
X623226Y365869D01*
X623254Y365896D01*
X623809Y366368D01*
X624364Y366785D01*
X624920Y367146D01*
X625392Y367451D01*
X625836Y367701D01*
X626002Y367812D01*
X626141Y367895D01*
X626280Y367979D01*
X626363Y368034D01*
X626419Y368062D01*
X626446D01*
X627085Y368367D01*
X627724Y368589D01*
X628307Y368784D01*
X628862Y368923D01*
X629334Y369034D01*
X629528Y369061D01*
X629695Y369089D01*
X629806Y369117D01*
X629917Y369145D01*
X629972D01*
X630000D01*
Y353570D01*
D02*
G37*
G36*
Y344825D02*
X625169Y343853D01*
Y348823D01*
X630000Y349794D01*
Y344825D01*
D02*
G37*
G36*
Y323726D02*
X625419Y322782D01*
Y331666D01*
X624781Y331138D01*
X624503Y330916D01*
X624253Y330694D01*
X624059Y330500D01*
X623892Y330361D01*
X623781Y330250D01*
X623754Y330222D01*
X623587Y330055D01*
X623393Y329861D01*
X622948Y329417D01*
X622449Y328889D01*
X621977Y328362D01*
X621505Y327890D01*
X621310Y327668D01*
X621144Y327501D01*
X620977Y327335D01*
X620866Y327224D01*
X620811Y327140D01*
X620783Y327113D01*
X620394Y326696D01*
X620006Y326307D01*
X619645Y325947D01*
X619339Y325613D01*
X619034Y325308D01*
X618756Y325030D01*
X618507Y324781D01*
X618257Y324558D01*
X617896Y324198D01*
X617618Y323948D01*
X617452Y323809D01*
X617396Y323753D01*
X616785Y323254D01*
X616202Y322809D01*
X615647Y322449D01*
X615175Y322171D01*
X614786Y321949D01*
X614453Y321782D01*
X614342Y321727D01*
X614259Y321699D01*
X614231Y321671D01*
X614203D01*
X613620Y321449D01*
X613093Y321310D01*
X612565Y321199D01*
X612093Y321116D01*
X611705Y321060D01*
X611399Y321033D01*
X611288D01*
X611205D01*
X611177D01*
X611149D01*
X610594Y321060D01*
X610067Y321116D01*
X609567Y321227D01*
X609123Y321366D01*
X608679Y321505D01*
X608262Y321671D01*
X607901Y321866D01*
X607540Y322060D01*
X607235Y322254D01*
X606985Y322449D01*
X606735Y322615D01*
X606569Y322754D01*
X606402Y322893D01*
X606291Y323004D01*
X606236Y323059D01*
X606208Y323087D01*
X605875Y323476D01*
X605569Y323920D01*
X605319Y324364D01*
X605070Y324836D01*
X604903Y325308D01*
X604736Y325780D01*
X604598Y326224D01*
X604514Y326668D01*
X604431Y327085D01*
X604375Y327473D01*
X604320Y327834D01*
X604292Y328140D01*
X604264Y328390D01*
Y328723D01*
X604292Y329306D01*
X604348Y329889D01*
X604431Y330444D01*
X604570Y330944D01*
X604709Y331416D01*
X604875Y331860D01*
X605042Y332276D01*
X605208Y332665D01*
X605403Y332998D01*
X605569Y333303D01*
X605736Y333553D01*
X605875Y333775D01*
X606013Y333942D01*
X606097Y334053D01*
X606152Y334136D01*
X606180Y334164D01*
X606541Y334553D01*
X606957Y334914D01*
X607374Y335219D01*
X607818Y335497D01*
X608290Y335747D01*
X608734Y335997D01*
X609178Y336191D01*
X609623Y336357D01*
X610039Y336496D01*
X610428Y336607D01*
X610761Y336718D01*
X611066Y336774D01*
X611316Y336857D01*
X611483Y336885D01*
X611621Y336913D01*
X611649D01*
X612371Y332026D01*
X611955Y331943D01*
X611566Y331832D01*
X611205Y331749D01*
X610872Y331638D01*
X610566Y331527D01*
X610317Y331416D01*
X610067Y331305D01*
X609872Y331194D01*
X609539Y330999D01*
X609289Y330833D01*
X609178Y330722D01*
X609123Y330694D01*
X608817Y330361D01*
X608595Y330000D01*
X608429Y329639D01*
X608318Y329306D01*
X608262Y329028D01*
X608207Y328806D01*
Y328612D01*
X608234Y328195D01*
X608318Y327807D01*
X608456Y327501D01*
X608595Y327224D01*
X608762Y327001D01*
X608873Y326835D01*
X608984Y326724D01*
X609012Y326696D01*
X609345Y326446D01*
X609678Y326252D01*
X610039Y326113D01*
X610372Y326002D01*
X610677Y325947D01*
X610900Y325919D01*
X611066D01*
X611094D01*
X611122D01*
X611427Y325947D01*
X611732Y326002D01*
X612038Y326058D01*
X612315Y326141D01*
X612565Y326252D01*
X612760Y326307D01*
X612871Y326363D01*
X612926Y326391D01*
X613315Y326585D01*
X613704Y326835D01*
X614120Y327113D01*
X614481Y327390D01*
X614814Y327640D01*
X615064Y327862D01*
X615230Y328001D01*
X615258Y328029D01*
X615286Y328056D01*
X615453Y328195D01*
X615647Y328390D01*
X615869Y328612D01*
X616091Y328862D01*
X616646Y329389D01*
X617174Y329944D01*
X617674Y330472D01*
X617924Y330722D01*
X618118Y330916D01*
X618284Y331083D01*
X618395Y331221D01*
X618479Y331305D01*
X618507Y331332D01*
X619090Y331943D01*
X619645Y332526D01*
X620172Y333026D01*
X620616Y333498D01*
X621061Y333942D01*
X621449Y334331D01*
X621810Y334664D01*
X622116Y334969D01*
X622393Y335247D01*
X622615Y335469D01*
X622810Y335636D01*
X622976Y335802D01*
X623087Y335913D01*
X623171Y335997D01*
X623226Y336024D01*
X623254Y336052D01*
X623809Y336524D01*
X624364Y336940D01*
X624920Y337301D01*
X625392Y337607D01*
X625836Y337857D01*
X626002Y337968D01*
X626141Y338051D01*
X626280Y338134D01*
X626363Y338190D01*
X626419Y338218D01*
X626446D01*
X627085Y338523D01*
X627724Y338745D01*
X628307Y338939D01*
X628862Y339078D01*
X629334Y339189D01*
X629528Y339217D01*
X629695Y339245D01*
X629806Y339272D01*
X629917Y339300D01*
X629972D01*
X630000D01*
Y323726D01*
D02*
G37*
G36*
X621949Y318645D02*
X622532Y318590D01*
X623060Y318534D01*
X623559Y318451D01*
X624003Y318395D01*
X624420Y318312D01*
X624809Y318201D01*
X625142Y318118D01*
X625447Y318034D01*
X625697Y317979D01*
X625891Y317896D01*
X626058Y317840D01*
X626197Y317785D01*
X626252Y317757D01*
X626280D01*
X627002Y317368D01*
X627640Y316952D01*
X628168Y316507D01*
X628612Y316063D01*
X628973Y315675D01*
X629223Y315369D01*
X629306Y315258D01*
X629361Y315175D01*
X629417Y315119D01*
Y315091D01*
X629778Y314425D01*
X630028Y313759D01*
X630222Y313093D01*
X630333Y312510D01*
X630389Y312232D01*
X630416Y311982D01*
X630444Y311760D01*
Y311566D01*
X630472Y311427D01*
Y311205D01*
X630416Y310372D01*
X630305Y309595D01*
X630111Y308901D01*
X629917Y308262D01*
X629806Y307984D01*
X629722Y307735D01*
X629611Y307512D01*
X629528Y307318D01*
X629473Y307179D01*
X629417Y307068D01*
X629361Y307013D01*
Y306985D01*
X629139Y306624D01*
X628890Y306263D01*
X628307Y305597D01*
X627724Y305014D01*
X627141Y304542D01*
X626585Y304125D01*
X626363Y303987D01*
X626169Y303848D01*
X625975Y303737D01*
X625863Y303654D01*
X625780Y303626D01*
X625752Y303598D01*
X625280Y303348D01*
X624809Y303154D01*
X624337Y302959D01*
X623865Y302821D01*
X622976Y302571D01*
X622560Y302488D01*
X622171Y302404D01*
X621810Y302349D01*
X621477Y302321D01*
X621199Y302265D01*
X620950D01*
X620755Y302238D01*
X620589D01*
X620505D01*
X620478D01*
X619839Y302265D01*
X619228Y302321D01*
X618673Y302404D01*
X618146Y302543D01*
X617646Y302682D01*
X617202Y302848D01*
X616785Y303015D01*
X616396Y303209D01*
X616063Y303376D01*
X615786Y303570D01*
X615536Y303737D01*
X615314Y303876D01*
X615175Y304014D01*
X615036Y304098D01*
X614981Y304153D01*
X614953Y304181D01*
X614592Y304542D01*
X614287Y304931D01*
X614009Y305347D01*
X613759Y305763D01*
X613565Y306152D01*
X613398Y306569D01*
X613259Y306957D01*
X613148Y307346D01*
X613065Y307707D01*
X613009Y308012D01*
X612954Y308318D01*
X612926Y308567D01*
X612898Y308790D01*
Y309067D01*
X612954Y309733D01*
X613065Y310372D01*
X613232Y310983D01*
X613426Y311483D01*
X613648Y311927D01*
X613731Y312093D01*
X613815Y312260D01*
X613870Y312371D01*
X613926Y312454D01*
X613981Y312510D01*
Y312537D01*
X613398Y312371D01*
X612843Y312204D01*
X612343Y312010D01*
X611871Y311816D01*
X611455Y311621D01*
X611066Y311427D01*
X610733Y311233D01*
X610428Y311066D01*
X610150Y310900D01*
X609928Y310733D01*
X609734Y310594D01*
X609567Y310483D01*
X609456Y310372D01*
X609345Y310289D01*
X609317Y310261D01*
X609289Y310233D01*
X608956Y309844D01*
X608706Y309456D01*
X608512Y309067D01*
X608401Y308706D01*
X608318Y308401D01*
X608290Y308179D01*
X608262Y308012D01*
Y307957D01*
X608290Y307596D01*
X608373Y307290D01*
X608456Y307013D01*
X608568Y306791D01*
X608706Y306624D01*
X608790Y306485D01*
X608873Y306402D01*
X608901Y306374D01*
X609178Y306180D01*
X609484Y306013D01*
X609845Y305875D01*
X610178Y305791D01*
X610511Y305708D01*
X610761Y305652D01*
X610872D01*
X610955Y305625D01*
X610983D01*
X611011D01*
X610650Y300933D01*
X610067Y301016D01*
X609511Y301127D01*
X609012Y301266D01*
X608540Y301432D01*
X608096Y301599D01*
X607707Y301766D01*
X607346Y301960D01*
X607041Y302127D01*
X606763Y302321D01*
X606513Y302488D01*
X606319Y302626D01*
X606152Y302765D01*
X606013Y302876D01*
X605930Y302959D01*
X605875Y303015D01*
X605847Y303043D01*
X605569Y303376D01*
X605319Y303737D01*
X605125Y304098D01*
X604931Y304459D01*
X604764Y304847D01*
X604653Y305236D01*
X604459Y305958D01*
X604403Y306291D01*
X604348Y306596D01*
X604320Y306874D01*
X604292Y307124D01*
X604264Y307318D01*
Y308068D01*
X604320Y308512D01*
X604459Y309373D01*
X604709Y310205D01*
X605014Y310955D01*
X605375Y311677D01*
X605791Y312343D01*
X606208Y312954D01*
X606652Y313481D01*
X607124Y313981D01*
X607540Y314425D01*
X607957Y314786D01*
X608318Y315091D01*
X608623Y315341D01*
X608873Y315508D01*
X609012Y315619D01*
X609039Y315647D01*
X609067D01*
X609983Y316174D01*
X610955Y316646D01*
X611927Y317063D01*
X612926Y317396D01*
X613898Y317701D01*
X614870Y317923D01*
X615813Y318145D01*
X616702Y318284D01*
X617535Y318423D01*
X618312Y318506D01*
X618978Y318590D01*
X619589Y318617D01*
X619839Y318645D01*
X620061D01*
X620256Y318673D01*
X620422D01*
X620561D01*
X620644D01*
X620700D01*
X620727D01*
X621366D01*
X621949Y318645D01*
D02*
G37*
%LPC*%
G36*
X625863Y719615D02*
X619173Y718226D01*
Y711536D01*
X619201Y711147D01*
X619256Y710814D01*
X619311Y710509D01*
X619423Y709953D01*
X619589Y709537D01*
X619728Y709204D01*
X619867Y708982D01*
X619978Y708843D01*
X620006Y708787D01*
X620339Y708454D01*
X620672Y708232D01*
X621033Y708065D01*
X621366Y707927D01*
X621671Y707871D01*
X621893Y707843D01*
X622060Y707816D01*
X622088D01*
X622116D01*
X622504Y707843D01*
X622865Y707927D01*
X623198Y708038D01*
X623504Y708149D01*
X623754Y708260D01*
X623948Y708371D01*
X624059Y708454D01*
X624114Y708482D01*
X624448Y708760D01*
X624725Y709037D01*
X624947Y709342D01*
X625142Y709620D01*
X625280Y709870D01*
X625392Y710064D01*
X625447Y710203D01*
X625475Y710259D01*
X625530Y710481D01*
X625614Y710758D01*
X625641Y711064D01*
X625697Y711369D01*
X625780Y712091D01*
X625808Y712813D01*
X625836Y713146D01*
Y713479D01*
X625863Y713757D01*
Y719615D01*
D02*
G37*
G36*
X614703Y717282D02*
X608651Y716033D01*
Y710842D01*
X608679Y710564D01*
Y710092D01*
X608706Y709870D01*
Y709704D01*
X608734Y709454D01*
Y709259D01*
X608762Y709176D01*
Y709148D01*
X608873Y708787D01*
X608984Y708454D01*
X609123Y708204D01*
X609262Y707982D01*
X609400Y707788D01*
X609511Y707677D01*
X609595Y707594D01*
X609622Y707566D01*
X609872Y707371D01*
X610122Y707233D01*
X610400Y707122D01*
X610650Y707066D01*
X610872Y707010D01*
X611038Y706983D01*
X611149D01*
X611205D01*
X611566Y707010D01*
X611927Y707066D01*
X612232Y707177D01*
X612510Y707288D01*
X612760Y707399D01*
X612926Y707510D01*
X613065Y707566D01*
X613093Y707594D01*
X613398Y707843D01*
X613648Y708121D01*
X613870Y708399D01*
X614037Y708704D01*
X614175Y708954D01*
X614259Y709176D01*
X614314Y709315D01*
X614342Y709342D01*
Y709370D01*
X614398Y709620D01*
X614453Y709870D01*
X614536Y710481D01*
X614620Y711119D01*
X614647Y711786D01*
X614675Y712369D01*
X614703Y712618D01*
Y717282D01*
D02*
G37*
G36*
X615952Y691714D02*
X608595Y690159D01*
Y685495D01*
X608623Y685134D01*
X608651Y684801D01*
Y684495D01*
X608679Y684218D01*
X608706Y683968D01*
X608734Y683774D01*
X608762Y683607D01*
X608790Y683440D01*
X608817Y683246D01*
X608873Y683107D01*
Y683080D01*
X608984Y682802D01*
X609123Y682580D01*
X609262Y682385D01*
X609428Y682219D01*
X609539Y682080D01*
X609650Y681997D01*
X609734Y681941D01*
X609761Y681914D01*
X609983Y681775D01*
X610233Y681664D01*
X610483Y681608D01*
X610733Y681553D01*
X610927Y681525D01*
X611094Y681497D01*
X611233D01*
X611260D01*
X611760Y681525D01*
X612232Y681608D01*
X612649Y681747D01*
X613037Y681886D01*
X613343Y682052D01*
X613592Y682163D01*
X613731Y682274D01*
X613787Y682302D01*
X614175Y682635D01*
X614536Y682996D01*
X614814Y683357D01*
X615036Y683718D01*
X615230Y684023D01*
X615341Y684301D01*
X615425Y684468D01*
X615453Y684495D01*
Y684523D01*
X615536Y684801D01*
X615619Y685162D01*
X615675Y685550D01*
X615730Y685967D01*
X615841Y686883D01*
X615897Y687827D01*
Y688271D01*
X615924Y688688D01*
Y689076D01*
X615952Y689409D01*
Y691714D01*
D02*
G37*
G36*
X620061Y605373D02*
X609761Y599737D01*
X620061Y598238D01*
Y605373D01*
D02*
G37*
G36*
X615564Y427084D02*
X608651Y425641D01*
Y419422D01*
X608679Y419033D01*
Y418700D01*
X608706Y418367D01*
X608762Y418089D01*
X608790Y417867D01*
X608817Y417645D01*
X608873Y417451D01*
X608956Y417145D01*
X609012Y416951D01*
X609067Y416840D01*
X609095Y416812D01*
X609373Y416424D01*
X609706Y416146D01*
X610067Y415952D01*
X610400Y415813D01*
X610705Y415729D01*
X610955Y415702D01*
X611122Y415674D01*
X611149D01*
X611177D01*
X611621Y415702D01*
X612038Y415785D01*
X612426Y415924D01*
X612787Y416063D01*
X613065Y416229D01*
X613287Y416340D01*
X613426Y416451D01*
X613481Y416479D01*
X613870Y416785D01*
X614176Y417145D01*
X614453Y417506D01*
X614675Y417839D01*
X614842Y418173D01*
X614981Y418423D01*
X615036Y418589D01*
X615064Y418617D01*
Y418645D01*
X615147Y418922D01*
X615230Y419283D01*
X615286Y419672D01*
X615342Y420116D01*
X615453Y421032D01*
X615508Y421976D01*
Y422448D01*
X615536Y422864D01*
Y423253D01*
X615564Y423586D01*
Y427084D01*
D02*
G37*
G36*
X623060Y384053D02*
X622921D01*
X622810D01*
X622754D01*
X622726D01*
X622227D01*
X621699Y384025D01*
X620616Y383914D01*
X619506Y383747D01*
X618978Y383664D01*
X618451Y383581D01*
X617979Y383498D01*
X617535Y383414D01*
X617146Y383331D01*
X616785Y383248D01*
X616508Y383192D01*
X616286Y383137D01*
X616174Y383109D01*
X616119D01*
X615258Y382887D01*
X614481Y382665D01*
X613759Y382443D01*
X613121Y382220D01*
X612510Y381998D01*
X611982Y381776D01*
X611510Y381582D01*
X611094Y381360D01*
X610705Y381193D01*
X610400Y380999D01*
X610150Y380860D01*
X609928Y380721D01*
X609761Y380610D01*
X609650Y380527D01*
X609595Y380499D01*
X609567Y380471D01*
X609345Y380277D01*
X609123Y380055D01*
X608817Y379639D01*
X608568Y379250D01*
X608429Y378889D01*
X608318Y378556D01*
X608290Y378306D01*
X608262Y378139D01*
Y378084D01*
X608290Y377695D01*
X608401Y377362D01*
X608540Y377057D01*
X608679Y376807D01*
X608845Y376613D01*
X608984Y376446D01*
X609095Y376363D01*
X609123Y376335D01*
X609484Y376113D01*
X609928Y375946D01*
X610372Y375807D01*
X610844Y375724D01*
X611260Y375669D01*
X611594Y375641D01*
X611705D01*
X611816D01*
X611871D01*
X611899D01*
X612371D01*
X612871Y375669D01*
X613898Y375780D01*
X614981Y375919D01*
X615508Y376002D01*
X616008Y376085D01*
X616480Y376196D01*
X616924Y376279D01*
X617313Y376335D01*
X617674Y376418D01*
X617951Y376474D01*
X618173Y376529D01*
X618284Y376557D01*
X618340D01*
X619256Y376779D01*
X620089Y377001D01*
X620866Y377223D01*
X621560Y377445D01*
X622199Y377668D01*
X622754Y377890D01*
X623254Y378084D01*
X623670Y378278D01*
X624059Y378473D01*
X624364Y378639D01*
X624642Y378778D01*
X624836Y378917D01*
X625003Y379028D01*
X625114Y379111D01*
X625169Y379139D01*
X625197Y379167D01*
X625419Y379361D01*
X625614Y379583D01*
X625947Y380000D01*
X626169Y380444D01*
X626308Y380832D01*
X626419Y381166D01*
X626446Y381415D01*
X626474Y381526D01*
Y381665D01*
X626446Y382054D01*
X626335Y382387D01*
X626197Y382665D01*
X626058Y382915D01*
X625891Y383109D01*
X625780Y383275D01*
X625669Y383359D01*
X625641Y383387D01*
X625475Y383498D01*
X625280Y383609D01*
X624836Y383775D01*
X624364Y383886D01*
X623865Y383970D01*
X623420Y384025D01*
X623226D01*
X623060Y384053D01*
D02*
G37*
G36*
X622837Y313842D02*
X622699D01*
X622588D01*
X622532D01*
X622504D01*
X621893Y313815D01*
X621310Y313759D01*
X620755Y313676D01*
X620283Y313565D01*
X619867Y313481D01*
X619700Y313426D01*
X619561Y313398D01*
X619450Y313370D01*
X619367Y313342D01*
X619312Y313315D01*
X619284D01*
X618729Y313093D01*
X618229Y312843D01*
X617840Y312593D01*
X617507Y312343D01*
X617257Y312121D01*
X617091Y311954D01*
X616979Y311843D01*
X616952Y311788D01*
X616702Y311427D01*
X616508Y311066D01*
X616396Y310733D01*
X616286Y310427D01*
X616230Y310205D01*
X616202Y310011D01*
Y309844D01*
X616230Y309428D01*
X616341Y309067D01*
X616508Y308734D01*
X616674Y308456D01*
X616869Y308234D01*
X617007Y308068D01*
X617118Y307957D01*
X617174Y307929D01*
X617590Y307651D01*
X618035Y307457D01*
X618534Y307318D01*
X619034Y307235D01*
X619450Y307152D01*
X619645D01*
X619811Y307124D01*
X619950D01*
X620061D01*
X620117D01*
X620144D01*
X620700Y307152D01*
X621255Y307179D01*
X621755Y307263D01*
X622227Y307346D01*
X622671Y307457D01*
X623087Y307568D01*
X623448Y307707D01*
X623781Y307818D01*
X624087Y307957D01*
X624364Y308095D01*
X624586Y308207D01*
X624781Y308318D01*
X624920Y308401D01*
X625031Y308484D01*
X625086Y308512D01*
X625114Y308540D01*
X625364Y308734D01*
X625558Y308956D01*
X625752Y309150D01*
X625891Y309373D01*
X626141Y309789D01*
X626308Y310205D01*
X626391Y310539D01*
X626446Y310816D01*
X626474Y310927D01*
Y311066D01*
X626446Y311483D01*
X626335Y311871D01*
X626169Y312232D01*
X626002Y312510D01*
X625836Y312759D01*
X625669Y312926D01*
X625558Y313037D01*
X625530Y313065D01*
X625114Y313315D01*
X624642Y313509D01*
X624142Y313648D01*
X623643Y313731D01*
X623198Y313787D01*
X623004Y313815D01*
X622837Y313842D01*
D02*
G37*
%LPD*%
D23*
X962500Y575000D02*
D03*
Y595000D02*
D03*
D24*
X1299550Y395300D02*
D03*
Y413300D02*
D03*
X1202500Y415750D02*
D03*
Y397750D02*
D03*
X1278750Y206250D02*
D03*
Y188250D02*
D03*
X1111750Y189250D02*
D03*
Y171250D02*
D03*
X1166750Y126250D02*
D03*
Y144250D02*
D03*
X1146750Y126250D02*
D03*
Y144250D02*
D03*
X1170750Y189250D02*
D03*
Y171250D02*
D03*
X1151750Y190250D02*
D03*
Y172250D02*
D03*
X1259800Y148550D02*
D03*
Y166550D02*
D03*
X1239550Y148550D02*
D03*
Y166550D02*
D03*
X1260050Y182550D02*
D03*
Y200550D02*
D03*
X1239550Y182300D02*
D03*
Y200300D02*
D03*
X1300750Y206250D02*
D03*
Y188250D02*
D03*
X1320750Y206250D02*
D03*
Y188250D02*
D03*
X1172750Y209250D02*
D03*
Y227250D02*
D03*
X1200300Y197550D02*
D03*
Y215550D02*
D03*
X1373568Y350819D02*
D03*
Y332819D02*
D03*
X1330000Y320750D02*
D03*
Y338750D02*
D03*
X1354000Y358750D02*
D03*
Y340750D02*
D03*
X1238550Y334300D02*
D03*
Y352300D02*
D03*
X1072500Y449500D02*
D03*
Y467500D02*
D03*
X1110250Y572500D02*
D03*
Y554500D02*
D03*
X1303000Y592000D02*
D03*
Y574000D02*
D03*
X777250Y339500D02*
D03*
Y357500D02*
D03*
X1174800Y410050D02*
D03*
Y428050D02*
D03*
D25*
X1321550Y461800D02*
D03*
X1303550D02*
D03*
X1321550Y440550D02*
D03*
X1303550D02*
D03*
X1324781Y417568D02*
D03*
X1342781D02*
D03*
X537450Y192300D02*
D03*
X519450D02*
D03*
X542000Y294500D02*
D03*
X560000D02*
D03*
X1195750Y160250D02*
D03*
X1213750D02*
D03*
X1335019Y297732D02*
D03*
X1317019D02*
D03*
X1259800Y335050D02*
D03*
X1277800D02*
D03*
X1238050Y315050D02*
D03*
X1256050D02*
D03*
X1238050Y292000D02*
D03*
X1256050D02*
D03*
X1175800Y263550D02*
D03*
X1157800D02*
D03*
X1158550Y305300D02*
D03*
X1176550D02*
D03*
X1157550Y285300D02*
D03*
X1175550D02*
D03*
X742750Y166750D02*
D03*
X760750D02*
D03*
D38*
X1172500Y586750D02*
D03*
X1163000Y614750D02*
D03*
X1172500D02*
D03*
X1182000D02*
D03*
Y586750D02*
D03*
X1163000D02*
D03*
X1392500Y611750D02*
D03*
X1383000Y639750D02*
D03*
X1392500D02*
D03*
X1402000D02*
D03*
Y611750D02*
D03*
X1383000D02*
D03*
D39*
X1289750Y490000D02*
D03*
X1273750D02*
D03*
X521950Y227300D02*
D03*
X537950D02*
D03*
X521950Y212300D02*
D03*
X537950D02*
D03*
X505500Y272500D02*
D03*
X521500D02*
D03*
X505500Y294000D02*
D03*
X521500D02*
D03*
X599500Y258000D02*
D03*
X583500D02*
D03*
X760500Y225750D02*
D03*
X744500D02*
D03*
X760500Y148750D02*
D03*
X744500D02*
D03*
X925550Y76200D02*
D03*
X941550D02*
D03*
X959750Y235750D02*
D03*
X975750D02*
D03*
X960000Y318750D02*
D03*
X976000D02*
D03*
X964460Y305750D02*
D03*
X980460D02*
D03*
X993500Y595000D02*
D03*
X977500D02*
D03*
X1016000Y453500D02*
D03*
X1032000D02*
D03*
X1006250Y466250D02*
D03*
X990250D02*
D03*
X1006250Y482750D02*
D03*
X990250D02*
D03*
X1005750Y508500D02*
D03*
X1021750D02*
D03*
X1083750Y479000D02*
D03*
X1099750D02*
D03*
X1155750Y573250D02*
D03*
X1139750D02*
D03*
X1268750Y633000D02*
D03*
X1252750D02*
D03*
X1285000Y622750D02*
D03*
X1301000D02*
D03*
X1300000Y645750D02*
D03*
X1284000D02*
D03*
X898950Y756800D02*
D03*
X914950D02*
D03*
X957700Y745800D02*
D03*
X973700D02*
D03*
X1262000Y755500D02*
D03*
X1278000D02*
D03*
D41*
X1094500Y724750D02*
D03*
X1086500D02*
D03*
X1078500D02*
D03*
X1070500D02*
D03*
Y707750D02*
D03*
X1078500D02*
D03*
X1086500D02*
D03*
X1094500D02*
D03*
D48*
X753250Y353500D02*
D03*
Y337500D02*
D03*
X755250Y288750D02*
D03*
Y272750D02*
D03*
X830000Y147750D02*
D03*
Y131750D02*
D03*
X880000Y130000D02*
D03*
Y146000D02*
D03*
X940250Y150000D02*
D03*
Y134000D02*
D03*
X963250Y150000D02*
D03*
Y134000D02*
D03*
X944250Y199250D02*
D03*
Y183250D02*
D03*
X940000Y346000D02*
D03*
Y362000D02*
D03*
X875000Y345500D02*
D03*
Y361500D02*
D03*
X874750Y399500D02*
D03*
Y383500D02*
D03*
X985750Y575000D02*
D03*
Y559000D02*
D03*
X1052000Y471950D02*
D03*
Y455950D02*
D03*
X1034750Y493500D02*
D03*
Y477500D02*
D03*
X1065500Y510250D02*
D03*
Y526250D02*
D03*
X1080750Y510250D02*
D03*
Y526250D02*
D03*
X1130550Y553884D02*
D03*
Y537884D02*
D03*
X1274000Y618750D02*
D03*
Y602750D02*
D03*
X1256050Y597550D02*
D03*
Y613550D02*
D03*
X1215550Y609300D02*
D03*
Y625300D02*
D03*
X1236000Y588750D02*
D03*
Y604750D02*
D03*
X1321550Y636050D02*
D03*
Y620050D02*
D03*
X1333250Y664000D02*
D03*
Y648000D02*
D03*
X1255800Y691800D02*
D03*
Y675800D02*
D03*
X944250Y765500D02*
D03*
Y749500D02*
D03*
X825000Y361250D02*
D03*
Y345250D02*
D03*
D51*
X1347550Y579550D02*
D03*
Y608550D02*
D03*
D56*
X1151750Y373500D02*
D03*
X1325000Y248750D02*
D03*
X642000Y178500D02*
D03*
X892500Y558250D02*
D03*
X1350000Y384750D02*
D03*
X1407000Y345750D02*
D03*
X1226000Y439750D02*
D03*
X865000Y558250D02*
D03*
X1020000Y145750D02*
D03*
X1367500Y708250D02*
D03*
X1370000Y670750D02*
D03*
X417500Y338250D02*
D03*
X471000D02*
D03*
X1050000Y68250D02*
D03*
X690000Y245750D02*
D03*
X1289500Y48250D02*
D03*
X1264100D02*
D03*
X1238700D02*
D03*
X1213300D02*
D03*
X1187900D02*
D03*
X1162500D02*
D03*
X1137100D02*
D03*
X1111700D02*
D03*
X831500Y479750D02*
D03*
X863500Y523750D02*
D03*
Y501750D02*
D03*
X831500Y523750D02*
D03*
Y447750D02*
D03*
Y501750D02*
D03*
X863500Y479750D02*
D03*
X676250Y587800D02*
D03*
X650850D02*
D03*
X676250Y562400D02*
D03*
X650850D02*
D03*
X676250Y537000D02*
D03*
X650850D02*
D03*
Y511600D02*
D03*
X676250D02*
D03*
X650850Y486200D02*
D03*
Y638600D02*
D03*
X676250D02*
D03*
X650850Y613200D02*
D03*
X676250D02*
D03*
X1439600Y275050D02*
D03*
Y466850D02*
D03*
Y439450D02*
D03*
Y412050D02*
D03*
Y384650D02*
D03*
Y357250D02*
D03*
X1465000Y453150D02*
D03*
X1439600Y302450D02*
D03*
Y329850D02*
D03*
X1465000Y425750D02*
D03*
Y398350D02*
D03*
Y370950D02*
D03*
Y343550D02*
D03*
Y316150D02*
D03*
Y288750D02*
D03*
X1265750Y558000D02*
D03*
X1216250D02*
D03*
D57*
X872750Y870150D02*
D03*
X847350D02*
D03*
X872750Y927300D02*
D03*
Y908250D02*
D03*
X847350Y889200D02*
D03*
X872750D02*
D03*
X847350Y851100D02*
D03*
X872750D02*
D03*
D58*
X847350Y927300D02*
D03*
Y908250D02*
D03*
D59*
X1050000Y836700D02*
D03*
X1075400Y836750D02*
D03*
X675250Y145250D02*
D03*
X649850Y145200D02*
D03*
X624450Y145250D02*
D03*
D60*
X1024600Y836750D02*
D03*
X700650Y145200D02*
D03*
D61*
X677500Y931000D02*
D03*
D62*
X712500D02*
D03*
X747500D02*
D03*
X782500D02*
D03*
D63*
X450000Y245300D02*
D03*
D64*
X1255050Y419800D02*
D03*
X1246550Y217800D02*
D03*
X1132550Y197050D02*
D03*
D65*
X905000Y500350D02*
D03*
X1436000Y595750D02*
D03*
X1311400Y529750D02*
D03*
X1424500Y692250D02*
D03*
Y737250D02*
D03*
X795400Y841150D02*
D03*
Y790350D02*
D03*
X744600D02*
D03*
Y841150D02*
D03*
X682900Y790350D02*
D03*
X632100D02*
D03*
Y841150D02*
D03*
X682900D02*
D03*
X774300Y626550D02*
D03*
D66*
X905000Y525750D02*
D03*
D67*
X1283800Y174050D02*
D03*
X1171800Y162550D02*
D03*
D68*
X1054500Y487500D02*
D03*
D69*
X863500Y447750D02*
D03*
D70*
X822300Y617650D02*
D03*
X917700Y693850D02*
D03*
D71*
X847700Y617650D02*
D03*
X822300Y693850D02*
D03*
X892300D02*
D03*
X917700Y617650D02*
D03*
D72*
X847700Y693850D02*
D03*
X892300Y617650D02*
D03*
D73*
X676250Y486200D02*
D03*
D74*
X572400Y406350D02*
D03*
X420000Y710750D02*
D03*
X510000D02*
D03*
X458100Y406350D02*
D03*
X450000Y710750D02*
D03*
X480000D02*
D03*
D76*
X1461400Y595750D02*
D03*
X1286000Y529750D02*
D03*
X748900Y626550D02*
D03*
D77*
X1452300Y204450D02*
D03*
Y537450D02*
D03*
D78*
X1399500Y679750D02*
D03*
Y749750D02*
D03*
D79*
X1196260Y900350D02*
D03*
X1206420Y882570D02*
D03*
X1247060D02*
D03*
X1236900Y900350D02*
D03*
X1216580D02*
D03*
X1226740Y882570D02*
D03*
X1186100D02*
D03*
X1175940Y900350D02*
D03*
D80*
X1292526Y891460D02*
D03*
X1130474D02*
D03*
D81*
X1275000Y925750D02*
D03*
X1148000D02*
D03*
D82*
X1390000Y815750D02*
D03*
Y115750D02*
D03*
X540000D02*
D03*
Y815750D02*
D03*
D83*
X1054500Y487500D02*
D03*
X1047000Y480500D02*
D03*
X1062500Y494750D02*
D03*
X1046750Y494250D02*
D03*
X1062250Y480500D02*
D03*
D157*
X1068750Y675500D02*
D03*
X1096750Y685000D02*
D03*
Y675500D02*
D03*
Y666000D02*
D03*
X1068750Y685000D02*
D03*
Y666000D02*
D03*
D158*
X572400Y710750D02*
D03*
M02*
