G04*
G04 #@! TF.GenerationSoftware,Altium Limited,Altium Designer,18.0.12 (696)*
G04*
G04 Layer_Color=39423*
%FSLAX44Y44*%
%MOMM*%
G71*
G01*
G75*
%ADD10C,0.2000*%
%ADD11C,0.2500*%
%ADD12C,0.3000*%
%ADD13C,0.0000*%
%ADD14C,0.5000*%
%ADD15C,0.6000*%
%ADD16C,0.1000*%
%ADD17C,0.2032*%
%ADD18C,0.1524*%
%ADD19C,0.1500*%
%ADD20C,0.0762*%
%ADD21C,0.1270*%
%ADD22R,1.6000X0.5500*%
G36*
X740874Y196345D02*
X738334D01*
Y200155D01*
X740874D01*
Y196345D01*
D02*
G37*
G36*
X775595Y126624D02*
X779405D01*
Y124084D01*
X775595D01*
Y126624D01*
D02*
G37*
G36*
X825595D02*
X829405D01*
Y124084D01*
X825595D01*
Y126624D01*
D02*
G37*
G36*
X740874Y246345D02*
X738334D01*
Y250155D01*
X740874D01*
Y246345D01*
D02*
G37*
G36*
Y296345D02*
X738334D01*
Y300155D01*
X740874D01*
Y296345D01*
D02*
G37*
G36*
X780595Y364876D02*
X784405D01*
Y367416D01*
X780595D01*
Y364876D01*
D02*
G37*
G36*
X830595D02*
X834405D01*
Y367416D01*
X830595D01*
Y364876D01*
D02*
G37*
G36*
X875595Y126624D02*
X879405D01*
Y124084D01*
X875595D01*
Y126624D01*
D02*
G37*
G36*
X925595D02*
X929405D01*
Y124084D01*
X925595D01*
Y126624D01*
D02*
G37*
G36*
X979126Y201345D02*
X981666D01*
Y205155D01*
X979126D01*
Y201345D01*
D02*
G37*
G36*
Y251345D02*
X981666D01*
Y255155D01*
X979126D01*
Y251345D01*
D02*
G37*
G36*
X880595Y364876D02*
X884405D01*
Y367416D01*
X880595D01*
Y364876D01*
D02*
G37*
G36*
X930595D02*
X934405D01*
Y367416D01*
X930595D01*
Y364876D01*
D02*
G37*
G36*
X979126Y301345D02*
X981666D01*
Y305155D01*
X979126D01*
Y301345D01*
D02*
G37*
G36*
X544187Y79763D02*
X544465D01*
X544770Y79735D01*
X545103Y79708D01*
X545492Y79652D01*
X546325Y79541D01*
X547213Y79347D01*
X548102Y79097D01*
X548935Y78736D01*
X548962D01*
X549018Y78681D01*
X549129Y78625D01*
X549296Y78542D01*
X549462Y78431D01*
X549684Y78320D01*
X550128Y77986D01*
X550656Y77598D01*
X551183Y77098D01*
X551655Y76543D01*
X551878Y76265D01*
X552072Y75932D01*
Y75904D01*
X552127Y75849D01*
X552155Y75765D01*
X552238Y75627D01*
X552294Y75488D01*
X552377Y75293D01*
X552571Y74877D01*
X552738Y74377D01*
X552905Y73822D01*
X553016Y73239D01*
X553044Y72628D01*
Y72600D01*
Y72490D01*
Y72323D01*
X553016Y72101D01*
X549712Y71823D01*
Y71879D01*
Y71990D01*
Y72212D01*
X549684Y72434D01*
X549656Y72712D01*
X549629Y72989D01*
X549573Y73267D01*
X549518Y73517D01*
X549490Y73572D01*
X549462Y73711D01*
X549351Y73905D01*
X549240Y74155D01*
X549101Y74433D01*
X548907Y74738D01*
X548685Y75044D01*
X548407Y75321D01*
X548379Y75349D01*
X548268Y75432D01*
X548102Y75571D01*
X547880Y75738D01*
X547602Y75932D01*
X547241Y76126D01*
X546852Y76321D01*
X546381Y76487D01*
X546325Y76515D01*
X546158Y76571D01*
X545881Y76626D01*
X545548Y76737D01*
X545131Y76820D01*
X544632Y76876D01*
X544104Y76931D01*
X543521Y76959D01*
X543243D01*
X543049Y76931D01*
X542827D01*
X542549Y76904D01*
X542244Y76848D01*
X541939Y76793D01*
X541217Y76654D01*
X540495Y76432D01*
X539801Y76099D01*
X539468Y75904D01*
X539162Y75682D01*
X539107Y75627D01*
X538968Y75516D01*
X538801Y75293D01*
X538579Y75016D01*
X538357Y74655D01*
X538191Y74211D01*
X538052Y73711D01*
X537996Y73128D01*
Y73100D01*
Y72961D01*
X538024Y72795D01*
X538052Y72573D01*
X538107Y72295D01*
X538191Y72017D01*
X538302Y71712D01*
X538468Y71434D01*
X538496Y71407D01*
X538579Y71323D01*
X538690Y71157D01*
X538885Y70990D01*
X539135Y70768D01*
X539440Y70518D01*
X539801Y70269D01*
X540245Y69991D01*
X540301Y69963D01*
X540356Y69935D01*
X540439Y69880D01*
X540550Y69824D01*
X540717Y69741D01*
X540911Y69658D01*
X541133Y69547D01*
X541383Y69436D01*
X541689Y69297D01*
X542050Y69130D01*
X542438Y68936D01*
X542882Y68742D01*
X543382Y68520D01*
X543937Y68270D01*
X544548Y67992D01*
X544576D01*
X544659Y67937D01*
X544826Y67881D01*
X544992Y67798D01*
X545215Y67687D01*
X545492Y67576D01*
X546075Y67298D01*
X546714Y66993D01*
X547324Y66659D01*
X547907Y66354D01*
X548157Y66188D01*
X548379Y66049D01*
X548407D01*
X548435Y66021D01*
X548601Y65882D01*
X548851Y65688D01*
X549157Y65438D01*
X549518Y65105D01*
X549879Y64716D01*
X550212Y64272D01*
X550517Y63800D01*
Y63772D01*
X550545Y63744D01*
X550600Y63661D01*
X550628Y63578D01*
X550767Y63300D01*
X550906Y62939D01*
X551045Y62495D01*
X551183Y61995D01*
X551267Y61440D01*
X551295Y60829D01*
Y60802D01*
Y60746D01*
Y60635D01*
X551267Y60469D01*
Y60302D01*
X551239Y60080D01*
X551128Y59580D01*
X550989Y58969D01*
X550767Y58331D01*
X550434Y57664D01*
X550239Y57331D01*
X550017Y56998D01*
X549990Y56970D01*
X549962Y56915D01*
X549879Y56832D01*
X549795Y56721D01*
X549656Y56554D01*
X549490Y56387D01*
X549101Y55999D01*
X548601Y55554D01*
X547991Y55110D01*
X547297Y54666D01*
X546492Y54278D01*
X546464D01*
X546381Y54250D01*
X546269Y54194D01*
X546103Y54139D01*
X545881Y54055D01*
X545631Y53972D01*
X545353Y53889D01*
X545020Y53805D01*
X544659Y53722D01*
X544271Y53639D01*
X543854Y53556D01*
X543410Y53472D01*
X542438Y53361D01*
X541383Y53334D01*
X540967D01*
X540662Y53361D01*
X540301Y53389D01*
X539856Y53445D01*
X539384Y53500D01*
X538857Y53583D01*
X538302Y53667D01*
X537719Y53805D01*
X537136Y53944D01*
X536525Y54139D01*
X535942Y54361D01*
X535359Y54611D01*
X534776Y54888D01*
X534249Y55221D01*
X534221Y55249D01*
X534137Y55305D01*
X533999Y55416D01*
X533832Y55582D01*
X533610Y55804D01*
X533388Y56082D01*
X533138Y56415D01*
X532888Y56776D01*
X532611Y57220D01*
X532361Y57720D01*
X532138Y58275D01*
X531944Y58914D01*
X531750Y59580D01*
X531611Y60330D01*
X531528Y61163D01*
X531500Y62051D01*
X534859Y62356D01*
X534804Y61440D01*
Y61412D01*
Y61385D01*
Y61301D01*
Y61190D01*
X534832Y60913D01*
X534887Y60552D01*
X534970Y60135D01*
X535081Y59663D01*
X535248Y59191D01*
X535470Y58719D01*
X535498Y58664D01*
X535609Y58525D01*
X535775Y58303D01*
X536025Y58025D01*
X536331Y57720D01*
X536719Y57415D01*
X537191Y57109D01*
X537747Y56832D01*
X537774D01*
X537830Y56804D01*
X537913Y56776D01*
X538024Y56721D01*
X538191Y56665D01*
X538357Y56610D01*
X538579Y56554D01*
X538801Y56498D01*
X539357Y56387D01*
X539995Y56276D01*
X540717Y56193D01*
X541494Y56165D01*
X541800D01*
X541994Y56193D01*
X542272D01*
X542549Y56249D01*
X542882Y56276D01*
X543243Y56332D01*
X543993Y56498D01*
X544770Y56721D01*
X545520Y57054D01*
X545881Y57276D01*
X546186Y57498D01*
X546214Y57526D01*
X546269Y57553D01*
X546325Y57637D01*
X546436Y57748D01*
X546714Y58025D01*
X547019Y58386D01*
X547297Y58858D01*
X547574Y59386D01*
X547685Y59663D01*
X547741Y59941D01*
X547796Y60274D01*
X547824Y60580D01*
Y60607D01*
Y60635D01*
Y60774D01*
X547769Y61024D01*
X547713Y61301D01*
X547602Y61634D01*
X547463Y62023D01*
X547241Y62384D01*
X546964Y62773D01*
X546908Y62828D01*
X546852Y62884D01*
X546769Y62939D01*
X546630Y63050D01*
X546492Y63161D01*
X546269Y63300D01*
X546047Y63467D01*
X545742Y63661D01*
X545409Y63855D01*
X545020Y64078D01*
X544576Y64300D01*
X544076Y64577D01*
X543521Y64827D01*
X542882Y65132D01*
X542188Y65438D01*
X542161Y65466D01*
X542050Y65493D01*
X541911Y65577D01*
X541689Y65660D01*
X541467Y65771D01*
X541161Y65882D01*
X540550Y66188D01*
X539856Y66493D01*
X539162Y66826D01*
X538857Y66993D01*
X538552Y67159D01*
X538274Y67298D01*
X538052Y67437D01*
X538024Y67464D01*
X537969Y67492D01*
X537885Y67548D01*
X537774Y67631D01*
X537469Y67881D01*
X537080Y68186D01*
X536664Y68547D01*
X536247Y68964D01*
X535859Y69408D01*
X535498Y69908D01*
Y69935D01*
X535470Y69963D01*
X535415Y70046D01*
X535387Y70157D01*
X535248Y70407D01*
X535109Y70796D01*
X534943Y71240D01*
X534832Y71768D01*
X534720Y72351D01*
X534693Y72961D01*
Y72989D01*
Y73045D01*
Y73156D01*
X534720Y73295D01*
Y73461D01*
X534748Y73683D01*
X534832Y74155D01*
X534970Y74683D01*
X535137Y75293D01*
X535415Y75904D01*
X535775Y76515D01*
Y76543D01*
X535831Y76598D01*
X535886Y76654D01*
X535970Y76765D01*
X536220Y77070D01*
X536581Y77403D01*
X537025Y77792D01*
X537580Y78208D01*
X538218Y78597D01*
X538940Y78930D01*
X538968D01*
X539024Y78958D01*
X539162Y79014D01*
X539301Y79069D01*
X539496Y79125D01*
X539745Y79208D01*
X539995Y79291D01*
X540301Y79374D01*
X540634Y79430D01*
X540995Y79513D01*
X541800Y79652D01*
X542688Y79763D01*
X543660Y79791D01*
X543965D01*
X544187Y79763D01*
D02*
G37*
G36*
X577807Y53750D02*
X574170D01*
X573338Y69241D01*
Y69269D01*
Y69325D01*
X573310Y69436D01*
Y69602D01*
Y69797D01*
X573282Y70019D01*
X573254Y70296D01*
Y70602D01*
X573227Y70963D01*
X573199Y71323D01*
X573171Y71740D01*
Y72184D01*
X573143Y72628D01*
X573116Y73128D01*
X573088Y74183D01*
Y74155D01*
X573032Y74072D01*
X572977Y73961D01*
X572921Y73794D01*
X572810Y73572D01*
X572699Y73350D01*
X572449Y72795D01*
X572172Y72184D01*
X571866Y71546D01*
X571561Y70935D01*
X571283Y70380D01*
X562455Y53750D01*
X558929D01*
X557347Y79374D01*
X560817D01*
X561400Y66687D01*
Y66632D01*
Y66576D01*
Y66493D01*
X561428Y66354D01*
Y66188D01*
Y65965D01*
X561455Y65715D01*
Y65438D01*
Y65077D01*
X561483Y64688D01*
Y64216D01*
X561511Y63689D01*
X561539Y63106D01*
Y62467D01*
X561567Y61746D01*
Y61690D01*
Y61579D01*
Y61385D01*
X561594Y61135D01*
Y60635D01*
X561622Y60385D01*
Y60191D01*
Y60163D01*
Y60135D01*
Y60024D01*
Y59858D01*
Y59636D01*
Y59330D01*
Y58941D01*
Y58470D01*
X561650Y58525D01*
X561705Y58664D01*
X561816Y58886D01*
X561955Y59191D01*
X562150Y59524D01*
X562344Y59941D01*
X562566Y60385D01*
X562788Y60885D01*
X563288Y61884D01*
X563815Y62912D01*
X564037Y63383D01*
X564287Y63828D01*
X564482Y64244D01*
X564676Y64605D01*
X572477Y79374D01*
X576003D01*
X576836Y64383D01*
Y64355D01*
Y64272D01*
X576863Y64133D01*
Y63911D01*
Y63661D01*
X576891Y63383D01*
Y63023D01*
X576919Y62634D01*
X576947Y62217D01*
Y61746D01*
X576974Y61218D01*
X577002Y60691D01*
Y60108D01*
X577030Y59497D01*
Y58858D01*
X577058Y58192D01*
X577085Y58247D01*
X577113Y58358D01*
X577197Y58553D01*
X577308Y58858D01*
X577474Y59219D01*
X577668Y59691D01*
X577891Y60219D01*
X578168Y60829D01*
X578196Y60857D01*
X578224Y60968D01*
X578279Y61107D01*
X578390Y61301D01*
X578474Y61523D01*
X578613Y61801D01*
X578890Y62412D01*
X579196Y63078D01*
X579529Y63772D01*
X579806Y64383D01*
X579945Y64661D01*
X580084Y64910D01*
X587358Y79374D01*
X590856D01*
X577807Y53750D01*
D02*
G37*
G36*
X602266Y79347D02*
X602571D01*
X602904Y79319D01*
X603571Y79264D01*
X604292Y79208D01*
X604959Y79097D01*
X605292Y79041D01*
X605570Y78958D01*
X605597D01*
X605653Y78930D01*
X605764Y78903D01*
X605930Y78847D01*
X606097Y78791D01*
X606319Y78708D01*
X606791Y78514D01*
X607346Y78264D01*
X607957Y77903D01*
X608540Y77515D01*
X609123Y77015D01*
X609151Y76987D01*
X609179Y76959D01*
X609262Y76876D01*
X609373Y76765D01*
X609484Y76626D01*
X609651Y76459D01*
X609956Y76071D01*
X610345Y75571D01*
X610706Y74960D01*
X611067Y74294D01*
X611372Y73545D01*
Y73517D01*
X611400Y73461D01*
X611455Y73350D01*
X611483Y73184D01*
X611566Y72989D01*
X611622Y72767D01*
X611677Y72490D01*
X611760Y72184D01*
X611844Y71851D01*
X611899Y71490D01*
X612038Y70713D01*
X612121Y69824D01*
X612149Y68880D01*
Y68853D01*
Y68742D01*
Y68575D01*
Y68353D01*
X612121Y68075D01*
X612094Y67770D01*
X612066Y67409D01*
X612038Y67020D01*
X611983Y66604D01*
X611927Y66160D01*
X611760Y65216D01*
X611511Y64216D01*
X611205Y63245D01*
Y63217D01*
X611150Y63134D01*
X611122Y62995D01*
X611039Y62828D01*
X610928Y62606D01*
X610817Y62356D01*
X610706Y62051D01*
X610539Y61746D01*
X610178Y61052D01*
X609762Y60302D01*
X609290Y59525D01*
X608734Y58775D01*
X608707Y58747D01*
X608679Y58692D01*
X608596Y58581D01*
X608485Y58470D01*
X608346Y58303D01*
X608179Y58109D01*
X607790Y57692D01*
X607291Y57193D01*
X606763Y56693D01*
X606180Y56193D01*
X605570Y55749D01*
X605542D01*
X605486Y55693D01*
X605403Y55638D01*
X605292Y55582D01*
X605125Y55471D01*
X604931Y55388D01*
X604709Y55277D01*
X604459Y55138D01*
X603904Y54888D01*
X603237Y54611D01*
X602488Y54361D01*
X601683Y54139D01*
X601655D01*
X601600Y54111D01*
X601516D01*
X601377Y54083D01*
X601211Y54055D01*
X601017Y54028D01*
X600767Y53972D01*
X600517Y53944D01*
X600211Y53917D01*
X599906Y53861D01*
X599184Y53805D01*
X598351Y53778D01*
X597463Y53750D01*
X588246D01*
X593576Y79374D01*
X602016D01*
X602266Y79347D01*
D02*
G37*
G36*
X663547Y903013D02*
X663770D01*
X664047Y902985D01*
X664352Y902958D01*
X664713Y902930D01*
X665463Y902791D01*
X666296Y902625D01*
X667129Y902375D01*
X667962Y902041D01*
X667989D01*
X668045Y901986D01*
X668156Y901930D01*
X668323Y901847D01*
X668489Y901764D01*
X668711Y901625D01*
X669183Y901347D01*
X669711Y900959D01*
X670266Y900487D01*
X670793Y899959D01*
X671265Y899376D01*
X671293Y899349D01*
X671321Y899293D01*
X671376Y899210D01*
X671460Y899071D01*
X671543Y898904D01*
X671654Y898710D01*
X671793Y898488D01*
X671904Y898238D01*
X672043Y897933D01*
X672181Y897627D01*
X672320Y897266D01*
X672459Y896878D01*
X672737Y896045D01*
X672959Y895101D01*
X669600Y894712D01*
Y894740D01*
X669572Y894823D01*
X669544Y894962D01*
X669489Y895156D01*
X669433Y895379D01*
X669322Y895628D01*
X669239Y895906D01*
X669100Y896211D01*
X668794Y896850D01*
X668406Y897544D01*
X667906Y898183D01*
X667628Y898488D01*
X667323Y898766D01*
X667295Y898793D01*
X667240Y898821D01*
X667157Y898904D01*
X667018Y898988D01*
X666851Y899099D01*
X666657Y899210D01*
X666407Y899349D01*
X666157Y899487D01*
X665852Y899626D01*
X665518Y899765D01*
X665158Y899876D01*
X664769Y899987D01*
X663908Y900154D01*
X663464Y900181D01*
X662964Y900209D01*
X662687D01*
X662492Y900181D01*
X662243Y900154D01*
X661937Y900126D01*
X661632Y900070D01*
X661271Y900015D01*
X660882Y899932D01*
X660466Y899848D01*
X659577Y899571D01*
X659133Y899404D01*
X658661Y899182D01*
X658189Y898960D01*
X657745Y898682D01*
X657717Y898654D01*
X657634Y898599D01*
X657523Y898516D01*
X657356Y898405D01*
X657134Y898238D01*
X656912Y898044D01*
X656635Y897822D01*
X656357Y897544D01*
X656052Y897239D01*
X655746Y896906D01*
X655413Y896545D01*
X655108Y896128D01*
X654774Y895684D01*
X654469Y895212D01*
X654164Y894685D01*
X653886Y894129D01*
X653858Y894101D01*
X653831Y893990D01*
X653747Y893824D01*
X653664Y893602D01*
X653553Y893296D01*
X653442Y892963D01*
X653303Y892575D01*
X653192Y892130D01*
X653053Y891631D01*
X652915Y891103D01*
X652803Y890520D01*
X652692Y889937D01*
X652609Y889299D01*
X652526Y888632D01*
X652498Y887938D01*
X652470Y887216D01*
Y887161D01*
Y887050D01*
Y886856D01*
X652498Y886578D01*
X652526Y886273D01*
X652581Y885884D01*
X652637Y885495D01*
X652720Y885051D01*
X652942Y884107D01*
X653081Y883607D01*
X653275Y883135D01*
X653497Y882663D01*
X653747Y882191D01*
X654025Y881775D01*
X654358Y881386D01*
X654386Y881359D01*
X654441Y881303D01*
X654552Y881192D01*
X654719Y881081D01*
X654913Y880942D01*
X655135Y880776D01*
X655413Y880581D01*
X655746Y880415D01*
X656107Y880220D01*
X656496Y880026D01*
X656940Y879859D01*
X657412Y879721D01*
X657912Y879610D01*
X658467Y879499D01*
X659050Y879443D01*
X659661Y879415D01*
X659799D01*
X659994Y879443D01*
X660244D01*
X660549Y879471D01*
X660910Y879526D01*
X661326Y879610D01*
X661798Y879693D01*
X662326Y879804D01*
X662881Y879943D01*
X663464Y880137D01*
X664103Y880331D01*
X664769Y880581D01*
X665435Y880887D01*
X666129Y881220D01*
X666851Y881609D01*
X668017Y887105D01*
X660160D01*
X660771Y889993D01*
X672015D01*
X669849Y879582D01*
X669822Y879554D01*
X669766Y879526D01*
X669627Y879443D01*
X669461Y879360D01*
X669266Y879249D01*
X669044Y879110D01*
X668767Y878971D01*
X668434Y878804D01*
X668100Y878638D01*
X667712Y878471D01*
X666907Y878111D01*
X665991Y877750D01*
X664991Y877416D01*
X664963D01*
X664880Y877389D01*
X664713Y877333D01*
X664519Y877278D01*
X664297Y877222D01*
X663992Y877167D01*
X663686Y877083D01*
X663325Y877000D01*
X662937Y876917D01*
X662520Y876861D01*
X661632Y876722D01*
X660660Y876611D01*
X659688Y876584D01*
X659439D01*
X659161Y876611D01*
X658772Y876639D01*
X658300Y876695D01*
X657773Y876750D01*
X657162Y876861D01*
X656551Y877000D01*
X655857Y877194D01*
X655191Y877416D01*
X654469Y877666D01*
X653775Y877999D01*
X653109Y878388D01*
X652470Y878832D01*
X651860Y879360D01*
X651304Y879943D01*
X651276Y879971D01*
X651193Y880082D01*
X651082Y880248D01*
X650943Y880443D01*
X650777Y880748D01*
X650582Y881081D01*
X650360Y881470D01*
X650166Y881914D01*
X649944Y882414D01*
X649722Y882969D01*
X649528Y883580D01*
X649361Y884218D01*
X649222Y884912D01*
X649111Y885662D01*
X649028Y886439D01*
X649000Y887244D01*
Y887300D01*
Y887439D01*
X649028Y887688D01*
Y888022D01*
X649055Y888438D01*
X649111Y888910D01*
X649167Y889437D01*
X649250Y890021D01*
X649361Y890659D01*
X649500Y891325D01*
X649666Y892019D01*
X649861Y892713D01*
X650083Y893463D01*
X650360Y894185D01*
X650666Y894907D01*
X651027Y895628D01*
X651054Y895684D01*
X651110Y895795D01*
X651249Y895989D01*
X651387Y896239D01*
X651582Y896572D01*
X651832Y896906D01*
X652109Y897322D01*
X652442Y897738D01*
X652776Y898183D01*
X653164Y898654D01*
X653581Y899127D01*
X654053Y899571D01*
X654525Y900015D01*
X655052Y900459D01*
X655580Y900848D01*
X656163Y901209D01*
X656190Y901236D01*
X656301Y901292D01*
X656468Y901375D01*
X656718Y901486D01*
X656995Y901625D01*
X657356Y901792D01*
X657745Y901958D01*
X658189Y902125D01*
X658689Y902291D01*
X659217Y902458D01*
X659799Y902625D01*
X660383Y902763D01*
X661021Y902874D01*
X661687Y902958D01*
X662381Y903013D01*
X663075Y903041D01*
X663353D01*
X663547Y903013D01*
D02*
G37*
G36*
X694974Y877000D02*
X691559D01*
X685341Y891797D01*
X685313Y891853D01*
X685257Y891964D01*
X685174Y892186D01*
X685063Y892464D01*
X684924Y892824D01*
X684758Y893213D01*
X684563Y893685D01*
X684369Y894185D01*
X684147Y894740D01*
X683925Y895323D01*
X683481Y896545D01*
X683009Y897849D01*
X682564Y899154D01*
Y899127D01*
X682537Y899015D01*
Y898849D01*
X682509Y898654D01*
X682453Y898377D01*
X682426Y898044D01*
X682370Y897655D01*
X682315Y897239D01*
X682231Y896767D01*
X682148Y896267D01*
X682065Y895740D01*
X681954Y895156D01*
X681843Y894546D01*
X681732Y893935D01*
X681454Y892602D01*
X678234Y877000D01*
X674902D01*
X680260Y902625D01*
X683869D01*
X688089Y892991D01*
X688117Y892935D01*
X688173Y892797D01*
X688283Y892575D01*
X688395Y892269D01*
X688561Y891880D01*
X688755Y891436D01*
X688978Y890964D01*
X689200Y890409D01*
X689422Y889854D01*
X689672Y889243D01*
X690199Y888022D01*
X690699Y886772D01*
X690921Y886161D01*
X691143Y885579D01*
Y885551D01*
X691171Y885495D01*
X691199Y885412D01*
X691254Y885273D01*
X691310Y885079D01*
X691393Y884884D01*
X691476Y884635D01*
X691559Y884357D01*
X691671Y884024D01*
X691781Y883691D01*
X691920Y883302D01*
X692059Y882886D01*
X692198Y882414D01*
X692337Y881942D01*
X692476Y881442D01*
X692642Y880887D01*
Y880915D01*
X692670Y881025D01*
X692698Y881220D01*
X692726Y881442D01*
X692781Y881747D01*
X692837Y882108D01*
X692892Y882497D01*
X692975Y882941D01*
X693059Y883441D01*
X693142Y883941D01*
X693253Y884496D01*
X693336Y885079D01*
X693586Y886300D01*
X693836Y887577D01*
X696973Y902625D01*
X700304D01*
X694974Y877000D01*
D02*
G37*
G36*
X714824Y902597D02*
X715130D01*
X715463Y902569D01*
X716129Y902514D01*
X716851Y902458D01*
X717517Y902347D01*
X717850Y902291D01*
X718128Y902208D01*
X718156D01*
X718211Y902180D01*
X718322Y902153D01*
X718489Y902097D01*
X718655Y902041D01*
X718877Y901958D01*
X719349Y901764D01*
X719905Y901514D01*
X720515Y901153D01*
X721098Y900764D01*
X721681Y900265D01*
X721709Y900237D01*
X721737Y900209D01*
X721820Y900126D01*
X721931Y900015D01*
X722042Y899876D01*
X722209Y899709D01*
X722514Y899321D01*
X722903Y898821D01*
X723264Y898210D01*
X723625Y897544D01*
X723930Y896795D01*
Y896767D01*
X723958Y896711D01*
X724014Y896600D01*
X724041Y896434D01*
X724125Y896239D01*
X724180Y896017D01*
X724236Y895740D01*
X724319Y895434D01*
X724402Y895101D01*
X724458Y894740D01*
X724596Y893963D01*
X724680Y893074D01*
X724707Y892130D01*
Y892103D01*
Y891992D01*
Y891825D01*
Y891603D01*
X724680Y891325D01*
X724652Y891020D01*
X724624Y890659D01*
X724596Y890270D01*
X724541Y889854D01*
X724485Y889410D01*
X724319Y888466D01*
X724069Y887466D01*
X723764Y886495D01*
Y886467D01*
X723708Y886384D01*
X723680Y886245D01*
X723597Y886078D01*
X723486Y885856D01*
X723375Y885606D01*
X723264Y885301D01*
X723097Y884995D01*
X722736Y884302D01*
X722320Y883552D01*
X721848Y882775D01*
X721293Y882025D01*
X721265Y881997D01*
X721237Y881942D01*
X721154Y881831D01*
X721043Y881720D01*
X720904Y881553D01*
X720738Y881359D01*
X720349Y880942D01*
X719849Y880443D01*
X719322Y879943D01*
X718739Y879443D01*
X718128Y878999D01*
X718100D01*
X718045Y878943D01*
X717961Y878888D01*
X717850Y878832D01*
X717684Y878721D01*
X717489Y878638D01*
X717267Y878527D01*
X717017Y878388D01*
X716462Y878138D01*
X715796Y877861D01*
X715046Y877611D01*
X714241Y877389D01*
X714213D01*
X714158Y877361D01*
X714075D01*
X713936Y877333D01*
X713769Y877305D01*
X713575Y877278D01*
X713325Y877222D01*
X713075Y877194D01*
X712770Y877167D01*
X712464Y877111D01*
X711743Y877056D01*
X710910Y877028D01*
X710021Y877000D01*
X700804D01*
X706135Y902625D01*
X714574D01*
X714824Y902597D01*
D02*
G37*
G36*
X758939Y896603D02*
X765907D01*
Y893660D01*
X758939D01*
Y886637D01*
X755968D01*
Y893660D01*
X749000D01*
Y896603D01*
X755968D01*
Y903571D01*
X758939D01*
Y896603D01*
D02*
G37*
G36*
X799749Y908180D02*
X799971Y908152D01*
X800221Y908124D01*
X800499Y908097D01*
X801110Y907986D01*
X801776Y907819D01*
X802470Y907597D01*
X803136Y907292D01*
X803164D01*
X803220Y907236D01*
X803303Y907208D01*
X803442Y907125D01*
X803747Y906903D01*
X804136Y906625D01*
X804580Y906264D01*
X805024Y905820D01*
X805441Y905321D01*
X805801Y904737D01*
Y904710D01*
X805829Y904654D01*
X805885Y904571D01*
X805940Y904460D01*
X806024Y904293D01*
X806079Y904127D01*
X806273Y903710D01*
X806440Y903183D01*
X806579Y902628D01*
X806690Y901989D01*
X806718Y901350D01*
Y901323D01*
Y901239D01*
Y901101D01*
X806690Y900906D01*
X806662Y900684D01*
X806634Y900407D01*
X806579Y900101D01*
X806496Y899768D01*
X806273Y899018D01*
X806135Y898630D01*
X805940Y898213D01*
X805746Y897769D01*
X805496Y897325D01*
X805219Y896881D01*
X804885Y896437D01*
Y896409D01*
X804830Y896353D01*
X804746Y896270D01*
X804635Y896131D01*
X804469Y895965D01*
X804247Y895743D01*
X803969Y895465D01*
X803636Y895160D01*
X803247Y894799D01*
X802803Y894382D01*
X802248Y893910D01*
X801637Y893383D01*
X800943Y892800D01*
X800166Y892133D01*
X799277Y891439D01*
X798306Y890662D01*
X798278Y890634D01*
X798195Y890579D01*
X798084Y890496D01*
X797917Y890357D01*
X797723Y890190D01*
X797501Y890024D01*
X797001Y889579D01*
X796418Y889107D01*
X795835Y888580D01*
X795307Y888080D01*
X794808Y887608D01*
X794752Y887553D01*
X794613Y887414D01*
X794419Y887164D01*
X794169Y886886D01*
X793892Y886553D01*
X793614Y886165D01*
X793336Y885776D01*
X793114Y885387D01*
X804580D01*
X803941Y882500D01*
X788700D01*
Y882528D01*
X788728Y882611D01*
X788755Y882722D01*
X788783Y882889D01*
X788839Y883083D01*
X788894Y883305D01*
X789033Y883833D01*
X789227Y884443D01*
X789449Y885054D01*
X789727Y885693D01*
X790033Y886303D01*
Y886331D01*
X790060Y886387D01*
X790116Y886470D01*
X790199Y886581D01*
X790393Y886859D01*
X790643Y887247D01*
X790976Y887719D01*
X791365Y888191D01*
X791837Y888719D01*
X792337Y889246D01*
X792365Y889274D01*
X792420Y889302D01*
X792503Y889385D01*
X792614Y889524D01*
X792809Y889663D01*
X793003Y889857D01*
X793253Y890079D01*
X793558Y890357D01*
X793919Y890662D01*
X794308Y890995D01*
X794780Y891384D01*
X795280Y891800D01*
X795835Y892272D01*
X796446Y892772D01*
X797140Y893327D01*
X797861Y893910D01*
X797889Y893938D01*
X797972Y893994D01*
X798111Y894105D01*
X798278Y894243D01*
X798472Y894410D01*
X798694Y894577D01*
X799222Y895021D01*
X799777Y895493D01*
X800332Y895965D01*
X800860Y896437D01*
X801054Y896631D01*
X801248Y896825D01*
X801276Y896853D01*
X801304Y896881D01*
X801471Y897047D01*
X801693Y897325D01*
X801998Y897658D01*
X802303Y898075D01*
X802609Y898519D01*
X802914Y898991D01*
X803164Y899491D01*
X803192Y899518D01*
X803220Y899657D01*
X803303Y899824D01*
X803386Y900073D01*
X803442Y900351D01*
X803525Y900684D01*
X803553Y901045D01*
X803580Y901434D01*
Y901462D01*
Y901517D01*
Y901600D01*
X803553Y901739D01*
Y901878D01*
X803525Y902072D01*
X803414Y902489D01*
X803275Y902961D01*
X803053Y903460D01*
X802720Y903960D01*
X802525Y904210D01*
X802303Y904432D01*
Y904460D01*
X802248Y904488D01*
X802081Y904626D01*
X801804Y904821D01*
X801443Y905071D01*
X800999Y905293D01*
X800499Y905487D01*
X799888Y905626D01*
X799583Y905682D01*
X799083D01*
X798944Y905654D01*
X798778D01*
X798611Y905626D01*
X798167Y905515D01*
X797695Y905376D01*
X797167Y905154D01*
X796612Y904821D01*
X796335Y904626D01*
X796085Y904404D01*
X796057D01*
X796029Y904349D01*
X795946Y904266D01*
X795863Y904155D01*
X795751Y904044D01*
X795613Y903877D01*
X795474Y903655D01*
X795335Y903433D01*
X795169Y903183D01*
X795030Y902878D01*
X794863Y902544D01*
X794697Y902183D01*
X794558Y901795D01*
X794419Y901378D01*
X794280Y900906D01*
X794169Y900407D01*
X791087Y900851D01*
Y900879D01*
X791115Y900990D01*
X791143Y901184D01*
X791199Y901406D01*
X791254Y901712D01*
X791337Y902045D01*
X791448Y902405D01*
X791587Y902794D01*
X791754Y903238D01*
X791920Y903655D01*
X792142Y904127D01*
X792392Y904571D01*
X792670Y905015D01*
X792975Y905432D01*
X793336Y905848D01*
X793725Y906237D01*
X793753Y906264D01*
X793836Y906320D01*
X793947Y906431D01*
X794114Y906542D01*
X794336Y906681D01*
X794585Y906848D01*
X794891Y907042D01*
X795224Y907236D01*
X795613Y907403D01*
X796029Y907597D01*
X796473Y907764D01*
X796945Y907902D01*
X797473Y908014D01*
X798028Y908124D01*
X798583Y908180D01*
X799194Y908208D01*
X799555D01*
X799749Y908180D01*
D02*
G37*
G36*
X778456Y882500D02*
X775319D01*
X779372Y901823D01*
X779344Y901795D01*
X779261Y901739D01*
X779094Y901628D01*
X778900Y901489D01*
X778622Y901323D01*
X778289Y901101D01*
X777900Y900879D01*
X777456Y900657D01*
X776956Y900379D01*
X776401Y900129D01*
X775790Y899851D01*
X775152Y899574D01*
X774430Y899296D01*
X773681Y899046D01*
X772848Y898796D01*
X771987Y898547D01*
X772570Y901406D01*
X772598D01*
X772681Y901462D01*
X772792Y901489D01*
X772987Y901573D01*
X773181Y901656D01*
X773431Y901767D01*
X773736Y901906D01*
X774042Y902045D01*
X774736Y902405D01*
X775541Y902822D01*
X776374Y903294D01*
X777234Y903849D01*
X777262Y903877D01*
X777345Y903905D01*
X777456Y903988D01*
X777623Y904099D01*
X777817Y904238D01*
X778011Y904404D01*
X778539Y904765D01*
X779094Y905182D01*
X779650Y905626D01*
X780205Y906070D01*
X780677Y906514D01*
X780704Y906542D01*
X780788Y906653D01*
X780927Y906792D01*
X781093Y906986D01*
X781287Y907236D01*
X781509Y907514D01*
X781759Y907847D01*
X781982Y908208D01*
X783814D01*
X778456Y882500D01*
D02*
G37*
G36*
X989263Y978390D02*
Y970034D01*
X1012000Y965286D01*
Y961899D01*
X989263Y966647D01*
Y958040D01*
X986376Y958651D01*
Y979001D01*
X989263Y978390D01*
D02*
G37*
G36*
X993149Y953876D02*
X993399Y953848D01*
X993733Y953793D01*
X994066Y953737D01*
X994454Y953654D01*
X994843Y953543D01*
X995259Y953404D01*
X995704Y953238D01*
X996148Y953043D01*
X996564Y952793D01*
X997008Y952516D01*
X997425Y952210D01*
X997813Y951849D01*
X997841Y951822D01*
X997897Y951766D01*
X998008Y951627D01*
X998147Y951461D01*
X998313Y951239D01*
X998508Y950961D01*
X998702Y950628D01*
X998924Y950239D01*
X999146Y949823D01*
X999368Y949323D01*
X999590Y948796D01*
X999812Y948185D01*
X1000007Y947518D01*
X1000201Y946824D01*
X1000340Y946047D01*
X1000479Y945214D01*
Y945242D01*
X1000534Y945270D01*
X1000645Y945436D01*
X1000867Y945714D01*
X1001117Y946019D01*
X1001450Y946352D01*
X1001784Y946713D01*
X1002144Y947047D01*
X1002533Y947352D01*
X1002561Y947380D01*
X1002644Y947435D01*
X1002755Y947518D01*
X1002922Y947602D01*
X1003116Y947741D01*
X1003366Y947907D01*
X1003644Y948074D01*
X1003949Y948268D01*
X1004310Y948462D01*
X1004671Y948684D01*
X1005448Y949101D01*
X1006309Y949517D01*
X1007197Y949906D01*
X1012000Y951877D01*
Y948046D01*
X1007253Y946214D01*
X1007225D01*
X1007142Y946158D01*
X1007003Y946103D01*
X1006808Y946047D01*
X1006586Y945936D01*
X1006337Y945825D01*
X1006031Y945714D01*
X1005698Y945547D01*
X1005004Y945214D01*
X1004254Y944826D01*
X1003477Y944409D01*
X1002755Y943937D01*
X1002727D01*
X1002700Y943909D01*
X1002533Y943798D01*
X1002311Y943604D01*
X1002061Y943382D01*
X1001756Y943132D01*
X1001478Y942827D01*
X1001228Y942494D01*
X1001034Y942160D01*
X1001006Y942133D01*
X1000978Y941994D01*
X1000895Y941772D01*
X1000812Y941466D01*
X1000756Y941050D01*
X1000673Y940550D01*
X1000645Y939939D01*
X1000618Y939218D01*
Y935248D01*
X1012000Y932860D01*
Y929473D01*
X986376Y934831D01*
Y946075D01*
X986403Y946352D01*
Y946658D01*
X986431Y946991D01*
Y947352D01*
X986514Y948129D01*
X986598Y948934D01*
X986736Y949712D01*
X986820Y950045D01*
X986931Y950378D01*
Y950406D01*
X986958Y950461D01*
X986986Y950545D01*
X987042Y950656D01*
X987181Y950933D01*
X987375Y951322D01*
X987653Y951738D01*
X987986Y952155D01*
X988430Y952571D01*
X988930Y952960D01*
X988957D01*
X988985Y952988D01*
X989068Y953043D01*
X989180Y953099D01*
X989346Y953182D01*
X989513Y953265D01*
X989707Y953349D01*
X989929Y953432D01*
X990484Y953598D01*
X991095Y953765D01*
X991817Y953876D01*
X992622Y953904D01*
X992650D01*
X992761D01*
X992927D01*
X993149Y953876D01*
D02*
G37*
G36*
X1012000Y922616D02*
X1004615Y921367D01*
Y911011D01*
X1012000Y906902D01*
Y903155D01*
X986376Y917619D01*
Y921700D01*
X1012000Y925947D01*
Y922616D01*
D02*
G37*
G36*
X1001423Y901905D02*
X1001478D01*
X1001589Y901878D01*
X1001784Y901822D01*
X1002061Y901766D01*
X1002366Y901683D01*
X1002755Y901572D01*
X1003172Y901461D01*
X1003616Y901350D01*
X1004587Y901017D01*
X1005615Y900656D01*
X1006586Y900239D01*
X1007058Y900017D01*
X1007503Y899768D01*
X1007530Y899740D01*
X1007614Y899712D01*
X1007725Y899629D01*
X1007863Y899518D01*
X1008058Y899407D01*
X1008280Y899240D01*
X1008530Y899046D01*
X1008807Y898824D01*
X1009363Y898296D01*
X1009973Y897685D01*
X1010556Y896964D01*
X1011112Y896131D01*
X1011139Y896103D01*
X1011167Y896020D01*
X1011223Y895909D01*
X1011306Y895714D01*
X1011417Y895492D01*
X1011528Y895242D01*
X1011639Y894937D01*
X1011778Y894604D01*
X1011889Y894215D01*
X1012028Y893799D01*
X1012139Y893354D01*
X1012222Y892883D01*
X1012389Y891855D01*
X1012416Y891328D01*
X1012444Y890745D01*
Y890467D01*
X1012416Y890245D01*
Y889995D01*
X1012389Y889718D01*
X1012361Y889385D01*
X1012333Y889024D01*
X1012222Y888246D01*
X1012056Y887386D01*
X1011806Y886553D01*
X1011500Y885720D01*
Y885692D01*
X1011445Y885637D01*
X1011389Y885526D01*
X1011334Y885387D01*
X1011223Y885192D01*
X1011112Y884998D01*
X1010806Y884526D01*
X1010418Y884026D01*
X1009973Y883499D01*
X1009446Y882999D01*
X1008835Y882555D01*
X1008807D01*
X1008752Y882499D01*
X1008669Y882472D01*
X1008530Y882388D01*
X1008363Y882305D01*
X1008197Y882222D01*
X1007974Y882139D01*
X1007725Y882028D01*
X1007142Y881833D01*
X1006503Y881667D01*
X1005781Y881555D01*
X1005004Y881500D01*
X1004976D01*
X1004948D01*
X1004865D01*
X1004754D01*
X1004587Y881528D01*
X1004421D01*
X1004171Y881555D01*
X1003921Y881583D01*
X1003616Y881611D01*
X1003283Y881667D01*
X1002894Y881722D01*
X1002478Y881805D01*
X1002033Y881861D01*
X1001506Y881972D01*
X1000951Y882083D01*
X1000368Y882194D01*
X986376Y885137D01*
Y888552D01*
X1002144Y885276D01*
X1002172D01*
X1002228Y885248D01*
X1002339D01*
X1002478Y885220D01*
X1002616Y885192D01*
X1002811Y885137D01*
X1003255Y885081D01*
X1003727Y884998D01*
X1004199Y884915D01*
X1004671Y884887D01*
X1005060Y884859D01*
X1005087D01*
X1005143D01*
X1005254D01*
X1005393Y884887D01*
X1005587Y884915D01*
X1005781Y884942D01*
X1006253Y885054D01*
X1006781Y885248D01*
X1007031Y885387D01*
X1007308Y885553D01*
X1007586Y885720D01*
X1007863Y885942D01*
X1008113Y886192D01*
X1008363Y886469D01*
Y886497D01*
X1008419Y886553D01*
X1008474Y886636D01*
X1008558Y886775D01*
X1008641Y886914D01*
X1008752Y887108D01*
X1008863Y887330D01*
X1008974Y887608D01*
X1009113Y887885D01*
X1009224Y888191D01*
X1009418Y888885D01*
X1009557Y889690D01*
X1009585Y890134D01*
X1009613Y890578D01*
Y890773D01*
X1009585Y890911D01*
Y891078D01*
X1009557Y891272D01*
X1009501Y891772D01*
X1009390Y892327D01*
X1009224Y892938D01*
X1009029Y893577D01*
X1008724Y894215D01*
Y894243D01*
X1008669Y894298D01*
X1008641Y894382D01*
X1008558Y894493D01*
X1008363Y894798D01*
X1008058Y895187D01*
X1007697Y895603D01*
X1007225Y896047D01*
X1006697Y896492D01*
X1006087Y896880D01*
X1006059D01*
X1006003Y896936D01*
X1005892Y896964D01*
X1005753Y897047D01*
X1005559Y897130D01*
X1005337Y897241D01*
X1005060Y897352D01*
X1004726Y897463D01*
X1004365Y897602D01*
X1003949Y897741D01*
X1003505Y897880D01*
X1003005Y898046D01*
X1002450Y898185D01*
X1001839Y898352D01*
X1001200Y898518D01*
X1000507Y898657D01*
X986376Y901600D01*
Y905042D01*
X1001423Y901905D01*
D02*
G37*
G36*
X1459237Y667063D02*
X1459514D01*
X1459820Y667035D01*
X1460153Y667008D01*
X1460542Y666952D01*
X1461375Y666841D01*
X1462263Y666647D01*
X1463151Y666397D01*
X1463984Y666036D01*
X1464012D01*
X1464068Y665980D01*
X1464178Y665925D01*
X1464345Y665842D01*
X1464512Y665731D01*
X1464734Y665620D01*
X1465178Y665286D01*
X1465706Y664898D01*
X1466233Y664398D01*
X1466705Y663843D01*
X1466927Y663565D01*
X1467121Y663232D01*
Y663204D01*
X1467177Y663149D01*
X1467205Y663065D01*
X1467288Y662926D01*
X1467343Y662788D01*
X1467427Y662593D01*
X1467621Y662177D01*
X1467788Y661677D01*
X1467954Y661122D01*
X1468065Y660539D01*
X1468093Y659928D01*
Y659901D01*
Y659789D01*
Y659623D01*
X1468065Y659401D01*
X1464762Y659123D01*
Y659179D01*
Y659290D01*
Y659512D01*
X1464734Y659734D01*
X1464706Y660012D01*
X1464678Y660289D01*
X1464623Y660567D01*
X1464567Y660817D01*
X1464539Y660872D01*
X1464512Y661011D01*
X1464401Y661205D01*
X1464290Y661455D01*
X1464151Y661733D01*
X1463956Y662038D01*
X1463734Y662344D01*
X1463457Y662621D01*
X1463429Y662649D01*
X1463318Y662732D01*
X1463151Y662871D01*
X1462929Y663038D01*
X1462652Y663232D01*
X1462291Y663426D01*
X1461902Y663621D01*
X1461430Y663787D01*
X1461375Y663815D01*
X1461208Y663870D01*
X1460930Y663926D01*
X1460597Y664037D01*
X1460181Y664120D01*
X1459681Y664176D01*
X1459154Y664231D01*
X1458571Y664259D01*
X1458293D01*
X1458099Y664231D01*
X1457876D01*
X1457599Y664204D01*
X1457294Y664148D01*
X1456988Y664093D01*
X1456266Y663954D01*
X1455544Y663732D01*
X1454850Y663399D01*
X1454517Y663204D01*
X1454212Y662982D01*
X1454156Y662926D01*
X1454018Y662815D01*
X1453851Y662593D01*
X1453629Y662316D01*
X1453407Y661955D01*
X1453240Y661511D01*
X1453101Y661011D01*
X1453046Y660428D01*
Y660400D01*
Y660261D01*
X1453074Y660095D01*
X1453101Y659873D01*
X1453157Y659595D01*
X1453240Y659317D01*
X1453351Y659012D01*
X1453518Y658734D01*
X1453546Y658707D01*
X1453629Y658623D01*
X1453740Y658457D01*
X1453934Y658290D01*
X1454184Y658068D01*
X1454489Y657818D01*
X1454850Y657568D01*
X1455295Y657291D01*
X1455350Y657263D01*
X1455406Y657235D01*
X1455489Y657180D01*
X1455600Y657124D01*
X1455767Y657041D01*
X1455961Y656958D01*
X1456183Y656847D01*
X1456433Y656736D01*
X1456738Y656597D01*
X1457099Y656430D01*
X1457488Y656236D01*
X1457932Y656041D01*
X1458432Y655819D01*
X1458987Y655570D01*
X1459598Y655292D01*
X1459626D01*
X1459709Y655236D01*
X1459875Y655181D01*
X1460042Y655098D01*
X1460264Y654986D01*
X1460542Y654875D01*
X1461125Y654598D01*
X1461763Y654293D01*
X1462374Y653959D01*
X1462957Y653654D01*
X1463207Y653487D01*
X1463429Y653349D01*
X1463457D01*
X1463484Y653321D01*
X1463651Y653182D01*
X1463901Y652988D01*
X1464206Y652738D01*
X1464567Y652405D01*
X1464928Y652016D01*
X1465261Y651572D01*
X1465567Y651100D01*
Y651072D01*
X1465594Y651044D01*
X1465650Y650961D01*
X1465678Y650878D01*
X1465816Y650600D01*
X1465955Y650239D01*
X1466094Y649795D01*
X1466233Y649295D01*
X1466316Y648740D01*
X1466344Y648129D01*
Y648102D01*
Y648046D01*
Y647935D01*
X1466316Y647768D01*
Y647602D01*
X1466288Y647380D01*
X1466177Y646880D01*
X1466039Y646269D01*
X1465816Y645631D01*
X1465483Y644964D01*
X1465289Y644631D01*
X1465067Y644298D01*
X1465039Y644270D01*
X1465011Y644215D01*
X1464928Y644131D01*
X1464845Y644020D01*
X1464706Y643854D01*
X1464539Y643687D01*
X1464151Y643299D01*
X1463651Y642855D01*
X1463040Y642410D01*
X1462346Y641966D01*
X1461541Y641577D01*
X1461513D01*
X1461430Y641550D01*
X1461319Y641494D01*
X1461152Y641439D01*
X1460930Y641355D01*
X1460681Y641272D01*
X1460403Y641189D01*
X1460070Y641105D01*
X1459709Y641022D01*
X1459320Y640939D01*
X1458904Y640856D01*
X1458459Y640772D01*
X1457488Y640661D01*
X1456433Y640633D01*
X1456016D01*
X1455711Y640661D01*
X1455350Y640689D01*
X1454906Y640744D01*
X1454434Y640800D01*
X1453907Y640883D01*
X1453351Y640967D01*
X1452768Y641105D01*
X1452185Y641244D01*
X1451575Y641439D01*
X1450992Y641661D01*
X1450408Y641911D01*
X1449825Y642188D01*
X1449298Y642521D01*
X1449270Y642549D01*
X1449187Y642605D01*
X1449048Y642716D01*
X1448882Y642882D01*
X1448660Y643104D01*
X1448437Y643382D01*
X1448188Y643715D01*
X1447938Y644076D01*
X1447660Y644520D01*
X1447410Y645020D01*
X1447188Y645575D01*
X1446994Y646214D01*
X1446799Y646880D01*
X1446661Y647630D01*
X1446577Y648462D01*
X1446550Y649351D01*
X1449909Y649656D01*
X1449853Y648740D01*
Y648712D01*
Y648684D01*
Y648601D01*
Y648490D01*
X1449881Y648213D01*
X1449937Y647852D01*
X1450020Y647435D01*
X1450131Y646963D01*
X1450297Y646491D01*
X1450520Y646019D01*
X1450547Y645964D01*
X1450658Y645825D01*
X1450825Y645603D01*
X1451075Y645325D01*
X1451380Y645020D01*
X1451769Y644715D01*
X1452241Y644409D01*
X1452796Y644131D01*
X1452824D01*
X1452879Y644104D01*
X1452963Y644076D01*
X1453074Y644020D01*
X1453240Y643965D01*
X1453407Y643909D01*
X1453629Y643854D01*
X1453851Y643798D01*
X1454406Y643687D01*
X1455045Y643576D01*
X1455767Y643493D01*
X1456544Y643465D01*
X1456849D01*
X1457044Y643493D01*
X1457321D01*
X1457599Y643549D01*
X1457932Y643576D01*
X1458293Y643632D01*
X1459043Y643798D01*
X1459820Y644020D01*
X1460569Y644354D01*
X1460930Y644576D01*
X1461236Y644798D01*
X1461263Y644826D01*
X1461319Y644853D01*
X1461375Y644937D01*
X1461486Y645048D01*
X1461763Y645325D01*
X1462069Y645686D01*
X1462346Y646158D01*
X1462624Y646686D01*
X1462735Y646963D01*
X1462790Y647241D01*
X1462846Y647574D01*
X1462874Y647879D01*
Y647907D01*
Y647935D01*
Y648074D01*
X1462818Y648324D01*
X1462763Y648601D01*
X1462652Y648934D01*
X1462513Y649323D01*
X1462291Y649684D01*
X1462013Y650073D01*
X1461958Y650128D01*
X1461902Y650184D01*
X1461819Y650239D01*
X1461680Y650350D01*
X1461541Y650461D01*
X1461319Y650600D01*
X1461097Y650767D01*
X1460791Y650961D01*
X1460458Y651155D01*
X1460070Y651377D01*
X1459626Y651600D01*
X1459126Y651877D01*
X1458571Y652127D01*
X1457932Y652432D01*
X1457238Y652738D01*
X1457210Y652766D01*
X1457099Y652793D01*
X1456960Y652877D01*
X1456738Y652960D01*
X1456516Y653071D01*
X1456211Y653182D01*
X1455600Y653487D01*
X1454906Y653793D01*
X1454212Y654126D01*
X1453907Y654293D01*
X1453601Y654459D01*
X1453324Y654598D01*
X1453101Y654737D01*
X1453074Y654764D01*
X1453018Y654792D01*
X1452935Y654848D01*
X1452824Y654931D01*
X1452518Y655181D01*
X1452130Y655486D01*
X1451713Y655847D01*
X1451297Y656264D01*
X1450908Y656708D01*
X1450547Y657207D01*
Y657235D01*
X1450520Y657263D01*
X1450464Y657346D01*
X1450436Y657457D01*
X1450297Y657707D01*
X1450159Y658096D01*
X1449992Y658540D01*
X1449881Y659068D01*
X1449770Y659651D01*
X1449742Y660261D01*
Y660289D01*
Y660345D01*
Y660456D01*
X1449770Y660594D01*
Y660761D01*
X1449798Y660983D01*
X1449881Y661455D01*
X1450020Y661983D01*
X1450186Y662593D01*
X1450464Y663204D01*
X1450825Y663815D01*
Y663843D01*
X1450880Y663898D01*
X1450936Y663954D01*
X1451019Y664065D01*
X1451269Y664370D01*
X1451630Y664703D01*
X1452074Y665092D01*
X1452630Y665508D01*
X1453268Y665897D01*
X1453990Y666230D01*
X1454018D01*
X1454073Y666258D01*
X1454212Y666313D01*
X1454351Y666369D01*
X1454545Y666425D01*
X1454795Y666508D01*
X1455045Y666591D01*
X1455350Y666674D01*
X1455683Y666730D01*
X1456044Y666813D01*
X1456849Y666952D01*
X1457738Y667063D01*
X1458709Y667091D01*
X1459015D01*
X1459237Y667063D01*
D02*
G37*
G36*
X1516594Y663787D02*
X1508237D01*
X1503490Y641050D01*
X1500103D01*
X1504850Y663787D01*
X1496244D01*
X1496855Y666674D01*
X1517204D01*
X1516594Y663787D01*
D02*
G37*
G36*
X1492801D02*
X1477588D01*
X1475922Y655764D01*
X1490830D01*
X1490220Y652877D01*
X1475311D01*
X1473451Y643937D01*
X1489664D01*
X1489053Y641050D01*
X1469453D01*
X1474812Y666674D01*
X1493412D01*
X1492801Y663787D01*
D02*
G37*
G36*
X1445050Y663787D02*
X1429837D01*
X1428171Y655764D01*
X1443079D01*
X1442469Y652877D01*
X1427560D01*
X1425700Y643937D01*
X1441913D01*
X1441302Y641050D01*
X1421702D01*
X1427061Y666674D01*
X1445661D01*
X1445050Y663787D01*
D02*
G37*
G36*
X1412930Y666647D02*
X1413235D01*
X1413568Y666619D01*
X1413929D01*
X1414706Y666536D01*
X1415511Y666452D01*
X1416289Y666313D01*
X1416622Y666230D01*
X1416955Y666119D01*
X1416983D01*
X1417038Y666091D01*
X1417122Y666064D01*
X1417233Y666008D01*
X1417510Y665869D01*
X1417899Y665675D01*
X1418315Y665397D01*
X1418732Y665064D01*
X1419148Y664620D01*
X1419537Y664120D01*
Y664093D01*
X1419565Y664065D01*
X1419620Y663981D01*
X1419676Y663870D01*
X1419759Y663704D01*
X1419842Y663537D01*
X1419926Y663343D01*
X1420009Y663121D01*
X1420175Y662566D01*
X1420342Y661955D01*
X1420453Y661233D01*
X1420481Y660428D01*
Y660400D01*
Y660289D01*
Y660123D01*
X1420453Y659901D01*
X1420425Y659651D01*
X1420370Y659317D01*
X1420314Y658984D01*
X1420231Y658596D01*
X1420120Y658207D01*
X1419981Y657791D01*
X1419814Y657346D01*
X1419620Y656902D01*
X1419370Y656486D01*
X1419093Y656041D01*
X1418787Y655625D01*
X1418426Y655236D01*
X1418399Y655209D01*
X1418343Y655153D01*
X1418204Y655042D01*
X1418038Y654903D01*
X1417816Y654737D01*
X1417538Y654542D01*
X1417205Y654348D01*
X1416816Y654126D01*
X1416400Y653904D01*
X1415900Y653682D01*
X1415373Y653460D01*
X1414762Y653238D01*
X1414095Y653043D01*
X1413401Y652849D01*
X1412624Y652710D01*
X1411791Y652571D01*
X1411819D01*
X1411847Y652516D01*
X1412013Y652405D01*
X1412291Y652183D01*
X1412596Y651933D01*
X1412930Y651600D01*
X1413290Y651266D01*
X1413624Y650906D01*
X1413929Y650517D01*
X1413957Y650489D01*
X1414012Y650406D01*
X1414095Y650295D01*
X1414179Y650128D01*
X1414318Y649934D01*
X1414484Y649684D01*
X1414651Y649406D01*
X1414845Y649101D01*
X1415039Y648740D01*
X1415262Y648379D01*
X1415678Y647602D01*
X1416094Y646741D01*
X1416483Y645853D01*
X1418454Y641050D01*
X1414623D01*
X1412791Y645797D01*
Y645825D01*
X1412735Y645908D01*
X1412680Y646047D01*
X1412624Y646242D01*
X1412513Y646464D01*
X1412402Y646713D01*
X1412291Y647019D01*
X1412124Y647352D01*
X1411791Y648046D01*
X1411403Y648796D01*
X1410986Y649573D01*
X1410514Y650295D01*
Y650322D01*
X1410486Y650350D01*
X1410375Y650517D01*
X1410181Y650739D01*
X1409959Y650989D01*
X1409709Y651294D01*
X1409404Y651572D01*
X1409071Y651822D01*
X1408737Y652016D01*
X1408710Y652044D01*
X1408571Y652072D01*
X1408349Y652155D01*
X1408043Y652238D01*
X1407627Y652294D01*
X1407127Y652377D01*
X1406516Y652405D01*
X1405795Y652432D01*
X1401825D01*
X1399437Y641050D01*
X1396050D01*
X1401408Y666674D01*
X1412652D01*
X1412930Y666647D01*
D02*
G37*
%LPC*%
G36*
X601405Y76487D02*
X596380D01*
X592244Y56637D01*
X596769D01*
X596991Y56665D01*
X597269D01*
X597602Y56693D01*
X597935D01*
X598712Y56748D01*
X599517Y56859D01*
X600350Y56970D01*
X601183Y57137D01*
X601211D01*
X601239Y57165D01*
X601405Y57193D01*
X601655Y57276D01*
X601960Y57359D01*
X602321Y57498D01*
X602710Y57664D01*
X603099Y57831D01*
X603487Y58053D01*
X603515D01*
X603543Y58081D01*
X603682Y58192D01*
X603932Y58358D01*
X604237Y58608D01*
X604570Y58914D01*
X604959Y59247D01*
X605348Y59663D01*
X605736Y60135D01*
X605764Y60163D01*
X605792Y60219D01*
X605875Y60302D01*
X605958Y60441D01*
X606069Y60607D01*
X606208Y60802D01*
X606347Y61024D01*
X606513Y61274D01*
X606847Y61857D01*
X607207Y62523D01*
X607541Y63245D01*
X607874Y64050D01*
Y64078D01*
X607902Y64161D01*
X607957Y64272D01*
X608013Y64439D01*
X608068Y64633D01*
X608124Y64883D01*
X608207Y65188D01*
X608290Y65493D01*
X608346Y65854D01*
X608429Y66243D01*
X608485Y66659D01*
X608568Y67076D01*
X608651Y68020D01*
X608679Y69047D01*
Y69075D01*
Y69186D01*
Y69352D01*
X608651Y69574D01*
Y69824D01*
X608623Y70130D01*
X608596Y70463D01*
X608540Y70824D01*
X608401Y71601D01*
X608207Y72406D01*
X607929Y73156D01*
X607763Y73517D01*
X607568Y73850D01*
Y73878D01*
X607513Y73933D01*
X607457Y74016D01*
X607374Y74127D01*
X607152Y74405D01*
X606819Y74766D01*
X606430Y75127D01*
X605958Y75488D01*
X605431Y75821D01*
X604820Y76071D01*
X604764Y76099D01*
X604681D01*
X604598Y76126D01*
X604459Y76182D01*
X604292Y76210D01*
X604098Y76237D01*
X603876Y76293D01*
X603598Y76321D01*
X603321Y76348D01*
X603015Y76404D01*
X602654Y76432D01*
X602266Y76459D01*
X601849D01*
X601405Y76487D01*
D02*
G37*
G36*
X713963Y899737D02*
X708939D01*
X704802Y879887D01*
X709327D01*
X709549Y879915D01*
X709827D01*
X710160Y879943D01*
X710493D01*
X711271Y879998D01*
X712076Y880109D01*
X712909Y880220D01*
X713741Y880387D01*
X713769D01*
X713797Y880415D01*
X713963Y880443D01*
X714213Y880526D01*
X714519Y880609D01*
X714880Y880748D01*
X715268Y880915D01*
X715657Y881081D01*
X716046Y881303D01*
X716074D01*
X716101Y881331D01*
X716240Y881442D01*
X716490Y881609D01*
X716795Y881858D01*
X717128Y882164D01*
X717517Y882497D01*
X717906Y882913D01*
X718294Y883385D01*
X718322Y883413D01*
X718350Y883469D01*
X718433Y883552D01*
X718516Y883691D01*
X718628Y883857D01*
X718766Y884052D01*
X718905Y884274D01*
X719072Y884524D01*
X719405Y885107D01*
X719766Y885773D01*
X720099Y886495D01*
X720432Y887300D01*
Y887327D01*
X720460Y887411D01*
X720515Y887522D01*
X720571Y887688D01*
X720627Y887883D01*
X720682Y888133D01*
X720765Y888438D01*
X720849Y888743D01*
X720904Y889104D01*
X720987Y889493D01*
X721043Y889909D01*
X721126Y890326D01*
X721209Y891270D01*
X721237Y892297D01*
Y892325D01*
Y892436D01*
Y892602D01*
X721209Y892824D01*
Y893074D01*
X721182Y893380D01*
X721154Y893713D01*
X721098Y894074D01*
X720960Y894851D01*
X720765Y895656D01*
X720488Y896406D01*
X720321Y896767D01*
X720127Y897100D01*
Y897128D01*
X720071Y897183D01*
X720016Y897266D01*
X719932Y897377D01*
X719710Y897655D01*
X719377Y898016D01*
X718988Y898377D01*
X718516Y898738D01*
X717989Y899071D01*
X717378Y899321D01*
X717323Y899349D01*
X717240D01*
X717156Y899376D01*
X717017Y899432D01*
X716851Y899460D01*
X716656Y899487D01*
X716434Y899543D01*
X716157Y899571D01*
X715879Y899598D01*
X715574Y899654D01*
X715213Y899682D01*
X714824Y899709D01*
X714408D01*
X713963Y899737D01*
D02*
G37*
G36*
X992567Y950628D02*
X992511D01*
X992372D01*
X992178Y950600D01*
X991900Y950572D01*
X991595Y950489D01*
X991289Y950406D01*
X990956Y950267D01*
X990623Y950100D01*
X990595Y950073D01*
X990484Y950017D01*
X990346Y949906D01*
X990179Y949740D01*
X989985Y949545D01*
X989790Y949323D01*
X989624Y949073D01*
X989485Y948768D01*
X989457Y948740D01*
X989429Y948601D01*
X989374Y948407D01*
X989318Y948129D01*
X989263Y947741D01*
X989235Y947269D01*
X989180Y946686D01*
Y937635D01*
X997841Y935831D01*
Y942327D01*
X997813Y943021D01*
Y943743D01*
X997786Y944048D01*
Y944354D01*
X997758Y944604D01*
Y944909D01*
X997730Y945020D01*
Y945159D01*
X997702Y945325D01*
X997675Y945520D01*
X997591Y945964D01*
X997480Y946464D01*
X997314Y946991D01*
X997120Y947518D01*
X996897Y947990D01*
Y948018D01*
X996870Y948046D01*
X996759Y948185D01*
X996620Y948435D01*
X996398Y948712D01*
X996148Y949018D01*
X995842Y949351D01*
X995481Y949656D01*
X995065Y949934D01*
X995010Y949962D01*
X994871Y950045D01*
X994621Y950156D01*
X994315Y950295D01*
X993955Y950406D01*
X993510Y950517D01*
X993066Y950600D01*
X992567Y950628D01*
D02*
G37*
G36*
X1001978Y920950D02*
X995565Y919978D01*
X995509D01*
X995398Y919951D01*
X995204Y919923D01*
X994926Y919895D01*
X994593Y919840D01*
X994204Y919784D01*
X993788Y919729D01*
X993316Y919645D01*
X992844Y919590D01*
X992317Y919534D01*
X991262Y919395D01*
X990179Y919312D01*
X989679Y919257D01*
X989180Y919229D01*
X989207D01*
X989290Y919201D01*
X989402Y919146D01*
X989568Y919062D01*
X989790Y918979D01*
X990040Y918868D01*
X990346Y918729D01*
X990651Y918590D01*
X991040Y918396D01*
X991428Y918229D01*
X991872Y918007D01*
X992317Y917785D01*
X993316Y917258D01*
X994399Y916675D01*
X1001978Y912483D01*
Y920950D01*
D02*
G37*
G36*
X1413263Y663870D02*
X1404212D01*
X1402408Y655209D01*
X1408904D01*
X1409598Y655236D01*
X1410320D01*
X1410625Y655264D01*
X1410931D01*
X1411181Y655292D01*
X1411486D01*
X1411597Y655320D01*
X1411736D01*
X1411902Y655348D01*
X1412097Y655375D01*
X1412541Y655459D01*
X1413041Y655570D01*
X1413568Y655736D01*
X1414095Y655930D01*
X1414568Y656153D01*
X1414595D01*
X1414623Y656180D01*
X1414762Y656291D01*
X1415012Y656430D01*
X1415289Y656652D01*
X1415595Y656902D01*
X1415928Y657207D01*
X1416233Y657568D01*
X1416511Y657985D01*
X1416539Y658040D01*
X1416622Y658179D01*
X1416733Y658429D01*
X1416872Y658734D01*
X1416983Y659095D01*
X1417094Y659539D01*
X1417177Y659984D01*
X1417205Y660483D01*
Y660539D01*
Y660678D01*
X1417177Y660872D01*
X1417149Y661150D01*
X1417066Y661455D01*
X1416983Y661760D01*
X1416844Y662094D01*
X1416677Y662427D01*
X1416650Y662455D01*
X1416594Y662566D01*
X1416483Y662704D01*
X1416317Y662871D01*
X1416122Y663065D01*
X1415900Y663260D01*
X1415650Y663426D01*
X1415345Y663565D01*
X1415317Y663593D01*
X1415178Y663621D01*
X1414984Y663676D01*
X1414706Y663732D01*
X1414318Y663787D01*
X1413846Y663815D01*
X1413263Y663870D01*
D02*
G37*
%LPD*%
D10*
X874460Y987240D02*
G03*
X845640Y987240I-14410J-368D01*
G01*
X647644Y930000D02*
G03*
X647644Y930000I-2644J0D01*
G01*
X808900Y649400D02*
G03*
X808900Y662100I0J6350D01*
G01*
X808900Y649400D02*
G03*
X808900Y662100I0J6350D01*
G01*
X622911Y452672D02*
G03*
X622911Y443528I0J-4572D01*
G01*
Y681272D02*
G03*
X622911Y672128I0J-4572D01*
G01*
X1512300Y537450D02*
G03*
X1512300Y537450I-8000J0D01*
G01*
Y204450D02*
G03*
X1512300Y204450I-8000J0D01*
G01*
X1626000Y247843D02*
G03*
X1629000Y250843I0J3000D01*
G01*
Y490875D02*
G03*
X1626000Y493875I-3000J0D01*
G01*
X1506135Y699624D02*
G03*
X1508000Y701619I-135J1995D01*
G01*
Y727881D02*
G03*
X1506134Y729876I-2000J0D01*
G01*
X1446000Y747250D02*
G03*
X1445000Y748250I-1000J0D01*
G01*
X1450000Y747250D02*
G03*
X1445000Y752250I-5000J0D01*
G01*
Y681250D02*
G03*
X1446000Y682250I0J1000D01*
G01*
X1445000Y677250D02*
G03*
X1450000Y682250I0J5000D01*
G01*
X1023900Y664775D02*
G03*
X1023900Y664775I-5000J0D01*
G01*
X931100Y662100D02*
G03*
X931100Y649400I0J-6350D01*
G01*
X931100Y662100D02*
G03*
X931100Y649400I0J-6350D01*
G01*
X795930Y853138D02*
G03*
X744070Y853138I-25930J-37388D01*
G01*
X732612Y841680D02*
G03*
X732612Y789820I37388J-25930D01*
G01*
X744070Y778362D02*
G03*
X795930Y778362I25930J37388D01*
G01*
X807388Y789820D02*
G03*
X807388Y841680I-37388J25930D01*
G01*
X799001Y823350D02*
G03*
X791250Y824032I-4151J-2787D01*
G01*
X799250Y823150D02*
G03*
X807350Y823812I3812J3235D01*
G01*
X740350Y807500D02*
G03*
X748450Y808162I3812J3235D01*
G01*
X740101Y807700D02*
G03*
X732350Y808382I-4151J-2787D01*
G01*
X694888Y789820D02*
G03*
X694888Y841680I-37388J25930D01*
G01*
X683430Y853138D02*
G03*
X631570Y853138I-25930J-37388D01*
G01*
X620112Y841680D02*
G03*
X620112Y789820I37388J-25930D01*
G01*
X631570Y778362D02*
G03*
X683430Y778362I25930J37388D01*
G01*
X665100Y786749D02*
G03*
X665782Y794500I-2787J4151D01*
G01*
X664900Y786500D02*
G03*
X665562Y778400I3235J-3812D01*
G01*
X649250Y845400D02*
G03*
X649912Y837300I3235J-3812D01*
G01*
X649450Y845649D02*
G03*
X650132Y853400I-2787J4151D01*
G01*
X1196500Y454750D02*
X1207500D01*
X881640Y944097D02*
Y963250D01*
X838460Y830780D02*
X881640D01*
X838460D02*
Y842313D01*
Y963250D02*
X881640D01*
X876052D02*
Y967060D01*
X844048D02*
X876052D01*
X844048Y963250D02*
Y967060D01*
X845064D02*
X845640Y987240D01*
X874460D02*
X875036Y967060D01*
X838460Y944097D02*
Y963250D01*
X881640Y830780D02*
Y842313D01*
X843460Y947189D02*
Y963250D01*
Y830780D02*
Y839221D01*
X838460Y963250D02*
X881640D01*
X1078575Y849871D02*
Y870300D01*
X1072225Y849871D02*
Y870300D01*
X1053175Y849871D02*
Y870300D01*
X1046825Y849871D02*
Y870300D01*
X1027775Y849871D02*
Y870300D01*
X1021425Y849871D02*
Y870300D01*
X1078575Y895700D02*
Y962800D01*
X1075400Y963090D02*
X1078575Y962800D01*
X1075400Y895700D02*
Y980950D01*
X1024600D02*
X1075400D01*
X1024600Y895700D02*
Y980950D01*
X1021425Y962800D02*
X1024600D01*
X1021425Y895700D02*
Y962800D01*
X1011900Y863950D02*
Y895700D01*
Y863950D02*
X1016345D01*
Y870300D01*
X1032855D01*
Y863950D02*
Y870300D01*
Y863950D02*
X1041745D01*
Y870300D01*
X1058255D01*
Y863950D02*
Y870300D01*
Y863950D02*
X1067145D01*
Y870300D01*
X1083655D01*
Y863950D02*
Y870300D01*
Y863950D02*
X1088100D01*
Y895700D01*
X1011900D02*
X1088100D01*
X1011900Y863950D02*
Y895700D01*
X655000Y919000D02*
Y998310D01*
X805000Y919000D02*
Y999000D01*
X655000Y919000D02*
X805000D01*
X515700Y286900D02*
X530250D01*
X515700Y279900D02*
X530250D01*
X515700Y274200D02*
X530250D01*
X515700Y267200D02*
X530250D01*
X515700Y261500D02*
X530250D01*
X515700Y254500D02*
X530250D01*
X515700Y248800D02*
X530250D01*
X515700Y241800D02*
X530250D01*
X515700Y236100D02*
X530250D01*
X515700Y229100D02*
X530250D01*
X515700Y223400D02*
X530250D01*
X515700Y216400D02*
X530250D01*
X515700Y210700D02*
X530250D01*
X515700Y203700D02*
X530250D01*
X417200Y194500D02*
X515700D01*
Y296100D01*
X417200D02*
X515700D01*
X417200Y194500D02*
Y296100D01*
X1270050Y408550D02*
Y431050D01*
X1240050Y408550D02*
Y431050D01*
X915250Y513050D02*
X917250Y511050D01*
Y489650D02*
Y511050D01*
X915250Y487650D02*
X917250Y489650D01*
X894750Y487650D02*
X915250D01*
X892750Y489650D02*
X894750Y487650D01*
X892750Y489650D02*
Y511050D01*
X894750Y513050D01*
X915250D01*
X894750Y538450D02*
X915250D01*
X892750Y536450D02*
X894750Y538450D01*
X892750Y515050D02*
Y536450D01*
Y515050D02*
X894750Y513050D01*
X915250D02*
X917250Y515050D01*
Y536450D01*
X915250Y538450D02*
X917250Y536450D01*
X1208500Y284250D02*
Y295250D01*
X1231550Y206550D02*
Y229050D01*
X1261550Y206550D02*
Y229050D01*
X1208500Y261250D02*
Y272250D01*
X1152550Y291300D02*
X1181550D01*
X1152550D02*
Y299300D01*
X1181550D01*
Y291300D02*
Y299300D01*
X1130550Y290050D02*
X1141550D01*
X1111500Y309750D02*
X1122500D01*
X1167800Y345775D02*
Y356775D01*
X1358000Y213000D02*
X1368000D01*
X1358000Y197000D02*
X1368000D01*
X1268800Y163050D02*
Y185050D01*
X1298800Y163050D02*
Y185050D01*
X1244500Y103250D02*
X1250500D01*
X1195250Y210250D02*
X1206250D01*
X1199500Y103250D02*
X1205500D01*
X1227500Y75250D02*
Y81250D01*
X1282500Y75250D02*
Y81250D01*
X1251050Y358300D02*
Y369300D01*
X1235800Y321050D02*
X1264800D01*
X1235800D02*
Y329050D01*
X1264800D01*
Y321050D02*
Y329050D01*
X1331050Y319300D02*
Y348300D01*
X1339050D01*
Y319300D02*
Y348300D01*
X1331050Y319300D02*
X1339050D01*
X1331050Y358550D02*
Y369550D01*
X1284000Y414250D02*
X1295000D01*
X1336050Y405800D02*
Y428300D01*
X1306050Y405800D02*
Y428300D01*
X1235000Y456250D02*
X1272000D01*
X1235000Y507250D02*
X1272000D01*
Y456250D02*
Y507250D01*
X1235000Y456250D02*
Y507250D01*
X1235500Y501250D02*
X1241500Y507250D01*
X1235000Y502750D02*
X1239500Y507250D01*
X1235500Y504750D02*
X1237500Y506750D01*
X1120250Y504500D02*
Y510500D01*
X1106050Y545384D02*
X1135050D01*
Y536384D02*
Y545384D01*
X1106050Y536384D02*
X1135050D01*
X1106050D02*
Y545384D01*
X1070000Y45250D02*
Y51250D01*
X1276800Y58500D02*
X1278800Y60500D01*
X1300200D01*
X1302200Y58500D01*
X1300200Y36000D02*
X1302200Y38000D01*
X1278800Y36000D02*
X1300200D01*
X1276800Y38000D02*
X1278800Y36000D01*
X1302200Y38000D02*
Y58500D01*
X1251400D02*
X1253400Y60500D01*
X1274800D01*
X1276800Y58500D01*
X1274800Y36000D02*
X1276800Y38000D01*
X1253400Y36000D02*
X1274800D01*
X1251400Y38000D02*
X1253400Y36000D01*
X1276800Y38000D02*
Y58500D01*
X1226000D02*
X1228000Y60500D01*
X1249400D01*
X1251400Y58500D01*
X1249400Y36000D02*
X1251400Y38000D01*
X1228000Y36000D02*
X1249400D01*
X1226000Y38000D02*
X1228000Y36000D01*
X1251400Y38000D02*
Y58500D01*
X1200600D02*
X1202600Y60500D01*
X1224000D01*
X1226000Y58500D01*
X1224000Y36000D02*
X1226000Y38000D01*
X1202600Y36000D02*
X1224000D01*
X1200600Y38000D02*
X1202600Y36000D01*
X1226000Y38000D02*
Y58500D01*
X1175200D02*
X1177200Y60500D01*
X1198600D01*
X1200600Y58500D01*
X1198600Y36000D02*
X1200600Y38000D01*
X1177200Y36000D02*
X1198600D01*
X1175200Y38000D02*
X1177200Y36000D01*
X1200600Y38000D02*
Y58500D01*
X1149800D02*
X1151800Y60500D01*
X1173200D01*
X1175200Y58500D01*
X1173200Y36000D02*
X1175200Y38000D01*
X1151800Y36000D02*
X1173200D01*
X1149800Y38000D02*
X1151800Y36000D01*
X1175200Y38000D02*
Y58500D01*
X1149800Y38000D02*
Y58500D01*
X1124400Y38000D02*
X1126400Y36000D01*
X1147800D01*
X1149800Y38000D01*
X1147800Y60500D02*
X1149800Y58500D01*
X1126400Y60500D02*
X1147800D01*
X1124400Y58500D02*
X1126400Y60500D01*
X1099000Y58500D02*
X1101000Y60500D01*
X1122400D01*
X1124400Y58500D01*
Y38000D02*
Y58500D01*
X1122400Y36000D02*
X1124400Y38000D01*
X1101000Y36000D02*
X1122400D01*
X1099000Y38000D02*
X1101000Y36000D01*
X1099000Y38000D02*
Y58500D01*
X1017000Y103250D02*
X1023000D01*
X986750D02*
X992750D01*
X1017000Y73250D02*
X1023000D01*
X910500Y74000D02*
X939500D01*
X910500D02*
Y82000D01*
X939500D01*
Y74000D02*
Y82000D01*
X1105000Y95250D02*
Y101250D01*
Y115250D02*
Y121250D01*
Y135250D02*
Y141250D01*
X1062000Y178250D02*
X1068000D01*
X1042000D02*
X1048000D01*
X1147550Y185800D02*
Y208300D01*
X1117550Y185800D02*
Y208300D01*
X1189050Y408800D02*
Y431300D01*
X1159050Y408800D02*
Y431300D01*
X1144050Y542134D02*
X1150050D01*
X995500Y317250D02*
Y327250D01*
X980250Y387000D02*
Y421000D01*
X1029250Y389250D02*
Y395250D01*
X1060750Y389250D02*
Y395250D01*
X1033250Y424250D02*
X1067250D01*
X1071010Y507000D02*
X1075000D01*
Y503010D02*
Y507000D01*
Y466000D02*
Y469990D01*
X1071010Y466000D02*
X1075000D01*
X1034000D02*
X1037990D01*
X1034000D02*
Y469990D01*
Y507000D02*
X1037990D01*
X1034000Y503010D02*
Y507000D01*
X1028500Y532250D02*
X1034500D01*
X962000Y614500D02*
Y625500D01*
X946250Y591500D02*
X957250D01*
X897500Y457250D02*
X913500D01*
X897500Y440250D02*
Y457250D01*
X913500Y440250D02*
Y457250D01*
X835500Y434750D02*
X859500D01*
X835500Y433750D02*
X859500D01*
X835500Y432750D02*
Y434750D01*
X859500Y432750D02*
Y434750D01*
X877500Y431250D02*
Y540250D01*
X817500Y431250D02*
X877500D01*
X817500D02*
Y540250D01*
X877500D01*
X574000Y296000D02*
Y302000D01*
X734000Y590750D02*
X763000D01*
X734000D02*
Y596250D01*
X763000D01*
Y590750D02*
Y596250D01*
X808900Y629250D02*
Y649400D01*
Y662100D02*
Y682250D01*
X861100Y629250D02*
Y682250D01*
X808900Y629250D02*
X861100D01*
X808900Y682250D02*
X861100D01*
X695555Y486200D02*
X704192Y494836D01*
X695555Y486200D02*
X704192Y477564D01*
X695555Y636314D02*
X701906D01*
X695555Y615486D02*
X701906D01*
X679583Y447084D02*
Y471214D01*
X647520Y447084D02*
Y471214D01*
X678792Y444036D02*
Y447084D01*
X648311Y444036D02*
X678792D01*
X648311D02*
Y447084D01*
X679583Y653586D02*
Y677716D01*
X647520Y653586D02*
Y677716D01*
X648311D02*
Y680764D01*
X678792Y677716D02*
Y680764D01*
X648311D02*
X678792D01*
X647520Y653586D02*
X679583D01*
X701906Y605580D02*
Y646220D01*
X632056Y537635D02*
Y587165D01*
X622911D02*
X638368D01*
X641962Y621988D02*
Y629075D01*
X622911D02*
X641962D01*
X632056Y650030D02*
Y677716D01*
X695555D01*
Y583355D02*
Y677716D01*
X647520Y471214D02*
X679583D01*
X687934Y583355D02*
X704192D01*
X687934Y541445D02*
X704192D01*
X695555Y447084D02*
Y541445D01*
X632056Y447084D02*
X695555D01*
X632056D02*
Y495725D01*
X622911Y537635D02*
X638368D01*
X641962Y495725D02*
Y502813D01*
X622911Y495725D02*
X641962D01*
X622911Y681272D02*
Y687876D01*
Y452672D02*
Y672128D01*
Y436924D02*
Y443528D01*
Y436924D02*
X704192D01*
Y605580D01*
X701906D02*
X704192D01*
X701906Y646220D02*
X704192D01*
Y687876D01*
X622911D02*
X704192D01*
X1446700Y583500D02*
X1448700Y585500D01*
X1425300Y583500D02*
X1446700D01*
X1423300Y585500D02*
X1425300Y583500D01*
X1423300Y585500D02*
Y606000D01*
X1425300Y608000D01*
X1446700D01*
X1448700Y606000D01*
Y585500D02*
Y606000D01*
X1474100Y585500D02*
Y606000D01*
X1472100Y608000D02*
X1474100Y606000D01*
X1450700Y608000D02*
X1472100D01*
X1448700Y606000D02*
X1450700Y608000D01*
X1448700Y585500D02*
X1450700Y583500D01*
X1472100D01*
X1474100Y585500D01*
X1423000Y173450D02*
Y189450D01*
Y219450D02*
Y235450D01*
Y506450D02*
Y522450D01*
Y552450D02*
Y568450D01*
X1514000Y488145D02*
X1524000D01*
X1514000Y253752D02*
X1524000D01*
X1514000D02*
Y488145D01*
X1524000Y235450D02*
Y506450D01*
X1568000Y247843D02*
X1626000D01*
X1629000Y250843D02*
Y490875D01*
X1568000Y493875D02*
X1626000D01*
X1544000Y179450D02*
X1549000D01*
X1559000Y565950D02*
X1568000D01*
X1549000Y173450D02*
Y235450D01*
X1544000Y229450D02*
X1549000D01*
X1544000Y179450D02*
Y229450D01*
X1549000Y506450D02*
Y568450D01*
X1423000Y506450D02*
X1559000D01*
X1423000Y568450D02*
X1559000D01*
X1423000Y235450D02*
X1559000D01*
X1423000Y173450D02*
X1559000D01*
X1568000Y229450D02*
X1620000D01*
X1568000Y562450D02*
X1620000D01*
X1568000Y179450D02*
X1620000D01*
Y229450D01*
X1544000Y562450D02*
X1549000D01*
X1544000Y512450D02*
Y562450D01*
Y512450D02*
X1549000D01*
Y507841D02*
Y568450D01*
X1559000Y173450D02*
Y568450D01*
Y175950D02*
X1568000D01*
Y565950D01*
Y512450D02*
X1620000D01*
Y562450D01*
X1348500Y620500D02*
X1358500D01*
X1298700Y540000D02*
X1300700Y542000D01*
X1322100D01*
X1324100Y540000D01*
Y519500D02*
Y540000D01*
X1322100Y517500D02*
X1324100Y519500D01*
X1300700Y517500D02*
X1322100D01*
X1298700Y519500D02*
X1300700Y517500D01*
X1298700Y519500D02*
Y540000D01*
X1273300Y519500D02*
Y540000D01*
Y519500D02*
X1275300Y517500D01*
X1296700D01*
X1298700Y519500D01*
X1296700Y542000D02*
X1298700Y540000D01*
X1275300Y542000D02*
X1296700D01*
X1273300Y540000D02*
X1275300Y542000D01*
X1241500Y554000D02*
Y564000D01*
X1223500Y596750D02*
X1233500D01*
X1384000Y748250D02*
X1386084D01*
X1412767Y752250D02*
X1445000D01*
X1384000Y677250D02*
X1386234D01*
X1412916Y681250D02*
X1419704D01*
X1412916Y748250D02*
X1419704D01*
X1432970Y745750D02*
X1446000D01*
X1429296Y681250D02*
X1445000D01*
X1432970Y683750D02*
X1446000D01*
X1412700D02*
X1416029D01*
X1412601Y733750D02*
X1412685Y695750D01*
X1412700Y683750D02*
Y688750D01*
Y740750D02*
Y745750D01*
X1416029D01*
X1409700Y733750D02*
Y740750D01*
X1413022D01*
X1409700Y733750D02*
X1413022D01*
X1409700Y695750D02*
X1413022D01*
X1409700Y688750D02*
Y695750D01*
Y688750D02*
X1413022D01*
X1453200Y697250D02*
X1471000D01*
X1506135Y699624D01*
X1508000Y701619D02*
Y727881D01*
X1471000Y732233D02*
X1506134Y729876D01*
X1453200Y732233D02*
X1471000D01*
X1450000Y743000D02*
X1453200D01*
Y729500D02*
Y743000D01*
X1450000Y729500D02*
X1453200D01*
X1450000Y700000D02*
X1453200D01*
Y686500D02*
Y700000D01*
X1450000Y686500D02*
X1453200D01*
X1384000Y748250D02*
Y752250D01*
Y677250D02*
Y681250D01*
X1412767Y677250D02*
X1445000D01*
X1450000Y682250D02*
Y747250D01*
X1384000Y752250D02*
X1386234D01*
X1429296Y748250D02*
X1445000D01*
X1446000Y682250D02*
Y747250D01*
X1384000Y681250D02*
X1386084D01*
X1265300Y594550D02*
Y696550D01*
X1310300D01*
Y594550D02*
Y696550D01*
X1265300Y594550D02*
X1310300D01*
X1158160Y846840D02*
Y852090D01*
X1264840Y846590D02*
Y852090D01*
X1103000Y938750D02*
X1109000D01*
X1312000Y840750D02*
Y850750D01*
X1328000Y840750D02*
Y850750D01*
X1168700Y771775D02*
X1179200D01*
Y649775D02*
Y771775D01*
X1168700Y649775D02*
X1179200D01*
X1003900Y771775D02*
X1014400D01*
X1003900Y649775D02*
Y771775D01*
Y649775D02*
X1014400D01*
X932250Y765500D02*
X961250D01*
Y756500D02*
Y765500D01*
X932250Y756500D02*
X961250D01*
X932250D02*
Y765500D01*
X931100Y662100D02*
Y682250D01*
Y629250D02*
Y649400D01*
X878900Y629250D02*
Y682250D01*
X931100D01*
X878900Y629250D02*
X931100D01*
X835400Y778250D02*
X923400D01*
X835400Y747250D02*
X923400D01*
Y778250D01*
X835400Y747250D02*
Y778250D01*
X1156800Y151550D02*
Y173550D01*
X1186800Y151550D02*
Y173550D01*
X1309250Y936250D02*
X1315250D01*
X733250Y45500D02*
X746250D01*
X508250Y344000D02*
X521250D01*
X1357500Y500500D02*
X1369500D01*
X1357500Y516500D02*
X1369500D01*
X1234250Y747429D02*
Y764071D01*
X1305750Y747429D02*
Y764071D01*
X987000Y73250D02*
X993000D01*
X700650Y21520D02*
X703825D01*
X700650Y20250D02*
X702555D01*
X703825Y21520D01*
Y86250D01*
X649850Y1000D02*
X700650D01*
Y86250D01*
X672075Y111650D02*
Y133110D01*
X678425Y111650D02*
Y133110D01*
X697475Y111650D02*
Y132200D01*
X703825Y111650D02*
Y132200D01*
X708905Y118000D02*
X713350D01*
X708905Y111650D02*
Y118000D01*
X692395Y111650D02*
X708905D01*
X692395D02*
Y118000D01*
X683505D02*
X692395D01*
X683505Y111650D02*
Y118000D01*
X666995Y111650D02*
X683505D01*
X666995D02*
Y118000D01*
X662550D02*
X666995D01*
X662550Y86250D02*
X713350D01*
Y118000D01*
X611750Y86250D02*
X662550D01*
X611750D02*
Y118000D01*
X616195D01*
Y111650D02*
Y118000D01*
Y111650D02*
X632705D01*
Y118000D01*
X641595D01*
Y111650D02*
Y118000D01*
Y111650D02*
X658105D01*
Y118000D01*
X662550D01*
X653025Y111650D02*
Y132200D01*
X646675Y111650D02*
Y132200D01*
X627625Y111650D02*
Y133110D01*
X621275Y111650D02*
Y133110D01*
X624450Y1000D02*
X649850D01*
X624450D02*
Y86250D01*
X622545Y20250D02*
X624450D01*
X621275Y21520D02*
X622545Y20250D01*
X621275Y21520D02*
Y86250D01*
Y21520D02*
X624450D01*
X947250Y648750D02*
X957250D01*
X946750Y541500D02*
X956750D01*
X751625Y45500D02*
X764625D01*
X938250Y437750D02*
X951250D01*
X770000Y45500D02*
X783000D01*
X1326000Y292250D02*
Y303250D01*
X761600Y636800D02*
X763600Y638800D01*
X785000D01*
X787000Y636800D01*
Y616300D02*
Y636800D01*
X785000Y614300D02*
X787000Y616300D01*
X763600Y614300D02*
X785000D01*
X761600Y616300D02*
X763600Y614300D01*
X761600Y616300D02*
Y636800D01*
X736200Y616300D02*
Y636800D01*
Y616300D02*
X738200Y614300D01*
X759600D01*
X761600Y616300D01*
X759600Y638800D02*
X761600Y636800D01*
X738200Y638800D02*
X759600D01*
X736200Y636800D02*
X738200Y638800D01*
X1103000Y903500D02*
X1109000D01*
X1184750Y310246D02*
Y299250D01*
X1192081D01*
X1195746Y310246D02*
X1203077D01*
Y308414D01*
X1195746Y301083D01*
Y299250D01*
X851871Y817986D02*
X853537Y819652D01*
Y822984D01*
X851871Y824650D01*
X845206D01*
X843540Y822984D01*
Y819652D01*
X845206Y817986D01*
X868940Y824650D02*
X875604D01*
X878937Y821318D01*
X875604Y817986D01*
X868940D01*
X873938D01*
Y824650D01*
X1334250Y258414D02*
X1336083Y260246D01*
X1339748D01*
X1341581Y258414D01*
Y256581D01*
X1339748Y254748D01*
X1337915D01*
X1339748D01*
X1341581Y252915D01*
Y251083D01*
X1339748Y249250D01*
X1336083D01*
X1334250Y251083D01*
X1345246Y260246D02*
Y252915D01*
X1348912Y249250D01*
X1352577Y252915D01*
Y260246D01*
X1356243Y258414D02*
X1358076Y260246D01*
X1361741D01*
X1363574Y258414D01*
Y256581D01*
X1361741Y254748D01*
X1359908D01*
X1361741D01*
X1363574Y252915D01*
Y251083D01*
X1361741Y249250D01*
X1358076D01*
X1356243Y251083D01*
X1367239Y249250D02*
Y256581D01*
X1370905Y260246D01*
X1374570Y256581D01*
Y249250D01*
Y254748D01*
X1367239D01*
X1378236Y260246D02*
Y249250D01*
X1383734D01*
X1385567Y251083D01*
Y258414D01*
X1383734Y260246D01*
X1378236D01*
X1396563Y258414D02*
X1394731Y260246D01*
X1391065D01*
X1389232Y258414D01*
Y251083D01*
X1391065Y249250D01*
X1394731D01*
X1396563Y251083D01*
X642250Y189500D02*
X645916D01*
X644083D01*
Y200496D01*
X642250Y198664D01*
X658745Y189500D02*
X651414D01*
X658745Y196831D01*
Y198664D01*
X656912Y200496D01*
X653246D01*
X651414Y198664D01*
X662410Y200496D02*
Y193165D01*
X666076Y189500D01*
X669741Y193165D01*
Y200496D01*
X876250Y577414D02*
X878083Y579246D01*
X881748D01*
X883581Y577414D01*
Y575581D01*
X881748Y573748D01*
X879915D01*
X881748D01*
X883581Y571916D01*
Y570083D01*
X881748Y568250D01*
X878083D01*
X876250Y570083D01*
X887246Y579246D02*
Y571916D01*
X890912Y568250D01*
X894577Y571916D01*
Y579246D01*
X898243Y577414D02*
X900076Y579246D01*
X903741D01*
X905574Y577414D01*
Y575581D01*
X903741Y573748D01*
X901908D01*
X903741D01*
X905574Y571916D01*
Y570083D01*
X903741Y568250D01*
X900076D01*
X898243Y570083D01*
X909239Y579246D02*
Y568250D01*
X914738D01*
X916570Y570083D01*
Y577414D01*
X914738Y579246D01*
X909239D01*
X1118081Y381246D02*
X1110750D01*
Y375748D01*
X1114416Y377581D01*
X1116248D01*
X1118081Y375748D01*
Y372083D01*
X1116248Y370250D01*
X1112583D01*
X1110750Y372083D01*
X1121746Y381246D02*
Y373915D01*
X1125412Y370250D01*
X1129077Y373915D01*
Y381246D01*
X1132743Y370250D02*
Y377581D01*
X1136408Y381246D01*
X1140074Y377581D01*
Y370250D01*
Y375748D01*
X1132743D01*
X1467378Y476426D02*
X1465235Y477140D01*
X1463807Y478569D01*
X1463093Y480711D01*
Y481425D01*
X1463807Y483568D01*
X1465235Y484996D01*
X1467378Y485710D01*
X1468092D01*
X1470234Y484996D01*
X1471663Y483568D01*
X1472377Y481425D01*
Y480711D01*
X1471663Y478569D01*
X1470234Y477140D01*
X1467378Y476426D01*
X1463807D01*
X1460237Y477140D01*
X1458094Y478569D01*
X1457380Y480711D01*
Y482139D01*
X1458094Y484282D01*
X1459522Y484996D01*
X1444120Y484440D02*
X1444834Y483012D01*
X1446977Y480869D01*
X1431980D01*
X1446977Y258969D02*
X1446263Y261112D01*
X1444834Y261826D01*
X1443406D01*
X1441978Y261112D01*
X1441264Y259683D01*
X1440550Y256827D01*
X1439835Y254685D01*
X1438407Y253256D01*
X1436979Y252542D01*
X1434836D01*
X1433408Y253256D01*
X1432694Y253970D01*
X1431980Y256113D01*
Y258969D01*
X1432694Y261112D01*
X1433408Y261826D01*
X1434836Y262540D01*
X1436979D01*
X1438407Y261826D01*
X1439835Y260397D01*
X1440550Y258255D01*
X1441264Y255399D01*
X1441978Y253970D01*
X1443406Y253256D01*
X1444834D01*
X1446263Y253970D01*
X1446977Y256113D01*
Y258969D01*
X1469520Y262540D02*
X1470234Y261112D01*
X1472377Y258969D01*
X1457380D01*
X1472377Y242973D02*
Y250114D01*
X1465950Y250828D01*
X1466664Y250114D01*
X1467378Y247972D01*
Y245829D01*
X1466664Y243687D01*
X1465235Y242259D01*
X1463093Y241544D01*
X1461665D01*
X1459522Y242259D01*
X1458094Y243687D01*
X1457380Y245829D01*
Y247972D01*
X1458094Y250114D01*
X1458808Y250828D01*
X1460237Y251542D01*
X768950Y780547D02*
X782279D01*
X758000Y847947D02*
X769996D01*
X763998Y853945D02*
Y841949D01*
X622297Y816800D02*
Y803471D01*
X689697Y827750D02*
Y815754D01*
X695695Y821752D02*
X683699D01*
X810500Y959996D02*
Y949000D01*
X815998D01*
X817831Y950833D01*
Y958164D01*
X815998Y959996D01*
X810500D01*
X821497Y949000D02*
X825162D01*
X823329D01*
Y959996D01*
X821497Y958164D01*
X830660Y949000D02*
X834326D01*
X832493D01*
Y959996D01*
X830660Y958164D01*
X948750Y844250D02*
X937754D01*
Y849748D01*
X939586Y851581D01*
X943252D01*
X945085Y849748D01*
Y844250D01*
Y847915D02*
X948750Y851581D01*
Y855246D02*
Y858912D01*
Y857079D01*
X937754D01*
X939586Y855246D01*
X948750Y864410D02*
Y868076D01*
Y866243D01*
X937754D01*
X939586Y864410D01*
Y873574D02*
X937754Y875407D01*
Y879072D01*
X939586Y880905D01*
X941419D01*
X943252Y879072D01*
Y877239D01*
Y879072D01*
X945085Y880905D01*
X946917D01*
X948750Y879072D01*
Y875407D01*
X946917Y873574D01*
X943000Y892750D02*
Y903746D01*
X948498D01*
X950331Y901914D01*
Y898248D01*
X948498Y896415D01*
X943000D01*
X946665D02*
X950331Y892750D01*
X953996D02*
X957662D01*
X955829D01*
Y903746D01*
X953996Y901914D01*
X963160Y892750D02*
X966826D01*
X964993D01*
Y903746D01*
X963160Y901914D01*
X979655Y892750D02*
X972324D01*
X979655Y900081D01*
Y901914D01*
X977822Y903746D01*
X974157D01*
X972324Y901914D01*
X906750Y382750D02*
Y393746D01*
X912248D01*
X914081Y391914D01*
Y388248D01*
X912248Y386415D01*
X906750D01*
X910415D02*
X914081Y382750D01*
X917746D02*
X921412D01*
X919579D01*
Y393746D01*
X917746Y391914D01*
X926910Y382750D02*
X930576D01*
X928743D01*
Y393746D01*
X926910Y391914D01*
X936074Y382750D02*
X939739D01*
X937907D01*
Y393746D01*
X936074Y391914D01*
X932750Y966750D02*
Y977747D01*
X938248D01*
X940081Y975914D01*
Y972248D01*
X938248Y970415D01*
X932750D01*
X936415D02*
X940081Y966750D01*
X943746D02*
X947412D01*
X945579D01*
Y977747D01*
X943746Y975914D01*
X952910Y966750D02*
X956576D01*
X954743D01*
Y977747D01*
X952910Y975914D01*
X962074D02*
X963907Y977747D01*
X967572D01*
X969405Y975914D01*
Y968583D01*
X967572Y966750D01*
X963907D01*
X962074Y968583D01*
Y975914D01*
X1006750Y839250D02*
X995754D01*
Y844748D01*
X997586Y846581D01*
X1001252D01*
X1003084Y844748D01*
Y839250D01*
Y842915D02*
X1006750Y846581D01*
Y850247D02*
Y853912D01*
Y852079D01*
X995754D01*
X997586Y850247D01*
Y859410D02*
X995754Y861243D01*
Y864908D01*
X997586Y866741D01*
X1004917D01*
X1006750Y864908D01*
Y861243D01*
X1004917Y859410D01*
X997586D01*
X1004917Y870407D02*
X1006750Y872239D01*
Y875905D01*
X1004917Y877738D01*
X997586D01*
X995754Y875905D01*
Y872239D01*
X997586Y870407D01*
X999419D01*
X1001252Y872239D01*
Y877738D01*
X801750Y410000D02*
Y420997D01*
X807248D01*
X809081Y419164D01*
Y415498D01*
X807248Y413666D01*
X801750D01*
X805415D02*
X809081Y410000D01*
X812746D02*
X816412D01*
X814579D01*
Y420997D01*
X812746Y419164D01*
X821910D02*
X823743Y420997D01*
X827408D01*
X829241Y419164D01*
Y411833D01*
X827408Y410000D01*
X823743D01*
X821910Y411833D01*
Y419164D01*
X832907D02*
X834739Y420997D01*
X838405D01*
X840238Y419164D01*
Y417331D01*
X838405Y415498D01*
X840238Y413666D01*
Y411833D01*
X838405Y410000D01*
X834739D01*
X832907Y411833D01*
Y413666D01*
X834739Y415498D01*
X832907Y417331D01*
Y419164D01*
X834739Y415498D02*
X838405D01*
X1198750Y433997D02*
Y423000D01*
X1206081D01*
X1209746Y432164D02*
X1211579Y433997D01*
X1215245D01*
X1217077Y432164D01*
Y430331D01*
X1215245Y428498D01*
X1213412D01*
X1215245D01*
X1217077Y426665D01*
Y424833D01*
X1215245Y423000D01*
X1211579D01*
X1209746Y424833D01*
X611081Y198496D02*
X607416D01*
X609248D01*
Y189333D01*
X607416Y187500D01*
X605583D01*
X603750Y189333D01*
X622077Y187500D02*
X614746D01*
X622077Y194831D01*
Y196664D01*
X620245Y198496D01*
X616579D01*
X614746Y196664D01*
X625743Y189333D02*
X627576Y187500D01*
X631241D01*
X633074Y189333D01*
Y196664D01*
X631241Y198496D01*
X627576D01*
X625743Y196664D01*
Y194831D01*
X627576Y192998D01*
X633074D01*
X917581Y566746D02*
X913915D01*
X915748D01*
Y557583D01*
X913915Y555750D01*
X912083D01*
X910250Y557583D01*
X928577Y555750D02*
X921246D01*
X928577Y563081D01*
Y564914D01*
X926745Y566746D01*
X923079D01*
X921246Y564914D01*
X932243D02*
X934076Y566746D01*
X937741D01*
X939574Y564914D01*
Y563081D01*
X937741Y561248D01*
X939574Y559416D01*
Y557583D01*
X937741Y555750D01*
X934076D01*
X932243Y557583D01*
Y559416D01*
X934076Y561248D01*
X932243Y563081D01*
Y564914D01*
X934076Y561248D02*
X937741D01*
X1213831Y420746D02*
X1210165D01*
X1211998D01*
Y411583D01*
X1210165Y409750D01*
X1208333D01*
X1206500Y411583D01*
X1224827Y409750D02*
X1217496D01*
X1224827Y417081D01*
Y418914D01*
X1222995Y420746D01*
X1219329D01*
X1217496Y418914D01*
X1228493Y420746D02*
X1235824D01*
Y418914D01*
X1228493Y411583D01*
Y409750D01*
X1376331Y383746D02*
X1372666D01*
X1374498D01*
Y374583D01*
X1372666Y372750D01*
X1370833D01*
X1369000Y374583D01*
X1387327Y372750D02*
X1379996D01*
X1387327Y380081D01*
Y381914D01*
X1385495Y383746D01*
X1381829D01*
X1379996Y381914D01*
X1398324Y383746D02*
X1394658Y381914D01*
X1390993Y378248D01*
Y374583D01*
X1392826Y372750D01*
X1396491D01*
X1398324Y374583D01*
Y376415D01*
X1396491Y378248D01*
X1390993D01*
X1323081Y272496D02*
X1319415D01*
X1321248D01*
Y263333D01*
X1319415Y261500D01*
X1317583D01*
X1315750Y263333D01*
X1334077Y261500D02*
X1326746D01*
X1334077Y268831D01*
Y270664D01*
X1332245Y272496D01*
X1328579D01*
X1326746Y270664D01*
X1345074Y272496D02*
X1337743D01*
Y266998D01*
X1341408Y268831D01*
X1343241D01*
X1345074Y266998D01*
Y263333D01*
X1343241Y261500D01*
X1339576D01*
X1337743Y263333D01*
X1129081Y397246D02*
X1125415D01*
X1127248D01*
Y388083D01*
X1125415Y386250D01*
X1123583D01*
X1121750Y388083D01*
X1140077Y386250D02*
X1132747D01*
X1140077Y393581D01*
Y395414D01*
X1138245Y397246D01*
X1134579D01*
X1132747Y395414D01*
X1149241Y386250D02*
Y397246D01*
X1143743Y391748D01*
X1151074D01*
X1407379Y372946D02*
X1403714D01*
X1405546D01*
Y363783D01*
X1403714Y361950D01*
X1401881D01*
X1400048Y363783D01*
X1411044Y361950D02*
X1414710D01*
X1412877D01*
Y372946D01*
X1411044Y371114D01*
X1425706Y361950D02*
Y372946D01*
X1420208Y367448D01*
X1427539D01*
X619831Y959497D02*
X616166D01*
X617998D01*
Y950333D01*
X616166Y948500D01*
X614333D01*
X612500Y950333D01*
X623496Y959497D02*
X630827D01*
Y957664D01*
X623496Y950333D01*
Y948500D01*
X1007081Y980247D02*
X1003416D01*
X1005248D01*
Y971083D01*
X1003416Y969250D01*
X1001583D01*
X999750Y971083D01*
X1016245Y969250D02*
Y980247D01*
X1010746Y974748D01*
X1018077D01*
X844081Y579246D02*
X840415D01*
X842248D01*
Y570083D01*
X840415Y568250D01*
X838583D01*
X836750Y570083D01*
X855077Y568250D02*
X847746D01*
X855077Y575581D01*
Y577414D01*
X853245Y579246D01*
X849579D01*
X847746Y577414D01*
X858743D02*
X860576Y579246D01*
X864241D01*
X866074Y577414D01*
Y575581D01*
X864241Y573748D01*
X862408D01*
X864241D01*
X866074Y571916D01*
Y570083D01*
X864241Y568250D01*
X860576D01*
X858743Y570083D01*
X1379831Y731747D02*
X1376165D01*
X1377998D01*
Y722583D01*
X1376165Y720750D01*
X1374333D01*
X1372500Y722583D01*
X1390827Y720750D02*
X1383496D01*
X1390827Y728081D01*
Y729914D01*
X1388995Y731747D01*
X1385329D01*
X1383496Y729914D01*
X1401824Y720750D02*
X1394493D01*
X1401824Y728081D01*
Y729914D01*
X1399991Y731747D01*
X1396326D01*
X1394493Y729914D01*
X1367331Y696747D02*
X1363665D01*
X1365498D01*
Y687583D01*
X1363665Y685750D01*
X1361833D01*
X1360000Y687583D01*
X1378327Y685750D02*
X1370996D01*
X1378327Y693081D01*
Y694914D01*
X1376495Y696747D01*
X1372829D01*
X1370996Y694914D01*
X1381993Y685750D02*
X1385658D01*
X1383826D01*
Y696747D01*
X1381993Y694914D01*
X690337Y272870D02*
X686672D01*
X688504D01*
Y263707D01*
X686672Y261874D01*
X684839D01*
X683006Y263707D01*
X701333Y261874D02*
X694002D01*
X701333Y269205D01*
Y271038D01*
X699501Y272870D01*
X695835D01*
X694002Y271038D01*
X704999D02*
X706832Y272870D01*
X710497D01*
X712330Y271038D01*
Y263707D01*
X710497Y261874D01*
X706832D01*
X704999Y263707D01*
Y271038D01*
X1044831Y159246D02*
X1041165D01*
X1042998D01*
Y150083D01*
X1041165Y148250D01*
X1039333D01*
X1037500Y150083D01*
X1048496Y148250D02*
X1052162D01*
X1050329D01*
Y159246D01*
X1048496Y157414D01*
X1057660Y150083D02*
X1059493Y148250D01*
X1063158D01*
X1064991Y150083D01*
Y157414D01*
X1063158Y159246D01*
X1059493D01*
X1057660Y157414D01*
Y155581D01*
X1059493Y153748D01*
X1064991D01*
X1050255Y95324D02*
X1046590D01*
X1048422D01*
Y86161D01*
X1046590Y84328D01*
X1044757D01*
X1042924Y86161D01*
X1053920Y84328D02*
X1057586D01*
X1055753D01*
Y95324D01*
X1053920Y93492D01*
X1063084D02*
X1064917Y95324D01*
X1068582D01*
X1070415Y93492D01*
Y91659D01*
X1068582Y89826D01*
X1070415Y87993D01*
Y86161D01*
X1068582Y84328D01*
X1064917D01*
X1063084Y86161D01*
Y87993D01*
X1064917Y89826D01*
X1063084Y91659D01*
Y93492D01*
X1064917Y89826D02*
X1068582D01*
X471345Y365326D02*
X467679D01*
X469512D01*
Y356163D01*
X467679Y354330D01*
X465847D01*
X464014Y356163D01*
X475010Y354330D02*
X478676D01*
X476843D01*
Y365326D01*
X475010Y363494D01*
X484174Y365326D02*
X491505D01*
Y363494D01*
X484174Y356163D01*
Y354330D01*
X417795Y365326D02*
X414129D01*
X415962D01*
Y356163D01*
X414129Y354330D01*
X412297D01*
X410464Y356163D01*
X421460Y354330D02*
X425126D01*
X423293D01*
Y365326D01*
X421460Y363494D01*
X437955Y365326D02*
X434290Y363494D01*
X430624Y359828D01*
Y356163D01*
X432457Y354330D01*
X436122D01*
X437955Y356163D01*
Y357995D01*
X436122Y359828D01*
X430624D01*
X1297500Y70750D02*
Y81746D01*
X1302998D01*
X1304831Y79914D01*
Y76248D01*
X1302998Y74415D01*
X1297500D01*
X1301165D02*
X1304831Y70750D01*
X1308496D02*
X1312162D01*
X1310329D01*
Y81746D01*
X1308496Y79914D01*
X1317660D02*
X1319493Y81746D01*
X1323158D01*
X1324991Y79914D01*
Y72583D01*
X1323158Y70750D01*
X1319493D01*
X1317660Y72583D01*
Y79914D01*
X1328657Y81746D02*
X1335988D01*
Y79914D01*
X1328657Y72583D01*
Y70750D01*
X1256750Y129000D02*
X1245753D01*
Y134498D01*
X1247586Y136331D01*
X1251252D01*
X1253084Y134498D01*
Y129000D01*
Y132666D02*
X1256750Y136331D01*
Y139996D02*
Y143662D01*
Y141829D01*
X1245753D01*
X1247586Y139996D01*
Y149160D02*
X1245753Y150993D01*
Y154658D01*
X1247586Y156491D01*
X1254917D01*
X1256750Y154658D01*
Y150993D01*
X1254917Y149160D01*
X1247586D01*
X1245753Y167488D02*
X1247586Y163822D01*
X1251252Y160157D01*
X1254917D01*
X1256750Y161989D01*
Y165655D01*
X1254917Y167488D01*
X1253084D01*
X1251252Y165655D01*
Y160157D01*
X1236250Y87000D02*
X1225254D01*
Y92498D01*
X1227086Y94331D01*
X1230752D01*
X1232585Y92498D01*
Y87000D01*
Y90666D02*
X1236250Y94331D01*
Y97997D02*
Y101662D01*
Y99829D01*
X1225254D01*
X1227086Y97997D01*
Y107160D02*
X1225254Y108993D01*
Y112658D01*
X1227086Y114491D01*
X1234417D01*
X1236250Y112658D01*
Y108993D01*
X1234417Y107160D01*
X1227086D01*
X1225254Y125488D02*
Y118157D01*
X1230752D01*
X1228919Y121822D01*
Y123655D01*
X1230752Y125488D01*
X1234417D01*
X1236250Y123655D01*
Y119989D01*
X1234417Y118157D01*
X1194500Y81750D02*
X1183504D01*
Y87248D01*
X1185336Y89081D01*
X1189002D01*
X1190835Y87248D01*
Y81750D01*
Y85415D02*
X1194500Y89081D01*
Y92746D02*
Y96412D01*
Y94579D01*
X1183504D01*
X1185336Y92746D01*
Y101910D02*
X1183504Y103743D01*
Y107408D01*
X1185336Y109241D01*
X1192667D01*
X1194500Y107408D01*
Y103743D01*
X1192667Y101910D01*
X1185336D01*
X1194500Y118405D02*
X1183504D01*
X1189002Y112907D01*
Y120238D01*
X1085000Y148250D02*
Y159246D01*
X1090498D01*
X1092331Y157414D01*
Y153748D01*
X1090498Y151916D01*
X1085000D01*
X1088665D02*
X1092331Y148250D01*
X1095996D02*
X1099662D01*
X1097829D01*
Y159246D01*
X1095996Y157414D01*
X1105160D02*
X1106993Y159246D01*
X1110658D01*
X1112491Y157414D01*
Y150083D01*
X1110658Y148250D01*
X1106993D01*
X1105160Y150083D01*
Y157414D01*
X1116157D02*
X1117989Y159246D01*
X1121655D01*
X1123488Y157414D01*
Y155581D01*
X1121655Y153748D01*
X1119822D01*
X1121655D01*
X1123488Y151916D01*
Y150083D01*
X1121655Y148250D01*
X1117989D01*
X1116157Y150083D01*
X1047500Y123250D02*
Y134246D01*
X1052998D01*
X1054831Y132414D01*
Y128748D01*
X1052998Y126916D01*
X1047500D01*
X1051165D02*
X1054831Y123250D01*
X1058496D02*
X1062162D01*
X1060329D01*
Y134246D01*
X1058496Y132414D01*
X1067660D02*
X1069493Y134246D01*
X1073158D01*
X1074991Y132414D01*
Y125083D01*
X1073158Y123250D01*
X1069493D01*
X1067660Y125083D01*
Y132414D01*
X1085988Y123250D02*
X1078657D01*
X1085988Y130581D01*
Y132414D01*
X1084155Y134246D01*
X1080489D01*
X1078657Y132414D01*
X1087500Y78250D02*
Y89247D01*
X1092998D01*
X1094831Y87414D01*
Y83748D01*
X1092998Y81916D01*
X1087500D01*
X1091165D02*
X1094831Y78250D01*
X1098496D02*
X1102162D01*
X1100329D01*
Y89247D01*
X1098496Y87414D01*
X1107660D02*
X1109493Y89247D01*
X1113158D01*
X1114991Y87414D01*
Y80083D01*
X1113158Y78250D01*
X1109493D01*
X1107660Y80083D01*
Y87414D01*
X1118657Y78250D02*
X1122322D01*
X1120489D01*
Y89247D01*
X1118657Y87414D01*
X1011000Y37500D02*
Y48496D01*
X1016498D01*
X1018331Y46664D01*
Y42998D01*
X1016498Y41165D01*
X1011000D01*
X1014666D02*
X1018331Y37500D01*
X1021996D02*
X1025662D01*
X1023829D01*
Y48496D01*
X1021996Y46664D01*
X1031160D02*
X1032993Y48496D01*
X1036658D01*
X1038491Y46664D01*
Y39333D01*
X1036658Y37500D01*
X1032993D01*
X1031160Y39333D01*
Y46664D01*
X1042157D02*
X1043989Y48496D01*
X1047655D01*
X1049488Y46664D01*
Y39333D01*
X1047655Y37500D01*
X1043989D01*
X1042157Y39333D01*
Y46664D01*
X1316081Y54246D02*
X1312415D01*
X1314248D01*
Y45083D01*
X1312415Y43250D01*
X1310583D01*
X1308750Y45083D01*
X1319746Y43250D02*
X1323412D01*
X1321579D01*
Y54246D01*
X1319746Y52414D01*
X1336241Y54246D02*
X1328910D01*
Y48748D01*
X1332576Y50581D01*
X1334408D01*
X1336241Y48748D01*
Y45083D01*
X1334408Y43250D01*
X1330743D01*
X1328910Y45083D01*
X1232500Y519246D02*
Y510083D01*
X1234333Y508250D01*
X1237998D01*
X1239831Y510083D01*
Y519246D01*
X1243496Y510083D02*
X1245329Y508250D01*
X1248995D01*
X1250827Y510083D01*
Y517414D01*
X1248995Y519246D01*
X1245329D01*
X1243496Y517414D01*
Y515581D01*
X1245329Y513748D01*
X1250827D01*
X975000Y128250D02*
Y139247D01*
X980498D01*
X982331Y137414D01*
Y133748D01*
X980498Y131916D01*
X975000D01*
X978665D02*
X982331Y128250D01*
X985996Y130083D02*
X987829Y128250D01*
X991495D01*
X993327Y130083D01*
Y137414D01*
X991495Y139247D01*
X987829D01*
X985996Y137414D01*
Y135581D01*
X987829Y133748D01*
X993327D01*
X996993Y130083D02*
X998826Y128250D01*
X1002491D01*
X1004324Y130083D01*
Y137414D01*
X1002491Y139247D01*
X998826D01*
X996993Y137414D01*
Y135581D01*
X998826Y133748D01*
X1004324D01*
X1030250Y103500D02*
Y114496D01*
X1035748D01*
X1037581Y112664D01*
Y108998D01*
X1035748Y107165D01*
X1030250D01*
X1033915D02*
X1037581Y103500D01*
X1041246Y105333D02*
X1043079Y103500D01*
X1046745D01*
X1048577Y105333D01*
Y112664D01*
X1046745Y114496D01*
X1043079D01*
X1041246Y112664D01*
Y110831D01*
X1043079Y108998D01*
X1048577D01*
X1052243Y112664D02*
X1054076Y114496D01*
X1057741D01*
X1059574Y112664D01*
Y110831D01*
X1057741Y108998D01*
X1059574Y107165D01*
Y105333D01*
X1057741Y103500D01*
X1054076D01*
X1052243Y105333D01*
Y107165D01*
X1054076Y108998D01*
X1052243Y110831D01*
Y112664D01*
X1054076Y108998D02*
X1057741D01*
X1010000Y53250D02*
X999004D01*
Y58748D01*
X1000836Y60581D01*
X1004502D01*
X1006335Y58748D01*
Y53250D01*
Y56915D02*
X1010000Y60581D01*
X1008167Y64247D02*
X1010000Y66079D01*
Y69745D01*
X1008167Y71577D01*
X1000836D01*
X999004Y69745D01*
Y66079D01*
X1000836Y64247D01*
X1002669D01*
X1004502Y66079D01*
Y71577D01*
X999004Y75243D02*
Y82574D01*
X1000836D01*
X1008167Y75243D01*
X1010000D01*
X887000Y43250D02*
Y54246D01*
X892498D01*
X894331Y52414D01*
Y48748D01*
X892498Y46915D01*
X887000D01*
X890666D02*
X894331Y43250D01*
X897997Y54246D02*
X905327D01*
Y52414D01*
X897997Y45083D01*
Y43250D01*
X908993D02*
X912658D01*
X910826D01*
Y54246D01*
X908993Y52414D01*
X951500Y95750D02*
Y106747D01*
X956998D01*
X958831Y104914D01*
Y101248D01*
X956998Y99416D01*
X951500D01*
X955165D02*
X958831Y95750D01*
X962496Y106747D02*
X969827D01*
Y104914D01*
X962496Y97583D01*
Y95750D01*
X973493Y104914D02*
X975325Y106747D01*
X978991D01*
X980824Y104914D01*
Y97583D01*
X978991Y95750D01*
X975325D01*
X973493Y97583D01*
Y104914D01*
X1334000Y925500D02*
X1323004D01*
Y930998D01*
X1324836Y932831D01*
X1328502D01*
X1330335Y930998D01*
Y925500D01*
Y929165D02*
X1334000Y932831D01*
Y941995D02*
X1323004D01*
X1328502Y936497D01*
Y943827D01*
X1334000Y947493D02*
Y951158D01*
Y949326D01*
X1323004D01*
X1324836Y947493D01*
X499750Y364500D02*
Y375496D01*
X505248D01*
X507081Y373664D01*
Y369998D01*
X505248Y368166D01*
X499750D01*
X503415D02*
X507081Y364500D01*
X510746Y366333D02*
X512579Y364500D01*
X516245D01*
X518077Y366333D01*
Y373664D01*
X516245Y375496D01*
X512579D01*
X510746Y373664D01*
Y371831D01*
X512579Y369998D01*
X518077D01*
X529074Y375496D02*
X525408Y373664D01*
X521743Y369998D01*
Y366333D01*
X523576Y364500D01*
X527241D01*
X529074Y366333D01*
Y368166D01*
X527241Y369998D01*
X521743D01*
X475500Y327747D02*
Y316750D01*
X480998D01*
X482831Y318583D01*
Y325914D01*
X480998Y327747D01*
X475500D01*
X486496Y316750D02*
X490162D01*
X488329D01*
Y327747D01*
X486496Y325914D01*
X495660D02*
X497493Y327747D01*
X501158D01*
X502991Y325914D01*
Y318583D01*
X501158Y316750D01*
X497493D01*
X495660Y318583D01*
Y325914D01*
X782500Y518250D02*
Y529246D01*
X787998D01*
X789831Y527414D01*
Y523748D01*
X787998Y521916D01*
X782500D01*
X786165D02*
X789831Y518250D01*
X793496Y520083D02*
X795329Y518250D01*
X798995D01*
X800827Y520083D01*
Y527414D01*
X798995Y529246D01*
X795329D01*
X793496Y527414D01*
Y525581D01*
X795329Y523748D01*
X800827D01*
X811824Y529246D02*
X804493D01*
Y523748D01*
X808158Y525581D01*
X809991D01*
X811824Y523748D01*
Y520083D01*
X809991Y518250D01*
X806326D01*
X804493Y520083D01*
X769621Y535500D02*
Y546496D01*
X775119D01*
X776952Y544664D01*
Y540998D01*
X775119Y539165D01*
X769621D01*
X773287D02*
X776952Y535500D01*
X780618Y537333D02*
X782450Y535500D01*
X786116D01*
X787949Y537333D01*
Y544664D01*
X786116Y546496D01*
X782450D01*
X780618Y544664D01*
Y542831D01*
X782450Y540998D01*
X787949D01*
X797112Y535500D02*
Y546496D01*
X791614Y540998D01*
X798945D01*
X642500Y348250D02*
Y359246D01*
X647998D01*
X649831Y357414D01*
Y353748D01*
X647998Y351916D01*
X642500D01*
X646165D02*
X649831Y348250D01*
X653496Y350083D02*
X655329Y348250D01*
X658995D01*
X660827Y350083D01*
Y357414D01*
X658995Y359246D01*
X655329D01*
X653496Y357414D01*
Y355581D01*
X655329Y353748D01*
X660827D01*
X664493Y357414D02*
X666326Y359246D01*
X669991D01*
X671824Y357414D01*
Y355581D01*
X669991Y353748D01*
X668158D01*
X669991D01*
X671824Y351916D01*
Y350083D01*
X669991Y348250D01*
X666326D01*
X664493Y350083D01*
X770000Y470750D02*
Y481746D01*
X775498D01*
X777331Y479914D01*
Y476248D01*
X775498Y474416D01*
X770000D01*
X773665D02*
X777331Y470750D01*
X780996Y472583D02*
X782829Y470750D01*
X786495D01*
X788327Y472583D01*
Y479914D01*
X786495Y481746D01*
X782829D01*
X780996Y479914D01*
Y478081D01*
X782829Y476248D01*
X788327D01*
X799324Y470750D02*
X791993D01*
X799324Y478081D01*
Y479914D01*
X797491Y481746D01*
X793826D01*
X791993Y479914D01*
X700000Y410750D02*
Y421746D01*
X705498D01*
X707331Y419914D01*
Y416248D01*
X705498Y414416D01*
X700000D01*
X703665D02*
X707331Y410750D01*
X710996Y412583D02*
X712829Y410750D01*
X716495D01*
X718327Y412583D01*
Y419914D01*
X716495Y421746D01*
X712829D01*
X710996Y419914D01*
Y418081D01*
X712829Y416248D01*
X718327D01*
X721993Y410750D02*
X725658D01*
X723826D01*
Y421746D01*
X721993Y419914D01*
X777500Y490750D02*
Y501746D01*
X782998D01*
X784831Y499914D01*
Y496248D01*
X782998Y494416D01*
X777500D01*
X781165D02*
X784831Y490750D01*
X788496Y492583D02*
X790329Y490750D01*
X793995D01*
X795827Y492583D01*
Y499914D01*
X793995Y501746D01*
X790329D01*
X788496Y499914D01*
Y498081D01*
X790329Y496248D01*
X795827D01*
X799493Y499914D02*
X801326Y501746D01*
X804991D01*
X806824Y499914D01*
Y492583D01*
X804991Y490750D01*
X801326D01*
X799493Y492583D01*
Y499914D01*
X670000Y288000D02*
Y298997D01*
X675498D01*
X677331Y297164D01*
Y293498D01*
X675498Y291665D01*
X670000D01*
X673665D02*
X677331Y288000D01*
X680996Y297164D02*
X682829Y298997D01*
X686495D01*
X688327Y297164D01*
Y295331D01*
X686495Y293498D01*
X688327Y291665D01*
Y289833D01*
X686495Y288000D01*
X682829D01*
X680996Y289833D01*
Y291665D01*
X682829Y293498D01*
X680996Y295331D01*
Y297164D01*
X682829Y293498D02*
X686495D01*
X691993Y289833D02*
X693826Y288000D01*
X697491D01*
X699324Y289833D01*
Y297164D01*
X697491Y298997D01*
X693826D01*
X691993Y297164D01*
Y295331D01*
X693826Y293498D01*
X699324D01*
X586750Y350500D02*
Y361497D01*
X592248D01*
X594081Y359664D01*
Y355998D01*
X592248Y354165D01*
X586750D01*
X590415D02*
X594081Y350500D01*
X597747Y359664D02*
X599579Y361497D01*
X603245D01*
X605077Y359664D01*
Y357831D01*
X603245Y355998D01*
X605077Y354165D01*
Y352333D01*
X603245Y350500D01*
X599579D01*
X597747Y352333D01*
Y354165D01*
X599579Y355998D01*
X597747Y357831D01*
Y359664D01*
X599579Y355998D02*
X603245D01*
X608743Y359664D02*
X610576Y361497D01*
X614241D01*
X616074Y359664D01*
Y357831D01*
X614241Y355998D01*
X616074Y354165D01*
Y352333D01*
X614241Y350500D01*
X610576D01*
X608743Y352333D01*
Y354165D01*
X610576Y355998D01*
X608743Y357831D01*
Y359664D01*
X610576Y355998D02*
X614241D01*
X770750Y389000D02*
Y399996D01*
X776248D01*
X778081Y398164D01*
Y394498D01*
X776248Y392665D01*
X770750D01*
X774416D02*
X778081Y389000D01*
X781746Y398164D02*
X783579Y399996D01*
X787245D01*
X789077Y398164D01*
Y396331D01*
X787245Y394498D01*
X789077Y392665D01*
Y390833D01*
X787245Y389000D01*
X783579D01*
X781746Y390833D01*
Y392665D01*
X783579Y394498D01*
X781746Y396331D01*
Y398164D01*
X783579Y394498D02*
X787245D01*
X792743Y399996D02*
X800074D01*
Y398164D01*
X792743Y390833D01*
Y389000D01*
X770000Y448250D02*
Y459246D01*
X775498D01*
X777331Y457414D01*
Y453748D01*
X775498Y451916D01*
X770000D01*
X773665D02*
X777331Y448250D01*
X780996Y457414D02*
X782829Y459246D01*
X786495D01*
X788327Y457414D01*
Y455581D01*
X786495Y453748D01*
X788327Y451916D01*
Y450083D01*
X786495Y448250D01*
X782829D01*
X780996Y450083D01*
Y451916D01*
X782829Y453748D01*
X780996Y455581D01*
Y457414D01*
X782829Y453748D02*
X786495D01*
X799324Y459246D02*
X795658Y457414D01*
X791993Y453748D01*
Y450083D01*
X793826Y448250D01*
X797491D01*
X799324Y450083D01*
Y451916D01*
X797491Y453748D01*
X791993D01*
X622500Y285750D02*
Y296746D01*
X627998D01*
X629831Y294914D01*
Y291248D01*
X627998Y289415D01*
X622500D01*
X626166D02*
X629831Y285750D01*
X633496Y294914D02*
X635329Y296746D01*
X638995D01*
X640827Y294914D01*
Y293081D01*
X638995Y291248D01*
X640827Y289415D01*
Y287583D01*
X638995Y285750D01*
X635329D01*
X633496Y287583D01*
Y289415D01*
X635329Y291248D01*
X633496Y293081D01*
Y294914D01*
X635329Y291248D02*
X638995D01*
X651824Y296746D02*
X644493D01*
Y291248D01*
X648158Y293081D01*
X649991D01*
X651824Y291248D01*
Y287583D01*
X649991Y285750D01*
X646326D01*
X644493Y287583D01*
X767500Y428250D02*
Y439246D01*
X772998D01*
X774831Y437414D01*
Y433748D01*
X772998Y431916D01*
X767500D01*
X771165D02*
X774831Y428250D01*
X778496Y437414D02*
X780329Y439246D01*
X783995D01*
X785827Y437414D01*
Y435581D01*
X783995Y433748D01*
X785827Y431916D01*
Y430083D01*
X783995Y428250D01*
X780329D01*
X778496Y430083D01*
Y431916D01*
X780329Y433748D01*
X778496Y435581D01*
Y437414D01*
X780329Y433748D02*
X783995D01*
X794991Y428250D02*
Y439246D01*
X789493Y433748D01*
X796824D01*
X667500Y210750D02*
Y221746D01*
X672998D01*
X674831Y219914D01*
Y216248D01*
X672998Y214415D01*
X667500D01*
X671165D02*
X674831Y210750D01*
X678496Y219914D02*
X680329Y221746D01*
X683995D01*
X685827Y219914D01*
Y218081D01*
X683995Y216248D01*
X685827Y214415D01*
Y212583D01*
X683995Y210750D01*
X680329D01*
X678496Y212583D01*
Y214415D01*
X680329Y216248D01*
X678496Y218081D01*
Y219914D01*
X680329Y216248D02*
X683995D01*
X689493Y219914D02*
X691326Y221746D01*
X694991D01*
X696824Y219914D01*
Y218081D01*
X694991Y216248D01*
X693158D01*
X694991D01*
X696824Y214415D01*
Y212583D01*
X694991Y210750D01*
X691326D01*
X689493Y212583D01*
X847500Y60750D02*
Y71747D01*
X852998D01*
X854831Y69914D01*
Y66248D01*
X852998Y64415D01*
X847500D01*
X851165D02*
X854831Y60750D01*
X858496Y69914D02*
X860329Y71747D01*
X863995D01*
X865827Y69914D01*
Y68081D01*
X863995Y66248D01*
X865827Y64415D01*
Y62583D01*
X863995Y60750D01*
X860329D01*
X858496Y62583D01*
Y64415D01*
X860329Y66248D01*
X858496Y68081D01*
Y69914D01*
X860329Y66248D02*
X863995D01*
X876824Y60750D02*
X869493D01*
X876824Y68081D01*
Y69914D01*
X874991Y71747D01*
X871326D01*
X869493Y69914D01*
X858250Y35750D02*
Y46747D01*
X863748D01*
X865581Y44914D01*
Y41248D01*
X863748Y39416D01*
X858250D01*
X861916D02*
X865581Y35750D01*
X869246Y44914D02*
X871079Y46747D01*
X874745D01*
X876577Y44914D01*
Y43081D01*
X874745Y41248D01*
X876577Y39416D01*
Y37583D01*
X874745Y35750D01*
X871079D01*
X869246Y37583D01*
Y39416D01*
X871079Y41248D01*
X869246Y43081D01*
Y44914D01*
X871079Y41248D02*
X874745D01*
X880243Y35750D02*
X883908D01*
X882076D01*
Y46747D01*
X880243Y44914D01*
X944250Y922750D02*
Y933746D01*
X949748D01*
X951581Y931914D01*
Y928248D01*
X949748Y926415D01*
X944250D01*
X947915D02*
X951581Y922750D01*
X955247Y931914D02*
X957079Y933746D01*
X960745D01*
X962577Y931914D01*
Y930081D01*
X960745Y928248D01*
X962577Y926415D01*
Y924583D01*
X960745Y922750D01*
X957079D01*
X955247Y924583D01*
Y926415D01*
X957079Y928248D01*
X955247Y930081D01*
Y931914D01*
X957079Y928248D02*
X960745D01*
X966243Y931914D02*
X968076Y933746D01*
X971741D01*
X973574Y931914D01*
Y924583D01*
X971741Y922750D01*
X968076D01*
X966243Y924583D01*
Y931914D01*
X930000Y500750D02*
Y511746D01*
X935498D01*
X937331Y509914D01*
Y506248D01*
X935498Y504416D01*
X930000D01*
X933665D02*
X937331Y500750D01*
X940996Y511746D02*
X948327D01*
Y509914D01*
X940996Y502583D01*
Y500750D01*
X951993Y502583D02*
X953826Y500750D01*
X957491D01*
X959324Y502583D01*
Y509914D01*
X957491Y511746D01*
X953826D01*
X951993Y509914D01*
Y508081D01*
X953826Y506248D01*
X959324D01*
X903750Y857500D02*
X892754D01*
Y862998D01*
X894586Y864831D01*
X898252D01*
X900085Y862998D01*
Y857500D01*
Y861165D02*
X903750Y864831D01*
X892754Y868496D02*
Y875827D01*
X894586D01*
X901917Y868496D01*
X903750D01*
X894586Y879493D02*
X892754Y881326D01*
Y884991D01*
X894586Y886824D01*
X896419D01*
X898252Y884991D01*
X900085Y886824D01*
X901917D01*
X903750Y884991D01*
Y881326D01*
X901917Y879493D01*
X900085D01*
X898252Y881326D01*
X896419Y879493D01*
X894586D01*
X898252Y881326D02*
Y884991D01*
X717003Y30750D02*
X728000D01*
Y36248D01*
X726167Y38081D01*
X718836D01*
X717003Y36248D01*
Y30750D01*
X726167Y41746D02*
X728000Y43579D01*
Y47245D01*
X726167Y49077D01*
X718836D01*
X717003Y47245D01*
Y43579D01*
X718836Y41746D01*
X720669D01*
X722502Y43579D01*
Y49077D01*
X749000Y76996D02*
Y66000D01*
X754498D01*
X756331Y67833D01*
Y75164D01*
X754498Y76996D01*
X749000D01*
X759996Y75164D02*
X761829Y76996D01*
X765495D01*
X767327Y75164D01*
Y73331D01*
X765495Y71498D01*
X767327Y69665D01*
Y67833D01*
X765495Y66000D01*
X761829D01*
X759996Y67833D01*
Y69665D01*
X761829Y71498D01*
X759996Y73331D01*
Y75164D01*
X761829Y71498D02*
X765495D01*
X786753Y32500D02*
X797750D01*
Y37998D01*
X795917Y39831D01*
X788586D01*
X786753Y37998D01*
Y32500D01*
Y43496D02*
Y50827D01*
X788586D01*
X795917Y43496D01*
X797750D01*
X932500Y416746D02*
Y405750D01*
X937998D01*
X939831Y407583D01*
Y414914D01*
X937998Y416746D01*
X932500D01*
X950827D02*
X947162Y414914D01*
X943496Y411248D01*
Y407583D01*
X945329Y405750D01*
X948995D01*
X950827Y407583D01*
Y409416D01*
X948995Y411248D01*
X943496D01*
X682331Y704246D02*
X678665D01*
X680498D01*
Y695083D01*
X678665Y693250D01*
X676833D01*
X675000Y695083D01*
X685996Y693250D02*
X689662D01*
X687829D01*
Y704246D01*
X685996Y702414D01*
X695160D02*
X696993Y704246D01*
X700658D01*
X702491Y702414D01*
Y700581D01*
X700658Y698748D01*
X698826D01*
X700658D01*
X702491Y696916D01*
Y695083D01*
X700658Y693250D01*
X696993D01*
X695160Y695083D01*
X725000Y359246D02*
Y350083D01*
X726833Y348250D01*
X730498D01*
X732331Y350083D01*
Y359246D01*
X735996Y348250D02*
X739662D01*
X737829D01*
Y359246D01*
X735996Y357414D01*
X745160D02*
X746993Y359246D01*
X750658D01*
X752491Y357414D01*
Y355581D01*
X750658Y353748D01*
X748826D01*
X750658D01*
X752491Y351916D01*
Y350083D01*
X750658Y348250D01*
X746993D01*
X745160Y350083D01*
X967000Y760000D02*
Y770996D01*
X972498D01*
X974331Y769164D01*
Y765498D01*
X972498Y763665D01*
X967000D01*
X970666D02*
X974331Y760000D01*
X985327Y770996D02*
X977996D01*
Y765498D01*
X981662Y767331D01*
X983495D01*
X985327Y765498D01*
Y761833D01*
X983495Y760000D01*
X979829D01*
X977996Y761833D01*
X988993Y769164D02*
X990826Y770996D01*
X994491D01*
X996324Y769164D01*
Y767331D01*
X994491Y765498D01*
X996324Y763665D01*
Y761833D01*
X994491Y760000D01*
X990826D01*
X988993Y761833D01*
Y763665D01*
X990826Y765498D01*
X988993Y767331D01*
Y769164D01*
X990826Y765498D02*
X994491D01*
X771000Y745750D02*
Y756746D01*
X776498D01*
X778331Y754914D01*
Y751248D01*
X776498Y749416D01*
X771000D01*
X774666D02*
X778331Y745750D01*
X789327Y756746D02*
X781997D01*
Y751248D01*
X785662Y753081D01*
X787495D01*
X789327Y751248D01*
Y747583D01*
X787495Y745750D01*
X783829D01*
X781997Y747583D01*
X792993Y756746D02*
X800324D01*
Y754914D01*
X792993Y747583D01*
Y745750D01*
X824500Y816000D02*
Y826997D01*
X829998D01*
X831831Y825164D01*
Y821498D01*
X829998Y819666D01*
X824500D01*
X828166D02*
X831831Y816000D01*
X842827Y826997D02*
X835496D01*
Y821498D01*
X839162Y823331D01*
X840995D01*
X842827Y821498D01*
Y817833D01*
X840995Y816000D01*
X837329D01*
X835496Y817833D01*
X846493Y825164D02*
X848326Y826997D01*
X851991D01*
X853824Y825164D01*
Y823331D01*
X851991Y821498D01*
X850158D01*
X851991D01*
X853824Y819666D01*
Y817833D01*
X851991Y816000D01*
X848326D01*
X846493Y817833D01*
X908500Y821250D02*
Y832246D01*
X913998D01*
X915831Y830414D01*
Y826748D01*
X913998Y824915D01*
X908500D01*
X912166D02*
X915831Y821250D01*
X926827Y832246D02*
X919496D01*
Y826748D01*
X923162Y828581D01*
X924995D01*
X926827Y826748D01*
Y823083D01*
X924995Y821250D01*
X921329D01*
X919496Y823083D01*
X937824Y821250D02*
X930493D01*
X937824Y828581D01*
Y830414D01*
X935991Y832246D01*
X932326D01*
X930493Y830414D01*
X980000Y50750D02*
X969004D01*
Y56248D01*
X970836Y58081D01*
X974502D01*
X976335Y56248D01*
Y50750D01*
Y54415D02*
X980000Y58081D01*
X969004Y61747D02*
Y69077D01*
X970836D01*
X978167Y61747D01*
X980000D01*
X969004Y72743D02*
Y80074D01*
X970836D01*
X978167Y72743D01*
X980000D01*
X812500Y98250D02*
Y109246D01*
X817998D01*
X819831Y107414D01*
Y103748D01*
X817998Y101916D01*
X812500D01*
X816165D02*
X819831Y98250D01*
X823496Y109246D02*
X830827D01*
Y107414D01*
X823496Y100083D01*
Y98250D01*
X841824Y109246D02*
X838158Y107414D01*
X834493Y103748D01*
Y100083D01*
X836326Y98250D01*
X839991D01*
X841824Y100083D01*
Y101916D01*
X839991Y103748D01*
X834493D01*
X725000Y123250D02*
Y134246D01*
X730498D01*
X732331Y132414D01*
Y128748D01*
X730498Y126916D01*
X725000D01*
X728665D02*
X732331Y123250D01*
X735996Y134246D02*
X743327D01*
Y132414D01*
X735996Y125083D01*
Y123250D01*
X754324Y134246D02*
X746993D01*
Y128748D01*
X750658Y130581D01*
X752491D01*
X754324Y128748D01*
Y125083D01*
X752491Y123250D01*
X748826D01*
X746993Y125083D01*
X705750Y181750D02*
Y192747D01*
X711248D01*
X713081Y190914D01*
Y187248D01*
X711248Y185415D01*
X705750D01*
X709416D02*
X713081Y181750D01*
X716746Y192747D02*
X724077D01*
Y190914D01*
X716746Y183583D01*
Y181750D01*
X733241D02*
Y192747D01*
X727743Y187248D01*
X735074D01*
X782250Y84750D02*
X771254D01*
Y90248D01*
X773086Y92081D01*
X776752D01*
X778585Y90248D01*
Y84750D01*
Y88415D02*
X782250Y92081D01*
X771254Y95746D02*
Y103077D01*
X773086D01*
X780417Y95746D01*
X782250D01*
X773086Y106743D02*
X771254Y108576D01*
Y112241D01*
X773086Y114074D01*
X774919D01*
X776752Y112241D01*
Y110408D01*
Y112241D01*
X778585Y114074D01*
X780417D01*
X782250Y112241D01*
Y108576D01*
X780417Y106743D01*
X587331Y148246D02*
X583666D01*
X585498D01*
Y139083D01*
X583666Y137250D01*
X581833D01*
X580000Y139083D01*
X590997Y137250D02*
X594662D01*
X592829D01*
Y148246D01*
X590997Y146414D01*
X607491Y137250D02*
X600160D01*
X607491Y144581D01*
Y146414D01*
X605658Y148246D01*
X601993D01*
X600160Y146414D01*
X968831Y661164D02*
X966998Y662997D01*
X963333D01*
X961500Y661164D01*
Y653833D01*
X963333Y652000D01*
X966998D01*
X968831Y653833D01*
X972496Y662997D02*
X979827D01*
Y661164D01*
X972496Y653833D01*
Y652000D01*
X990824Y662997D02*
X983493D01*
Y657498D01*
X987158Y659331D01*
X988991D01*
X990824Y657498D01*
Y653833D01*
X988991Y652000D01*
X985326D01*
X983493Y653833D01*
X970081Y554164D02*
X968248Y555996D01*
X964583D01*
X962750Y554164D01*
Y546833D01*
X964583Y545000D01*
X968248D01*
X970081Y546833D01*
X973746Y555996D02*
X981077D01*
Y554164D01*
X973746Y546833D01*
Y545000D01*
X992074D02*
X984743D01*
X992074Y552331D01*
Y554164D01*
X990241Y555996D01*
X986576D01*
X984743Y554164D01*
X1097000Y891000D02*
X1086004D01*
Y896498D01*
X1087836Y898331D01*
X1091502D01*
X1093335Y896498D01*
Y891000D01*
Y894666D02*
X1097000Y898331D01*
Y907495D02*
X1086004D01*
X1091502Y901997D01*
Y909327D01*
X1087836Y912993D02*
X1086004Y914826D01*
Y918491D01*
X1087836Y920324D01*
X1095167D01*
X1097000Y918491D01*
Y914826D01*
X1095167Y912993D01*
X1087836D01*
X777500Y558250D02*
Y569246D01*
X782998D01*
X784831Y567414D01*
Y563748D01*
X782998Y561916D01*
X777500D01*
X781165D02*
X784831Y558250D01*
X793995D02*
Y569246D01*
X788496Y563748D01*
X795827D01*
X799493Y560083D02*
X801326Y558250D01*
X804991D01*
X806824Y560083D01*
Y567414D01*
X804991Y569246D01*
X801326D01*
X799493Y567414D01*
Y565581D01*
X801326Y563748D01*
X806824D01*
X712500Y650750D02*
Y661747D01*
X717998D01*
X719831Y659914D01*
Y656248D01*
X717998Y654416D01*
X712500D01*
X716165D02*
X719831Y650750D01*
X728995D02*
Y661747D01*
X723496Y656248D01*
X730827D01*
X734493Y659914D02*
X736326Y661747D01*
X739991D01*
X741824Y659914D01*
Y658081D01*
X739991Y656248D01*
X741824Y654416D01*
Y652583D01*
X739991Y650750D01*
X736326D01*
X734493Y652583D01*
Y654416D01*
X736326Y656248D01*
X734493Y658081D01*
Y659914D01*
X736326Y656248D02*
X739991D01*
X1315000Y907750D02*
Y918746D01*
X1320498D01*
X1322331Y916914D01*
Y913248D01*
X1320498Y911415D01*
X1315000D01*
X1318665D02*
X1322331Y907750D01*
X1331495D02*
Y918746D01*
X1325996Y913248D01*
X1333327D01*
X1344324Y907750D02*
X1336993D01*
X1344324Y915081D01*
Y916914D01*
X1342491Y918746D01*
X1338826D01*
X1336993Y916914D01*
X1384750Y222500D02*
Y233496D01*
X1390248D01*
X1392081Y231664D01*
Y227998D01*
X1390248Y226166D01*
X1384750D01*
X1388416D02*
X1392081Y222500D01*
X1395746Y231664D02*
X1397579Y233496D01*
X1401245D01*
X1403077Y231664D01*
Y229831D01*
X1401245Y227998D01*
X1399412D01*
X1401245D01*
X1403077Y226166D01*
Y224333D01*
X1401245Y222500D01*
X1397579D01*
X1395746Y224333D01*
X1406743D02*
X1408576Y222500D01*
X1412241D01*
X1414074Y224333D01*
Y231664D01*
X1412241Y233496D01*
X1408576D01*
X1406743Y231664D01*
Y229831D01*
X1408576Y227998D01*
X1414074D01*
X546331Y180414D02*
X544498Y182246D01*
X540833D01*
X539000Y180414D01*
Y173083D01*
X540833Y171250D01*
X544498D01*
X546331Y173083D01*
X557327Y182246D02*
X553662Y180414D01*
X549996Y176748D01*
Y173083D01*
X551829Y171250D01*
X555495D01*
X557327Y173083D01*
Y174916D01*
X555495Y176748D01*
X549996D01*
X560993Y180414D02*
X562826Y182246D01*
X566491D01*
X568324Y180414D01*
Y178581D01*
X566491Y176748D01*
X564658D01*
X566491D01*
X568324Y174916D01*
Y173083D01*
X566491Y171250D01*
X562826D01*
X560993Y173083D01*
X1394081Y592164D02*
X1392248Y593996D01*
X1388583D01*
X1386750Y592164D01*
Y584833D01*
X1388583Y583000D01*
X1392248D01*
X1394081Y584833D01*
X1405077Y593996D02*
X1397746D01*
Y588498D01*
X1401412Y590331D01*
X1403245D01*
X1405077Y588498D01*
Y584833D01*
X1403245Y583000D01*
X1399579D01*
X1397746Y584833D01*
X1408743Y592164D02*
X1410576Y593996D01*
X1414241D01*
X1416074Y592164D01*
Y590331D01*
X1414241Y588498D01*
X1412408D01*
X1414241D01*
X1416074Y586665D01*
Y584833D01*
X1414241Y583000D01*
X1410576D01*
X1408743Y584833D01*
X1100831Y972997D02*
X1097166D01*
X1098998D01*
Y963833D01*
X1097166Y962000D01*
X1095333D01*
X1093500Y963833D01*
X1111827Y972997D02*
X1104496D01*
Y967498D01*
X1108162Y969331D01*
X1109995D01*
X1111827Y967498D01*
Y963833D01*
X1109995Y962000D01*
X1106329D01*
X1104496Y963833D01*
X1387750Y503500D02*
Y514496D01*
X1393248D01*
X1395081Y512664D01*
Y508998D01*
X1393248Y507165D01*
X1387750D01*
X1391416D02*
X1395081Y503500D01*
X1398746Y512664D02*
X1400579Y514496D01*
X1404245D01*
X1406077Y512664D01*
Y510831D01*
X1404245Y508998D01*
X1406077Y507165D01*
Y505333D01*
X1404245Y503500D01*
X1400579D01*
X1398746Y505333D01*
Y507165D01*
X1400579Y508998D01*
X1398746Y510831D01*
Y512664D01*
X1400579Y508998D02*
X1404245D01*
X1246331Y578414D02*
X1244498Y580247D01*
X1240833D01*
X1239000Y578414D01*
Y571083D01*
X1240833Y569250D01*
X1244498D01*
X1246331Y571083D01*
X1249996Y578414D02*
X1251829Y580247D01*
X1255495D01*
X1257327Y578414D01*
Y576581D01*
X1255495Y574748D01*
X1253662D01*
X1255495D01*
X1257327Y572915D01*
Y571083D01*
X1255495Y569250D01*
X1251829D01*
X1249996Y571083D01*
X1268324Y580247D02*
X1264658Y578414D01*
X1260993Y574748D01*
Y571083D01*
X1262826Y569250D01*
X1266491D01*
X1268324Y571083D01*
Y572915D01*
X1266491Y574748D01*
X1260993D01*
X1250748Y812996D02*
X1247083D01*
X1245250Y811164D01*
Y803833D01*
X1247083Y802000D01*
X1250748D01*
X1252581Y803833D01*
Y811164D01*
X1250748Y812996D01*
X1263577Y811164D02*
X1261745Y812996D01*
X1258079D01*
X1256246Y811164D01*
Y809331D01*
X1258079Y807498D01*
X1261745D01*
X1263577Y805666D01*
Y803833D01*
X1261745Y802000D01*
X1258079D01*
X1256246Y803833D01*
X1274574Y811164D02*
X1272741Y812996D01*
X1269076D01*
X1267243Y811164D01*
Y803833D01*
X1269076Y802000D01*
X1272741D01*
X1274574Y803833D01*
X1278239Y802000D02*
X1281905D01*
X1280072D01*
Y812996D01*
X1278239Y811164D01*
X1326331Y230414D02*
X1324498Y232246D01*
X1320833D01*
X1319000Y230414D01*
Y223083D01*
X1320833Y221250D01*
X1324498D01*
X1326331Y223083D01*
X1329996Y230414D02*
X1331829Y232246D01*
X1335495D01*
X1337327Y230414D01*
Y228581D01*
X1335495Y226748D01*
X1337327Y224916D01*
Y223083D01*
X1335495Y221250D01*
X1331829D01*
X1329996Y223083D01*
Y224916D01*
X1331829Y226748D01*
X1329996Y228581D01*
Y230414D01*
X1331829Y226748D02*
X1335495D01*
X1208581Y391914D02*
X1206748Y393746D01*
X1203083D01*
X1201250Y391914D01*
Y384583D01*
X1203083Y382750D01*
X1206748D01*
X1208581Y384583D01*
X1212246Y391914D02*
X1214079Y393746D01*
X1217745D01*
X1219577Y391914D01*
Y390081D01*
X1217745Y388248D01*
X1215912D01*
X1217745D01*
X1219577Y386415D01*
Y384583D01*
X1217745Y382750D01*
X1214079D01*
X1212246Y384583D01*
X1223243Y391914D02*
X1225076Y393746D01*
X1228741D01*
X1230574Y391914D01*
Y384583D01*
X1228741Y382750D01*
X1225076D01*
X1223243Y384583D01*
Y391914D01*
X1357581Y652664D02*
X1355748Y654497D01*
X1352083D01*
X1350250Y652664D01*
Y645333D01*
X1352083Y643500D01*
X1355748D01*
X1357581Y645333D01*
X1361246Y652664D02*
X1363079Y654497D01*
X1366745D01*
X1368577Y652664D01*
Y650831D01*
X1366745Y648998D01*
X1364912D01*
X1366745D01*
X1368577Y647166D01*
Y645333D01*
X1366745Y643500D01*
X1363079D01*
X1361246Y645333D01*
X1372243Y652664D02*
X1374076Y654497D01*
X1377741D01*
X1379574Y652664D01*
Y650831D01*
X1377741Y648998D01*
X1379574Y647166D01*
Y645333D01*
X1377741Y643500D01*
X1374076D01*
X1372243Y645333D01*
Y647166D01*
X1374076Y648998D01*
X1372243Y650831D01*
Y652664D01*
X1374076Y648998D02*
X1377741D01*
X1194831Y614914D02*
X1192998Y616746D01*
X1189333D01*
X1187500Y614914D01*
Y607583D01*
X1189333Y605750D01*
X1192998D01*
X1194831Y607583D01*
X1203995Y605750D02*
Y616746D01*
X1198496Y611248D01*
X1205827D01*
X1209493Y614914D02*
X1211326Y616746D01*
X1214991D01*
X1216824Y614914D01*
Y607583D01*
X1214991Y605750D01*
X1211326D01*
X1209493Y607583D01*
Y614914D01*
X1377081Y189414D02*
X1375248Y191246D01*
X1371583D01*
X1369750Y189414D01*
Y182083D01*
X1371583Y180250D01*
X1375248D01*
X1377081Y182083D01*
X1388077Y191246D02*
X1380746D01*
Y185748D01*
X1384412Y187581D01*
X1386245D01*
X1388077Y185748D01*
Y182083D01*
X1386245Y180250D01*
X1382579D01*
X1380746Y182083D01*
X1399074Y191246D02*
X1395408Y189414D01*
X1391743Y185748D01*
Y182083D01*
X1393576Y180250D01*
X1397241D01*
X1399074Y182083D01*
Y183916D01*
X1397241Y185748D01*
X1391743D01*
X1339581Y873664D02*
X1337748Y875496D01*
X1334083D01*
X1332250Y873664D01*
Y866333D01*
X1334083Y864500D01*
X1337748D01*
X1339581Y866333D01*
X1350577Y875496D02*
X1343246D01*
Y869998D01*
X1346912Y871831D01*
X1348745D01*
X1350577Y869998D01*
Y866333D01*
X1348745Y864500D01*
X1345079D01*
X1343246Y866333D01*
X1354243Y875496D02*
X1361574D01*
Y873664D01*
X1354243Y866333D01*
Y864500D01*
X572331Y342414D02*
X570498Y344246D01*
X566833D01*
X565000Y342414D01*
Y335083D01*
X566833Y333250D01*
X570498D01*
X572331Y335083D01*
X583327Y344246D02*
X579662Y342414D01*
X575996Y338748D01*
Y335083D01*
X577829Y333250D01*
X581495D01*
X583327Y335083D01*
Y336916D01*
X581495Y338748D01*
X575996D01*
X592491Y333250D02*
Y344246D01*
X586993Y338748D01*
X594324D01*
X989831Y342414D02*
X987998Y344246D01*
X984333D01*
X982500Y342414D01*
Y335083D01*
X984333Y333250D01*
X987998D01*
X989831Y335083D01*
X993496D02*
X995329Y333250D01*
X998995D01*
X1000827Y335083D01*
Y342414D01*
X998995Y344246D01*
X995329D01*
X993496Y342414D01*
Y340581D01*
X995329Y338748D01*
X1000827D01*
X1004493Y342414D02*
X1006326Y344246D01*
X1009991D01*
X1011824Y342414D01*
Y340581D01*
X1009991Y338748D01*
X1008158D01*
X1009991D01*
X1011824Y336916D01*
Y335083D01*
X1009991Y333250D01*
X1006326D01*
X1004493Y335083D01*
X954500Y734996D02*
Y724000D01*
X959998D01*
X961831Y725833D01*
Y733164D01*
X959998Y734996D01*
X954500D01*
X972827Y724000D02*
X965496D01*
X972827Y731331D01*
Y733164D01*
X970995Y734996D01*
X967329D01*
X965496Y733164D01*
X712500Y776246D02*
Y765250D01*
X717998D01*
X719831Y767083D01*
Y774414D01*
X717998Y776246D01*
X712500D01*
X723496Y774414D02*
X725329Y776246D01*
X728995D01*
X730827Y774414D01*
Y772581D01*
X728995Y770748D01*
X727162D01*
X728995D01*
X730827Y768915D01*
Y767083D01*
X728995Y765250D01*
X725329D01*
X723496Y767083D01*
X600000Y856746D02*
Y845750D01*
X605498D01*
X607331Y847583D01*
Y854914D01*
X605498Y856746D01*
X600000D01*
X616495Y845750D02*
Y856746D01*
X610996Y851248D01*
X618327D01*
X1318331Y558746D02*
X1314666D01*
X1316498D01*
Y549583D01*
X1314666Y547750D01*
X1312833D01*
X1311000Y549583D01*
X1321996Y547750D02*
X1325662D01*
X1323829D01*
Y558746D01*
X1321996Y556914D01*
X1286581Y576746D02*
X1282915D01*
X1284748D01*
Y567583D01*
X1282915Y565750D01*
X1281083D01*
X1279250Y567583D01*
X1297577Y565750D02*
X1290246D01*
X1297577Y573081D01*
Y574914D01*
X1295745Y576746D01*
X1292079D01*
X1290246Y574914D01*
X1215331Y580247D02*
X1211665D01*
X1213498D01*
Y571083D01*
X1211665Y569250D01*
X1209833D01*
X1208000Y571083D01*
X1218996Y578414D02*
X1220829Y580247D01*
X1224495D01*
X1226327Y578414D01*
Y576581D01*
X1224495Y574748D01*
X1222662D01*
X1224495D01*
X1226327Y572915D01*
Y571083D01*
X1224495Y569250D01*
X1220829D01*
X1218996Y571083D01*
X1402081Y565496D02*
X1398416D01*
X1400248D01*
Y556333D01*
X1398416Y554500D01*
X1396583D01*
X1394750Y556333D01*
X1413077Y565496D02*
X1409412Y563664D01*
X1405746Y559998D01*
Y556333D01*
X1407579Y554500D01*
X1411245D01*
X1413077Y556333D01*
Y558166D01*
X1411245Y559998D01*
X1405746D01*
X767331Y656747D02*
X763665D01*
X765498D01*
Y647583D01*
X763665Y645750D01*
X761833D01*
X760000Y647583D01*
X770996D02*
X772829Y645750D01*
X776495D01*
X778327Y647583D01*
Y654914D01*
X776495Y656747D01*
X772829D01*
X770996Y654914D01*
Y653081D01*
X772829Y651248D01*
X778327D01*
X1064831Y551746D02*
X1061165D01*
X1062998D01*
Y542583D01*
X1061165Y540750D01*
X1059333D01*
X1057500Y542583D01*
X1068496Y540750D02*
X1072162D01*
X1070329D01*
Y551746D01*
X1068496Y549914D01*
X1077660D02*
X1079493Y551746D01*
X1083158D01*
X1084991Y549914D01*
Y542583D01*
X1083158Y540750D01*
X1079493D01*
X1077660Y542583D01*
Y549914D01*
X860000Y426746D02*
Y415750D01*
Y419416D01*
X867331Y426746D01*
X861833Y421248D01*
X867331Y415750D01*
X870996D02*
X874662D01*
X872829D01*
Y426746D01*
X870996Y424914D01*
X1316250Y286246D02*
Y275250D01*
X1323581D01*
X1327246D02*
X1330912D01*
X1329079D01*
Y286246D01*
X1327246Y284414D01*
X1302275Y385110D02*
Y374114D01*
X1309606D01*
X1320602D02*
X1313271D01*
X1320602Y381445D01*
Y383278D01*
X1318770Y385110D01*
X1315104D01*
X1313271Y383278D01*
X1192500Y239247D02*
Y228250D01*
X1199831D01*
X1208995D02*
Y239247D01*
X1203496Y233748D01*
X1210827D01*
X1129250Y319996D02*
Y309000D01*
X1136581D01*
X1147577Y319996D02*
X1140246D01*
Y314498D01*
X1143912Y316331D01*
X1145745D01*
X1147577Y314498D01*
Y310833D01*
X1145745Y309000D01*
X1142079D01*
X1140246Y310833D01*
X1126500Y358246D02*
Y347250D01*
X1133831D01*
X1144827Y358246D02*
X1141162Y356414D01*
X1137496Y352748D01*
Y349083D01*
X1139329Y347250D01*
X1142995D01*
X1144827Y349083D01*
Y350915D01*
X1142995Y352748D01*
X1137496D01*
X1212250Y368746D02*
Y357750D01*
X1219581D01*
X1223246Y366914D02*
X1225079Y368746D01*
X1228745D01*
X1230577Y366914D01*
Y365081D01*
X1228745Y363248D01*
X1230577Y361415D01*
Y359583D01*
X1228745Y357750D01*
X1225079D01*
X1223246Y359583D01*
Y361415D01*
X1225079Y363248D01*
X1223246Y365081D01*
Y366914D01*
X1225079Y363248D02*
X1228745D01*
X1106250Y290247D02*
Y279250D01*
X1113581D01*
X1117246Y281083D02*
X1119079Y279250D01*
X1122745D01*
X1124577Y281083D01*
Y288414D01*
X1122745Y290247D01*
X1119079D01*
X1117246Y288414D01*
Y286581D01*
X1119079Y284748D01*
X1124577D01*
X1236250Y278496D02*
Y267500D01*
X1243581D01*
X1247246D02*
X1250912D01*
X1249079D01*
Y278496D01*
X1247246Y276664D01*
X1256410D02*
X1258243Y278496D01*
X1261908D01*
X1263741Y276664D01*
Y269333D01*
X1261908Y267500D01*
X1258243D01*
X1256410Y269333D01*
Y276664D01*
X1272500Y444246D02*
Y433250D01*
X1279831D01*
X1283496D02*
X1287162D01*
X1285329D01*
Y444246D01*
X1283496Y442414D01*
X1292660Y433250D02*
X1296326D01*
X1294493D01*
Y444246D01*
X1292660Y442414D01*
X965000Y589246D02*
Y578250D01*
X972331D01*
X975996D02*
X979662D01*
X977829D01*
Y589246D01*
X975996Y587414D01*
X992491Y578250D02*
X985160D01*
X992491Y585581D01*
Y587414D01*
X990658Y589246D01*
X986993D01*
X985160Y587414D01*
X972500Y641746D02*
Y630750D01*
X979831D01*
X983496D02*
X987162D01*
X985329D01*
Y641746D01*
X983496Y639914D01*
X992660D02*
X994493Y641746D01*
X998158D01*
X999991Y639914D01*
Y638081D01*
X998158Y636248D01*
X996326D01*
X998158D01*
X999991Y634416D01*
Y632583D01*
X998158Y630750D01*
X994493D01*
X992660Y632583D01*
X1425500Y758250D02*
Y769246D01*
X1430998D01*
X1432831Y767414D01*
Y763748D01*
X1430998Y761916D01*
X1425500D01*
X1436496Y769246D02*
Y758250D01*
X1441995D01*
X1443827Y760083D01*
Y761916D01*
X1441995Y763748D01*
X1436496D01*
X1441995D01*
X1443827Y765581D01*
Y767414D01*
X1441995Y769246D01*
X1436496D01*
X1447493Y758250D02*
X1451158D01*
X1449326D01*
Y769246D01*
X1447493Y767414D01*
X782331Y597583D02*
Y604914D01*
X780498Y606746D01*
X776833D01*
X775000Y604914D01*
Y597583D01*
X776833Y595750D01*
X780498D01*
X778665Y599416D02*
X782331Y595750D01*
X780498D02*
X782331Y597583D01*
X785996Y595750D02*
X789662D01*
X787829D01*
Y606746D01*
X785996Y604914D01*
X944831Y690083D02*
Y697414D01*
X942998Y699247D01*
X939333D01*
X937500Y697414D01*
Y690083D01*
X939333Y688250D01*
X942998D01*
X941165Y691916D02*
X944831Y688250D01*
X942998D02*
X944831Y690083D01*
X955827Y688250D02*
X948496D01*
X955827Y695581D01*
Y697414D01*
X953995Y699247D01*
X950329D01*
X948496Y697414D01*
X794831Y690083D02*
Y697414D01*
X792998Y699247D01*
X789333D01*
X787500Y697414D01*
Y690083D01*
X789333Y688250D01*
X792998D01*
X791165Y691916D02*
X794831Y688250D01*
X792998D02*
X794831Y690083D01*
X798496Y697414D02*
X800329Y699247D01*
X803995D01*
X805827Y697414D01*
Y695581D01*
X803995Y693748D01*
X802162D01*
X803995D01*
X805827Y691916D01*
Y690083D01*
X803995Y688250D01*
X800329D01*
X798496Y690083D01*
X1260000Y248750D02*
Y259746D01*
X1265498D01*
X1267331Y257914D01*
Y254248D01*
X1265498Y252416D01*
X1260000D01*
X1263665D02*
X1267331Y248750D01*
X1270996D02*
X1274662D01*
X1272829D01*
Y259746D01*
X1270996Y257914D01*
X1385000Y314750D02*
Y325746D01*
X1390498D01*
X1392331Y323914D01*
Y320248D01*
X1390498Y318416D01*
X1385000D01*
X1388665D02*
X1392331Y314750D01*
X1403327D02*
X1395996D01*
X1403327Y322081D01*
Y323914D01*
X1401495Y325746D01*
X1397829D01*
X1395996Y323914D01*
X1297500Y123250D02*
Y134246D01*
X1302998D01*
X1304831Y132414D01*
Y128748D01*
X1302998Y126916D01*
X1297500D01*
X1301165D02*
X1304831Y123250D01*
X1308496Y132414D02*
X1310329Y134246D01*
X1313995D01*
X1315827Y132414D01*
Y130581D01*
X1313995Y128748D01*
X1312162D01*
X1313995D01*
X1315827Y126916D01*
Y125083D01*
X1313995Y123250D01*
X1310329D01*
X1308496Y125083D01*
X1385500Y298750D02*
Y309746D01*
X1390998D01*
X1392831Y307914D01*
Y304248D01*
X1390998Y302416D01*
X1385500D01*
X1389165D02*
X1392831Y298750D01*
X1401995D02*
Y309746D01*
X1396496Y304248D01*
X1403827D01*
X1342500Y165750D02*
Y176747D01*
X1347998D01*
X1349831Y174914D01*
Y171248D01*
X1347998Y169415D01*
X1342500D01*
X1346165D02*
X1349831Y165750D01*
X1360827Y176747D02*
X1353497D01*
Y171248D01*
X1357162Y173081D01*
X1358995D01*
X1360827Y171248D01*
Y167583D01*
X1358995Y165750D01*
X1355329D01*
X1353497Y167583D01*
X1388250Y481500D02*
Y492496D01*
X1393748D01*
X1395581Y490664D01*
Y486998D01*
X1393748Y485165D01*
X1388250D01*
X1391915D02*
X1395581Y481500D01*
X1406577Y492496D02*
X1402912Y490664D01*
X1399247Y486998D01*
Y483333D01*
X1401079Y481500D01*
X1404745D01*
X1406577Y483333D01*
Y485165D01*
X1404745Y486998D01*
X1399247D01*
X1092500Y188250D02*
Y199247D01*
X1097998D01*
X1099831Y197414D01*
Y193748D01*
X1097998Y191915D01*
X1092500D01*
X1096165D02*
X1099831Y188250D01*
X1103496Y199247D02*
X1110827D01*
Y197414D01*
X1103496Y190083D01*
Y188250D01*
X1125000Y115750D02*
Y126747D01*
X1130498D01*
X1132331Y124914D01*
Y121248D01*
X1130498Y119416D01*
X1125000D01*
X1128665D02*
X1132331Y115750D01*
X1135996Y117583D02*
X1137829Y115750D01*
X1141495D01*
X1143327Y117583D01*
Y124914D01*
X1141495Y126747D01*
X1137829D01*
X1135996Y124914D01*
Y123081D01*
X1137829Y121248D01*
X1143327D01*
X1195000Y155750D02*
Y166747D01*
X1200498D01*
X1202331Y164914D01*
Y161248D01*
X1200498Y159416D01*
X1195000D01*
X1198665D02*
X1202331Y155750D01*
X1205996D02*
X1209662D01*
X1207829D01*
Y166747D01*
X1205996Y164914D01*
X1215160D02*
X1216993Y166747D01*
X1220658D01*
X1222491Y164914D01*
Y157583D01*
X1220658Y155750D01*
X1216993D01*
X1215160Y157583D01*
Y164914D01*
X855000Y100750D02*
Y111747D01*
X860498D01*
X862331Y109914D01*
Y106248D01*
X860498Y104416D01*
X855000D01*
X858665D02*
X862331Y100750D01*
X865996D02*
X869662D01*
X867829D01*
Y111747D01*
X865996Y109914D01*
X875160Y100750D02*
X878826D01*
X876993D01*
Y111747D01*
X875160Y109914D01*
X1116286Y327750D02*
Y338746D01*
X1121785D01*
X1123617Y336914D01*
Y333248D01*
X1121785Y331415D01*
X1116286D01*
X1119952D02*
X1123617Y327750D01*
X1127283D02*
X1130948D01*
X1129116D01*
Y338746D01*
X1127283Y336914D01*
X1143777Y327750D02*
X1136447D01*
X1143777Y335081D01*
Y336914D01*
X1141945Y338746D01*
X1138279D01*
X1136447Y336914D01*
X1105000Y253250D02*
Y264247D01*
X1110498D01*
X1112331Y262414D01*
Y258748D01*
X1110498Y256915D01*
X1105000D01*
X1108665D02*
X1112331Y253250D01*
X1115996D02*
X1119662D01*
X1117829D01*
Y264247D01*
X1115996Y262414D01*
X1125160D02*
X1126993Y264247D01*
X1130658D01*
X1132491Y262414D01*
Y260581D01*
X1130658Y258748D01*
X1128826D01*
X1130658D01*
X1132491Y256915D01*
Y255083D01*
X1130658Y253250D01*
X1126993D01*
X1125160Y255083D01*
X1197500Y330750D02*
Y341746D01*
X1202998D01*
X1204831Y339914D01*
Y336248D01*
X1202998Y334416D01*
X1197500D01*
X1201165D02*
X1204831Y330750D01*
X1208496D02*
X1212162D01*
X1210329D01*
Y341746D01*
X1208496Y339914D01*
X1223158Y330750D02*
Y341746D01*
X1217660Y336248D01*
X1224991D01*
X1025000Y273250D02*
Y284246D01*
X1030498D01*
X1032331Y282414D01*
Y278748D01*
X1030498Y276915D01*
X1025000D01*
X1028665D02*
X1032331Y273250D01*
X1035996D02*
X1039662D01*
X1037829D01*
Y284246D01*
X1035996Y282414D01*
X1052491Y284246D02*
X1045160D01*
Y278748D01*
X1048826Y280581D01*
X1050658D01*
X1052491Y278748D01*
Y275083D01*
X1050658Y273250D01*
X1046993D01*
X1045160Y275083D01*
X1057500Y368250D02*
Y379246D01*
X1062998D01*
X1064831Y377414D01*
Y373748D01*
X1062998Y371916D01*
X1057500D01*
X1061165D02*
X1064831Y368250D01*
X1068496D02*
X1072162D01*
X1070329D01*
Y379246D01*
X1068496Y377414D01*
X1084991Y379246D02*
X1081326Y377414D01*
X1077660Y373748D01*
Y370083D01*
X1079493Y368250D01*
X1083158D01*
X1084991Y370083D01*
Y371916D01*
X1083158Y373748D01*
X1077660D01*
X1022500Y330750D02*
Y341746D01*
X1027998D01*
X1029831Y339914D01*
Y336248D01*
X1027998Y334416D01*
X1022500D01*
X1026165D02*
X1029831Y330750D01*
X1033496D02*
X1037162D01*
X1035329D01*
Y341746D01*
X1033496Y339914D01*
X1042660Y341746D02*
X1049991D01*
Y339914D01*
X1042660Y332583D01*
Y330750D01*
X1022500Y310750D02*
Y321746D01*
X1027998D01*
X1029831Y319914D01*
Y316248D01*
X1027998Y314415D01*
X1022500D01*
X1026165D02*
X1029831Y310750D01*
X1033496D02*
X1037162D01*
X1035329D01*
Y321746D01*
X1033496Y319914D01*
X1042660D02*
X1044493Y321746D01*
X1048158D01*
X1049991Y319914D01*
Y318081D01*
X1048158Y316248D01*
X1049991Y314415D01*
Y312583D01*
X1048158Y310750D01*
X1044493D01*
X1042660Y312583D01*
Y314415D01*
X1044493Y316248D01*
X1042660Y318081D01*
Y319914D01*
X1044493Y316248D02*
X1048158D01*
X1270000Y368250D02*
Y379246D01*
X1275498D01*
X1277331Y377414D01*
Y373748D01*
X1275498Y371916D01*
X1270000D01*
X1273665D02*
X1277331Y368250D01*
X1280996D02*
X1284662D01*
X1282829D01*
Y379246D01*
X1280996Y377414D01*
X1290160Y370083D02*
X1291993Y368250D01*
X1295658D01*
X1297491Y370083D01*
Y377414D01*
X1295658Y379246D01*
X1291993D01*
X1290160Y377414D01*
Y375581D01*
X1291993Y373748D01*
X1297491D01*
X1350750Y428250D02*
Y439246D01*
X1356248D01*
X1358081Y437414D01*
Y433748D01*
X1356248Y431916D01*
X1350750D01*
X1354415D02*
X1358081Y428250D01*
X1369077D02*
X1361747D01*
X1369077Y435581D01*
Y437414D01*
X1367245Y439246D01*
X1363579D01*
X1361747Y437414D01*
X1372743D02*
X1374576Y439246D01*
X1378241D01*
X1380074Y437414D01*
Y430083D01*
X1378241Y428250D01*
X1374576D01*
X1372743Y430083D01*
Y437414D01*
X1197500Y774750D02*
Y785747D01*
X1202998D01*
X1204831Y783914D01*
Y780248D01*
X1202998Y778416D01*
X1197500D01*
X1201165D02*
X1204831Y774750D01*
X1215827D02*
X1208496D01*
X1215827Y782081D01*
Y783914D01*
X1213995Y785747D01*
X1210329D01*
X1208496Y783914D01*
X1219493Y774750D02*
X1223158D01*
X1221326D01*
Y785747D01*
X1219493Y783914D01*
X1277750Y269500D02*
Y280496D01*
X1283248D01*
X1285081Y278664D01*
Y274998D01*
X1283248Y273165D01*
X1277750D01*
X1281416D02*
X1285081Y269500D01*
X1296077D02*
X1288746D01*
X1296077Y276831D01*
Y278664D01*
X1294245Y280496D01*
X1290579D01*
X1288746Y278664D01*
X1307074Y269500D02*
X1299743D01*
X1307074Y276831D01*
Y278664D01*
X1305241Y280496D01*
X1301576D01*
X1299743Y278664D01*
X1396000Y426250D02*
Y437246D01*
X1401498D01*
X1403331Y435414D01*
Y431748D01*
X1401498Y429916D01*
X1396000D01*
X1399666D02*
X1403331Y426250D01*
X1414327D02*
X1406996D01*
X1414327Y433581D01*
Y435414D01*
X1412495Y437246D01*
X1408829D01*
X1406996Y435414D01*
X1417993D02*
X1419826Y437246D01*
X1423491D01*
X1425324Y435414D01*
Y433581D01*
X1423491Y431748D01*
X1421658D01*
X1423491D01*
X1425324Y429916D01*
Y428083D01*
X1423491Y426250D01*
X1419826D01*
X1417993Y428083D01*
X1021589Y293500D02*
Y304496D01*
X1027087D01*
X1028920Y302664D01*
Y298998D01*
X1027087Y297166D01*
X1021589D01*
X1025254D02*
X1028920Y293500D01*
X1039916D02*
X1032585D01*
X1039916Y300831D01*
Y302664D01*
X1038083Y304496D01*
X1034418D01*
X1032585Y302664D01*
X1049080Y293500D02*
Y304496D01*
X1043582Y298998D01*
X1050913D01*
X1402000Y626000D02*
Y636996D01*
X1407498D01*
X1409331Y635164D01*
Y631498D01*
X1407498Y629665D01*
X1402000D01*
X1405665D02*
X1409331Y626000D01*
X1420327D02*
X1412996D01*
X1420327Y633331D01*
Y635164D01*
X1418495Y636996D01*
X1414829D01*
X1412996Y635164D01*
X1431324Y636996D02*
X1423993D01*
Y631498D01*
X1427658Y633331D01*
X1429491D01*
X1431324Y631498D01*
Y627833D01*
X1429491Y626000D01*
X1425826D01*
X1423993Y627833D01*
X1010000Y213250D02*
Y224247D01*
X1015498D01*
X1017331Y222414D01*
Y218748D01*
X1015498Y216915D01*
X1010000D01*
X1013665D02*
X1017331Y213250D01*
X1028327D02*
X1020996D01*
X1028327Y220581D01*
Y222414D01*
X1026495Y224247D01*
X1022829D01*
X1020996Y222414D01*
X1039324Y224247D02*
X1035658Y222414D01*
X1031993Y218748D01*
Y215083D01*
X1033826Y213250D01*
X1037491D01*
X1039324Y215083D01*
Y216915D01*
X1037491Y218748D01*
X1031993D01*
X1020000Y230750D02*
Y241747D01*
X1025498D01*
X1027331Y239914D01*
Y236248D01*
X1025498Y234415D01*
X1020000D01*
X1023665D02*
X1027331Y230750D01*
X1038327D02*
X1030996D01*
X1038327Y238081D01*
Y239914D01*
X1036495Y241747D01*
X1032829D01*
X1030996Y239914D01*
X1041993Y241747D02*
X1049324D01*
Y239914D01*
X1041993Y232583D01*
Y230750D01*
X1403000Y610250D02*
Y621246D01*
X1408498D01*
X1410331Y619414D01*
Y615748D01*
X1408498Y613915D01*
X1403000D01*
X1406665D02*
X1410331Y610250D01*
X1421327D02*
X1413996D01*
X1421327Y617581D01*
Y619414D01*
X1419495Y621246D01*
X1415829D01*
X1413996Y619414D01*
X1424993D02*
X1426826Y621246D01*
X1430491D01*
X1432324Y619414D01*
Y617581D01*
X1430491Y615748D01*
X1432324Y613915D01*
Y612083D01*
X1430491Y610250D01*
X1426826D01*
X1424993Y612083D01*
Y613915D01*
X1426826Y615748D01*
X1424993Y617581D01*
Y619414D01*
X1426826Y615748D02*
X1430491D01*
X1388750Y462750D02*
Y473746D01*
X1394248D01*
X1396081Y471914D01*
Y468248D01*
X1394248Y466415D01*
X1388750D01*
X1392415D02*
X1396081Y462750D01*
X1407077D02*
X1399747D01*
X1407077Y470081D01*
Y471914D01*
X1405245Y473746D01*
X1401579D01*
X1399747Y471914D01*
X1410743Y464583D02*
X1412576Y462750D01*
X1416241D01*
X1418074Y464583D01*
Y471914D01*
X1416241Y473746D01*
X1412576D01*
X1410743Y471914D01*
Y470081D01*
X1412576Y468248D01*
X1418074D01*
X1202500Y538250D02*
Y549246D01*
X1207998D01*
X1209831Y547414D01*
Y543748D01*
X1207998Y541916D01*
X1202500D01*
X1206165D02*
X1209831Y538250D01*
X1213496Y547414D02*
X1215329Y549246D01*
X1218995D01*
X1220827Y547414D01*
Y545581D01*
X1218995Y543748D01*
X1217162D01*
X1218995D01*
X1220827Y541916D01*
Y540083D01*
X1218995Y538250D01*
X1215329D01*
X1213496Y540083D01*
X1224493Y547414D02*
X1226326Y549246D01*
X1229991D01*
X1231824Y547414D01*
Y540083D01*
X1229991Y538250D01*
X1226326D01*
X1224493Y540083D01*
Y547414D01*
X1098750Y418500D02*
Y429496D01*
X1104248D01*
X1106081Y427664D01*
Y423998D01*
X1104248Y422165D01*
X1098750D01*
X1102415D02*
X1106081Y418500D01*
X1109746Y427664D02*
X1111579Y429496D01*
X1115245D01*
X1117077Y427664D01*
Y425831D01*
X1115245Y423998D01*
X1113412D01*
X1115245D01*
X1117077Y422165D01*
Y420333D01*
X1115245Y418500D01*
X1111579D01*
X1109746Y420333D01*
X1120743Y418500D02*
X1124408D01*
X1122576D01*
Y429496D01*
X1120743Y427664D01*
X1337750Y536500D02*
Y547496D01*
X1343248D01*
X1345081Y545664D01*
Y541998D01*
X1343248Y540165D01*
X1337750D01*
X1341416D02*
X1345081Y536500D01*
X1348746Y545664D02*
X1350579Y547496D01*
X1354245D01*
X1356077Y545664D01*
Y543831D01*
X1354245Y541998D01*
X1352412D01*
X1354245D01*
X1356077Y540165D01*
Y538333D01*
X1354245Y536500D01*
X1350579D01*
X1348746Y538333D01*
X1367074Y536500D02*
X1359743D01*
X1367074Y543831D01*
Y545664D01*
X1365241Y547496D01*
X1361576D01*
X1359743Y545664D01*
X1198750Y396250D02*
Y407247D01*
X1204248D01*
X1206081Y405414D01*
Y401748D01*
X1204248Y399916D01*
X1198750D01*
X1202415D02*
X1206081Y396250D01*
X1209746Y405414D02*
X1211579Y407247D01*
X1215245D01*
X1217077Y405414D01*
Y403581D01*
X1215245Y401748D01*
X1213412D01*
X1215245D01*
X1217077Y399916D01*
Y398083D01*
X1215245Y396250D01*
X1211579D01*
X1209746Y398083D01*
X1220743Y405414D02*
X1222576Y407247D01*
X1226241D01*
X1228074Y405414D01*
Y403581D01*
X1226241Y401748D01*
X1224408D01*
X1226241D01*
X1228074Y399916D01*
Y398083D01*
X1226241Y396250D01*
X1222576D01*
X1220743Y398083D01*
X1310000Y503250D02*
Y514246D01*
X1315498D01*
X1317331Y512414D01*
Y508748D01*
X1315498Y506916D01*
X1310000D01*
X1313665D02*
X1317331Y503250D01*
X1320996Y512414D02*
X1322829Y514246D01*
X1326495D01*
X1328327Y512414D01*
Y510581D01*
X1326495Y508748D01*
X1324662D01*
X1326495D01*
X1328327Y506916D01*
Y505083D01*
X1326495Y503250D01*
X1322829D01*
X1320996Y505083D01*
X1339324Y514246D02*
X1331993D01*
Y508748D01*
X1335658Y510581D01*
X1337491D01*
X1339324Y508748D01*
Y505083D01*
X1337491Y503250D01*
X1333826D01*
X1331993Y505083D01*
X1167500Y548250D02*
Y559246D01*
X1172998D01*
X1174831Y557414D01*
Y553748D01*
X1172998Y551916D01*
X1167500D01*
X1171165D02*
X1174831Y548250D01*
X1178496Y557414D02*
X1180329Y559246D01*
X1183995D01*
X1185827Y557414D01*
Y555581D01*
X1183995Y553748D01*
X1182162D01*
X1183995D01*
X1185827Y551916D01*
Y550083D01*
X1183995Y548250D01*
X1180329D01*
X1178496Y550083D01*
X1196824Y559246D02*
X1193158Y557414D01*
X1189493Y553748D01*
Y550083D01*
X1191326Y548250D01*
X1194991D01*
X1196824Y550083D01*
Y551916D01*
X1194991Y553748D01*
X1189493D01*
X1172500Y468250D02*
Y479246D01*
X1177998D01*
X1179831Y477414D01*
Y473748D01*
X1177998Y471916D01*
X1172500D01*
X1176165D02*
X1179831Y468250D01*
X1183496Y477414D02*
X1185329Y479246D01*
X1188995D01*
X1190827Y477414D01*
Y475581D01*
X1188995Y473748D01*
X1187162D01*
X1188995D01*
X1190827Y471916D01*
Y470083D01*
X1188995Y468250D01*
X1185329D01*
X1183496Y470083D01*
X1194493Y479246D02*
X1201824D01*
Y477414D01*
X1194493Y470083D01*
Y468250D01*
X1160000Y495750D02*
X1149004D01*
Y501248D01*
X1150836Y503081D01*
X1154502D01*
X1156335Y501248D01*
Y495750D01*
Y499416D02*
X1160000Y503081D01*
X1150836Y506746D02*
X1149004Y508579D01*
Y512245D01*
X1150836Y514077D01*
X1152669D01*
X1154502Y512245D01*
Y510412D01*
Y512245D01*
X1156335Y514077D01*
X1158167D01*
X1160000Y512245D01*
Y508579D01*
X1158167Y506746D01*
X1150836Y517743D02*
X1149004Y519576D01*
Y523241D01*
X1150836Y525074D01*
X1152669D01*
X1154502Y523241D01*
X1156335Y525074D01*
X1158167D01*
X1160000Y523241D01*
Y519576D01*
X1158167Y517743D01*
X1156335D01*
X1154502Y519576D01*
X1152669Y517743D01*
X1150836D01*
X1154502Y519576D02*
Y523241D01*
X523500Y295500D02*
Y306497D01*
X528998D01*
X530831Y304664D01*
Y300998D01*
X528998Y299165D01*
X523500D01*
X527165D02*
X530831Y295500D01*
X539995D02*
Y306497D01*
X534496Y300998D01*
X541827D01*
X552824Y306497D02*
X545493D01*
Y300998D01*
X549158Y302831D01*
X550991D01*
X552824Y300998D01*
Y297333D01*
X550991Y295500D01*
X547326D01*
X545493Y297333D01*
X834750Y587000D02*
Y597996D01*
X840248D01*
X842081Y596164D01*
Y592498D01*
X840248Y590666D01*
X834750D01*
X838416D02*
X842081Y587000D01*
X853077Y597996D02*
X845746D01*
Y592498D01*
X849412Y594331D01*
X851245D01*
X853077Y592498D01*
Y588833D01*
X851245Y587000D01*
X847579D01*
X845746Y588833D01*
X856743Y596164D02*
X858576Y597996D01*
X862241D01*
X864074Y596164D01*
Y588833D01*
X862241Y587000D01*
X858576D01*
X856743Y588833D01*
Y596164D01*
X886250Y593000D02*
Y603997D01*
X891748D01*
X893581Y602164D01*
Y598498D01*
X891748Y596665D01*
X886250D01*
X889915D02*
X893581Y593000D01*
X904577Y603997D02*
X897246D01*
Y598498D01*
X900912Y600331D01*
X902745D01*
X904577Y598498D01*
Y594833D01*
X902745Y593000D01*
X899079D01*
X897246Y594833D01*
X908243Y593000D02*
X911908D01*
X910076D01*
Y603997D01*
X908243Y602164D01*
X1197750Y710500D02*
Y721496D01*
X1203248D01*
X1205081Y719664D01*
Y715998D01*
X1203248Y714165D01*
X1197750D01*
X1201415D02*
X1205081Y710500D01*
X1216077Y721496D02*
X1208746D01*
Y715998D01*
X1212412Y717831D01*
X1214245D01*
X1216077Y715998D01*
Y712333D01*
X1214245Y710500D01*
X1210579D01*
X1208746Y712333D01*
X1225241Y710500D02*
Y721496D01*
X1219743Y715998D01*
X1227074D01*
X1095500Y468546D02*
Y479543D01*
X1100998D01*
X1102831Y477710D01*
Y474044D01*
X1100998Y472212D01*
X1095500D01*
X1099165D02*
X1102831Y468546D01*
X1113827Y479543D02*
X1106496D01*
Y474044D01*
X1110162Y475877D01*
X1111995D01*
X1113827Y474044D01*
Y470379D01*
X1111995Y468546D01*
X1108329D01*
X1106496Y470379D01*
X1124824Y479543D02*
X1117493D01*
Y474044D01*
X1121158Y475877D01*
X1122991D01*
X1124824Y474044D01*
Y470379D01*
X1122991Y468546D01*
X1119326D01*
X1117493Y470379D01*
X1346250Y747500D02*
Y758496D01*
X1351748D01*
X1353581Y756664D01*
Y752998D01*
X1351748Y751165D01*
X1346250D01*
X1349915D02*
X1353581Y747500D01*
X1364577Y758496D02*
X1357246D01*
Y752998D01*
X1360912Y754831D01*
X1362745D01*
X1364577Y752998D01*
Y749333D01*
X1362745Y747500D01*
X1359079D01*
X1357246Y749333D01*
X1375574Y758496D02*
X1371908Y756664D01*
X1368243Y752998D01*
Y749333D01*
X1370076Y747500D01*
X1373741D01*
X1375574Y749333D01*
Y751165D01*
X1373741Y752998D01*
X1368243D01*
X1080000Y168250D02*
Y179247D01*
X1085498D01*
X1087331Y177414D01*
Y173748D01*
X1085498Y171915D01*
X1080000D01*
X1083665D02*
X1087331Y168250D01*
X1098327Y179247D02*
X1090996D01*
Y173748D01*
X1094662Y175581D01*
X1096495D01*
X1098327Y173748D01*
Y170083D01*
X1096495Y168250D01*
X1092829D01*
X1090996Y170083D01*
X1101993D02*
X1103826Y168250D01*
X1107491D01*
X1109324Y170083D01*
Y177414D01*
X1107491Y179247D01*
X1103826D01*
X1101993Y177414D01*
Y175581D01*
X1103826Y173748D01*
X1109324D01*
X1005000Y168250D02*
Y179247D01*
X1010498D01*
X1012331Y177414D01*
Y173748D01*
X1010498Y171915D01*
X1005000D01*
X1008665D02*
X1012331Y168250D01*
X1023327Y179247D02*
X1019662Y177414D01*
X1015996Y173748D01*
Y170083D01*
X1017829Y168250D01*
X1021495D01*
X1023327Y170083D01*
Y171915D01*
X1021495Y173748D01*
X1015996D01*
X1026993Y177414D02*
X1028826Y179247D01*
X1032491D01*
X1034324Y177414D01*
Y170083D01*
X1032491Y168250D01*
X1028826D01*
X1026993Y170083D01*
Y177414D01*
X1140000Y560750D02*
Y571746D01*
X1145498D01*
X1147331Y569914D01*
Y566248D01*
X1145498Y564416D01*
X1140000D01*
X1143665D02*
X1147331Y560750D01*
X1158327Y571746D02*
X1154662Y569914D01*
X1150996Y566248D01*
Y562583D01*
X1152829Y560750D01*
X1156495D01*
X1158327Y562583D01*
Y564416D01*
X1156495Y566248D01*
X1150996D01*
X1161993Y560750D02*
X1165658D01*
X1163826D01*
Y571746D01*
X1161993Y569914D01*
X1093500Y490250D02*
Y501246D01*
X1098998D01*
X1100831Y499414D01*
Y495748D01*
X1098998Y493915D01*
X1093500D01*
X1097166D02*
X1100831Y490250D01*
X1111827Y501246D02*
X1108162Y499414D01*
X1104496Y495748D01*
Y492083D01*
X1106329Y490250D01*
X1109995D01*
X1111827Y492083D01*
Y493915D01*
X1109995Y495748D01*
X1104496D01*
X1122824Y490250D02*
X1115493D01*
X1122824Y497581D01*
Y499414D01*
X1120991Y501246D01*
X1117326D01*
X1115493Y499414D01*
X1015000Y368250D02*
Y379246D01*
X1020498D01*
X1022331Y377414D01*
Y373748D01*
X1020498Y371916D01*
X1015000D01*
X1018665D02*
X1022331Y368250D01*
X1033327Y379246D02*
X1029662Y377414D01*
X1025996Y373748D01*
Y370083D01*
X1027829Y368250D01*
X1031495D01*
X1033327Y370083D01*
Y371916D01*
X1031495Y373748D01*
X1025996D01*
X1042491Y368250D02*
Y379246D01*
X1036993Y373748D01*
X1044324D01*
X1081500Y386750D02*
Y397746D01*
X1086998D01*
X1088831Y395914D01*
Y392248D01*
X1086998Y390415D01*
X1081500D01*
X1085165D02*
X1088831Y386750D01*
X1099827Y397746D02*
X1096162Y395914D01*
X1092496Y392248D01*
Y388583D01*
X1094329Y386750D01*
X1097995D01*
X1099827Y388583D01*
Y390415D01*
X1097995Y392248D01*
X1092496D01*
X1110824Y397746D02*
X1103493D01*
Y392248D01*
X1107158Y394081D01*
X1108991D01*
X1110824Y392248D01*
Y388583D01*
X1108991Y386750D01*
X1105326D01*
X1103493Y388583D01*
X1005000Y438250D02*
Y449246D01*
X1010498D01*
X1012331Y447414D01*
Y443748D01*
X1010498Y441916D01*
X1005000D01*
X1008665D02*
X1012331Y438250D01*
X1023327Y449246D02*
X1019662Y447414D01*
X1015996Y443748D01*
Y440083D01*
X1017829Y438250D01*
X1021495D01*
X1023327Y440083D01*
Y441916D01*
X1021495Y443748D01*
X1015996D01*
X1034324Y449246D02*
X1030658Y447414D01*
X1026993Y443748D01*
Y440083D01*
X1028826Y438250D01*
X1032491D01*
X1034324Y440083D01*
Y441916D01*
X1032491Y443748D01*
X1026993D01*
X977500Y423250D02*
Y434246D01*
X982998D01*
X984831Y432414D01*
Y428748D01*
X982998Y426916D01*
X977500D01*
X981165D02*
X984831Y423250D01*
X995827Y434246D02*
X992162Y432414D01*
X988496Y428748D01*
Y425083D01*
X990329Y423250D01*
X993995D01*
X995827Y425083D01*
Y426916D01*
X993995Y428748D01*
X988496D01*
X999493Y434246D02*
X1006824D01*
Y432414D01*
X999493Y425083D01*
Y423250D01*
X1018500Y530750D02*
X1007504D01*
Y536248D01*
X1009336Y538081D01*
X1013002D01*
X1014835Y536248D01*
Y530750D01*
Y534416D02*
X1018500Y538081D01*
X1007504Y549077D02*
X1009336Y545412D01*
X1013002Y541746D01*
X1016667D01*
X1018500Y543579D01*
Y547245D01*
X1016667Y549077D01*
X1014835D01*
X1013002Y547245D01*
Y541746D01*
X1009336Y552743D02*
X1007504Y554576D01*
Y558241D01*
X1009336Y560074D01*
X1011169D01*
X1013002Y558241D01*
X1014835Y560074D01*
X1016667D01*
X1018500Y558241D01*
Y554576D01*
X1016667Y552743D01*
X1014835D01*
X1013002Y554576D01*
X1011169Y552743D01*
X1009336D01*
X1013002Y554576D02*
Y558241D01*
X1097250Y926000D02*
X1086254D01*
Y931498D01*
X1088086Y933331D01*
X1091752D01*
X1093585Y931498D01*
Y926000D01*
Y929666D02*
X1097250Y933331D01*
X1086254Y944327D02*
X1088086Y940662D01*
X1091752Y936997D01*
X1095417D01*
X1097250Y938829D01*
Y942495D01*
X1095417Y944327D01*
X1093585D01*
X1091752Y942495D01*
Y936997D01*
X1095417Y947993D02*
X1097250Y949826D01*
Y953491D01*
X1095417Y955324D01*
X1088086D01*
X1086254Y953491D01*
Y949826D01*
X1088086Y947993D01*
X1089919D01*
X1091752Y949826D01*
Y955324D01*
X1297000Y353746D02*
Y344583D01*
X1298833Y342750D01*
X1302498D01*
X1304331Y344583D01*
Y353746D01*
X1307996Y342750D02*
X1311662D01*
X1309829D01*
Y353746D01*
X1307996Y351914D01*
X1305000Y201747D02*
Y192583D01*
X1306833Y190750D01*
X1310498D01*
X1312331Y192583D01*
Y201747D01*
X1323327Y190750D02*
X1315997D01*
X1323327Y198081D01*
Y199914D01*
X1321495Y201747D01*
X1317829D01*
X1315997Y199914D01*
X1154684Y212926D02*
Y203763D01*
X1156517Y201930D01*
X1160182D01*
X1162015Y203763D01*
Y212926D01*
X1171179Y201930D02*
Y212926D01*
X1165680Y207428D01*
X1173011D01*
X1159750Y269996D02*
Y260833D01*
X1161583Y259000D01*
X1165248D01*
X1167081Y260833D01*
Y269996D01*
X1178077D02*
X1170747D01*
Y264498D01*
X1174412Y266331D01*
X1176245D01*
X1178077Y264498D01*
Y260833D01*
X1176245Y259000D01*
X1172579D01*
X1170747Y260833D01*
X1270000Y711747D02*
Y702583D01*
X1271833Y700750D01*
X1275498D01*
X1277331Y702583D01*
Y711747D01*
X1288327D02*
X1284662Y709914D01*
X1280996Y706248D01*
Y702583D01*
X1282829Y700750D01*
X1286495D01*
X1288327Y702583D01*
Y704416D01*
X1286495Y706248D01*
X1280996D01*
X1243000Y295996D02*
Y286833D01*
X1244833Y285000D01*
X1248498D01*
X1250331Y286833D01*
Y295996D01*
X1253997D02*
X1261327D01*
Y294164D01*
X1253997Y286833D01*
Y285000D01*
X1340000Y424246D02*
Y415083D01*
X1341833Y413250D01*
X1345498D01*
X1347331Y415083D01*
Y424246D01*
X1350996Y422414D02*
X1352829Y424246D01*
X1356495D01*
X1358327Y422414D01*
Y420581D01*
X1356495Y418748D01*
X1358327Y416916D01*
Y415083D01*
X1356495Y413250D01*
X1352829D01*
X1350996Y415083D01*
Y416916D01*
X1352829Y418748D01*
X1350996Y420581D01*
Y422414D01*
X1352829Y418748D02*
X1356495D01*
X1155750Y465496D02*
Y456333D01*
X1157583Y454500D01*
X1161248D01*
X1163081Y456333D01*
Y465496D01*
X1166746Y454500D02*
X1170412D01*
X1168579D01*
Y465496D01*
X1166746Y463664D01*
X1175910D02*
X1177743Y465496D01*
X1181408D01*
X1183241Y463664D01*
Y456333D01*
X1181408Y454500D01*
X1177743D01*
X1175910Y456333D01*
Y463664D01*
X395986Y324432D02*
Y315269D01*
X397819Y313436D01*
X401484D01*
X403317Y315269D01*
Y324432D01*
X406982Y313436D02*
X410648D01*
X408815D01*
Y324432D01*
X406982Y322600D01*
X416146Y313436D02*
X419812D01*
X417979D01*
Y324432D01*
X416146Y322600D01*
X916000Y815497D02*
Y806333D01*
X917833Y804500D01*
X921498D01*
X923331Y806333D01*
Y815497D01*
X926996Y804500D02*
X930662D01*
X928829D01*
Y815497D01*
X926996Y813664D01*
X941658Y804500D02*
Y815497D01*
X936160Y809998D01*
X943491D01*
X1130500Y593497D02*
Y584333D01*
X1132333Y582500D01*
X1135998D01*
X1137831Y584333D01*
Y593497D01*
X1141496Y582500D02*
X1145162D01*
X1143329D01*
Y593497D01*
X1141496Y591664D01*
X1157991Y593497D02*
X1150660D01*
Y587998D01*
X1154326Y589831D01*
X1156158D01*
X1157991Y587998D01*
Y584333D01*
X1156158Y582500D01*
X1152493D01*
X1150660Y584333D01*
X983754Y683250D02*
X992917D01*
X994750Y685083D01*
Y688748D01*
X992917Y690581D01*
X983754D01*
X994750Y694247D02*
Y697912D01*
Y696079D01*
X983754D01*
X985586Y694247D01*
X983754Y710741D02*
X985586Y707076D01*
X989252Y703410D01*
X992917D01*
X994750Y705243D01*
Y708908D01*
X992917Y710741D01*
X991085D01*
X989252Y708908D01*
Y703410D01*
X1097500Y456746D02*
Y447583D01*
X1099333Y445750D01*
X1102998D01*
X1104831Y447583D01*
Y456746D01*
X1108496Y445750D02*
X1112162D01*
X1110329D01*
Y456746D01*
X1108496Y454914D01*
X1117660Y456746D02*
X1124991D01*
Y454914D01*
X1117660Y447583D01*
Y445750D01*
X962500Y527496D02*
X969831Y516500D01*
Y527496D02*
X962500Y516500D01*
X973496D02*
X977162D01*
X975329D01*
Y527496D01*
X973496Y525664D01*
X908500Y415746D02*
Y404750D01*
X913998D01*
X915831Y406583D01*
Y413914D01*
X913998Y415746D01*
X908500D01*
X919496Y404750D02*
X923162D01*
X921329D01*
Y415746D01*
X919496Y413914D01*
X927581Y525997D02*
X923915D01*
X925748D01*
Y516833D01*
X923915Y515000D01*
X922083D01*
X920250Y516833D01*
X931246Y524164D02*
X933079Y525997D01*
X936745D01*
X938577Y524164D01*
Y522331D01*
X936745Y520498D01*
X938577Y518666D01*
Y516833D01*
X936745Y515000D01*
X933079D01*
X931246Y516833D01*
Y518666D01*
X933079Y520498D01*
X931246Y522331D01*
Y524164D01*
X933079Y520498D02*
X936745D01*
X600000Y756746D02*
Y747583D01*
X601833Y745750D01*
X605498D01*
X607331Y747583D01*
Y756746D01*
X610996Y745750D02*
X614662D01*
X612829D01*
Y756746D01*
X610996Y754914D01*
X627491Y745750D02*
X620160D01*
X627491Y753081D01*
Y754914D01*
X625658Y756746D01*
X621993D01*
X620160Y754914D01*
X1447831Y623496D02*
X1444165D01*
X1445998D01*
Y614333D01*
X1444165Y612500D01*
X1442333D01*
X1440500Y614333D01*
X1451496Y612500D02*
X1455162D01*
X1453329D01*
Y623496D01*
X1451496Y621664D01*
X1460660Y612500D02*
X1464326D01*
X1462493D01*
Y623496D01*
X1460660Y621664D01*
X932500Y54246D02*
Y45083D01*
X934333Y43250D01*
X937998D01*
X939831Y45083D01*
Y54246D01*
X943496Y52414D02*
X945329Y54246D01*
X948995D01*
X950827Y52414D01*
Y50581D01*
X948995Y48748D01*
X947162D01*
X948995D01*
X950827Y46915D01*
Y45083D01*
X948995Y43250D01*
X945329D01*
X943496Y45083D01*
X1297500Y100750D02*
Y111747D01*
X1302998D01*
X1304831Y109914D01*
Y106248D01*
X1302998Y104416D01*
X1297500D01*
X1301165D02*
X1304831Y100750D01*
X1308496Y109914D02*
X1310329Y111747D01*
X1313995D01*
X1315827Y109914D01*
Y108081D01*
X1313995Y106248D01*
X1312162D01*
X1313995D01*
X1315827Y104416D01*
Y102583D01*
X1313995Y100750D01*
X1310329D01*
X1308496Y102583D01*
X1324991Y100750D02*
Y111747D01*
X1319493Y106248D01*
X1326824D01*
X1143500Y64750D02*
Y75746D01*
X1148998D01*
X1150831Y73914D01*
Y70248D01*
X1148998Y68415D01*
X1143500D01*
X1147166D02*
X1150831Y64750D01*
X1154496Y75746D02*
X1161827D01*
Y73914D01*
X1154496Y66583D01*
Y64750D01*
X1172824D02*
X1165493D01*
X1172824Y72081D01*
Y73914D01*
X1170991Y75746D01*
X1167326D01*
X1165493Y73914D01*
X542250Y186750D02*
Y197746D01*
X547748D01*
X549581Y195914D01*
Y192248D01*
X547748Y190415D01*
X542250D01*
X545915D02*
X549581Y186750D01*
X558745D02*
Y197746D01*
X553246Y192248D01*
X560577D01*
X564243Y195914D02*
X566076Y197746D01*
X569741D01*
X571574Y195914D01*
Y194081D01*
X569741Y192248D01*
X567908D01*
X569741D01*
X571574Y190415D01*
Y188583D01*
X569741Y186750D01*
X566076D01*
X564243Y188583D01*
X647500Y235750D02*
Y246746D01*
X652998D01*
X654831Y244914D01*
Y241248D01*
X652998Y239415D01*
X647500D01*
X651165D02*
X654831Y235750D01*
X663995D02*
Y246746D01*
X658496Y241248D01*
X665827D01*
X676824Y246746D02*
X673158Y244914D01*
X669493Y241248D01*
Y237583D01*
X671326Y235750D01*
X674991D01*
X676824Y237583D01*
Y239415D01*
X674991Y241248D01*
X669493D01*
X580250Y248250D02*
Y259246D01*
X585748D01*
X587581Y257414D01*
Y253748D01*
X585748Y251915D01*
X580250D01*
X583915D02*
X587581Y248250D01*
X596745D02*
Y259246D01*
X591246Y253748D01*
X598577D01*
X607741Y248250D02*
Y259246D01*
X602243Y253748D01*
X609574D01*
X632500Y268250D02*
Y279247D01*
X637998D01*
X639831Y277414D01*
Y273748D01*
X637998Y271915D01*
X632500D01*
X636166D02*
X639831Y268250D01*
X648995D02*
Y279247D01*
X643496Y273748D01*
X650827D01*
X654493Y279247D02*
X661824D01*
Y277414D01*
X654493Y270083D01*
Y268250D01*
D11*
X1239300Y393300D02*
G03*
X1239300Y393300I-1250J0D01*
G01*
X1264800Y244300D02*
G03*
X1264800Y244300I-1250J0D01*
G01*
X1150800Y278300D02*
G03*
X1150800Y278300I-1250J0D01*
G01*
X1268550Y147550D02*
G03*
X1268550Y147550I-1250J0D01*
G01*
X1234050Y308050D02*
G03*
X1234050Y308050I-1250J0D01*
G01*
X1319300Y351300D02*
G03*
X1319300Y351300I-1250J0D01*
G01*
X1305300Y390550D02*
G03*
X1305300Y390550I-1250J0D01*
G01*
X1225250Y512250D02*
G03*
X1225250Y512250I-1250J0D01*
G01*
X1139300Y557884D02*
G03*
X1139300Y557884I-1250J0D01*
G01*
X908750Y61000D02*
G03*
X908750Y61000I-1250J0D01*
G01*
X1150800Y223550D02*
G03*
X1150800Y223550I-1250J0D01*
G01*
X1158300Y393550D02*
G03*
X1158300Y393550I-1250J0D01*
G01*
X967500Y423000D02*
G03*
X967500Y423000I-1250J0D01*
G01*
X1070500Y438250D02*
G03*
X1070500Y438250I-1250J0D01*
G01*
X1030878Y503692D02*
G03*
X1030878Y503692I-508J0D01*
G01*
X731750Y580000D02*
G03*
X731750Y580000I-1250J0D01*
G01*
X1247550Y695050D02*
G03*
X1247550Y695050I-1250J0D01*
G01*
X1012800Y630525D02*
G03*
X1012800Y630525I-1250J0D01*
G01*
X965500Y778000D02*
G03*
X965500Y778000I-1250J0D01*
G01*
X927250Y786750D02*
G03*
X927250Y786750I-1250J0D01*
G01*
X1156550Y136050D02*
G03*
X1156550Y136050I-1250J0D01*
G01*
X741000Y26500D02*
G03*
X741000Y26500I-1250J0D01*
G01*
X516000Y325000D02*
G03*
X516000Y325000I-1250J0D01*
G01*
X1310650Y785251D02*
G03*
X1310650Y785251I-1250J0D01*
G01*
X759375Y26500D02*
G03*
X759375Y26500I-1250J0D01*
G01*
X946000Y418750D02*
G03*
X946000Y418750I-1250J0D01*
G01*
X777750Y26500D02*
G03*
X777750Y26500I-1250J0D01*
G01*
X856500Y1003500D02*
X863500D01*
X1524000Y584250D02*
X1524000Y584250D01*
X1549000Y125500D02*
Y584250D01*
X1524000Y125500D02*
Y173450D01*
D12*
X924280Y530830D02*
G03*
X924280Y530830I-1500J0D01*
G01*
X1108120Y66030D02*
G03*
X1108120Y66030I-1500J0D01*
G01*
X712040Y486200D02*
G03*
X712040Y486200I-1500J0D01*
G01*
X1467980Y577970D02*
G03*
X1467980Y577970I-1500J0D01*
G01*
X1282420Y547530D02*
G03*
X1282420Y547530I-1500J0D01*
G01*
X745320Y644330D02*
G03*
X745320Y644330I-1500J0D01*
G01*
D13*
X574150Y743050D02*
G03*
X574150Y743050I-2500J0D01*
G01*
D14*
X1277800Y686550D02*
G03*
X1277800Y686550I-2500J0D01*
G01*
X382700Y460300D02*
X610700D01*
X382700Y500550D02*
X610700D01*
D15*
X916400Y768250D02*
G03*
X916400Y768250I-3000J0D01*
G01*
D16*
X882500Y414750D02*
X901500D01*
X882500Y379750D02*
Y414750D01*
Y379750D02*
X901500D01*
Y414750D01*
X845000Y414250D02*
X864000D01*
X845000Y379250D02*
Y414250D01*
Y379250D02*
X864000D01*
Y414250D01*
X973750Y882500D02*
X992750D01*
X973750Y847500D02*
Y882500D01*
Y847500D02*
X992750D01*
Y882500D01*
X948500D02*
X967500D01*
X948500Y847500D02*
Y882500D01*
Y847500D02*
X967500D01*
Y882500D01*
X903500Y889750D02*
Y908750D01*
Y889750D02*
X938500D01*
Y908750D01*
X903500D02*
X938500D01*
X903500Y945250D02*
Y964250D01*
Y945250D02*
X938500D01*
Y964250D01*
X903500D02*
X938500D01*
X1347000Y457000D02*
X1382000D01*
X1347000D02*
Y476000D01*
X1382000D01*
Y457000D02*
Y476000D01*
X1272750Y283550D02*
Y318550D01*
X1291750D01*
Y283550D02*
Y318550D01*
X1272750Y283550D02*
X1291750D01*
X1149800Y320800D02*
X1184800D01*
X1149800D02*
Y339800D01*
X1184800D01*
Y320800D02*
Y339800D01*
X1204800Y362750D02*
Y381750D01*
X1169800D02*
X1204800D01*
X1169800Y362750D02*
Y381750D01*
Y362750D02*
X1204800D01*
X1270250Y221750D02*
X1305250D01*
X1270250D02*
Y240750D01*
X1305250D01*
Y221750D02*
Y240750D01*
X1306800Y142800D02*
X1341800D01*
X1306800D02*
Y161800D01*
X1341800D01*
Y142800D02*
Y161800D01*
X1259500Y115250D02*
X1294500D01*
Y96250D02*
Y115250D01*
X1259500Y96250D02*
X1294500D01*
X1259500D02*
Y115250D01*
X1188231Y131732D02*
X1223231D01*
X1188231D02*
Y150732D01*
X1223231D01*
Y131732D02*
Y150732D01*
X1146500Y121250D02*
X1181500D01*
Y102250D02*
Y121250D01*
X1146500Y102250D02*
X1181500D01*
X1146500D02*
Y121250D01*
X1259500Y136250D02*
X1294500D01*
Y117250D02*
Y136250D01*
X1259500Y117250D02*
X1294500D01*
X1259500D02*
Y136250D01*
X1191500Y309250D02*
X1226500D01*
X1191500D02*
Y328250D01*
X1226500D01*
Y309250D02*
Y328250D01*
X1346800Y314050D02*
X1381800D01*
Y295050D02*
Y314050D01*
X1346800Y295050D02*
X1381800D01*
X1346800D02*
Y314050D01*
X1272750Y329500D02*
Y364500D01*
X1291750D01*
Y329500D02*
Y364500D01*
X1272750Y329500D02*
X1291750D01*
X1363300Y318800D02*
Y353800D01*
X1382300D01*
Y318800D02*
Y353800D01*
X1363300Y318800D02*
X1382300D01*
X1360500Y389250D02*
Y424250D01*
X1379500D01*
Y389250D02*
Y424250D01*
X1360500Y389250D02*
X1379500D01*
X1380500D02*
Y424250D01*
X1399500D01*
Y389250D02*
Y424250D01*
X1380500Y389250D02*
X1399500D01*
X1318750Y456750D02*
Y491750D01*
X1337750D01*
Y456750D02*
Y491750D01*
X1318750Y456750D02*
X1337750D01*
X1347000Y497000D02*
X1382000D01*
Y478000D02*
Y497000D01*
X1347000Y478000D02*
X1382000D01*
X1347000D02*
Y497000D01*
X1223500Y519250D02*
X1258500D01*
X1223500D02*
Y538250D01*
X1258500D01*
Y519250D02*
Y538250D01*
X947050Y58250D02*
X966050D01*
Y93250D01*
X947050D02*
X966050D01*
X947050Y58250D02*
Y93250D01*
X885050Y97250D02*
X920050D01*
X885050D02*
Y116250D01*
X920050D01*
Y97250D02*
Y116250D01*
X1054000Y210500D02*
X1089000D01*
X1054000D02*
Y229500D01*
X1089000D01*
Y210500D02*
Y229500D01*
X1054000Y229750D02*
X1089000D01*
X1054000D02*
Y248750D01*
X1089000D01*
Y229750D02*
Y248750D01*
X1054000Y249000D02*
X1089000D01*
X1054000D02*
Y268000D01*
X1089000D01*
Y249000D02*
Y268000D01*
X1054000Y268250D02*
X1089000D01*
X1054000D02*
Y287250D01*
X1089000D01*
Y268250D02*
Y287250D01*
X1054000Y287500D02*
X1089000D01*
X1054000D02*
Y306500D01*
X1089000D01*
Y287500D02*
Y306500D01*
X1054000Y306750D02*
X1089000D01*
X1054000D02*
Y325750D01*
X1089000D01*
Y306750D02*
Y325750D01*
X1054000Y326000D02*
X1089000D01*
X1054000D02*
Y345000D01*
X1089000D01*
Y326000D02*
Y345000D01*
X1054000Y345250D02*
X1089000D01*
X1054000D02*
Y364250D01*
X1089000D01*
Y345250D02*
Y364250D01*
X1132000Y400250D02*
Y435250D01*
X1151000D01*
Y400250D02*
Y435250D01*
X1132000Y400250D02*
X1151000D01*
X1164750Y503417D02*
X1199750D01*
Y484417D02*
Y503417D01*
X1164750Y484417D02*
X1199750D01*
X1164750D02*
Y503417D01*
X1132500Y446250D02*
Y481250D01*
X1151500D01*
Y446250D02*
Y481250D01*
X1132500Y446250D02*
X1151500D01*
X1164750Y523625D02*
X1199750D01*
Y504625D02*
Y523625D01*
X1164750Y504625D02*
X1199750D01*
X1164750D02*
Y523625D01*
Y543833D02*
X1199750D01*
Y524833D02*
Y543833D01*
X1164750Y524833D02*
X1199750D01*
X1164750D02*
Y543833D01*
X938500Y572250D02*
Y607250D01*
X919500Y572250D02*
X938500D01*
X919500D02*
Y607250D01*
X938500D01*
X832000Y559250D02*
Y594250D01*
X813000Y559250D02*
X832000D01*
X813000D02*
Y594250D01*
X832000D01*
X577250Y195750D02*
Y230750D01*
X596250D01*
Y195750D02*
Y230750D01*
X577250Y195750D02*
X596250D01*
X600875Y211500D02*
Y246500D01*
X619875D01*
Y211500D02*
Y246500D01*
X600875Y211500D02*
X619875D01*
X592000Y308750D02*
Y327750D01*
X557000D02*
X592000D01*
X557000Y308750D02*
Y327750D01*
Y308750D02*
X592000D01*
X1200500Y686250D02*
X1235500D01*
X1200500D02*
Y705250D01*
X1235500D01*
Y686250D02*
Y705250D01*
X1323500Y738250D02*
Y773250D01*
X1342500D01*
Y738250D02*
Y773250D01*
X1323500Y738250D02*
X1342500D01*
X1361550Y600550D02*
X1396550D01*
X1361550D02*
Y619550D01*
X1396550D01*
Y600550D02*
Y619550D01*
X1338000Y559250D02*
Y594250D01*
X1357000D01*
Y559250D02*
Y594250D01*
X1338000Y559250D02*
X1357000D01*
X1360550Y621550D02*
X1395550D01*
X1360550D02*
Y640550D01*
X1395550D01*
Y621550D02*
Y640550D01*
X1120954Y982590D02*
X1301562D01*
Y820919D02*
Y982590D01*
X1120954Y820919D02*
X1301562D01*
X1120954D02*
Y982590D01*
X1175630Y838250D02*
X1247750Y837750D01*
X1267888Y826888D02*
Y837482D01*
X1155112Y838120D02*
Y849138D01*
Y826888D02*
Y838120D01*
X1267888D02*
Y849138D01*
X1199500Y734250D02*
Y769250D01*
X1218500D01*
Y734250D02*
Y769250D01*
X1199500Y734250D02*
X1218500D01*
X884050Y58250D02*
Y93250D01*
X903050D01*
Y58250D02*
Y93250D01*
X884050Y58250D02*
X903050D01*
X1146500Y100250D02*
X1181500D01*
Y81250D02*
Y100250D01*
X1146500Y81250D02*
X1181500D01*
X1146500D02*
Y100250D01*
X534000Y348750D02*
X569000D01*
X534000D02*
Y367750D01*
X569000D01*
Y348750D02*
Y367750D01*
X728269Y505518D02*
X763269D01*
Y486518D02*
Y505518D01*
X728269Y486518D02*
X763269D01*
X728269D02*
Y505518D01*
X727000Y404250D02*
X762000D01*
X727000D02*
Y423250D01*
X762000D01*
Y404250D02*
Y423250D01*
X728000Y485250D02*
X763000D01*
Y466250D02*
Y485250D01*
X728000Y466250D02*
X763000D01*
X728000D02*
Y485250D01*
X644333Y305000D02*
Y340000D01*
X663333D01*
Y305000D02*
Y340000D01*
X644333Y305000D02*
X663333D01*
X728000Y545000D02*
X763000D01*
Y526000D02*
Y545000D01*
X728000Y526000D02*
X763000D01*
X728000D02*
Y545000D01*
X727750Y525750D02*
X762750D01*
Y506750D02*
Y525750D01*
X727750Y506750D02*
X762750D01*
X727750D02*
Y525750D01*
X720500Y211500D02*
Y246500D01*
X701500Y211500D02*
X720500D01*
X701500D02*
Y246500D01*
X720500D01*
X727500Y443500D02*
X762500D01*
Y424500D02*
Y443500D01*
X727500Y424500D02*
X762500D01*
X727500D02*
Y443500D01*
X640917Y305000D02*
Y340000D01*
X621917Y305000D02*
X640917D01*
X621917D02*
Y340000D01*
X640917D01*
X727750Y464750D02*
X762750D01*
Y445750D02*
Y464750D01*
X727750Y445750D02*
X762750D01*
X727750D02*
Y464750D01*
Y384000D02*
X762750D01*
X727750D02*
Y403000D01*
X762750D01*
Y384000D02*
Y403000D01*
X618500Y305000D02*
Y340000D01*
X599500Y305000D02*
X618500D01*
X599500D02*
Y340000D01*
X618500D01*
X666750Y305000D02*
Y340000D01*
X685750D01*
Y305000D02*
Y340000D01*
X666750Y305000D02*
X685750D01*
X903500Y881000D02*
X938500D01*
Y862000D02*
Y881000D01*
X903500Y862000D02*
X938500D01*
X903500D02*
Y881000D01*
X954250Y455500D02*
Y490500D01*
X935250Y455500D02*
X954250D01*
X935250D02*
Y490500D01*
X954250D01*
X903500Y936500D02*
X938500D01*
Y917500D02*
Y936500D01*
X903500Y917500D02*
X938500D01*
X903500D02*
Y936500D01*
X813500Y34250D02*
X848500D01*
X813500D02*
Y53250D01*
X848500D01*
Y34250D02*
Y53250D01*
X793500Y55250D02*
X828500D01*
X793500D02*
Y74250D01*
X828500D01*
Y55250D02*
Y74250D01*
X972500Y777250D02*
X991500D01*
Y812250D01*
X972500D02*
X991500D01*
X972500Y777250D02*
Y812250D01*
X808000Y744750D02*
X827000D01*
Y779750D01*
X808000D02*
X827000D01*
X808000Y744750D02*
Y779750D01*
X871500Y807250D02*
Y826250D01*
Y807250D02*
X906500D01*
Y826250D01*
X871500D02*
X906500D01*
X1381500Y228250D02*
Y247250D01*
X1346500D02*
X1381500D01*
X1346500Y228250D02*
Y247250D01*
Y228250D02*
X1381500D01*
X608500Y166250D02*
Y185250D01*
X573500D02*
X608500D01*
X573500Y166250D02*
Y185250D01*
Y166250D02*
X608500D01*
X1362250Y559250D02*
X1381250D01*
Y594250D01*
X1362250D02*
X1381250D01*
X1362250Y559250D02*
Y594250D01*
X938500Y834250D02*
Y853250D01*
X903500D02*
X938500D01*
X903500Y834250D02*
Y853250D01*
Y834250D02*
X938500D01*
X848500Y76250D02*
Y95250D01*
X813500D02*
X848500D01*
X813500Y76250D02*
Y95250D01*
Y76250D02*
X848500D01*
X765750Y100500D02*
Y119500D01*
X730750D02*
X765750D01*
X730750Y100500D02*
Y119500D01*
Y100500D02*
X765750D01*
X701750Y166500D02*
Y185500D01*
X666750D02*
X701750D01*
X666750Y166500D02*
Y185500D01*
Y166500D02*
X701750D01*
X765750Y79250D02*
Y98250D01*
X730750D02*
X765750D01*
X730750Y79250D02*
Y98250D01*
Y79250D02*
X765750D01*
X714750Y635750D02*
X733750D01*
X714750Y600750D02*
Y635750D01*
Y600750D02*
X733750D01*
Y635750D01*
X1348500Y883250D02*
Y902250D01*
X1313500D02*
X1348500D01*
X1313500Y883250D02*
Y902250D01*
Y883250D02*
X1348500D01*
X730750Y552750D02*
Y571750D01*
Y552750D02*
X765750D01*
Y571750D01*
X730750D02*
X765750D01*
X643500Y211500D02*
Y246500D01*
X624500Y211500D02*
X643500D01*
X624500D02*
Y246500D01*
X643500D01*
X579500Y261500D02*
Y280500D01*
Y261500D02*
X614500D01*
Y280500D01*
X579500D02*
X614500D01*
D17*
X969800Y471750D02*
Y479750D01*
X995200Y471750D02*
Y479750D01*
D18*
X962235Y143515D02*
Y153526D01*
X952224Y347985D02*
X962235D01*
X757765Y337974D02*
Y347985D01*
Y143515D02*
X767776D01*
X962235Y337974D02*
Y347985D01*
X757765D02*
X767776D01*
X757765Y143515D02*
Y153526D01*
X952224Y143515D02*
X962235D01*
D19*
X610700Y378550D02*
Y738550D01*
X381700Y378550D02*
X610700D01*
X381700D02*
Y738550D01*
X610700D01*
X1012875Y857523D02*
X1013827Y858000D01*
X1015255Y859428D01*
Y849430D01*
X1122600Y859547D02*
Y857881D01*
X1125932Y854548D01*
X1129265Y857881D01*
Y859547D01*
X1125932Y854548D02*
Y849550D01*
X1132597Y859547D02*
Y849550D01*
X1139261D01*
X1294364Y857881D02*
X1292698Y859547D01*
X1289366D01*
X1287700Y857881D01*
Y851216D01*
X1289366Y849550D01*
X1292698D01*
X1294364Y851216D01*
Y854548D01*
X1291032D01*
X1297697Y849550D02*
Y859547D01*
X1302695D01*
X1304361Y857881D01*
Y854548D01*
X1302695Y852882D01*
X1297697D01*
X1301029D02*
X1304361Y849550D01*
X716375Y125176D02*
X715423Y124700D01*
X713995Y123272D01*
Y133270D01*
D20*
X986111Y147710D02*
X977647Y156174D01*
X986111D02*
X977647Y147710D01*
X986111Y151942D02*
X977647D01*
X981879Y156174D02*
Y147710D01*
D21*
X628657Y632250D02*
X628173Y633217D01*
X626722Y634669D01*
X636880D01*
X626722Y644536D02*
X633494Y639699D01*
Y646955D01*
X626722Y644536D02*
X636880D01*
D22*
X905500Y454500D02*
D03*
M02*
