M48
;Layer_Color=9474304
;FILE_FORMAT=4:4
METRIC,TZ
;TYPE=PLATED
T1F00S00C0.3000
T2F00S00C0.5000
T3F00S00C0.7112
T4F00S00C0.8000
T5F00S00C0.9000
T6F00S00C1.0000
T7F00S00C1.1000
T8F00S00C1.2000
T9F00S00C1.3000
T10F00S00C1.6000
T11F00S00C1.8000
T12F00S00C2.0000
T13F00S00C3.0000
T14F00S00C3.2000
;TYPE=NON_PLATED
T15F00S00C3.2500
%
T01
X554250Y206250
X572500Y258000
X730768Y270012
X735000Y279250
X731000Y290000
X731500Y326000
X766250Y313250
X770500Y303500
X780500Y304000
X792000Y215750
X787500Y200750
X772499Y208250
X710000Y201750
X716750Y100000
X792500Y108250
X777500Y75750
X789999Y155750
X715250Y363250
X794999Y335749
X799500Y313250
X812000Y301750
X839500Y334000
X852000Y334750
X892500Y338000
X893500Y286000
X931500Y299750
X935000Y311000
X946750Y308250
X949250Y294250
X947250Y278750
X941534Y320766
X988250Y355250
X990030Y285263
X1004250Y292000
X1020000Y279750
X1003031Y264762
X996000Y250750
X995000Y190750
Y180750
X1015000Y195750
X1045000
Y213250
X1052499Y168250
X1067500Y138250
Y118250
Y98250
X1122500Y110750
X1130000Y133250
X1129750Y160250
X1155750Y126250
X1185000Y103250
X1189750Y185250
X1160750Y205250
X1157000Y231750
X1185000Y263250
X1147250Y282250
X1157250Y318250
X1147906Y341037
X1105500Y332000
X1095000Y336750
Y354750
X1092999Y299749
X1098998Y279750
X1096000Y257750
X1098000Y238750
X1097000Y219750
X1002197Y108553
X956250Y110000
X915277Y123255
X925550Y53200
X852000Y44750
X840000Y64750
X802500Y100750
X810000Y165750
X888000Y219750
X1190000Y351750
X1216000Y340750
X1249500Y334250
X1249800Y323750
X1240800Y302750
X1229320Y275428
X1259998Y273249
X1270000Y275750
X1287000Y262750
X1287000Y245500
X1266044Y237011
X1265500Y213750
X1278750Y220250
X1289748Y218250
X1248293Y203259
X1217500Y220750
X1200750Y185250
X1232500Y128250
X1247500Y120750
X1219998Y108250
X1236292Y396769
X1262000Y379750
X1307796Y381018
X1298795Y366517
X1300000Y351750
X1307000Y333750
X1372750Y362500
X1362000Y284750
X1370000Y443750
X1349000Y450750
X1344000Y465750
X1311250Y479250
X1304500Y497250
X1328000Y496750
X1264000Y501750
X1259750Y517368
X1255998Y547749
X1233000Y545750
X1212000Y538750
X1219998Y530749
X1201501Y563249
X1216998Y588749
X1215000Y598750
X1226788Y615277
X1233000Y625750
X1193000Y635750
X1221000Y675750
X1226000Y730750
X1248000Y755500
X1291000Y752750
X1289250Y688500
X1295500Y680750
X1304998Y674749
X1308998Y648749
X1308546Y621780
X1293998Y610749
X1284000Y612750
X1280544Y633530
X1268044Y646781
X1260000Y586750
X1288000Y589750
X1328000Y579500
X1338750Y555500
X1314998Y553249
X1347500Y595472
X1363000Y609750
X1342570Y630050
X1341832Y639550
X1384750Y653750
X1400000Y653250
X1380000Y542750
X1370000Y523750
X1389000Y431750
X1310500Y425000
X1315500Y415750
X1276998Y402749
X1205998Y427749
X1203000Y492750
X1248250Y484500
X1235000Y576750
X1162000Y558750
X1163998Y538749
X1164789Y512774
X1127000Y518000
X1099000Y513250
X1102036Y531275
X1089526Y500271
X1096527Y490521
X1114036Y486523
X1105660Y464750
X1112000Y436750
X1105000Y411750
X1086500Y416750
X1071750Y411750
X1054500Y422250
X1052000Y446500
X1015750Y473750
X1015639Y484637
X1026032Y400519
X997250Y400000
X886250Y423250
X888000Y444750
X892750Y454250
X927000Y510750
X951250Y610000
X972000Y607500
X958000Y679750
X963000Y706750
X955999Y756749
X926768Y756283
X926277Y738285
X906000Y706750
X879500Y724250
X875000Y758250
X908026Y772787
X820000Y783250
X817500Y735750
X866999Y683749
X929000Y670750
X1022000Y655500
X1035000Y667250
X1052000Y666500
X1058500Y675250
X1057000Y700500
X1102750Y699750
X1117500Y683250
X1085000Y675750
X1082250Y734250
X1160000Y711750
X1154000Y659750
X1167000Y654750
X1179000Y648750
X1171000Y639750
X1142500Y613250
X1142000Y666750
X1111000Y587750
X1054999Y565749
X1044500Y562500
X1177039Y473772
X1174039Y462772
X1190500Y397750
X818000Y426750
X794500Y430185
X788520Y422270
X781266Y415267
X761765Y414017
X766500Y494750
X772500Y515750
X784023Y512273
X661764Y444271
X620000Y875750
X860274Y840790
X892750Y845750
X922750Y857750
X912000Y884250
X957750Y884750
X983250Y910000
X930000Y941000
X939500Y828250
X950000Y835750
X964779Y835540
X974500Y832750
X908999Y805748
X891999Y803748
X1106000Y957750
X1278000Y858500
X1296500Y808750
T02
X516000Y245300
X505000Y261750
Y304750
X621000Y269750
X612000Y257750
X634000Y204750
X614000Y175750
X732250Y167000
X734750Y152500
X771520Y153507
X771500Y166750
X769750Y226250
X735250Y226000
X769019Y276263
X772770Y287263
X765519Y339766
X763519Y353517
X772270Y371767
X792000Y85250
X725767Y94504
X830000Y120500
X830250Y157750
X882525Y159257
X872500Y190750
X876250Y120500
X903999Y92750
X943250Y91500
X939028Y122505
X953000Y133750
X941750Y160500
X953028Y183258
X944250Y209500
X950250Y235750
X985500Y235500
X993030Y302014
X993750Y312000
X1013000Y322750
X951278Y316015
X943278Y336516
X940000Y372500
X959000Y389750
X873525Y371267
X873775Y335266
X825250Y335750
X825000Y370750
X1116286Y358267
X1100000Y290750
X1145000Y263750
X1185250Y221250
X1112000Y203750
X1139538Y89504
X1020000Y55750
X990000
X1215000Y125750
X1240000Y138500
X1227750Y166750
X1227000Y182250
X1213750Y174750
X1215000Y197250
X1210000Y252750
X1304000Y254750
X1311000Y230750
X1340000Y237750
X1349000Y185750
X1333000Y169750
X1307000
X1303998Y297749
X1304444Y308749
X1312000Y316750
X1346000Y314250
X1229292Y376768
X1244000Y473750
X1262998Y461749
X1262000Y488250
X1240000Y501750
X1207000Y478750
X1292000Y438750
X1342000Y439750
X1344000Y403750
X1357498Y553249
X1371750Y556500
X1304998Y565749
X1282500Y659250
X1269000Y695750
X1236042Y682282
X1347000Y660750
X1100000Y658250
X1088639Y605111
Y594111
X1096782Y569025
X1096000Y554750
X1120550Y560608
X1126287Y574777
X1166000Y574000
X1127537Y496524
X1062500Y494750
X1062250Y480500
X1054500Y487500
X1046750Y494250
X1047000Y480500
X1033000Y505500
X1005750Y524000
X1031000Y550750
X1021750Y575000
X952000Y522750
X956000Y494750
X980000Y481000
X979780Y470272
X1006250Y453000
X1024250Y418750
X968520Y424518
X956999Y428749
X903999Y418749
X874750Y410250
X853999Y715749
X890000Y756750
X949000Y724000
X952000Y667750
X980999Y757748
X967999Y779749
X1012500Y768250
X1024000Y750000
X1059000Y766750
X1098000Y761000
X768000Y562750
X697762Y478770
X687000Y467000
X671000Y449750
X841000Y805750
X859024Y812539
X941999Y798748
X1005000Y815750
X1017500Y808250
X1114750Y819250
X1131787Y837790
X1117750Y869500
X1165539Y850541
X1176539Y860791
T03
X708750Y36000
X568000Y206750
X552250Y333500
X1031950Y466300
X955775Y561774
X726000Y643500
X708250Y449750
X693000Y403750
T04
X847350Y851100
Y870150
Y889200
Y908250
Y927300
X872750
Y908250
Y889200
Y870150
Y851100
T05
X1111700Y48250
X1137100
X1162500
X1187900
X1171800Y162550
X1283800Y174050
X1289500Y48250
X1264100
X1238700
X1213300
X1439600Y275050
Y302450
Y329850
Y357250
Y384650
X1465000Y370950
Y343550
Y316150
Y288750
Y398350
Y425750
Y453150
X1439600Y439450
Y466850
Y412050
X863500Y447750
X831500
Y479750
Y501750
Y523750
X863500
Y501750
Y479750
X847700Y617650
X822300
X892300
X917700
Y693850
X892300
X847700
X822300
X1186100Y882570
X1175940Y900350
X1196260
X1216580
X1236900
X1247060Y882570
X1226740
X1206420
T06
X1132550Y197050
X1246550Y217800
X1255050Y419800
X1286000Y529750
X1311400
X1436000Y595750
X1461400
X1424500Y692250
Y737250
X795400Y790350
X905000Y525750
Y500350
X676250Y511600
Y537000
Y562400
Y587800
X650850
Y562400
Y537000
Y511600
Y486200
X676250
Y613200
Y638600
X650850
Y613200
X748900Y626550
X774300
X744600Y790350
X682900
X632100
Y841150
X682900
X744600
X795400
T07
X417500Y338250
X471000
X690000Y245750
X642000Y178500
X1020000Y145750
X1050000Y68250
X1151750Y373500
X1350000Y384750
X1407000Y345750
X1325000Y248750
X1226000Y439750
X1216250Y558000
X1265750
X1370000Y670750
X1367500Y708250
X892500Y558250
X865000
T08
X624450Y145250
X649850Y145200
X675250Y145250
X700650Y145200
X712500Y931000
X747500
X782500
X677500
X1024600Y836750
X1050000Y836700
X1075400Y836750
T09
X1399500Y679750
Y749750
T10
X1130474Y891460
X1292526
T11
X458100Y406350
X572400
Y710750
X510000
X480000
X450000
X420000
T12
X440000Y245300
T13
X540000Y115750
X1390000
X540000Y815750
X1390000
T14
X1452300Y204450
Y537450
T15
X1148000Y925750
X1275000
M30
